<svg width="14" height="14" viewBox="0 0 14 14" fill="none" xmlns="http://www.w3.org/2000/svg">
<path d="M4.08203 8.75H9.91536V11.0833C9.91536 11.3928 9.79245 11.6895 9.57366 11.9083C9.35486 12.1271 9.05812 12.25 8.7487 12.25H5.2487C4.93928 12.25 4.64253 12.1271 4.42374 11.9083C4.20495 11.6895 4.08203 11.3928 4.08203 11.0833V8.75Z" stroke="black" stroke-linecap="round" stroke-linejoin="round"/>
<path d="M7 5.25C7 4.32174 6.63125 3.4315 5.97487 2.77513C5.3185 2.11875 4.42826 1.75 3.5 1.75H1.75V2.91667C1.75 3.84492 2.11875 4.73516 2.77513 5.39154C3.4315 6.04792 4.32174 6.41667 5.25 6.41667H7" stroke="black" stroke-linecap="round" stroke-linejoin="round"/>
<path d="M7 6.41675C7 5.48849 7.36875 4.59825 8.02513 3.94187C8.6815 3.2855 9.57174 2.91675 10.5 2.91675H12.25V3.50008C12.25 4.42834 11.8813 5.31858 11.2249 5.97496C10.5685 6.63133 9.67826 7.00008 8.75 7.00008H7" stroke="black" stroke-linecap="round" stroke-linejoin="round"/>
<path d="M7 8.75V5.25" stroke="black" stroke-linecap="round" stroke-linejoin="round"/>
</svg>
