<svg width="14" height="14" viewBox="0 0 14 14" fill="none" xmlns="http://www.w3.org/2000/svg">
<path d="M10.5013 4.08325L9.91797 4.66659" stroke="black" stroke-linecap="round" stroke-linejoin="round"/>
<path d="M8.16797 6.41667H8.7513C9.06072 6.41667 9.35747 6.53958 9.57626 6.75838C9.79505 6.97717 9.91797 7.27391 9.91797 7.58333V9.33333C9.91797 9.5654 10.0102 9.78796 10.1743 9.95205C10.3383 10.1161 10.5609 10.2083 10.793 10.2083C11.025 10.2083 11.2476 10.1161 11.4117 9.95205C11.5758 9.78796 11.668 9.5654 11.668 9.33333V5.25L9.91797 3.5" stroke="black" stroke-linecap="round" stroke-linejoin="round"/>
<path d="M2.33203 11.6666V3.49992C2.33203 3.1905 2.45495 2.89375 2.67374 2.67496C2.89253 2.45617 3.18928 2.33325 3.4987 2.33325H6.9987C7.30812 2.33325 7.60486 2.45617 7.82366 2.67496C8.04245 2.89375 8.16536 3.1905 8.16536 3.49992V11.6666" stroke="black" stroke-linecap="round" stroke-linejoin="round"/>
<path d="M5.25 6.70825L4.375 8.16659H6.125L5.25 9.62492" stroke="black" stroke-linecap="round" stroke-linejoin="round"/>
<path d="M1.75 11.6667H8.75" stroke="black" stroke-linecap="round" stroke-linejoin="round"/>
<path d="M2.33203 4.66675H8.16536" stroke="black" stroke-linecap="round" stroke-linejoin="round"/>
</svg>
