<svg width="14" height="14" viewBox="0 0 14 14" fill="none" xmlns="http://www.w3.org/2000/svg">
<path d="M2.91797 7.58333C2.91797 8.11956 3.02359 8.65055 3.22879 9.14596C3.434 9.64137 3.73478 10.0915 4.11395 10.4707C4.49312 10.8499 4.94327 11.1506 5.43868 11.3558C5.93409 11.561 6.46507 11.6667 7.0013 11.6667C7.53753 11.6667 8.06851 11.561 8.56393 11.3558C9.05934 11.1506 9.50948 10.8499 9.88866 10.4707C10.2678 10.0915 10.5686 9.64137 10.7738 9.14596C10.979 8.65055 11.0846 8.11956 11.0846 7.58333C11.0846 6.50037 10.6544 5.46175 9.88866 4.69598C9.12288 3.93021 8.08427 3.5 7.0013 3.5C5.91833 3.5 4.87972 3.93021 4.11395 4.69598C3.34818 5.46175 2.91797 6.50037 2.91797 7.58333Z" stroke="black" stroke-linecap="round" stroke-linejoin="round"/>
<path d="M8.45833 6.125L7 7.58333" stroke="black" stroke-linecap="round" stroke-linejoin="round"/>
<path d="M9.91797 4.66659L10.5013 4.08325" stroke="black" stroke-linecap="round" stroke-linejoin="round"/>
<path d="M8.16536 1.75H5.83203" stroke="black" stroke-linecap="round" stroke-linejoin="round"/>
</svg>
