<svg width="14" height="14" viewBox="0 0 14 14" fill="none" xmlns="http://www.w3.org/2000/svg">
<path d="M5.83203 2.91667C5.83203 3.22609 5.95495 3.52283 6.17374 3.74162C6.39253 3.96042 6.68928 4.08333 6.9987 4.08333C7.30812 4.08333 7.60486 3.96042 7.82366 3.74162C8.04245 3.52283 8.16536 3.22609 8.16536 2.91667C8.16536 2.60725 8.04245 2.3105 7.82366 2.09171C7.60486 1.87292 7.30812 1.75 6.9987 1.75C6.68928 1.75 6.39253 1.87292 6.17374 2.09171C5.95495 2.3105 5.83203 2.60725 5.83203 2.91667Z" stroke="black" stroke-linecap="round" stroke-linejoin="round"/>
<path d="M3.5 6.99999C3.5 7.30941 3.62292 7.60616 3.84171 7.82495C4.0605 8.04374 4.35725 8.16666 4.66667 8.16666C4.97609 8.16666 5.27283 8.04374 5.49162 7.82495C5.71042 7.60616 5.83333 7.30941 5.83333 6.99999C5.83333 6.69058 5.71042 6.39383 5.49162 6.17504C5.27283 5.95624 4.97609 5.83333 4.66667 5.83333C4.35725 5.83333 4.0605 5.95624 3.84171 6.17504C3.62292 6.39383 3.5 6.69058 3.5 6.99999Z" stroke="black" stroke-linecap="round" stroke-linejoin="round"/>
<path d="M5.83203 11.0833C5.83203 11.3928 5.95495 11.6895 6.17374 11.9083C6.39253 12.1271 6.68928 12.25 6.9987 12.25C7.30812 12.25 7.60486 12.1271 7.82366 11.9083C8.04245 11.6895 8.16536 11.3928 8.16536 11.0833C8.16536 10.7739 8.04245 10.4772 7.82366 10.2584C7.60486 10.0396 7.30812 9.91667 6.9987 9.91667C6.68928 9.91667 6.39253 10.0396 6.17374 10.2584C5.95495 10.4772 5.83203 10.7739 5.83203 11.0833Z" stroke="black" stroke-linecap="round" stroke-linejoin="round"/>
<path d="M10.5 11.0833C10.5 11.3928 10.6229 11.6895 10.8417 11.9083C11.0605 12.1271 11.3572 12.25 11.6667 12.25C11.9761 12.25 12.2728 12.1271 12.4916 11.9083C12.7104 11.6895 12.8333 11.3928 12.8333 11.0833C12.8333 10.7739 12.7104 10.4772 12.4916 10.2584C12.2728 10.0396 11.9761 9.91667 11.6667 9.91667C11.3572 9.91667 11.0605 10.0396 10.8417 10.2584C10.6229 10.4772 10.5 10.7739 10.5 11.0833Z" stroke="black" stroke-linecap="round" stroke-linejoin="round"/>
<path d="M1.16797 11.0833C1.16797 11.3928 1.29089 11.6895 1.50968 11.9083C1.72847 12.1271 2.02522 12.25 2.33464 12.25C2.64405 12.25 2.9408 12.1271 3.15959 11.9083C3.37839 11.6895 3.5013 11.3928 3.5013 11.0833C3.5013 10.7739 3.37839 10.4772 3.15959 10.2584C2.9408 10.0396 2.64405 9.91667 2.33464 9.91667C2.02522 9.91667 1.72847 10.0396 1.50968 10.2584C1.29089 10.4772 1.16797 10.7739 1.16797 11.0833Z" stroke="black" stroke-linecap="round" stroke-linejoin="round"/>
<path d="M8.16797 6.99999C8.16797 7.30941 8.29089 7.60616 8.50968 7.82495C8.72847 8.04374 9.02522 8.16666 9.33464 8.16666C9.64405 8.16666 9.9408 8.04374 10.1596 7.82495C10.3784 7.60616 10.5013 7.30941 10.5013 6.99999C10.5013 6.69058 10.3784 6.39383 10.1596 6.17504C9.9408 5.95624 9.64405 5.83333 9.33464 5.83333C9.02522 5.83333 8.72847 5.95624 8.50968 6.17504C8.29089 6.39383 8.16797 6.69058 8.16797 6.99999Z" stroke="black" stroke-linecap="round" stroke-linejoin="round"/>
<path d="M2.91797 9.91667L4.08464 8.16667" stroke="black" stroke-linecap="round" stroke-linejoin="round"/>
<path d="M5.25 5.83333L6.41667 4.08333" stroke="black" stroke-linecap="round" stroke-linejoin="round"/>
<path d="M7.58203 4.08333L8.7487 5.83333" stroke="black" stroke-linecap="round" stroke-linejoin="round"/>
<path d="M9.91797 8.16667L11.0846 9.91667" stroke="black" stroke-linecap="round" stroke-linejoin="round"/>
<path d="M8.7487 8.16667L7.58203 9.91667" stroke="black" stroke-linecap="round" stroke-linejoin="round"/>
<path d="M5.25 8.16667L6.41667 9.91667" stroke="black" stroke-linecap="round" stroke-linejoin="round"/>
</svg>
