<svg width="14" height="14" viewBox="0 0 14 14" fill="none" xmlns="http://www.w3.org/2000/svg">
<g clip-path="url(#clip0_5409_1290)">
<path d="M7.92297 8.04417C8.08047 8.44084 8.16797 8.87834 8.16797 9.33334C8.16797 10.3658 7.7188 11.2992 7.0013 11.935C6.36273 12.5149 5.53055 12.8353 4.66797 12.8333C2.73714 12.8333 1.16797 11.2642 1.16797 9.33334C1.16797 7.72334 2.26464 6.35834 3.7463 5.95584" stroke="black" stroke-linecap="round" stroke-linejoin="round"/>
<path d="M10.255 5.95584C11.7367 6.35834 12.8333 7.72334 12.8333 9.33334C12.8333 11.2642 11.2642 12.8333 9.33333 12.8333C8.47076 12.8353 7.63857 12.5149 7 11.935" stroke="black" stroke-linecap="round" stroke-linejoin="round"/>
<path d="M3.5 4.66667C3.5 5.59493 3.86875 6.48517 4.52513 7.14155C5.1815 7.79792 6.07174 8.16667 7 8.16667C7.92826 8.16667 8.8185 7.79792 9.47487 7.14155C10.1313 6.48517 10.5 5.59493 10.5 4.66667C10.5 3.73841 10.1313 2.84818 9.47487 2.1918C8.8185 1.53542 7.92826 1.16667 7 1.16667C6.07174 1.16667 5.1815 1.53542 4.52513 2.1918C3.86875 2.84818 3.5 3.73841 3.5 4.66667Z" stroke="black" stroke-linecap="round" stroke-linejoin="round"/>
</g>
<defs>
<clipPath id="clip0_5409_1290">
<rect width="14" height="14" fill="white"/>
</clipPath>
</defs>
</svg>
