<svg width="14" height="14" viewBox="0 0 14 14" fill="none" xmlns="http://www.w3.org/2000/svg">
<path d="M2.33203 2.91668C2.33203 2.76197 2.39349 2.61359 2.50289 2.5042C2.61228 2.3948 2.76065 2.33334 2.91536 2.33334H5.2487C5.40341 2.33334 5.55178 2.3948 5.66118 2.5042C5.77057 2.61359 5.83203 2.76197 5.83203 2.91668V5.25001C5.83203 5.40472 5.77057 5.55309 5.66118 5.66249C5.55178 5.77189 5.40341 5.83334 5.2487 5.83334H2.91536C2.76065 5.83334 2.61228 5.77189 2.50289 5.66249C2.39349 5.55309 2.33203 5.40472 2.33203 5.25001V2.91668Z" stroke="black" stroke-linecap="round" stroke-linejoin="round"/>
<path d="M2.33203 8.74999C2.33203 8.59528 2.39349 8.44691 2.50289 8.33751C2.61228 8.22811 2.76065 8.16666 2.91536 8.16666H5.2487C5.40341 8.16666 5.55178 8.22811 5.66118 8.33751C5.77057 8.44691 5.83203 8.59528 5.83203 8.74999V11.0833C5.83203 11.238 5.77057 11.3864 5.66118 11.4958C5.55178 11.6052 5.40341 11.6667 5.2487 11.6667H2.91536C2.76065 11.6667 2.61228 11.6052 2.50289 11.4958C2.39349 11.3864 2.33203 11.238 2.33203 11.0833V8.74999Z" stroke="black" stroke-linecap="round" stroke-linejoin="round"/>
<path d="M8.16797 8.74999C8.16797 8.59528 8.22943 8.44691 8.33882 8.33751C8.44822 8.22811 8.59659 8.16666 8.7513 8.16666H11.0846C11.2393 8.16666 11.3877 8.22811 11.4971 8.33751C11.6065 8.44691 11.668 8.59528 11.668 8.74999V11.0833C11.668 11.238 11.6065 11.3864 11.4971 11.4958C11.3877 11.6052 11.2393 11.6667 11.0846 11.6667H8.7513C8.59659 11.6667 8.44822 11.6052 8.33882 11.4958C8.22943 11.3864 8.16797 11.238 8.16797 11.0833V8.74999Z" stroke="black" stroke-linecap="round" stroke-linejoin="round"/>
<path d="M8.16797 4.08334H11.668" stroke="black" stroke-linecap="round" stroke-linejoin="round"/>
<path d="M9.91797 2.33334V5.83334" stroke="black" stroke-linecap="round" stroke-linejoin="round"/>
</svg>
