<svg width="14" height="14" viewBox="0 0 14 14" fill="none" xmlns="http://www.w3.org/2000/svg">
<path d="M4.25391 11.8025C6.01382 12.9814 8.32732 12.9814 10.0872 11.8025" stroke="black" stroke-linecap="round" stroke-linejoin="round"/>
<path d="M4.85006 2.72998C2.94956 3.66448 1.79281 5.66823 1.93339 7.78165" stroke="black" stroke-linecap="round" stroke-linejoin="round"/>
<path d="M9.49219 2.72998C11.3927 3.66448 12.5494 5.66823 12.4089 7.78165" stroke="black" stroke-linecap="round" stroke-linejoin="round"/>
<path d="M3.24372 9.44427C3.58543 9.78598 3.58543 10.34 3.24372 10.6817C2.90201 11.0234 2.34799 11.0234 2.00628 10.6817C1.66457 10.34 1.66457 9.78598 2.00628 9.44427C2.34799 9.10256 2.90201 9.10256 3.24372 9.44427" stroke="black" stroke-linecap="round" stroke-linejoin="round"/>
<path d="M12.3336 9.44427C12.6753 9.78598 12.6753 10.34 12.3336 10.6817C11.9919 11.0234 11.4378 11.0234 11.0961 10.6817C10.7544 10.34 10.7544 9.78598 11.0961 9.44427C11.4378 9.10256 11.9919 9.10256 12.3336 9.44427" stroke="black" stroke-linecap="round" stroke-linejoin="round"/>
<path fill-rule="evenodd" clip-rule="evenodd" d="M9.42968 7.92334L7.74209 5.18051C7.48018 4.75526 6.86184 4.75526 6.60051 5.18051L4.91293 7.92334C4.63818 8.37018 4.95959 8.94476 5.48401 8.94476H8.85918C9.38301 8.94476 9.70443 8.37018 9.42968 7.92334V7.92334Z" stroke="black" stroke-linecap="round" stroke-linejoin="round"/>
<path d="M7.78669 1.56927C8.1284 1.91098 8.1284 2.465 7.78669 2.80671C7.44498 3.14841 6.89096 3.14841 6.54925 2.80671C6.20754 2.465 6.20754 1.91098 6.54925 1.56927C6.89096 1.22756 7.44498 1.22756 7.78669 1.56927" stroke="black" stroke-linecap="round" stroke-linejoin="round"/>
</svg>
