<svg width="14" height="14" viewBox="0 0 14 14" fill="none" xmlns="http://www.w3.org/2000/svg">
<path d="M4.08203 11.6667H9.91536" stroke="black" stroke-linecap="round" stroke-linejoin="round"/>
<path d="M3.5 3.50008L7 2.91675L10.5 3.50008" stroke="black" stroke-linecap="round" stroke-linejoin="round"/>
<path d="M7 1.75V11.6667" stroke="black" stroke-linecap="round" stroke-linejoin="round"/>
<path d="M5.25 7L3.5 3.5L1.75 7C1.75 7.46413 1.93437 7.90925 2.26256 8.23744C2.59075 8.56563 3.03587 8.75 3.5 8.75C3.96413 8.75 4.40925 8.56563 4.73744 8.23744C5.06563 7.90925 5.25 7.46413 5.25 7Z" stroke="black" stroke-linecap="round" stroke-linejoin="round"/>
<path d="M12.25 7L10.5 3.5L8.75 7C8.75 7.46413 8.93437 7.90925 9.26256 8.23744C9.59075 8.56563 10.0359 8.75 10.5 8.75C10.9641 8.75 11.4092 8.56563 11.7374 8.23744C12.0656 7.90925 12.25 7.46413 12.25 7Z" stroke="black" stroke-linecap="round" stroke-linejoin="round"/>
</svg>
