<svg width="15" height="14" viewBox="0 0 15 14" fill="none" xmlns="http://www.w3.org/2000/svg">
<path d="M8.61503 10.5283C8.35072 10.2082 7.94889 10.0038 7.49892 10.0038C7.05115 10.0038 6.65108 10.2061 6.38672 10.5236" stroke="black" stroke-linecap="round" stroke-linejoin="round"/>
<path d="M9.45767 8.00933C9.77084 8.00933 10.0247 7.75546 10.0247 7.44229C10.0247 7.12912 9.77084 6.87524 9.45767 6.87524C9.1445 6.87524 8.89062 7.12912 8.89062 7.44229C8.89062 7.75546 9.1445 8.00933 9.45767 8.00933Z" stroke="black" stroke-linecap="round" stroke-linejoin="round"/>
<path d="M5.68033 8.00933C5.9935 8.00933 6.24737 7.75546 6.24737 7.44229C6.24737 7.12912 5.9935 6.87524 5.68033 6.87524C5.36716 6.87524 5.11328 7.12912 5.11328 7.44229C5.11328 7.75546 5.36716 8.00933 5.68033 8.00933Z" stroke="black" stroke-linecap="round" stroke-linejoin="round"/>
<path d="M12.3086 10.1006H13.0265C13.8394 10.1006 14.4984 9.44159 14.4984 8.62866C14.4984 7.81576 13.8394 7.15674 13.0265 7.15674H12.3086" stroke="black" stroke-linecap="round" stroke-linejoin="round"/>
<path d="M11.1638 12.5219H3.83946C3.20539 12.5219 2.69141 12.008 2.69141 11.3739V7.03146C2.69141 5.76336 3.71941 4.73535 4.98751 4.73535H10.0157C11.2838 4.73535 12.3118 5.76336 12.3118 7.03146V11.3739C12.3118 12.008 11.7978 12.5219 11.1638 12.5219Z" stroke="black" stroke-linecap="round" stroke-linejoin="round"/>
<path d="M2.68976 10.1005H1.97192C1.15898 10.1005 0.5 9.44156 0.5 8.62866C0.5 7.81576 1.15898 7.15674 1.97192 7.15674H2.6898" stroke="black" stroke-linecap="round" stroke-linejoin="round"/>
<path d="M7.50167 2.94279C7.97505 2.94279 8.3588 2.55904 8.3588 2.08565C8.3588 1.61227 7.97505 1.22852 7.50167 1.22852C7.02828 1.22852 6.64453 1.61227 6.64453 2.08565C6.64453 2.55904 7.02828 2.94279 7.50167 2.94279Z" stroke="black" stroke-linecap="round" stroke-linejoin="round"/>
<path d="M7.5 2.94287V4.73502" stroke="black" stroke-linecap="round" stroke-linejoin="round"/>
</svg>
