<svg width="14" height="14" viewBox="0 0 14 14" fill="none" xmlns="http://www.w3.org/2000/svg">
<path d="M7 12.3118C5.60761 12.3118 4.27226 11.7586 3.28769 10.7741C2.30312 9.78951 1.75 8.45415 1.75 7.06177C1.75 5.66938 2.30312 4.33402 3.28769 3.34946C4.27226 2.36489 5.60761 1.81177 7 1.81177C9.89917 1.81177 12.25 3.90127 12.25 6.47843C12.25 7.09677 11.9735 7.6906 11.4812 8.1281C10.9888 8.5656 10.3209 8.81177 9.625 8.81177H8.16667C7.90642 8.80757 7.65224 8.89053 7.44457 9.04743C7.2369 9.20434 7.08766 9.42618 7.0206 9.67768C6.95353 9.92917 6.97249 10.1959 7.07446 10.4353C7.17643 10.6748 7.35555 10.8733 7.58333 10.9993C7.6998 11.1067 7.77968 11.248 7.81173 11.4032C7.84379 11.5584 7.82641 11.7198 7.76204 11.8646C7.69768 12.0094 7.58956 12.1304 7.45288 12.2106C7.3162 12.2908 7.15782 12.3262 7 12.3118Z" stroke="black" stroke-linecap="round" stroke-linejoin="round"/>
<path d="M4.375 6.18685C4.375 6.34156 4.43646 6.48993 4.54585 6.59933C4.65525 6.70872 4.80362 6.77018 4.95833 6.77018C5.11304 6.77018 5.26142 6.70872 5.37081 6.59933C5.48021 6.48993 5.54167 6.34156 5.54167 6.18685C5.54167 6.03214 5.48021 5.88377 5.37081 5.77437C5.26142 5.66497 5.11304 5.60352 4.95833 5.60352C4.80362 5.60352 4.65525 5.66497 4.54585 5.77437C4.43646 5.88377 4.375 6.03214 4.375 6.18685Z" stroke="black" stroke-linecap="round" stroke-linejoin="round"/>
<path d="M6.70703 4.43685C6.70703 4.59156 6.76849 4.73993 6.87789 4.84933C6.98728 4.95872 7.13565 5.02018 7.29036 5.02018C7.44507 5.02018 7.59345 4.95872 7.70284 4.84933C7.81224 4.73993 7.8737 4.59156 7.8737 4.43685C7.8737 4.28214 7.81224 4.13377 7.70284 4.02437C7.59345 3.91497 7.44507 3.85352 7.29036 3.85352C7.13565 3.85352 6.98728 3.91497 6.87789 4.02437C6.76849 4.13377 6.70703 4.28214 6.70703 4.43685Z" stroke="black" stroke-linecap="round" stroke-linejoin="round"/>
<path d="M9.04297 6.18685C9.04297 6.34156 9.10443 6.48993 9.21382 6.59933C9.32322 6.70872 9.47159 6.77018 9.6263 6.77018C9.78101 6.77018 9.92939 6.70872 10.0388 6.59933C10.1482 6.48993 10.2096 6.34156 10.2096 6.18685C10.2096 6.03214 10.1482 5.88377 10.0388 5.77437C9.92939 5.66497 9.78101 5.60352 9.6263 5.60352C9.47159 5.60352 9.32322 5.66497 9.21382 5.77437C9.10443 5.88377 9.04297 6.03214 9.04297 6.18685Z" stroke="black" stroke-linecap="round" stroke-linejoin="round"/>
</svg>
