<svg width="24" height="24" viewBox="0 0 24 24" fill="none" xmlns="http://www.w3.org/2000/svg">
<path d="M9 19.1059C4.7 20.5059 4.7 16.6059 3 16.1059M15 21.1059V17.6059C15 16.6059 15.1 16.2059 14.5 15.6059C17.3 15.3059 20 14.2059 20 9.60591C19.9988 8.41087 19.5325 7.26322 18.7 6.40591C19.0905 5.36787 19.0545 4.21754 18.6 3.20591C18.6 3.20591 17.5 2.90591 15.1 4.50591C13.0672 3.9765 10.9328 3.9765 8.9 4.50591C6.5 2.90591 5.4 3.20591 5.4 3.20591C4.94548 4.21754 4.90953 5.36787 5.3 6.40591C4.46745 7.26322 4.00122 8.41087 4 9.60591C4 14.2059 6.7 15.3059 9.5 15.6059C8.9 16.2059 8.9 16.8059 9 17.6059V21.1059" stroke="black" stroke-linecap="round" stroke-linejoin="round"/>
</svg>
