<svg width="14" height="14" viewBox="0 0 14 14" fill="none" xmlns="http://www.w3.org/2000/svg">
<path d="M2.33203 8.52016L4.66536 6.18683" stroke="black" stroke-linecap="round" stroke-linejoin="round"/>
<path d="M5.53906 11.7285L7.87473 9.39514" stroke="black" stroke-linecap="round" stroke-linejoin="round"/>
<path d="M2.67578 11.3866L4.95895 9.10345" stroke="black" stroke-linecap="round" stroke-linejoin="round"/>
<path d="M4.66797 3.56181C4.66797 3.25239 4.79089 2.95564 5.00968 2.73685C5.22847 2.51806 5.52522 2.39514 5.83464 2.39514H10.5013C10.8107 2.39514 11.1075 2.51806 11.3263 2.73685C11.5451 2.95564 11.668 3.25239 11.668 3.56181V8.22847C11.668 8.53789 11.5451 8.83464 11.3263 9.05343C11.1075 9.27222 10.8107 9.39514 10.5013 9.39514H5.83464C5.52522 9.39514 5.22847 9.27222 5.00968 9.05343C4.79089 8.83464 4.66797 8.53789 4.66797 8.22847V3.56181Z" stroke="black" stroke-linecap="round" stroke-linejoin="round"/>
<path d="M9.33203 9.39512V10.5618C9.33203 10.8712 9.20911 11.168 8.99032 11.3867C8.77153 11.6055 8.47478 11.7285 8.16536 11.7285H3.4987C3.18928 11.7285 2.89253 11.6055 2.67374 11.3867C2.45495 11.168 2.33203 10.8712 2.33203 10.5618V5.89512C2.33203 5.5857 2.45495 5.28896 2.67374 5.07016C2.89253 4.85137 3.18928 4.72845 3.4987 4.72845H4.66536" stroke="black" stroke-linecap="round" stroke-linejoin="round"/>
</svg>
