<svg width="14" height="14" viewBox="0 0 14 14" fill="none" xmlns="http://www.w3.org/2000/svg">
<path d="M2.33203 5.83341C2.33203 6.14283 2.45495 6.43958 2.67374 6.65837C2.89253 6.87716 3.18928 7.00008 3.4987 7.00008C3.80812 7.00008 4.10486 6.87716 4.32366 6.65837C4.54245 6.43958 4.66536 6.14283 4.66536 5.83341C4.66536 5.524 4.54245 5.22725 4.32366 5.00846C4.10486 4.78966 3.80812 4.66675 3.4987 4.66675C3.18928 4.66675 2.89253 4.78966 2.67374 5.00846C2.45495 5.22725 2.33203 5.524 2.33203 5.83341Z" stroke="black" stroke-linecap="round" stroke-linejoin="round"/>
<path d="M3.5 2.33325V4.66659" stroke="black" stroke-linecap="round" stroke-linejoin="round"/>
<path d="M3.5 7V11.6667" stroke="black" stroke-linecap="round" stroke-linejoin="round"/>
<path d="M5.83203 9.33341C5.83203 9.64283 5.95495 9.93958 6.17374 10.1584C6.39253 10.3772 6.68928 10.5001 6.9987 10.5001C7.30812 10.5001 7.60486 10.3772 7.82366 10.1584C8.04245 9.93958 8.16536 9.64283 8.16536 9.33341C8.16536 9.024 8.04245 8.72725 7.82366 8.50846C7.60486 8.28966 7.30812 8.16675 6.9987 8.16675C6.68928 8.16675 6.39253 8.28966 6.17374 8.50846C5.95495 8.72725 5.83203 9.024 5.83203 9.33341Z" stroke="black" stroke-linecap="round" stroke-linejoin="round"/>
<path d="M7 2.33325V8.16659" stroke="black" stroke-linecap="round" stroke-linejoin="round"/>
<path d="M7 10.5V11.6667" stroke="black" stroke-linecap="round" stroke-linejoin="round"/>
<path d="M9.33203 4.08341C9.33203 4.39283 9.45495 4.68958 9.67374 4.90837C9.89253 5.12716 10.1893 5.25008 10.4987 5.25008C10.8081 5.25008 11.1049 5.12716 11.3237 4.90837C11.5424 4.68958 11.6654 4.39283 11.6654 4.08341C11.6654 3.774 11.5424 3.47725 11.3237 3.25846C11.1049 3.03966 10.8081 2.91675 10.4987 2.91675C10.1893 2.91675 9.89253 3.03966 9.67374 3.25846C9.45495 3.47725 9.33203 3.774 9.33203 4.08341Z" stroke="black" stroke-linecap="round" stroke-linejoin="round"/>
<path d="M10.5 2.33325V2.91659" stroke="black" stroke-linecap="round" stroke-linejoin="round"/>
<path d="M10.5 5.25V11.6667" stroke="black" stroke-linecap="round" stroke-linejoin="round"/>
</svg>
