<svg width="14" height="14" viewBox="0 0 14 14" fill="none" xmlns="http://www.w3.org/2000/svg">
<path d="M1.75 1.75V12.25H12.25" stroke="black" stroke-linecap="round" stroke-linejoin="round"/>
<path d="M4.08203 8.74992C4.08203 9.05934 4.20495 9.35608 4.42374 9.57488C4.64253 9.79367 4.93928 9.91659 5.2487 9.91659C5.55812 9.91659 5.85486 9.79367 6.07366 9.57488C6.29245 9.35608 6.41536 9.05934 6.41536 8.74992C6.41536 8.4405 6.29245 8.14375 6.07366 7.92496C5.85486 7.70617 5.55812 7.58325 5.2487 7.58325C4.93928 7.58325 4.64253 7.70617 4.42374 7.92496C4.20495 8.14375 4.08203 8.4405 4.08203 8.74992Z" stroke="black" stroke-linecap="round" stroke-linejoin="round"/>
<path d="M6.41797 2.91667C6.41797 3.22609 6.54089 3.52283 6.75968 3.74162C6.97847 3.96042 7.27522 4.08333 7.58464 4.08333C7.89405 4.08333 8.1908 3.96042 8.40959 3.74162C8.62839 3.52283 8.7513 3.22609 8.7513 2.91667C8.7513 2.60725 8.62839 2.3105 8.40959 2.09171C8.1908 1.87292 7.89405 1.75 7.58464 1.75C7.27522 1.75 6.97847 1.87292 6.75968 2.09171C6.54089 2.3105 6.41797 2.60725 6.41797 2.91667Z" stroke="black" stroke-linecap="round" stroke-linejoin="round"/>
<path d="M9.33203 6.99992C9.33203 7.30934 9.45495 7.60608 9.67374 7.82488C9.89253 8.04367 10.1893 8.16659 10.4987 8.16659C10.8081 8.16659 11.1049 8.04367 11.3237 7.82488C11.5424 7.60608 11.6654 7.30934 11.6654 6.99992C11.6654 6.6905 11.5424 6.39375 11.3237 6.17496C11.1049 5.95617 10.8081 5.83325 10.4987 5.83325C10.1893 5.83325 9.89253 5.95617 9.67374 6.17496C9.45495 6.39375 9.33203 6.6905 9.33203 6.99992Z" stroke="black" stroke-linecap="round" stroke-linejoin="round"/>
<path d="M12.25 1.75L8.75 2.625" stroke="black" stroke-linecap="round" stroke-linejoin="round"/>
<path d="M8.23438 3.87915L9.85079 6.03457" stroke="black" stroke-linecap="round" stroke-linejoin="round"/>
<path d="M9.33464 7.29175L6.41797 8.45841" stroke="black" stroke-linecap="round" stroke-linejoin="round"/>
</svg>
