<svg width="14" height="14" viewBox="0 0 14 14" fill="none" xmlns="http://www.w3.org/2000/svg">
<path d="M5.25 8.16675C5.25 9.13333 6.81683 9.91675 8.75 9.91675C10.6832 9.91675 12.25 9.13333 12.25 8.16675C12.25 7.20016 10.6832 6.41675 8.75 6.41675C6.81683 6.41675 5.25 7.20016 5.25 8.16675Z" stroke="black" stroke-linecap="round" stroke-linejoin="round"/>
<path d="M5.25 8.16675V10.5001C5.25 11.4661 6.81683 12.2501 8.75 12.2501C10.6832 12.2501 12.25 11.4661 12.25 10.5001V8.16675" stroke="black" stroke-linecap="round" stroke-linejoin="round"/>
<path d="M1.75 3.5C1.75 4.12533 2.41733 4.70283 3.5 5.0155C4.58267 5.32817 5.91733 5.32817 7 5.0155C8.08267 4.70283 8.75 4.12533 8.75 3.5C8.75 2.87467 8.08267 2.29717 7 1.9845C5.91733 1.67183 4.58267 1.67183 3.5 1.9845C2.41733 2.29717 1.75 2.87467 1.75 3.5Z" stroke="black" stroke-linecap="round" stroke-linejoin="round"/>
<path d="M1.75 3.5V9.33333C1.75 9.85133 2.20033 10.1792 2.91667 10.5" stroke="black" stroke-linecap="round" stroke-linejoin="round"/>
<path d="M1.75 6.41675C1.75 6.93475 2.20033 7.26258 2.91667 7.58341" stroke="black" stroke-linecap="round" stroke-linejoin="round"/>
</svg>
