<svg width="200" height="51" viewBox="0 0 200 51" fill="none" xmlns="http://www.w3.org/2000/svg">
<path d="M1.71094 15.4823V35.453C1.71094 36.7241 2.38835 37.9002 3.49194 38.5367L20.7865 48.5174C21.89 49.1539 23.2449 49.1539 24.3485 48.5174L41.643 38.5367C42.7466 37.9002 43.424 36.7241 43.424 35.453V15.4823C43.424 14.2112 42.7466 13.0351 41.643 12.3986L24.3485 2.41791C23.2449 1.78143 21.89 1.78143 20.7865 2.41791L3.49194 12.3986C2.39765 13.0351 1.71094 14.2112 1.71094 15.4823Z" fill="#05163D"/>
<path d="M26.3541 29.3374L23.8845 36.0985C23.8119 36.2846 23.8119 36.4949 23.8845 36.681L28.1239 48.318L33.0315 45.4836L27.145 29.3374C27.0092 28.9614 26.4881 28.9614 26.3541 29.3374Z" fill="#12AAFF"/>
<path d="M31.2896 17.9608C31.1537 17.5849 30.6326 17.5849 30.4986 17.9608L28.029 24.7219C27.9565 24.908 27.9565 25.1183 28.029 25.3044L34.9763 44.3594L39.8838 41.5251L31.2896 17.9608Z" fill="#12AAFF"/>
<path d="M22.5668 3.1563C22.6915 3.1563 22.8069 3.18794 22.9204 3.25121L41.6312 14.0545C41.8489 14.1792 41.9848 14.4081 41.9848 14.6593V36.2658C41.9848 36.5152 41.8489 36.7441 41.6312 36.8707L22.9204 47.6851C22.8162 47.7484 22.6915 47.78 22.5668 47.78C22.4421 47.78 22.3267 47.7484 22.2132 47.6851L3.51176 36.8818C3.29402 36.7571 3.15816 36.5282 3.15816 36.277V14.6593C3.15816 14.4099 3.29402 14.181 3.51176 14.0545L22.2225 3.25121C22.3267 3.18794 22.4514 3.1563 22.5668 3.1563ZM22.5668 0C21.9006 0 21.2325 0.176798 20.6388 0.521088L1.92803 11.3243C0.74069 12.0111 0 13.284 0 14.6574V36.264C0 37.6393 0.74069 38.9196 1.92803 39.6082L20.6388 50.4115C21.2325 50.7558 21.8987 50.9326 22.5668 50.9326C23.2349 50.9326 23.9012 50.7558 24.4948 50.4115L43.2056 39.6082C44.4041 38.9196 45.1336 37.6504 45.1336 36.264V14.6574C45.1336 13.2821 44.3929 12.0018 43.2056 11.3132L24.5041 0.521088C23.8993 0.176798 23.2331 0 22.5649 0H22.5668Z" fill="#9DCCED"/>
<path d="M10.207 44.3799L11.9266 39.6697L15.3863 42.545L12.1574 45.504L10.2089 44.3799H10.207Z" fill="#213147"/>
<path d="M20.9965 13.1149H16.2565C15.9029 13.1149 15.579 13.3326 15.4655 13.6657L5.29688 41.5439L10.2044 44.3783L21.4041 13.6769C21.499 13.4071 21.2998 13.1149 20.9965 13.1149Z" fill="white"/>
<path d="M29.3019 13.1149H24.5619C24.2083 13.1149 23.8844 13.3326 23.7709 13.6657L12.1562 45.5023L17.0638 48.3367L29.6983 13.6881C29.8025 13.407 29.5941 13.1149 29.3019 13.1149Z" fill="white"/>
<path d="M65.3104 18.9176C65.7794 18.9176 66.1851 19.0125 66.5089 19.2098C66.8327 19.4071 67.1547 19.783 67.4673 20.345L73.6552 31.5744C73.7185 31.701 73.7278 31.8034 73.698 31.8871C73.6664 31.9708 73.5733 32.0118 73.4282 32.0118H71.0535C70.8451 32.0118 70.6999 31.928 70.6255 31.7717L69.3023 29.3654H60.5201L59.2285 31.7717C59.1448 31.9392 58.9996 32.0118 58.8005 32.0118H56.3737C56.2081 32.0118 56.1132 31.969 56.0815 31.8871C56.0499 31.8034 56.0611 31.6991 56.1244 31.5744L62.2602 20.345C62.5728 19.783 62.8743 19.4071 63.1776 19.2098C63.4791 19.0125 63.8234 18.9176 64.2198 18.9176H65.3141H65.3104ZM61.6739 27.1806H68.1112L65.1429 21.7017C65.0908 21.618 65.0275 21.5658 64.9345 21.5658H64.8191C64.7353 21.5658 64.6627 21.6086 64.6106 21.7017L61.6721 27.1806H61.6739Z" fill="#05163D"/>
<path d="M87.2525 18.9191C88.6892 18.9191 89.7109 19.2429 90.3362 19.8887C90.9615 20.5344 91.2741 21.4929 91.2741 22.7639V23.8266C91.2741 24.8985 91.0564 25.7435 90.6172 26.3688C90.178 26.9941 89.4708 27.3905 88.4807 27.5673L91.6799 31.5257C91.7431 31.5889 91.7636 31.682 91.732 31.8067C91.7115 31.9314 91.6073 31.9946 91.4305 31.9946H89.0242C88.8585 31.9946 88.7543 31.9742 88.691 31.9425C88.6278 31.8997 88.5645 31.8383 88.5031 31.7564L85.5441 27.8706H79.5032V31.5908C79.5032 31.8606 79.3673 31.9984 79.0956 31.9984H77.0745C76.7823 31.9984 76.6465 31.8625 76.6465 31.5908V19.4848C76.6465 19.1089 76.8344 18.9228 77.2085 18.9228H87.2506L87.2525 18.9191ZM79.5125 25.5964H86.67C87.3064 25.5964 87.7531 25.4606 88.0136 25.1907C88.2742 24.9209 88.41 24.5021 88.41 23.9401V23.1585C88.41 22.5965 88.2742 22.1796 88.0136 21.9079C87.7531 21.638 87.3046 21.5003 86.67 21.5003H79.7525C79.585 21.5003 79.5125 21.5729 79.5125 21.7292V25.5946V25.5964Z" fill="#05163D"/>
<path d="M106.91 18.9191C108.192 18.9191 109.108 19.1796 109.649 19.6895C110.191 20.1995 110.46 20.9718 110.46 22.0009V22.8961C110.46 23.9383 110.064 24.7292 109.262 25.2708C110.116 25.7695 110.554 26.5735 110.554 27.6771V28.7602C110.554 29.2608 110.501 29.7074 110.386 30.1057C110.271 30.5021 110.094 30.8464 109.835 31.1274C109.575 31.4084 109.242 31.6262 108.813 31.7732C108.385 31.9202 107.866 32.0021 107.241 32.0021H96.1343C95.7584 32.0021 95.5723 31.8141 95.5723 31.4401V19.4811C95.5723 19.1052 95.7602 18.9191 96.1343 18.9191H106.908H106.91ZM98.4401 24.357H106.108C106.733 24.357 107.15 24.2621 107.379 24.076C107.608 23.888 107.712 23.6163 107.712 23.2534V22.6169C107.712 22.2317 107.608 21.9507 107.388 21.7627C107.17 21.5859 106.815 21.4929 106.336 21.4929H98.6895C98.522 21.4929 98.4494 21.5766 98.4494 21.7329V24.3588H98.4383H98.4401V24.357ZM98.4401 26.3985V29.1808C98.4401 29.3483 98.5239 29.4208 98.6802 29.4208H106.348C106.846 29.4208 107.202 29.3259 107.41 29.151C107.619 28.9742 107.734 28.682 107.734 28.2875V27.5784C107.734 27.1932 107.619 26.901 107.39 26.7037C107.161 26.5065 106.733 26.4023 106.108 26.4023H98.4401V26.3985Z" fill="#05163D"/>
<path d="M117.525 18.9191C117.795 18.9191 117.931 19.0549 117.931 19.3266V31.5889C117.931 31.8588 117.795 31.9946 117.525 31.9946H115.504C115.212 31.9946 115.076 31.8588 115.076 31.5889V19.3378C115.076 19.0679 115.221 18.9302 115.504 18.9302L117.525 18.9191Z" fill="#05163D"/>
<path d="M137.11 18.9191C137.403 18.9191 137.538 19.0549 137.538 19.3266V21.1597C137.538 21.4519 137.393 21.5878 137.11 21.5878H131.245V31.5889C131.245 31.8588 131.109 31.9946 130.837 31.9946H128.795C128.526 31.9946 128.39 31.8588 128.39 31.5889V21.5878H122.524C122.232 21.5878 122.096 21.4426 122.096 21.1597V19.3266C122.096 19.0568 122.241 18.9191 122.524 18.9191H137.11Z" fill="#05163D"/>
<path d="M151.891 18.9191C153.328 18.9191 154.349 19.2429 154.975 19.8887C155.6 20.5344 155.913 21.4929 155.913 22.7639V23.8266C155.913 24.8985 155.695 25.7435 155.256 26.3688C154.818 26.9941 154.109 27.3905 153.119 27.5673L156.317 31.5257C156.38 31.5889 156.4 31.682 156.369 31.8067C156.348 31.9314 156.244 31.9946 156.067 31.9946H153.661C153.493 31.9946 153.391 31.9742 153.328 31.9425C153.264 31.8997 153.203 31.8383 153.14 31.7564L150.181 27.8706H144.14V31.5908C144.14 31.8606 144.004 31.9984 143.732 31.9984H141.711C141.419 31.9984 141.283 31.8625 141.283 31.5908V19.4848C141.283 19.1089 141.471 18.9228 141.845 18.9228H151.887L151.891 18.9191ZM144.16 25.5964H151.318C151.954 25.5964 152.401 25.4606 152.662 25.1907C152.922 24.9209 153.058 24.5021 153.058 23.9401V23.1585C153.058 22.5965 152.922 22.1796 152.662 21.9079C152.401 21.638 151.952 21.5003 151.318 21.5003H144.4C144.233 21.5003 144.16 21.5729 144.16 21.7292V25.5946V25.5964Z" fill="#05163D"/>
<path d="M162.401 18.9191C162.671 18.9191 162.809 19.0549 162.809 19.3266V26.7856C162.809 27.2844 162.852 27.7031 162.934 28.0251C163.017 28.3582 163.151 28.6187 163.341 28.8067C163.529 29.004 163.779 29.1398 164.102 29.2124C164.426 29.2962 164.823 29.339 165.31 29.339H170.488C170.977 29.339 171.373 29.2962 171.695 29.2124C172.019 29.1287 172.269 28.9947 172.457 28.8067C172.644 28.6094 172.78 28.3489 172.853 28.0251C172.925 27.6919 172.968 27.2844 172.968 26.7856V19.3266C172.968 19.0568 173.104 18.9191 173.376 18.9191H175.417C175.687 18.9191 175.823 19.0549 175.823 19.3266V27.0666C175.823 27.9618 175.728 28.723 175.542 29.3594C175.354 29.9847 175.053 30.4946 174.636 30.891C174.219 31.2874 173.677 31.5685 173.009 31.7453C172.343 31.9221 171.541 32.0058 170.592 32.0058H165.206C164.259 32.0058 163.457 31.9221 162.8 31.7453C162.143 31.5685 161.601 31.2874 161.184 30.891C160.767 30.4946 160.466 29.9847 160.267 29.3594C160.07 28.7341 159.975 27.9637 159.975 27.0666V19.3266C159.975 19.0568 160.12 18.9191 160.403 18.9191H162.403H162.401Z" fill="#05163D"/>
<path d="M183.851 18.9191C184.121 18.9191 184.361 18.9395 184.56 18.9712C184.757 19.014 184.936 19.0754 185.081 19.1889C185.228 19.2931 185.362 19.4383 185.487 19.617C185.602 19.7937 185.727 20.0338 185.851 20.3353L189.739 29.3055C189.791 29.4208 189.873 29.4729 190 29.4729H190.229C190.353 29.4729 190.437 29.4208 190.489 29.3055L194.375 20.3353C194.501 20.0338 194.626 19.7937 194.74 19.617C194.855 19.4402 194.989 19.2931 195.147 19.1889C195.292 19.0847 195.471 19.0121 195.657 18.9712C195.854 18.9284 196.085 18.9191 196.355 18.9191H198.356C199 18.9191 199.439 19.0642 199.668 19.3564C199.897 19.6486 200.001 20.1473 200.001 20.8564V31.5871C200.001 31.8569 199.856 31.9928 199.575 31.9928H197.667C197.397 31.9928 197.26 31.8569 197.26 31.5871V21.826C197.26 21.7013 197.207 21.6399 197.114 21.6399H196.947C196.822 21.6399 196.738 21.692 196.707 21.785L192.936 30.1615C192.789 30.4947 192.635 30.7868 192.477 31.0157C192.322 31.2446 192.153 31.4326 191.978 31.5889C191.799 31.736 191.593 31.8495 191.364 31.9128C191.133 31.976 190.863 32.0077 190.551 32.0077H189.655C189.343 32.0077 189.073 31.976 188.844 31.9128C188.613 31.8495 188.405 31.7453 188.228 31.5889C188.051 31.4419 187.874 31.2446 187.729 31.0157C187.573 30.7868 187.417 30.5058 187.271 30.1615L183.499 21.785C183.456 21.6808 183.384 21.6399 183.259 21.6399H183.092C182.987 21.6399 182.946 21.7032 182.946 21.826V31.5871C182.946 31.8569 182.811 31.9928 182.539 31.9928H180.631C180.339 31.9928 180.205 31.8569 180.205 31.5871V20.8564C180.205 20.1473 180.32 19.6486 180.538 19.3564C180.767 19.0642 181.204 18.9191 181.861 18.9191H183.853H183.851Z" fill="#05163D"/>
</svg>
