<svg width="200" height="37" viewBox="0 0 200 37" fill="none" xmlns="http://www.w3.org/2000/svg">
<g clip-path="url(#clip0_5355_107078)">
<path d="M66.2104 33.2964V36.0236H64.5852C62.6426 36.0236 61.9154 35.1831 61.8867 33.7557C60.8978 35.2039 59.3571 36.1927 57.0414 36.1927C53.8197 36.1927 51.582 34.5962 51.582 31.8418C51.582 28.7621 53.7575 27.081 57.8835 27.081H61.5709V26.1847C61.5709 24.5324 60.3843 23.5149 58.3492 23.5149C56.5198 23.5149 55.3045 24.3841 55.0717 25.6903H51.9632C52.3093 22.8163 54.7463 20.9854 58.4975 20.9854C62.2487 20.9854 64.6777 22.8705 64.6777 26.3825V32.3298C64.6777 33.0858 64.9393 33.29 65.6028 33.29H66.2104V33.2964ZM61.5693 29.4048H57.7399C55.826 29.4048 54.7527 30.1321 54.7527 31.6361C54.7527 32.8865 55.7973 33.7557 57.48 33.7557C60.0366 33.7557 61.5693 32.2166 61.5693 29.9838V29.4048Z" fill="black"/>
<path d="M73.0323 36.0219L67.4023 21.1606H70.7724L75.01 32.6535L79.2189 21.1606H82.5252L76.8665 36.0219H73.0307H73.0323Z" fill="black"/>
<path d="M98.5323 33.2964V36.0236H96.9071C94.9645 36.0236 94.2373 35.1831 94.2086 33.7557C93.2197 35.2039 91.6791 36.1927 89.3633 36.1927C86.1416 36.1927 83.9023 34.5962 83.9023 31.8418C83.9023 28.7621 86.0778 27.081 90.2038 27.081H93.8912V26.1847C93.8912 24.5324 92.7046 23.5149 90.6695 23.5149C88.8401 23.5149 87.6248 24.3841 87.392 25.6903H84.2835C84.6296 22.8163 87.0666 20.9854 90.8178 20.9854C94.569 20.9854 96.998 22.8705 96.998 26.3825V32.3298C96.998 33.0858 97.2596 33.29 97.9231 33.29H98.5307V33.2964H98.5323ZM93.8848 29.4048H90.057C88.1432 29.4048 87.0698 30.1321 87.0698 31.6361C87.0698 32.8865 88.1161 33.7557 89.7971 33.7557C92.3537 33.7557 93.8864 32.2166 93.8864 29.9838V29.4048H93.8848Z" fill="black"/>
<path d="M112.884 33.2679V36.0223H100.812V33.2679H105.297V18.6602L100.812 20.1435V17.3747L104.648 15.9058H108.435V33.2743H112.892L112.886 33.2679H112.884Z" fill="black"/>
<path d="M129.603 33.2964V36.0236H127.977C126.035 36.0236 125.308 35.1831 125.279 33.7557C124.29 35.2039 122.751 36.1927 120.434 36.1927C117.212 36.1927 114.973 34.5962 114.973 31.8418C114.973 28.7621 117.148 27.081 121.274 27.081H124.961V26.1847C124.961 24.5324 123.775 23.5149 121.74 23.5149C119.91 23.5149 118.695 24.3841 118.462 25.6903H115.354C115.7 22.8163 118.137 20.9854 121.888 20.9854C125.639 20.9854 128.068 22.8705 128.068 26.3825V32.3298C128.068 33.0858 128.33 33.29 128.993 33.29H129.601V33.2964H129.603ZM124.963 29.4048H121.135C119.221 29.4048 118.148 30.1321 118.148 31.6361C118.148 32.8865 119.193 33.7557 120.874 33.7557C123.43 33.7557 124.963 32.2166 124.963 29.9838V29.4048Z" fill="black"/>
<path d="M146.387 27.5468V36.0236H143.223V27.837C143.223 25.1959 142.092 23.7477 139.853 23.7477C137.5 23.7477 136.081 25.4574 136.081 28.3314V36.0236H132.945V21.1624H135.673L136.019 23.105C136.915 21.9471 138.314 20.9854 140.574 20.9854C143.738 20.9854 146.381 22.6951 146.381 27.5468H146.387Z" fill="black"/>
<path d="M150.237 28.6203C150.237 24.0365 153.168 20.9839 157.639 20.9839C161.439 20.9839 163.819 23.1035 164.399 26.4719H161.122C160.712 24.7271 159.468 23.6537 157.583 23.6537C155.09 23.6537 153.43 25.7159 153.43 28.6203C153.43 31.5246 155.082 33.523 157.583 33.523C159.441 33.523 160.718 32.4209 161.093 30.7048H164.399C163.847 34.0732 161.319 36.1928 157.548 36.1928C153.076 36.1928 150.23 33.2614 150.23 28.6203H150.237Z" fill="black"/>
<path d="M181.754 27.5468V36.0237H178.59V27.8084C178.59 25.2517 177.461 23.7462 175.137 23.7462C172.813 23.7462 171.307 25.491 171.307 28.3028V36.0237H168.172V15.7095H171.307V23.0556C172.325 21.7765 173.864 20.9934 175.864 20.9934C179.346 20.9934 181.754 23.0556 181.754 27.5548V27.5484V27.5468Z" fill="black"/>
<path d="M188.738 29.3204V29.4687C188.823 31.9902 190.391 33.6505 192.828 33.6505C194.686 33.6505 196.105 32.6904 196.515 31.0365H199.651C199.128 33.9679 196.663 36.1992 193.005 36.1992C188.364 36.1992 185.461 33.1832 185.461 28.6266C185.461 24.07 188.364 20.9902 192.686 20.9902C197.008 20.9902 199.828 23.7175 199.912 28.0748C199.912 28.3921 199.884 28.8866 199.828 29.3252H188.738V29.3188V29.3204ZM188.852 26.9679H196.656C196.394 24.7638 194.884 23.5134 192.708 23.5134C190.766 23.5134 189.077 24.8483 188.844 26.9679H188.852Z" fill="black"/>
<path d="M25.7316 36.0222H39.4509C40.6614 36.0222 41.419 34.7112 40.813 33.6633L33.9533 21.783C33.3472 20.7351 31.8353 20.7351 31.2292 21.783L24.3696 33.6633C23.7635 34.7112 24.5211 36.0222 25.7316 36.0222Z" fill="#FF394A"/>
<path d="M27.4463 10.5149L21.8083 0.747755C21.2389 -0.239486 19.8131 -0.239486 19.2437 0.747755L0.281921 33.5898C-0.341684 34.6711 0.43822 36.0204 1.68542 36.0204H12.9757C14.1798 36.0204 15.2915 35.3777 15.8928 34.3362L27.4463 14.3251C28.1273 13.1465 28.1273 11.6935 27.4463 10.5149Z" fill="#FF394A"/>
</g>
<defs>
<clipPath id="clip0_5355_107078">
<rect width="200" height="36.2041" fill="white"/>
</clipPath>
</defs>
</svg>
