<svg width="170" height="40" viewBox="0 0 170 40" fill="none" xmlns="http://www.w3.org/2000/svg">
<g clip-path="url(#clip0_5433_15143)">
<path d="M26.4259 1.84583L16.0815 7.75169V26.1842L10.3739 29.4732L4.63151 26.1815V19.6008L10.3739 16.341L14.0663 18.4697V13.1454L10.3418 11.0434L0 17.0159V28.8303L10.3766 34.7709L20.7184 28.8303V10.4005L26.4608 7.10881L32.2006 10.4005V16.952L26.4608 20.273L22.7363 18.1256V23.4232L26.4259 25.5385L36.8697 19.6328V7.75169L26.4259 1.84583Z" fill="black"/>
<path fill-rule="evenodd" clip-rule="evenodd" d="M87.3788 27.3576H92.0157V2.09094H87.3788V27.3576ZM57.5692 9.39724C59.7669 9.39724 61.5889 10.2748 63.0298 12.0274C64.4735 13.7799 65.1926 15.954 65.1926 18.5494C65.1926 21.145 64.4709 23.319 63.0298 25.0715C61.5862 26.8241 59.7669 27.7016 57.5692 27.7016C56.0128 27.7016 54.6604 27.2242 53.5173 26.2665C52.3956 25.2876 51.5718 23.9672 51.0432 22.3053V34.1863H46.4062V9.73868H51.0432V14.7909C51.5691 13.1291 52.3956 11.8193 53.5173 10.8644C54.6631 9.88539 56.0128 9.39724 57.5692 9.39724ZM55.8841 23.5003C57.1425 23.5003 58.2079 23.0335 59.0772 22.0999C59.9466 21.145 60.3813 19.9605 60.3813 18.5494C60.3813 17.1383 59.9466 15.9992 59.0772 15.0657C58.2079 14.1107 57.1425 13.6306 55.8841 13.6306C54.486 13.6306 53.3321 14.0974 52.4144 15.031C51.4994 15.9647 51.0406 17.1357 51.0406 18.5468C51.0406 19.9579 51.4994 21.1422 52.4144 22.0972C53.3295 23.0309 54.486 23.4976 55.8841 23.4976V23.5003ZM66.4244 18.5494C66.4244 21.145 67.3287 23.319 69.1372 25.0715C70.9459 26.8241 73.2025 27.7016 75.9047 27.7016C78.6068 27.7016 80.8636 26.8241 82.6723 25.0715C84.4808 23.319 85.3851 21.145 85.3851 18.5494C85.3851 15.954 84.4808 13.7799 82.6723 12.0274C80.8636 10.2748 78.6068 9.39724 75.9047 9.39724C73.2025 9.39724 70.9459 10.2748 69.1372 12.0274C67.3287 13.7799 66.4244 15.954 66.4244 18.5494ZM72.572 22.0999C71.6784 21.145 71.2329 19.9605 71.2329 18.5494C71.2329 17.1383 71.6784 15.9992 72.572 15.0657C73.4655 14.1107 74.5765 13.6306 75.9047 13.6306C77.233 13.6306 78.3439 14.0974 79.2375 15.031C80.1311 15.9647 80.5765 17.1357 80.5765 18.5468C80.5765 19.9579 80.1311 21.1422 79.2375 22.0972C78.3439 23.0309 77.233 23.4976 75.9047 23.4976C74.5765 23.4976 73.4655 23.0309 72.572 22.0972V22.0999ZM134.853 25.0715C133.045 23.319 132.14 21.145 132.14 18.5494C132.14 15.954 133.045 13.7799 134.853 12.0274C136.662 10.2748 138.919 9.39724 141.621 9.39724C144.323 9.39724 146.58 10.2748 148.388 12.0274C150.197 13.7799 151.101 15.954 151.101 18.5494C151.101 21.145 150.197 23.319 148.388 25.0715C146.58 26.8241 144.323 27.7016 141.621 27.7016C138.919 27.7016 136.665 26.8241 134.853 25.0715ZM136.946 18.5494C136.946 19.9605 137.392 21.145 138.285 22.0999C139.179 23.0335 140.29 23.5003 141.618 23.5003C142.946 23.5003 144.057 23.0335 144.951 22.0999C145.844 21.145 146.29 19.9605 146.29 18.5494C146.29 17.1383 145.844 15.9647 144.951 15.0337C144.057 14.1 142.946 13.6332 141.618 13.6332C140.29 13.6332 139.179 14.1107 138.285 15.0683C137.392 16.002 136.946 17.1623 136.946 18.5521V18.5494ZM163.442 9.39724C165.412 9.39724 166.992 10.0801 168.181 11.4459C169.393 12.8116 170.001 14.5535 170.001 16.6689V27.3549H165.363V17.4878C165.363 16.3487 164.998 15.4152 164.263 14.6869C163.53 13.9587 162.616 13.5932 161.516 13.5932C160.279 13.5932 159.272 13.9587 158.494 14.6869C157.715 15.4152 157.326 16.3487 157.326 17.4878V27.3549H152.689V9.73868H157.326V14.2468C157.785 12.7449 158.553 11.5606 159.629 10.6963C160.729 9.83205 161.998 9.39991 163.442 9.39991V9.39724ZM103.155 22.66L107.893 9.75469H112.6L102.846 34.2023H98.1392L100.613 27.9871L93.3656 9.75469H98.3807L103.155 22.66ZM125.786 9.73868V14.1534C124.82 11.2725 122.434 9.73868 119.26 9.73868C114.468 9.73868 111.634 13.9 111.634 18.2746C111.634 22.6495 114.446 27.1521 119.26 27.1521C122.434 27.1521 124.82 24.8767 125.786 21.9958V25.3755C125.786 26.8106 125.316 27.9924 124.377 28.9261C123.438 29.8596 122.295 30.3265 120.943 30.3265C119.11 30.3265 117.749 29.4169 116.856 27.595L112.699 29.7797C113.477 31.2147 114.588 32.3618 116.032 33.2286C117.476 34.0929 119.113 34.5251 120.943 34.5251C123.645 34.5251 125.901 33.6502 127.71 31.895C129.519 30.1424 130.423 27.9684 130.423 25.373V9.73868H125.786ZM124.447 21.6224C123.554 22.5106 122.432 22.9535 121.082 22.9535C119.732 22.9535 118.678 22.5106 117.784 21.6224C116.891 20.7128 116.445 19.5978 116.445 18.2773C116.445 16.9569 116.891 15.8526 117.784 14.9643C118.678 14.076 119.775 13.6332 121.082 13.6332C122.389 13.6332 123.556 14.076 124.447 14.9643C125.341 15.8286 125.786 16.9329 125.786 18.2773C125.786 19.6218 125.341 20.7368 124.447 21.6224Z" fill="black"/>
</g>
<defs>
<clipPath id="clip0_5433_15143">
<rect width="170" height="39.2308" fill="white"/>
</clipPath>
</defs>
</svg>
