<svg width="72" height="72" viewBox="0 0 72 72" fill="none" xmlns="http://www.w3.org/2000/svg">
<g clip-path="url(#clip0_254_6871)">
<circle cx="36" cy="36" r="36" fill="#FBFBFB"/>
<path d="M23.6431 37.3221L24.8741 28.0424L14.1582 20.5933L23.943 23.9075L26.2472 20.3565L34.6905 15.1169L53.2974 25.3594L54.2601 40.9993L45.9746 52.5201L39.4251 53.5144L42.8182 47.3121V41.3465L40.3562 36.6909L37.8469 35.0338L33.9961 38.995V43.193L30.9975 46.0022L27.1783 46.4599L25.4896 47.4226L22.712 46.5388L21.5599 42.3724L23.6431 39.4527V37.3221Z" fill="white"/>
<path d="M40.7356 20.5287C38.6997 20.1026 36.4587 20.2131 36.4587 20.2131C36.4587 20.2131 35.7327 23.6062 31.1875 24.49C31.2191 24.49 37.2004 26.5259 40.7356 20.5287Z" fill="#94A6C3"/>
<path d="M42.5829 51.2587C45.0449 49.3333 46.8914 46.6819 47.7436 43.6676C47.7752 43.5571 48.1224 43.3519 48.3591 43.2099C48.7379 42.9732 49.1324 42.7838 49.2113 42.4839C49.3691 41.6001 49.448 40.669 49.448 39.7536C49.448 39.4064 49.1008 39.0592 48.7536 38.712C48.4853 38.4753 48.2171 38.207 48.2171 38.0176C47.8383 34.514 46.2128 31.2314 43.6403 28.8483L43.372 29.1166C45.8813 31.4681 47.4911 34.6561 47.8383 38.0492C47.8699 38.3648 48.1855 38.6647 48.4853 38.9803C48.7536 39.2171 49.0693 39.5643 49.0693 39.7063C49.0693 40.5901 48.9904 41.4739 48.8326 42.3577C48.801 42.5155 48.4538 42.6733 48.1855 42.8153C47.8067 43.0047 47.4595 43.1941 47.3806 43.5098C46.4495 46.7766 44.3347 49.6331 41.5255 51.4796C42.0305 50.4065 43.6087 46.9029 44.4452 45.1195L44.2874 39.4222L39.395 34.6876L36.6173 35.0664L33.5714 39.9904C33.5714 39.9904 34.9918 41.8053 32.9875 43.9201C31.0305 46.0033 29.4839 46.461 29.4839 46.461L28.0635 45.6877C28.4896 45.1511 29.3419 44.3462 29.9889 43.7938C31.1094 42.8627 32.23 42.7996 32.23 41.7895C32.2615 39.7063 30.0363 40.2902 30.0363 40.2902L29.2314 41.0636L28.8842 43.9201L27.1955 46.0349L27.0061 46.0033L24.2285 45.3878C24.2285 45.3878 25.9172 44.504 26.1855 43.494C26.4538 42.5313 25.6489 39.3275 25.6015 39.1382C25.6331 39.1697 26.4064 39.8326 26.7536 40.9057C27.3691 39.2171 28.174 37.5915 28.4107 37.4337C28.6475 37.2759 31.7565 35.6188 31.7565 35.6188L30.7149 38.3491L31.4882 37.9229L33.3347 33.3777C33.3347 33.3777 35.1496 32.494 36.4911 32.494C38.9215 32.4624 42.504 29.4954 40.8785 24.1769C41.3361 24.3663 49.3534 28.3749 50.7422 36.2343C51.7996 42.3261 48.3749 47.9918 42.5829 51.2587Z" fill="#94A6C3"/>
<path d="M33.4313 21.3666C34.3151 20.3249 33.9679 18.7783 33.9679 18.7783L31.3797 22.5976C31.3481 22.5976 32.3108 22.6449 33.4313 21.3666Z" fill="#1B314F"/>
<path d="M24.7481 42.2133L25.0638 40.6666C25.0638 40.6666 23.7854 42.9077 23.675 43.2075C23.5645 43.5547 23.7539 44.1702 24.2589 44.1387C24.7639 44.1071 25.3794 43.3653 25.3794 42.8287C25.3636 42.1343 24.7481 42.2133 24.7481 42.2133Z" fill="#1B314F"/>
<path d="M47.6331 17.7036C47.6331 17.7036 49.5585 17.7825 51.5628 18.0192C47.0492 14.4683 42.7881 13.4424 39.3161 13.4424C34.5341 13.4424 31.2988 15.3994 31.1095 15.5257L32.6087 13.1426C32.6087 13.1426 26.5958 12.5587 24.481 18.9188C23.9445 17.5773 23.4394 15.6046 23.4394 15.6046C23.4394 15.6046 20.3146 18.3349 21.7823 22.88C18.1998 21.5701 13.0707 19.7552 12.8813 19.7237C12.613 19.6921 12.5341 19.8026 12.5341 19.8026C12.5341 19.8026 12.4552 19.913 12.6919 20.1182C13.118 20.4654 21.1984 26.431 22.9818 27.5988C22.603 28.9877 22.603 29.6347 22.9818 30.2976C23.5183 31.1813 23.5657 31.639 23.4868 32.3019C23.4079 32.9489 22.7135 38.6146 22.5556 39.309C22.3978 40.0035 20.7881 42.4654 20.867 43.2072C20.9459 43.9331 21.9401 47.058 22.8239 47.4052C23.471 47.6419 25.0965 48.1311 26.1697 48.1311C26.5485 48.1311 26.8957 48.0522 27.0535 47.8944C27.7006 47.3105 27.9057 47.2 28.3634 47.2C28.395 47.2 28.4423 47.2 28.4739 47.2C28.6633 47.2 28.9 47.2316 29.1683 47.2316C29.7838 47.2316 30.5886 47.1211 31.1726 46.5845C32.0248 45.7323 33.4767 44.5802 33.9502 44.0436C34.5341 43.3177 34.834 42.3076 34.6762 41.3133C34.5657 40.3822 35.0549 39.5773 35.6389 38.7725C36.3648 37.8098 37.7221 36.0737 37.7221 36.0737C40.3735 38.0781 42.0306 41.124 42.0306 44.5171C42.0306 50.53 36.791 55.3751 30.3204 55.3751C29.3261 55.3751 28.3634 55.2646 27.4007 55.0279C30.3677 56.0695 32.877 56.4167 34.9129 56.4167C39.2687 56.4167 41.5729 54.8385 41.5729 54.8385C41.5729 54.8385 40.768 55.8801 39.4581 57.0795C39.4897 57.0795 39.4897 57.0795 39.4897 57.0795C46.6862 56.0852 50.2056 50.1512 50.2056 50.1512C50.2056 50.1512 49.9373 52.0766 49.5901 53.3865C59.1855 46.19 57.56 37.1627 57.5284 36.8628C57.6073 36.9733 58.57 38.1412 59.075 38.7567C60.6217 22.8327 47.6331 17.7036 47.6331 17.7036ZM32.877 43.0494C32.7192 43.2387 32.0722 43.8227 31.5987 44.2488C31.141 44.6749 30.636 45.101 30.2572 45.4798C30.0994 45.6376 29.7996 45.7165 29.3261 45.7165C29.1683 45.7165 29.0105 45.7165 28.9 45.7165C28.8211 45.7165 28.7422 45.7165 28.6633 45.7165C28.5843 45.7165 28.5528 45.7165 28.5054 45.7165C28.395 45.7165 28.2687 45.7165 28.1582 45.7165C28.7422 44.9432 30.4308 43.1756 31.0148 42.7969C31.7092 42.3392 32.0564 41.8657 31.6303 41.0608C31.2041 40.256 30.0836 40.4453 30.0836 40.4453C30.0836 40.4453 30.7307 40.1771 31.3146 40.1771C30.5886 39.9877 29.6575 40.177 29.2314 40.6032C28.7737 41.0293 28.8526 42.5286 28.6475 43.4913C28.4581 44.4855 27.7952 44.9905 26.801 45.9217C26.2644 46.4267 25.8698 46.5687 25.57 46.5687C24.9229 46.4583 24.1496 46.2531 23.613 46.0637C23.2343 45.5587 22.6503 43.9016 22.4925 43.2072C22.603 42.8284 23.0764 42.0078 23.2974 41.5501C23.7551 40.6663 24.0234 40.1613 24.1023 39.7036C24.2601 39.0565 24.7493 35.0006 24.9545 33.3119C25.4595 33.959 26.1539 35.0479 25.9961 35.7423C27.1166 34.1641 26.3117 32.6175 25.9172 32.002C25.57 31.3865 25.1123 30.1555 25.4911 28.8456C25.8698 27.5357 27.2587 23.9217 27.2587 23.9217C27.2587 23.9217 27.7163 24.7265 28.3792 24.5687C29.0262 24.4109 34.3132 16.4726 34.3132 16.4726C34.3132 16.4726 35.7336 19.5974 34.2343 21.87C32.6876 24.1426 31.1884 24.5687 31.1884 24.5687C31.1884 24.5687 33.3031 24.9475 35.2759 23.5271C36.0808 25.4209 36.8541 27.3779 36.9014 27.6462C36.7909 27.9145 35.2443 31.6075 35.0865 31.8442C35.0076 31.9231 34.471 32.0809 34.0922 32.1598C33.4452 32.3492 33.0506 32.4755 32.8928 32.5859C32.6245 32.8227 31.3935 36.2 30.8096 37.8571C30.1152 38.0465 29.4208 38.441 28.9158 39.1986C29.1841 39.0092 30.0363 38.8829 30.6518 38.8198C31.1884 38.7882 32.8455 39.672 33.2716 41.3291C33.2716 41.3607 33.2716 41.3607 33.2716 41.408C33.3821 42.0235 33.1927 42.5917 32.877 43.0494ZM29.263 43.5228C29.6102 43.0178 29.5786 42.1814 29.6102 41.8973C29.6417 41.629 29.7206 41.124 30.0363 41.0451C30.3519 40.9661 31.0779 41.0766 31.0779 41.629C31.0779 42.134 30.5413 42.2445 30.1468 42.5917C29.8785 42.86 29.3419 43.4439 29.263 43.5228ZM44.6346 36.1684C45.0133 34.2115 45.0607 32.507 44.9502 31.1182C46.4495 33.1225 47.3806 35.5529 47.6489 38.0465C47.6805 38.3621 47.9961 38.662 48.296 38.9776C48.5643 39.2144 48.8799 39.5142 48.8799 39.7036C48.8799 40.5874 48.801 41.4712 48.6432 42.355C48.6116 42.4654 48.2644 42.6706 47.9961 42.8126C47.6174 43.002 47.2702 43.1914 47.1912 43.507C46.339 46.474 44.5399 49.0938 42.1095 50.9403C45.6762 47.2158 47.4122 41.0608 44.6346 36.1684ZM42.2042 51.3033C44.7135 49.3779 46.6389 46.6792 47.4753 43.6333C47.5069 43.5228 47.8541 43.3177 48.0908 43.1756C48.4696 42.9862 48.8641 42.7495 48.943 42.4496C49.1009 41.5659 49.1798 40.6347 49.1798 39.7194C49.1798 39.3722 48.8326 39.025 48.4854 38.6778C48.296 38.441 47.9803 38.1727 47.9803 37.9834C47.6647 35.1742 46.56 32.507 44.824 30.3133C44.0506 25.6892 40.9732 24.2689 40.8943 24.2215C40.9732 24.332 42.9775 27.2201 41.5887 30.6132C40.1683 34.0379 36.5069 33.5013 36.1912 33.5329C35.8756 33.5329 34.692 35.0795 33.1927 37.9202C33.0033 37.8413 32.1984 37.6519 31.2673 37.8098C31.9617 35.8844 33.0033 33.1541 33.1927 32.9174C33.2716 32.8385 33.8397 32.6806 34.2343 32.5702C34.9602 32.3808 35.3074 32.2545 35.4337 32.1125C35.5126 32.002 35.8914 31.1182 36.2859 30.1871C36.6331 30.1871 37.5169 30.1082 37.5958 30.0766C37.6747 29.9977 38.4007 28.1197 38.4007 27.8829C38.4007 27.6935 36.9014 23.9532 36.3175 22.5328C36.5858 22.2172 36.8541 21.8384 37.1224 21.4123C45.0133 22.2646 51.1841 28.9561 51.1841 37.0838C51.1841 43.3334 47.5227 48.7624 42.2042 51.3033Z" fill="#1B314F"/>
<path d="M31.9595 30.5034C32.6855 29.6512 32.3067 28.073 30.9652 27.8047C31.3124 26.9998 31.8175 25.3743 31.8175 25.3743C31.8175 25.3743 27.8878 31.545 27.5406 31.6555C27.1934 31.766 26.8461 30.4245 26.8461 30.4245C26.1202 33.2337 28.0771 33.6282 28.3139 32.7287C29.3713 32.4604 31.2177 31.3083 31.9595 30.5034Z" fill="#1B314F"/>
<path d="M28.6152 32.0006L30.6195 28.5759C30.6195 28.5759 31.7716 29.1599 31.2035 30.0752C30.4617 31.1484 28.6152 32.0006 28.6152 32.0006Z" fill="#FFD923"/>
<path d="M53.3793 47.8775C52.7954 48.6508 52.1483 49.4557 51.375 50.229C56.3463 40.681 51.6117 31.9378 51.4066 31.5906C51.7538 31.9378 52.101 32.3165 52.4008 32.6637C56.2358 36.8933 56.6935 43.2534 53.3793 47.8775Z" fill="#D82122"/>
<path d="M58.0006 35.5844C56.2646 30.9288 53.8026 26.9517 48.3736 23.3692C43.134 19.8972 37.5156 20.1655 37.2 20.2128C37.1684 20.2128 37.1211 20.2128 37.1211 20.2128C37.3105 20.1339 37.4999 20.1024 37.705 20.055C38.9045 19.6762 40.4353 19.3606 41.9819 19.1712C46.0695 18.5873 50.1885 19.9761 52.9977 22.9431C53.0293 22.9747 53.0293 22.9747 53.0766 23.022C56.2646 26.4151 57.9217 30.6605 58.0006 35.5844Z" fill="#D82122"/>
<path d="M47.1275 16.5178C41.3829 15.4446 37.6899 15.9812 35.0386 16.9755C34.9597 16.6598 34.6914 16.0443 34.4546 15.5551C33.6498 16.5178 32.7975 17.6699 32.2609 18.4116C30.7932 19.4059 30.1777 20.3686 30.1777 20.3686C31.03 17.4805 33.4919 15.3184 36.4905 14.7818C37.3427 14.624 38.2581 14.545 39.2681 14.545C41.9353 14.5924 44.5866 15.2394 47.1275 16.5178Z" fill="#D82122"/>
<path d="M25.9198 23.9037C21.4062 23.7459 22.9213 18.5063 23.0002 18.2064C22.9844 18.2538 23.3 22.3255 25.9198 23.9037Z" fill="#D82122"/>
<path d="M30.3352 14.4702C26.8632 16.5534 27.5576 21.5247 27.5576 21.5247C24.2591 16.4745 30.0669 14.5965 30.3352 14.4702Z" fill="#D82122"/>
<path d="M24.6406 25.2932C24.8773 25.4826 25.0983 25.8298 24.83 26.3348C24.6722 26.6031 24.4512 26.5716 24.104 26.4137C23.6463 26.177 20.8687 24.5673 18.3594 22.9102C21.2159 23.9044 24.104 24.9934 24.5617 25.2143C24.5617 25.2143 24.609 25.2617 24.6406 25.2932Z" fill="white"/>
</g>
<defs>
<clipPath id="clip0_254_6871">
<rect width="72" height="72" fill="white"/>
</clipPath>
</defs>
</svg>
