<svg width="28" height="27" viewBox="0 0 28 27" fill="none" xmlns="http://www.w3.org/2000/svg">
<path d="M13.6409 0.967242V17.1935C13.6409 17.2702 13.6207 17.3456 13.5823 17.4119C13.5439 17.4783 13.4886 17.5333 13.4221 17.5715L0.946305 24.7577C0.864351 24.8038 0.769686 24.8222 0.676413 24.8102C0.58314 24.7982 0.496251 24.7563 0.428693 24.6908C0.361134 24.6254 0.316521 24.5398 0.3015 24.447C0.28648 24.3541 0.301855 24.2588 0.345337 24.1754L12.8195 0.76181C13.0332 0.36267 13.6409 0.512836 13.6409 0.967242Z" fill="#DB0170"/>
<path d="M14.4629 0.967242V17.1935C14.463 17.2702 14.4832 17.3455 14.5216 17.4118C14.56 17.4782 14.6152 17.5332 14.6816 17.5715L27.1574 24.7577C27.2396 24.805 27.3349 24.8242 27.4289 24.8125C27.523 24.8009 27.6107 24.7589 27.6787 24.6929C27.7468 24.627 27.7916 24.5406 27.8062 24.4469C27.8209 24.3533 27.8047 24.2574 27.7601 24.1737L15.2837 0.76181C15.07 0.36267 14.4629 0.512836 14.4629 0.967242Z" fill="#00F2C8"/>
<path d="M13.8092 18.3457L1.56659 25.4275C1.48342 25.4756 1.41845 25.5498 1.38174 25.6386C1.34504 25.7275 1.33865 25.8259 1.36358 25.9187C1.3885 26.0115 1.44335 26.0935 1.5196 26.152C1.59586 26.2104 1.68926 26.2421 1.78533 26.242H26.2705C26.3665 26.2419 26.4598 26.2102 26.536 26.1517C26.6121 26.0932 26.6669 26.0112 26.6917 25.9185C26.7166 25.8257 26.7102 25.7273 26.6734 25.6385C26.6367 25.5498 26.5718 25.4756 26.4887 25.4275L14.2461 18.3435C14.1795 18.3054 14.104 18.2856 14.0273 18.286C13.9506 18.2863 13.8754 18.307 13.8092 18.3457Z" fill="#3542FE"/>
</svg>
