<svg width="64" height="64" viewBox="0 0 64 64" fill="none" xmlns="http://www.w3.org/2000/svg">
<mask id="mask0_4897_715" style="mask-type:alpha" maskUnits="userSpaceOnUse" x="0" y="0" width="64" height="64">
<path d="M64 32C64 14.3269 49.673 0 32 0C14.3269 0 0 14.3269 0 32C0 49.673 14.3269 64 32 64C49.673 64 64 49.673 64 32Z" fill="url(#paint0_radial_4897_715)"/>
</mask>
<g mask="url(#mask0_4897_715)">
<path d="M64 32C64 14.3269 49.673 0 32 0C14.3269 0 0 14.3269 0 32C0 49.673 14.3269 64 32 64C49.673 64 64 49.673 64 32Z" fill="url(#paint1_radial_4897_715)"/>
<path d="M53.7595 22.0116C53.6257 22.7949 53.4688 23.1746 53.2853 23.6144L53.2849 23.6154C53.0866 24.0917 52.8617 24.6326 52.6582 25.7056C52.5772 26.135 52.5368 26.4502 52.5016 26.7279L52.4992 26.7451L52.4972 26.7613C52.4406 27.2059 52.4027 27.5056 52.2219 28.0388C52.0753 28.4741 51.8301 29.2008 51.2396 29.9834C50.7626 30.6167 49.9642 31.6766 48.8988 31.8035C48.8063 31.8097 48.6128 31.8193 48.5338 31.779C45.5114 30.2355 42.9146 29.0953 42.0158 28.8394C40.9704 28.5431 41.1042 26.2636 41.2225 24.2525C41.2757 23.3536 41.3257 22.5038 41.2836 21.776C41.1367 19.2372 40.6872 16.4583 38.4761 15.1035C37.1561 14.295 35.4533 14.0577 33.8264 14.0543C34.1279 13.9108 34.4642 13.7159 34.8304 13.5028L34.8418 13.4962C35.7996 12.9416 36.9888 12.2529 38.1705 12.1318C38.5568 12.0935 38.9365 12.049 39.3111 12.0073C41.693 11.7376 43.751 11.5058 45.9215 12.2491C46.9055 12.5867 48.9239 13.7128 49.4451 14.7582C49.8121 15.4963 50.4312 16.0716 51.6663 17.2198C52.3092 17.8179 52.7327 18.1659 53.0428 18.4205L53.0569 18.4322C53.4922 18.7902 53.5781 18.865 53.7078 19.1296C54.1079 19.9453 53.962 20.8117 53.7595 22.0116Z" fill="white"/>
<path d="M42.7656 32.4485C42.9087 32.4978 42.9622 32.6716 42.8791 32.7978C42.5562 33.2876 42.1865 33.9595 41.7433 34.781C41.5353 35.1683 41.3384 35.5339 41.1732 35.8191C40.5875 36.8249 40.5399 37.6713 40.5027 38.3508C40.4623 39.0613 40.4264 39.3875 40.0019 39.6707C39.6514 39.9056 39.2924 39.9839 36.8039 40.3629C36.3697 40.4302 36.1769 40.5143 36.0075 40.5882C35.9613 40.6082 35.9154 40.6282 35.863 40.6478C35.7192 40.7016 35.5785 40.5792 35.5871 40.4264C35.6067 40.0677 35.6195 39.6197 35.6209 39.0561V38.9481C35.634 38.4604 35.6136 38.0648 35.596 37.7458C35.5633 37.1105 35.5591 36.8428 35.7285 36.5662C35.9365 36.232 36.0986 36.1299 36.3652 35.9609C36.7373 35.7271 37.2478 35.4053 38.0031 34.3672C38.4046 33.8174 38.4936 33.5194 38.5491 33.2617C38.5733 33.1548 38.5819 33.1148 38.8909 32.8806C39.2176 32.6326 40.2133 31.8783 41.4877 32.0925C41.8402 32.1522 42.2893 32.2839 42.7656 32.4485Z" fill="white"/>
<path d="M32.8634 43.9213C32.8092 43.992 32.7457 44.0248 32.6543 44.0293C32.3943 44.0403 32.2115 43.9758 32.0904 43.8303C31.8338 43.5178 31.8683 42.8901 31.9283 42.5231L32.9806 42.2427C33.0631 42.7997 33.1017 43.6113 32.8634 43.9213Z" fill="white"/>
<path d="M32.9493 40.1238C32.9317 40.2773 32.9124 40.4501 32.9131 40.6309C32.9145 40.6981 32.9152 40.7661 32.9173 40.8319C32.9193 41.004 32.9262 41.2772 32.9024 41.4014C32.5737 41.5211 32.293 41.5211 31.9239 41.5145C31.9184 41.4079 31.9253 41.2489 31.9294 41.1417C31.9315 41.0589 31.936 40.9765 31.937 40.8978C31.9381 40.8106 31.937 40.7247 31.937 40.6388C31.9357 40.4363 31.9329 40.1045 31.9826 40.0069C32.0816 39.9924 32.183 39.9707 32.2916 39.9459C32.5092 39.899 32.7931 39.839 32.9738 39.8662C32.9711 39.9366 32.96 40.0411 32.9493 40.1238Z" fill="white"/>
<path d="M31.0023 43.5977C30.9516 44.1371 30.785 44.8042 30.2791 44.9056C30.0514 44.9525 29.9414 44.8838 29.8721 44.8187C29.5303 44.502 29.4758 43.5453 29.5234 42.861C29.751 42.8651 30.0494 42.8141 30.4025 42.7458C30.6181 42.703 30.8326 42.6554 31.0034 42.6161C31.023 42.8692 31.0372 43.2307 31.0023 43.5977Z" fill="white"/>
<path d="M30.7632 41.6607L29.6216 42.0612C29.6795 41.618 29.7568 40.9944 29.784 40.5801C29.8037 40.2883 29.883 40.199 29.9058 40.1797C29.9134 40.1731 29.9285 40.1593 29.971 40.1593C29.9775 40.1593 29.9841 40.1604 29.9913 40.1604L30.0155 40.1638L30.7367 40.1245C30.7674 40.4636 30.7674 41.2082 30.7632 41.6607Z" fill="white"/>
<path d="M28.9186 41.3062C28.8541 41.478 28.7779 41.9646 28.7303 42.3071L27.3003 42.2637C27.381 41.8208 27.4928 41.37 27.6155 41.011C27.7397 40.654 27.8735 40.3864 27.9967 40.3112C28.1401 40.2249 28.4561 40.2056 28.6496 40.3708C28.9641 40.6392 29.051 40.9461 28.9186 41.3062Z" fill="white"/>
<path d="M28.3843 45.6828C28.2736 45.8342 28.1505 45.9111 27.9981 45.9273C27.8425 45.9449 27.7214 45.9101 27.6249 45.8197C27.1758 45.4051 27.2124 44.0469 27.2289 43.394C27.8218 43.2588 28.4619 43.1439 28.7655 43.1263C28.811 43.673 28.8241 45.0844 28.3843 45.6828Z" fill="white"/>
<path d="M26.5175 42.2247C26.4479 42.4109 26.3803 42.5868 26.3292 42.7427C26.163 42.7948 25.6546 42.7493 25.1355 42.6347L25.4925 40.3842C26.0788 40.2287 26.759 40.1787 26.9235 40.3529C27.1401 40.5829 26.7048 41.7342 26.5175 42.2247Z" fill="white"/>
<path d="M25.8706 46.0253C25.5933 46.3671 25.1773 46.5268 24.5972 46.5206C24.1957 46.514 24.0522 46.3615 23.9805 46.2474C23.6584 45.7373 23.9736 44.5346 24.2895 43.7665L26.2265 43.8827C26.2462 44.0176 26.2624 44.1817 26.27 44.3604C26.2914 44.9071 26.2227 45.5879 25.8706 46.0253Z" fill="white"/>
<path d="M41.878 29.694C40.1342 29.2001 40.2842 26.6502 40.4294 24.1858C40.4808 23.3139 40.5294 22.4892 40.4898 21.8153C40.3559 19.5086 39.9679 16.9963 38.1127 15.8591C36.1171 14.6388 32.8527 14.9168 30.8384 15.1731C30.8367 15.1734 30.835 15.1745 30.8332 15.1748C30.8322 15.1748 30.8315 15.1748 30.8308 15.1752C30.0931 15.3987 29.4029 15.5435 28.868 15.5152C27.6794 15.4538 26.7547 14.9534 25.9404 14.5143C25.3051 14.1701 24.7508 13.8728 24.229 13.8728C24.2014 13.8728 24.1724 13.8728 24.1438 13.8738C22.5824 13.9752 21.8647 14.3567 21.2128 14.9386C21.049 15.0834 20.8489 15.5039 20.1943 17.3902C19.8639 18.3435 19.8028 18.865 19.7414 19.372C19.6862 19.8352 19.63 20.3115 19.3837 21.022C19.2123 21.5125 19.0857 21.9353 18.9633 22.343C18.6405 23.4263 18.3852 24.2796 17.6185 25.2944C17.5285 25.4144 17.4171 25.591 17.2881 25.7921C17.1143 26.0659 16.899 26.4063 16.6152 26.8006C16.4148 27.0782 15.9547 28.1174 15.9799 28.434C16.0175 28.9383 16.1813 29.2511 16.3689 29.6164C16.5555 29.9764 16.768 30.3841 16.8066 30.947L16.8132 31.0384C16.8815 31.9314 16.7542 32.3794 15.0555 33.8966C13.9694 34.8687 13.1979 35.8048 12.6774 36.4918C12.6315 36.5525 12.6912 36.6425 12.7671 36.6363C12.7847 36.6339 12.8023 36.6329 12.8185 36.6329C12.8512 36.6301 12.8837 36.6291 12.9161 36.6291C12.9485 36.6291 12.9813 36.6301 13.0133 36.6315C13.0461 36.6329 13.0775 36.6353 13.1096 36.6401C13.5204 36.687 13.9208 36.8609 14.2098 37.1602C14.2602 37.2123 14.3385 37.2265 14.4054 37.1996C14.682 37.0844 14.9859 37.1033 15.2763 37.1306C15.635 37.1637 15.9971 37.271 16.2351 37.5024C16.3068 37.5724 16.4093 37.6079 16.5072 37.5855C16.7883 37.5217 17.0832 37.5276 17.3567 37.6269C17.5726 37.7073 17.7541 37.8342 17.8982 37.9939C17.999 38.1056 18.1776 38.127 18.3038 38.0456C18.3825 37.9949 18.4691 37.9521 18.5653 37.9197C18.934 37.7945 19.342 37.8659 19.7 37.9946C19.8763 38.058 20.0611 38.1146 20.2201 38.2208C20.5123 38.4154 20.6906 38.6996 20.8044 39.0172C20.8689 39.1962 21.11 39.2583 21.2562 39.1366C21.5191 38.9179 21.727 38.881 21.9367 38.9741C22.0437 39.0224 22.1182 39.0886 22.1682 39.1717C22.2554 39.3162 22.4331 39.4352 22.5955 39.3897C23.1663 39.2307 23.881 39.3135 24.3987 39.5908C24.5815 39.6867 24.7612 39.8333 24.8922 40.0547L24.8926 40.055C24.8929 40.0561 24.894 40.0557 24.894 40.0547L24.9091 39.9564C24.916 39.9119 24.9474 39.875 24.9905 39.8615L25.1106 39.8246C25.3934 39.7346 26.8344 39.3194 27.3949 39.9095C27.419 39.9336 27.4611 39.936 27.4845 39.9109C27.5608 39.8271 27.6229 39.7812 27.6625 39.7584C28.0274 39.537 28.6534 39.5232 29.0697 39.8798C29.1535 39.9502 29.2894 39.9247 29.3526 39.835C29.3915 39.7801 29.4357 39.7315 29.4853 39.6898C29.6316 39.5635 29.8168 39.5032 30.022 39.5159L30.8136 39.4732C31.0126 39.4621 31.6313 39.4201 31.8262 39.379C31.8411 39.3759 31.8562 39.3732 31.8717 39.3707C31.9542 39.358 32.0521 39.3369 32.1546 39.3156C32.5385 39.2317 32.9741 39.1376 33.3317 39.3028C33.6753 39.4618 33.6318 39.8533 33.5904 40.1985C33.5742 40.3385 33.5566 40.4848 33.558 40.6238C33.5604 40.6886 33.5618 40.7538 33.5628 40.8204C33.568 41.118 33.5742 41.3929 33.5152 41.604V41.6054V41.6064L33.5514 41.7699C33.5532 41.7761 33.5549 41.784 33.557 41.7937C33.5894 41.9434 33.7501 42.0269 33.8808 41.9472C34.1567 41.7789 34.4468 41.5602 34.5343 41.4343C34.5408 41.4247 34.546 41.4147 34.5498 41.4036C34.5619 41.3719 34.5843 41.3033 34.6088 41.1598C34.6578 40.8656 34.7126 40.2678 34.7174 39.0541C34.7174 38.99 34.7174 38.9441 34.7188 38.9227C34.7288 38.4723 34.7112 38.1108 34.6936 37.7918C34.6612 37.1337 34.6346 36.616 34.9613 36.089C35.2793 35.5761 35.588 35.3823 35.8846 35.1943C36.2295 34.978 36.6189 34.7325 37.2746 33.8332C37.596 33.3903 37.6357 33.2117 37.6671 33.0689C37.7385 32.7347 37.8488 32.5336 38.3451 32.1583C38.7494 31.8531 39.979 30.9211 41.638 31.2002C42.1819 31.2926 43.0638 31.5827 43.934 31.9255C43.934 31.9255 43.9347 31.9259 43.9354 31.9259H43.9364C43.9688 31.9355 44.0023 31.9469 44.033 31.9631C44.044 31.969 44.0554 31.9745 44.0671 31.9793C44.8445 32.2897 45.6009 32.6364 46.0855 32.9133C46.1983 32.9778 46.3428 32.9406 46.4221 32.8374C46.5808 32.6315 46.7539 32.5122 46.9405 32.4001C47.0106 32.3577 47.0644 32.3253 47.1158 32.2815C47.1333 32.2666 47.1506 32.2521 47.1675 32.2383C47.3123 32.1211 47.312 31.8703 47.1461 31.7848C44.808 30.5759 42.6058 29.9009 41.878 29.694ZM25.2613 30.2306C24.7219 32.5912 21.0652 35.186 19.4031 35.186H19.3703C19.3441 35.1846 19.3151 35.1822 19.2841 35.177C19.2527 35.1722 19.2189 35.1646 19.183 35.1546C19.1654 35.1494 19.1465 35.1432 19.1278 35.1384C18.826 35.0432 18.4084 34.8114 18.0921 34.5003C17.8744 34.2867 17.703 34.0346 17.6492 33.7632C17.6392 33.7156 17.6292 33.6683 17.6189 33.6207C17.5292 33.2192 17.4174 32.7178 17.7717 31.8969C17.8206 31.7869 17.8641 31.6841 17.9041 31.5903C17.9169 31.5592 17.9307 31.5278 17.9431 31.4978C17.9807 31.4092 18.0141 31.3278 18.0445 31.254C18.0945 31.1291 18.1355 31.0229 18.1693 30.9325C18.1831 30.8973 18.1959 30.8635 18.2069 30.8325C18.3083 30.5486 18.3207 30.4424 18.3345 30.3324C18.3473 30.2462 18.3597 30.1406 18.3949 29.9906C18.4987 29.5477 18.5525 29.1725 18.6001 28.8383C18.6853 28.2374 18.7591 27.7187 19.083 27.242C19.1382 27.1609 19.1992 27.0868 19.2682 27.022C19.292 26.9995 19.3148 26.9782 19.3393 26.9568C19.3644 26.9354 19.3896 26.9168 19.4141 26.8978C19.4927 26.8426 19.5769 26.794 19.668 26.7526C19.6993 26.7388 19.7307 26.725 19.7618 26.714C19.8259 26.6902 19.8932 26.6698 19.9635 26.6522C20.2612 26.5802 20.6126 26.5688 21.0165 26.6198C21.4584 26.655 21.8674 26.7385 22.2299 26.8399C22.5327 26.9233 22.8031 27.0213 23.0318 27.1124C23.0556 27.1213 23.0784 27.1299 23.1008 27.1399C23.1446 27.1575 23.187 27.1751 23.2284 27.1941C23.2912 27.2203 23.3484 27.2455 23.4022 27.2689C23.4736 27.3014 23.5388 27.3303 23.5964 27.3562L23.6502 27.3814C23.9055 27.4976 24.1248 27.6252 24.3121 27.759C24.4045 27.827 24.4911 27.8956 24.5684 27.9653C24.5949 27.9881 24.6201 28.0119 24.6432 28.0367C24.6684 28.0608 24.6922 28.0846 24.7146 28.1084C25.4172 28.8483 25.3823 29.704 25.2613 30.2306ZM26.9558 21.2834L26.8848 21.7115C26.7209 22.6758 26.3443 23.9982 24.9557 24.3386C23.6199 24.6652 23.3033 24.7349 22.3524 24.7777C22.3313 24.7801 22.3085 24.7801 22.2861 24.7801C21.5918 24.7801 20.2557 24.3424 20.0191 23.2539C19.8677 22.5534 20.1767 22.0457 20.6858 21.2038C20.7706 21.0648 20.8624 20.9158 20.9596 20.7495C21.6325 19.6158 21.8978 18.7953 22.1109 18.1372C22.3182 17.4943 22.491 16.9628 22.9352 16.5224C23.0377 16.4199 23.1539 16.3234 23.2891 16.2309C23.3753 16.1719 23.4654 16.1195 23.5606 16.0705C23.6868 16.0078 23.8192 15.9533 23.9582 15.9091C24.2673 15.8105 24.6011 15.7605 24.9354 15.7605C25.5831 15.7605 26.2301 15.9467 26.6916 16.3171C26.8992 16.4834 27.1945 16.8159 27.3659 17.7968C27.4542 18.3021 27.3038 19.2306 26.9558 21.2834ZM36.8624 24.0282C36.3844 24.8487 36.1229 25.3006 35.7101 25.6393C34.8909 26.3122 33.9353 26.4826 33.1482 26.4826C32.5829 26.4826 32.1028 26.3953 31.82 26.3436C31.0067 26.1949 29.4933 25.9197 28.989 24.7249C28.8904 24.4887 28.8893 24.3386 28.8893 24.1482C28.8893 23.9603 28.8893 23.6443 28.8017 22.8921L28.7969 22.8421C28.7566 22.5017 28.7117 22.1164 28.8093 21.6221L28.8207 21.5632C29.1059 20.1125 29.1832 19.8907 29.2474 19.7655C29.395 19.4803 29.7451 19.3678 30.0303 19.5144C30.3066 19.6583 30.4218 19.9932 30.2917 20.2746C30.2628 20.357 30.1817 20.6661 29.9613 21.7884L29.9499 21.8474C29.8872 22.164 29.9148 22.404 29.9513 22.7083L29.9561 22.7596C30.051 23.5764 30.051 23.9465 30.051 24.1469C30.051 24.1824 30.051 24.221 30.0524 24.2441C30.0527 24.2531 30.0572 24.2648 30.06 24.2734C30.1545 24.4976 30.3676 24.6677 30.6273 24.7984C30.7887 24.8794 30.9574 24.7253 30.9215 24.5483C30.6632 23.2698 30.6773 21.7784 31.1657 20.8568C31.3258 20.5508 31.6217 20.0501 31.9028 19.5827C31.9038 19.5813 31.9045 19.5803 31.9052 19.5789C31.9059 19.5775 31.9069 19.5765 31.9076 19.5751C31.9362 19.5279 31.9645 19.4813 31.9928 19.4344C32.0166 19.3941 32.0404 19.3558 32.0625 19.3182C32.1863 19.1126 32.3025 18.9239 32.3957 18.7739C32.4081 18.7525 32.4205 18.7311 32.4333 18.7111C32.4419 18.696 32.4508 18.6822 32.4595 18.6698C32.4795 18.637 32.4971 18.607 32.5136 18.5811C32.5209 18.5687 32.5284 18.5573 32.5347 18.5459C32.5384 18.5411 32.5412 18.5359 32.5436 18.5321C32.5522 18.517 32.5612 18.5032 32.5688 18.4921C32.5836 18.4683 32.595 18.4507 32.6012 18.4394C32.6019 18.4383 32.6023 18.4376 32.6026 18.4366C32.604 18.4342 32.6067 18.4304 32.6081 18.428C32.6092 18.4262 32.6095 18.4259 32.6105 18.4242C32.7075 18.2831 32.8033 18.1489 32.8965 18.0227C33.023 17.8513 32.8765 17.6268 32.6792 17.7075C32.2046 17.901 31.8804 18.1483 31.8145 18.2003C31.5631 18.4007 31.1975 18.3593 30.9988 18.1079C30.7998 17.8568 30.8412 17.4902 31.0926 17.2898C31.3916 17.0549 32.9765 15.8988 34.8744 16.4417C36.2419 16.8307 36.9586 17.8754 37.2287 18.2683C37.4463 18.5873 38.1134 19.5558 38.092 20.9078C38.0761 21.9391 37.646 22.681 36.8624 24.0282Z" fill="white"/>
<path d="M24.5363 16.9568C24.439 17.192 24.3227 17.4835 24.1979 17.8001C23.9061 18.5334 23.5753 19.3639 23.4163 19.665C23.1421 20.1854 22.9287 20.5138 22.7583 20.7783C22.5631 21.0822 22.4075 21.3226 22.2902 21.6579C22.0843 22.2442 22.0474 22.8995 22.1813 23.6121C21.8177 23.5721 21.2228 23.3217 21.1555 23.0061C21.1052 22.7712 21.251 22.5143 21.6811 21.8069C21.7673 21.6658 21.8598 21.5123 21.9608 21.3416C22.7 20.0968 22.999 19.1707 23.2191 18.4937C23.4564 17.757 23.5685 17.4479 23.9461 17.1899C24.1151 17.0723 24.3207 16.9975 24.5363 16.9568Z" fill="white"/>
<path d="M23.8142 43.0606C23.4113 43.8835 22.9099 44.643 22.5974 45.0193C22.3387 44.3198 21.8889 42.7171 22.0076 41.4275C22.011 41.3902 22.0152 41.3533 22.0207 41.3174C22.0683 40.9191 22.1742 40.5538 22.3625 40.261C22.4867 40.0685 22.8305 39.9509 23.221 39.9509C23.5093 39.9509 23.8228 40.014 24.0929 40.1589H24.095C24.2395 40.2362 24.4364 40.3928 24.4571 40.8477C24.4868 41.4623 24.1939 42.2884 23.8142 43.0606Z" fill="white"/>
<path d="M45.8854 33.8385C45.9165 33.8636 45.9361 33.9016 45.9182 33.9374C45.7978 34.1792 45.6536 34.3489 45.4833 34.5488C45.2777 34.7937 45.0425 35.071 44.8238 35.5038C44.5123 36.1174 44.4127 36.6775 44.3602 38.1106C44.2985 39.7941 44.3637 40.7395 44.4127 41.429C44.4592 42.095 44.4879 42.4965 44.3692 43.1459C44.1298 44.4562 43.5694 45.3236 42.8596 46.4215C41.9714 47.7945 41.0529 49.2142 39.5319 49.6667C39.3905 49.7102 39.3857 49.7098 38.989 49.7112C38.6438 49.7112 38.0695 49.7129 36.9824 49.7529C34.9954 49.825 33.9986 49.8609 33.1456 50.0247C32.2509 50.1978 31.7843 50.3879 31.3317 50.5707C30.9234 50.7359 30.5374 50.8928 29.7976 51.0449C29.3565 51.1339 28.6974 51.2315 26.4513 51.235C24.117 51.2391 22.7077 51.2402 20.847 51.028C18.294 50.7366 17.0123 50.5907 16.1611 50.1361C14.1534 49.0652 13.3056 47.1392 11.9032 43.9485C11.9008 43.943 11.8983 43.9371 11.8959 43.9313C11.8787 43.8916 11.927 43.8537 11.9643 43.8757C12.0308 43.9171 12.1002 43.9513 12.1733 43.9758C12.2347 43.9975 12.2984 44.014 12.3629 44.0247C12.4912 44.0465 12.6251 44.0478 12.761 44.0247C12.7848 44.0206 12.8065 44.0147 12.8276 44.0061C12.8317 44.0044 12.8355 44.0027 12.8396 44.0009C12.8634 43.9892 12.8927 43.9989 12.9027 44.0233C12.992 44.2693 13.1338 44.4883 13.3718 44.6145C13.6101 44.7387 13.8812 44.748 14.1465 44.7459C14.4196 44.7418 14.6949 44.7266 14.967 44.6938C15.1112 44.6787 15.2588 44.749 15.3139 44.8832C15.5633 45.4875 15.872 45.9248 16.3359 45.9893C16.3611 45.9928 16.3939 45.9972 16.4353 45.9972C16.5398 45.9972 16.7012 45.9669 16.9288 45.8103C17.1051 45.6896 17.3779 45.7603 17.5045 45.9324C17.6204 46.0893 17.7583 46.2025 17.8769 46.2977C18.3546 46.7881 19.5156 47.0233 20.4906 47.0233C21.0225 47.0233 21.4995 46.9533 21.7803 46.8167C22.1817 46.6219 22.1817 46.3225 22.1621 46.2014C22.1279 45.9845 22.0969 45.7693 22.0707 45.5561C22.0675 45.5306 22.1062 45.5206 22.1166 45.5444C22.1748 45.6717 22.2462 45.8303 22.4363 45.861C22.457 45.8631 22.4801 45.8679 22.5063 45.8679C22.7781 45.8679 23.2009 45.9562 23.2737 46.218C23.3109 46.3515 23.3634 46.4763 23.4348 46.5891C23.5979 46.8474 23.9301 47.1551 24.5885 47.1661H24.6395C25.3956 47.1661 25.9792 46.9188 26.3727 46.4301C26.3982 46.3987 26.4227 46.3663 26.4461 46.3335C26.5875 46.1342 27.0077 46.1255 27.1874 46.2911C27.3898 46.4784 27.6447 46.575 27.9285 46.575C27.9741 46.575 28.0203 46.5729 28.0679 46.5674C28.4062 46.5315 28.6991 46.3525 28.9178 46.0466C29.0609 45.8469 29.1654 45.6013 29.2416 45.3357C29.264 45.2574 29.3716 45.234 29.4316 45.2888C29.5761 45.4226 29.8079 45.564 30.1421 45.564C30.2235 45.564 30.3119 45.5554 30.4057 45.5358C31.0624 45.4037 31.3893 44.8601 31.5442 44.2465C31.5493 44.2258 31.579 44.2203 31.5928 44.2365C31.759 44.439 32.066 44.6728 32.6003 44.6728C32.6276 44.6728 32.6558 44.6728 32.6838 44.6714C32.9666 44.6583 33.2049 44.5342 33.377 44.312C33.5864 44.0392 33.6688 43.635 33.6878 43.228C33.6933 43.1093 33.7698 43.0048 33.8795 42.959C34.4431 42.7234 35.1257 42.216 35.3258 41.8704C35.3327 41.8584 35.3396 41.8456 35.3465 41.8325C35.3924 41.7435 35.471 41.6735 35.5693 41.6549C36.0059 41.5721 36.1963 41.4893 36.3695 41.4141C36.5105 41.3521 36.624 41.3031 36.9413 41.2538C39.466 40.8685 39.9589 40.7836 40.5052 40.4194C41.3223 39.8745 41.3637 39.1247 41.4041 38.399C41.4385 37.7854 41.4779 37.0887 41.9545 36.2716C42.1277 35.9733 42.3274 35.6011 42.5398 35.2072C42.9116 34.5177 43.4311 33.5525 43.8029 33.0466C43.8729 32.951 43.9995 32.9214 44.1085 32.9676C44.9811 33.3383 45.7243 33.7095 45.8854 33.8385Z" fill="white"/>
<path d="M21.3671 41.3512C21.267 42.2241 21.206 43.3902 21.3474 44.9092C21.3874 45.3379 21.4433 45.7829 21.5126 46.2336C21.3929 46.2988 21.0356 46.3902 20.4003 46.3802C19.4873 46.362 18.5985 46.1322 18.3315 45.8436L18.2902 45.8063C18.068 45.628 17.9225 45.5104 17.9018 45.1917C17.8949 45.0841 17.9411 44.9775 18.0398 44.8268C18.0943 44.7419 18.166 44.644 18.255 44.5233C18.4085 44.3173 18.5988 44.0607 18.7937 43.7296C19.3652 42.7642 19.5818 42.4662 19.8571 42.0896C19.8788 42.0592 19.9019 42.0286 19.9257 41.9972C20.0878 41.775 20.2782 41.5095 20.5645 41.0732C20.7776 40.7493 20.9549 40.4954 21.1011 40.2961C21.345 39.9646 21.5047 39.7846 21.6071 39.6866C21.5919 39.837 21.5581 40.0481 21.5254 40.243C21.4771 40.5427 21.416 40.9093 21.3671 41.3512Z" fill="white"/>
<path d="M20.9503 27.7804C20.9448 27.788 20.9383 27.7956 20.9327 27.8035C20.8141 27.968 20.6782 28.1539 20.5161 28.5161C20.0808 29.4835 20.0726 30.0312 20.0657 30.4717C20.0615 30.7024 20.0591 30.8863 19.996 31.1008C19.9525 31.2422 19.8818 31.4043 19.8001 31.5913C19.5435 32.179 19.2082 32.9495 19.3586 33.9863C19.1506 33.8863 18.8326 33.6576 18.7885 33.5358C18.7774 33.4793 18.7654 33.4237 18.7526 33.3682C18.6805 33.0447 18.6329 32.8339 18.8385 32.3604C19.3793 31.1132 19.4459 30.8176 19.4883 30.4779C19.4969 30.4037 19.5059 30.3461 19.5276 30.2523C19.6418 29.7605 19.7014 29.3394 19.7504 29.001C19.8232 28.4874 19.8722 28.1477 20.0453 27.8921C20.1084 27.7976 20.2871 27.7487 20.5427 27.7487C20.6437 27.7487 20.7579 27.7562 20.8824 27.7738L20.9114 27.7759C20.9241 27.7773 20.9376 27.7783 20.9503 27.7804Z" fill="white"/>
<path d="M20.2372 40.083C20.2079 39.784 20.1555 39.4843 20.0468 39.2025C20.0392 39.1883 20.0068 39.1162 19.9999 39.1024C19.9802 39.0666 19.9578 39.0328 19.9368 38.9972C19.9354 38.9959 19.9347 38.9959 19.9347 38.9948C19.9333 38.9928 19.9326 38.9928 19.9326 38.9917C19.9206 38.9786 19.9095 38.9659 19.8978 38.9534C19.8802 38.9359 19.8612 38.919 19.8423 38.9034C19.8388 38.8993 19.8357 38.8958 19.8326 38.8945C19.824 38.8872 19.8109 38.8769 19.7968 38.8686C19.7736 38.8565 19.7519 38.8434 19.7295 38.832C19.7226 38.8276 19.7064 38.821 19.6912 38.8155C19.6912 38.8155 19.6902 38.8155 19.6902 38.8144C19.6867 38.8131 19.6833 38.8124 19.6805 38.811C19.6771 38.8089 19.675 38.8076 19.6729 38.8069C19.6695 38.8055 19.6674 38.8048 19.6653 38.8048C19.6633 38.8048 19.6633 38.8034 19.6633 38.8034C19.6564 38.8 19.6522 38.7993 19.6491 38.7979C19.475 38.7341 19.2984 38.6641 19.1135 38.6368C19.1125 38.6368 19.1094 38.6358 19.1069 38.6358H19.1028C19.0821 38.6358 19.0397 38.6316 19.0376 38.6316C19.0117 38.6303 18.9866 38.6303 18.9614 38.6316C18.9493 38.6316 18.9376 38.6316 18.9266 38.6327H18.9169C18.9128 38.6327 18.9076 38.6341 18.9021 38.6341C18.9 38.6361 18.8965 38.6361 18.8952 38.6361C18.8941 38.6361 18.8931 38.6361 18.8931 38.6361C18.8517 38.6482 18.8083 38.6592 18.7669 38.672C18.7493 38.681 18.73 38.6896 18.7124 38.7006C18.6975 38.7093 18.682 38.7203 18.6668 38.7279C18.6658 38.7289 18.6637 38.731 18.6613 38.731L18.6582 38.7344C18.6386 38.7541 18.6179 38.7724 18.5982 38.792C18.5916 38.7989 18.5734 38.8213 18.5603 38.8379C18.5568 38.84 18.5547 38.842 18.5547 38.8441C18.5537 38.8451 18.5537 38.8451 18.5527 38.8462C18.5516 38.8472 18.5516 38.8482 18.5492 38.8493C18.5482 38.8507 18.5482 38.8517 18.5472 38.8517C18.542 38.861 18.5365 38.8689 18.5344 38.8734C18.4644 38.9821 18.3937 39.09 18.3209 39.1973C18.1533 39.4542 17.9815 39.7098 17.8073 39.9637C17.6483 40.1934 17.4897 40.4231 17.3317 40.6524C17.2434 40.7811 17.1565 40.908 17.0696 41.0367C17.0544 41.0584 17.0403 41.0801 17.0261 41.1019C17.1292 41.1215 17.2327 41.1419 17.3372 41.1615C17.5711 41.2043 17.8039 41.2453 18.0412 41.2778C18.5296 41.3443 19.0262 41.375 19.5212 41.3574C19.545 41.3561 19.5688 41.3574 19.5908 41.3616C19.7098 41.1919 19.8499 40.9894 20.0285 40.7183C20.1275 40.5669 20.222 40.4269 20.311 40.2972C20.271 40.2351 20.2458 40.161 20.2372 40.083Z" fill="white"/>
<path d="M18.496 42.1015C18.4539 42.4782 18.0324 43.4529 17.375 44.381C16.8246 45.1571 16.4904 45.3454 16.4238 45.3519C16.1582 45.315 15.8961 44.6576 15.6881 44.0058C15.6047 43.7416 15.5291 43.4781 15.466 43.2573C15.3235 42.7613 15.2977 42.096 15.3225 41.6783C15.8778 41.986 16.8525 42.0688 18.2218 42.0743H18.226C18.3163 42.084 18.4056 42.094 18.496 42.1015Z" fill="white"/>
<path d="M17.5237 39.0004C17.5237 39.0018 17.5237 39.0018 17.5237 39.0025C17.5171 39.0114 17.5116 39.0211 17.5054 39.0297C17.2702 39.3757 17.0332 39.7199 16.7959 40.0644C16.6731 40.2421 16.5514 40.4193 16.4303 40.598C16.3641 40.6949 16.2748 40.8015 16.1975 40.9167C16.0026 40.8708 15.8081 40.8263 15.6153 40.7718C15.4577 40.7263 15.3021 40.6773 15.1493 40.6163C15.1186 40.6053 15.0893 40.5932 15.061 40.5794C15.0359 40.5283 15 40.4825 14.9565 40.4476C14.9576 40.4466 14.9576 40.4435 14.9586 40.4421C15.0141 40.329 15.0707 40.2148 15.1262 40.1017C15.2318 39.8941 15.3377 39.6875 15.4549 39.4871C15.6643 39.1256 15.9164 38.7579 16.2703 38.5237C16.2879 38.5106 16.3072 38.4986 16.3258 38.4868C16.4631 38.4006 16.6004 38.3399 16.7687 38.3192C16.7883 38.3171 16.907 38.3178 16.9625 38.3227C16.9722 38.3227 16.9801 38.3237 16.9856 38.3237H16.9867C16.9908 38.3251 16.9987 38.3271 17.0105 38.3313C17.0518 38.3444 17.0936 38.353 17.135 38.3672C17.1491 38.3741 17.1619 38.3803 17.1764 38.3879C17.2122 38.4096 17.2491 38.4292 17.2829 38.4565C17.2284 38.4151 17.3581 38.5489 17.3581 38.5393C17.4626 38.6838 17.4944 38.8048 17.5237 39.0004Z" fill="white"/>
<path d="M15.6602 38.0194C15.225 38.3774 14.9083 38.8541 14.6441 39.35C14.4958 39.6253 14.362 39.906 14.2227 40.1857C14.2085 40.2144 14.1944 40.2416 14.1782 40.2696C14.0464 40.2409 13.9147 40.203 13.786 40.1619C13.6491 40.1185 13.5129 40.0685 13.3825 40.0078C13.3228 39.9791 13.2628 39.9498 13.2031 39.9184C13.3335 39.6715 13.4891 39.4342 13.6374 39.2038C13.8464 38.8782 14.0726 38.5585 14.3186 38.2581C14.411 38.1439 14.5089 38.0187 14.6386 37.9435C14.7711 37.8652 14.9314 37.8838 15.0836 37.8925C15.2446 37.9025 15.4178 37.9066 15.5699 37.9677C15.6013 37.9811 15.6354 38.0021 15.6602 38.0194Z" fill="white"/>
<path d="M14.9689 43.8609C14.9472 43.8791 14.9289 43.8988 14.9127 43.9219C14.8975 43.926 14.882 43.9295 14.8724 43.9319C14.7679 43.9426 14.6613 43.9502 14.5557 43.9571C14.3533 43.9698 14.1477 43.9788 13.9432 43.9712C13.829 43.9671 13.7256 43.9495 13.6786 43.8767C13.6035 43.7626 13.5807 43.5632 13.5538 43.4118C13.42 42.6685 13.4024 41.8942 13.4972 41.142C13.8856 41.2813 14.2853 41.3893 14.6951 41.4565C14.6068 42.1346 14.7572 43.13 14.8451 43.4349C14.8862 43.5767 14.9275 43.7201 14.9689 43.8609Z" fill="white"/>
<path d="M13.7195 37.7718C13.3757 38.194 13.0625 38.6434 12.7814 39.109C12.6679 39.2984 12.5396 39.4943 12.4451 39.6968C12.3089 39.6588 12.1861 39.6043 12.0557 39.5236C11.9557 39.4615 11.8584 39.3929 11.7639 39.3212C11.7401 39.3015 11.6749 39.2505 11.6342 39.2177C11.6249 39.2105 11.616 39.2029 11.606 39.1973C11.6373 39.1084 11.6949 39.009 11.7267 38.9425C11.7988 38.7848 11.8791 38.63 11.9633 38.4793C12.123 38.1964 12.3016 37.9198 12.5041 37.6653C12.5793 37.5715 12.6507 37.4507 12.7676 37.4159C12.8742 37.3856 13.0146 37.3997 13.1004 37.4145C13.355 37.4638 13.5543 37.5794 13.7195 37.7718Z" fill="white"/>
<path d="M11.0706 39.6037C11.0755 39.5857 11.0989 39.5833 11.1096 39.5985C11.2 39.7271 11.3259 39.8389 11.4611 39.9441C11.5214 39.99 11.5811 40.0355 11.6421 40.0786C11.6497 40.0841 11.6532 40.0934 11.6511 40.1027C11.5087 40.6929 11.4114 41.3196 11.4131 41.937C11.4131 41.9642 11.3721 41.9697 11.3659 41.9432C11.1917 41.2244 10.9551 40.0262 11.0706 39.6037Z" fill="white"/>
<path d="M12.7539 40.8877C12.6842 41.4012 12.6508 41.9162 12.6732 42.4339C12.6842 42.7177 12.7146 42.9999 12.7529 43.2803C12.7529 43.2823 12.7529 43.2848 12.7539 43.2858V43.2872C12.6929 43.273 12.629 43.271 12.5639 43.2803C12.5766 43.2761 12.5432 43.2782 12.529 43.2782H12.5249C12.5152 43.2772 12.5011 43.2761 12.4963 43.2751C12.4245 43.2575 12.4183 43.2499 12.3614 43.214C12.2872 43.1661 12.2089 43.0788 12.1569 42.9899C12.0186 42.7505 11.9882 42.4597 11.9772 42.1886C11.9568 41.6568 12.0024 41.1256 12.1017 40.6045C12.1865 40.639 12.2603 40.6707 12.3835 40.7238C12.5052 40.7769 12.6315 40.8294 12.7546 40.8863V40.8877H12.7539Z" fill="white"/>
<g opacity="0.8" filter="url(#filter0_i_4897_715)">
<path opacity="0.8" d="M26.334 67.7624C23.9904 67.7624 21.7675 67.6144 19.9022 67.4692L19.388 67.4292L18.8744 67.3578C18.6499 67.3261 18.3446 67.2933 18.0501 67.2612C16.2555 67.066 12.9182 66.7025 9.23428 64.9725L8.66208 64.7027L8.12851 64.404C1.04829 60.4352 -1.60162 54.4625 -3.0285 51.2514C-3.11921 51.0476 -3.22958 50.7992 -3.33305 50.5706C-4.05356 49.0964 -4.50883 47.7675 -4.89513 46.551L-4.98101 46.2793L-5.0524 46.0154C-6.08022 42.3628 -6.33994 39.2087 -5.86914 36.0897C-5.39731 32.9579 -4.23705 30.1086 -2.22176 27.1262L-1.1767 25.4196C-0.964581 25.0751 -0.814888 24.6957 -0.73418 24.299C0.0625503 20.3502 1.87054 17.553 2.75902 16.2172C3.00356 14.5999 3.40675 13.011 3.96274 11.4731L4.04552 11.2399L4.13416 11.0126C4.14865 10.9726 4.16727 10.916 4.20142 10.8129C4.60047 9.61092 5.5362 6.79784 7.93192 3.84406L8.83177 2.75418L9.74853 1.92606C12.1035 -0.214082 14.9094 -1.79789 17.9583 -2.70844C19.6608 -3.21614 21.4157 -3.52654 23.1888 -3.63346L23.3602 -3.64625L23.6186 -3.65832C23.9252 -3.67281 24.2308 -3.67971 24.5288 -3.67971C25.6352 -3.68178 26.74 -3.58865 27.8302 -3.4017C28.5117 -3.28684 29.2116 -3.36686 29.8493 -3.63246C31.7397 -4.42126 33.7271 -4.95479 35.7581 -5.21899C35.9278 -5.24313 36.0758 -5.26176 36.1923 -5.27693C36.5128 -5.31694 37.0218 -5.37699 37.6372 -5.43562C38.7098 -5.53806 40.3547 -5.66016 42.1378 -5.66016C45.62 -5.66016 48.6176 -5.20902 51.3009 -4.28122L51.5293 -4.2019L51.7524 -4.11805C57.6741 -1.88032 60.6886 1.24591 62.8567 4.00379L62.9594 4.13516L63.2578 4.40043C65.2162 5.93281 66.8817 7.806 68.1741 9.93061L68.5783 10.5956L68.9194 11.293C71.8159 17.2054 70.8954 22.6646 70.5484 24.7157L70.5298 24.8254C70.2804 26.3385 69.8834 27.8237 69.3447 29.2595C69.1464 30.644 68.8204 32.007 68.3707 33.3311C67.6019 35.6851 66.4675 37.9032 65.0092 39.9047C64.1697 41.0922 63.2216 42.1994 62.1772 43.2117C61.8078 43.5686 61.5684 44.0387 61.497 44.5471C61.4519 44.8603 61.4005 45.17 61.3418 45.4767C60.4927 50.0311 58.5008 53.2008 57.6879 54.4632L55.2298 57.9936C52.2694 61.6817 48.7569 64.1143 44.5066 65.4215L43.4768 65.7443L42.3644 65.9378C41.0921 66.1624 39.8025 66.2741 38.5105 66.2714C38.3321 66.2714 38.1528 66.2714 37.9538 66.2662H37.8965L37.6772 66.28L37.4419 66.2886H37.4354C36.9429 66.3052 36.4545 66.3855 35.9826 66.528C33.2373 67.3678 30.1318 67.7624 26.334 67.7624Z" stroke="url(#paint2_linear_4897_715)" stroke-width="0.409515" stroke-miterlimit="10"/>
<path opacity="0.8" d="M26.3342 65.3351C24.0885 65.3351 21.9345 65.192 20.1241 65.0492L19.6951 65.0161L19.266 64.9568C18.9984 64.9195 18.6717 64.8854 18.3561 64.8495C16.6133 64.6601 13.6996 64.3432 10.4468 62.8177L9.96907 62.5931L9.52483 62.3434C3.27686 58.8392 0.965298 53.6359 -0.416394 50.5262C-0.515037 50.3045 -0.636095 50.032 -0.748879 49.7847C-1.39247 48.4644 -1.81464 47.2448 -2.17093 46.1228L-2.24232 45.8966L-2.30441 45.6765C-3.21841 42.4279 -3.45466 39.6559 -3.04699 36.9511C-2.63931 34.2459 -1.61218 31.7463 0.17926 29.1116L1.51819 26.9253C1.75514 26.5379 1.91758 26.1096 1.99726 25.6629C2.66396 21.9486 4.4185 19.3153 5.21593 18.1167L5.31664 17.965L5.35389 17.9049C5.37044 17.8684 5.38596 17.8335 5.40114 17.7956C5.44977 17.6376 5.49771 17.4845 5.54428 17.3386C5.75398 15.8148 6.12406 14.3179 6.64901 12.8721L6.72075 12.6776L6.79732 12.4823C6.82146 12.4203 6.84423 12.353 6.91148 12.1512C7.29122 11.0068 8.08175 8.63112 10.1495 6.08192L10.8996 5.17378L11.6612 4.48501C13.7034 2.62942 16.136 1.25635 18.7797 0.466865C20.2807 0.0212477 21.8276 -0.250538 23.3904 -0.343317L23.5335 -0.354707L23.7481 -0.364706C24.0091 -0.377123 24.2695 -0.382641 24.5234 -0.382641C25.6447 -0.38471 26.7629 -0.707539 27.8614 -0.48197C28.7088 -0.30676 29.5901 -0.400569 30.3816 -0.750304C31.8606 -1.40252 33.8517 -1.66293 36.1313 -1.94678C36.2938 -1.97058 36.4352 -1.98817 36.5452 -2.00197C36.8449 -2.03991 37.3244 -2.09647 37.9042 -2.15131C38.9127 -2.24789 40.4647 -2.36584 42.1334 -2.36584C45.2924 -2.36584 47.9837 -1.9661 50.3618 -1.14385L50.5518 -1.07797L50.7377 -1.00622C55.9869 0.976984 58.5809 3.63171 60.602 6.20574C60.7141 6.34888 60.8293 6.49546 60.8721 6.54617L60.92 6.58893L61.3036 6.93039L61.355 6.98316C63.1012 8.3207 64.5829 9.97177 65.7249 11.8515L66.0612 12.4058L66.3471 12.9866C68.8387 18.0722 68.0579 22.6991 67.7247 24.6751L67.7068 24.7803C67.4702 26.2158 67.0835 27.6227 66.5524 28.9771C66.3851 30.2953 66.085 31.5932 65.657 32.8514C64.9772 34.9341 63.9738 36.8973 62.6839 38.6681C61.8106 39.9097 60.8007 41.0489 59.6736 42.0654C59.1507 42.5351 58.8206 43.1822 58.7475 43.8813C58.693 44.3962 58.6195 44.8967 58.5264 45.3882C57.7776 49.4084 56.0276 52.189 55.2263 53.4341L53.2352 56.3286C50.5891 59.7287 47.4536 61.9523 43.6551 63.1232L42.797 63.3919L41.8671 63.553C40.7576 63.7489 39.6325 63.8462 38.5057 63.8441C38.3418 63.8441 38.1746 63.8441 37.9945 63.8396H37.9435H37.8369C37.8369 63.8396 37.8014 63.8396 37.7283 63.8448L37.5317 63.8569L37.3337 63.8641L36.9381 63.8789C36.4152 63.8976 35.8975 63.9876 35.3988 64.1466C32.8698 64.954 29.9474 65.3351 26.3342 65.3351Z" stroke="url(#paint3_linear_4897_715)" stroke-width="0.409515" stroke-miterlimit="10"/>
<path opacity="0.8" d="M26.3353 62.4757C24.1897 62.4757 22.1026 62.3363 20.346 62.1997L20.0035 62.1732L19.6617 62.1259C19.352 62.0832 19.0037 62.0452 18.6667 62.008C17.0011 61.8269 14.4857 61.553 11.6651 60.23L11.2823 60.0506L10.9246 59.8509C5.50647 56.8133 3.51671 52.3327 2.19918 49.3675C2.08709 49.1137 1.95981 48.8274 1.84185 48.5622C1.26966 47.3985 0.8875 46.2886 0.562254 45.2607L0.505 45.0803L0.454989 44.9034C-0.345537 42.06 -0.556964 39.6695 -0.212403 37.3814C0.137331 35.0612 1.04857 32.8985 2.65342 30.5738L2.84449 30.2979L3.05109 30.0326C3.18112 29.8667 3.30633 29.7029 3.42946 29.5425L4.23481 28.0656C4.499 27.5831 4.67732 27.0582 4.76182 26.5146C5.27401 23.2011 6.87023 20.8071 7.60695 19.7031L7.6104 19.6972C7.65282 19.6341 7.70697 19.5541 7.73491 19.5099L7.89219 19.2588C7.95392 19.1243 8.03532 18.9456 8.10672 18.758C8.17846 18.5342 8.26365 18.2576 8.35643 17.9713C8.53095 16.5599 8.86551 15.1727 9.35355 13.8369L9.40908 13.681L9.47013 13.5234C9.52152 13.3927 9.55946 13.2788 9.63396 13.055C9.98645 11.9958 10.64 10.0298 12.3787 7.88486L12.9802 7.15746L13.5876 6.60906C15.3159 5.03836 17.375 3.87568 19.6131 3.2076C20.912 2.822 22.2513 2.58815 23.604 2.5109L23.7182 2.50227L23.892 2.49434C24.1065 2.48433 24.3211 2.47951 24.5356 2.47951C25.699 2.47778 26.8575 2.62506 27.9829 2.91788C28.9576 3.16449 29.9882 3.05551 30.8895 2.61092C32.3322 1.91076 34.2619 1.16783 36.5223 0.890181C36.6775 0.868107 36.8086 0.850858 36.9152 0.837407C37.1963 0.802227 37.644 0.749463 38.1875 0.694278C39.1336 0.603568 40.5884 0.495605 42.1446 0.495605C44.9804 0.495605 47.3655 0.843619 49.4397 1.56033L49.5922 1.61344L49.7408 1.66898C54.5619 3.49146 56.7203 5.8782 58.3649 7.97143C58.7273 8.43257 58.7822 8.50431 59.0312 8.7254L59.3382 8.99856L59.4575 9.12066C60.2508 9.73528 61.8729 11.0004 63.2925 13.3406L63.5619 13.7838L63.7895 14.248C65.8765 18.5069 65.2271 22.3533 64.9153 24.2023L64.8981 24.3044C64.6749 25.6599 64.2972 26.9857 63.7723 28.2553L63.7581 28.3719C63.6195 29.5863 63.3511 30.7825 62.9576 31.94C62.3675 33.7524 61.4949 35.4606 60.3722 37.0009C59.433 38.3471 58.3041 39.5501 57.0208 40.5735C56.7155 40.8156 56.4655 41.1201 56.2875 41.4668C56.1095 41.8137 56.0081 42.1945 55.9895 42.5839C55.9546 43.3479 55.8667 44.1091 55.7263 44.861C55.0782 48.3469 53.5565 50.7637 52.7798 51.9702L51.2363 54.251C48.9096 57.3569 46.1517 59.3674 42.8189 60.3893L42.1332 60.6039L41.3914 60.7329C40.4432 60.9005 39.4816 60.9836 38.5186 60.9815C38.3689 60.9815 38.2168 60.9815 38.0523 60.9774H38.0144H37.8499C37.8219 60.9774 37.7367 60.9774 37.5636 60.9881L37.4063 60.9981L37.2542 61.0039L36.4589 61.0333C35.9018 61.0522 35.3503 61.1516 34.8216 61.3282C32.5053 62.1087 29.7723 62.4757 26.3353 62.4757Z" stroke="url(#paint4_linear_4897_715)" stroke-width="0.383921" stroke-miterlimit="10"/>
<path opacity="0.8" d="M26.3343 59.6144C24.2838 59.6144 22.2679 59.4791 20.5671 59.347L20.3102 59.327L20.0536 59.2919C19.7025 59.2432 19.3327 59.2025 18.9744 59.1639C17.4088 58.9928 15.268 58.7604 12.8785 57.6398L12.5926 57.5046L12.3256 57.3552C7.737 54.7805 6.04903 50.9821 4.81599 48.2063C4.68803 47.9203 4.5549 47.6192 4.42349 47.3309C3.89924 46.2769 3.56537 45.2646 3.28772 44.3985L3.24496 44.2633L3.20771 44.1312C1.86603 39.3629 2.37028 36.018 5.00638 32.2015L5.14952 31.9939L5.30473 31.7952C5.47994 31.5714 5.64377 31.3561 5.80518 31.1516C6.04834 30.8326 6.29461 30.5077 6.5626 30.1738C6.72919 29.9658 6.86335 29.7337 6.96096 29.4857L7.26345 28.7135C7.39175 28.3848 7.47211 28.0399 7.50246 27.6884C7.76494 24.6294 9.25252 22.3996 9.98923 21.2945L9.99337 21.2887C10.0472 21.2073 10.1286 21.0859 10.1558 21.0421L10.3283 20.7668L10.381 20.6951C10.4728 20.5099 10.6521 20.1188 10.8101 19.709C10.8953 19.4286 11.0298 18.9982 11.1612 18.6067C11.1612 18.5919 11.1612 18.5753 11.1671 18.5581C11.3082 17.2764 11.6034 16.0165 12.0469 14.8055L12.089 14.6882L12.1349 14.5703C12.2149 14.3664 12.2715 14.196 12.3494 13.9608C12.664 13.0154 13.1903 11.4327 14.601 9.6933L15.0521 9.14697L15.505 8.73791C18.8361 5.71515 22.5638 5.45441 23.8096 5.37059L23.8955 5.36404L24.0272 5.35783C24.1966 5.3499 24.3663 5.34645 24.5322 5.34645C26.0111 5.35162 27.4746 5.65066 28.8369 6.22665C29.0784 6.32702 29.3388 6.37255 29.5999 6.36013C29.861 6.34771 30.1159 6.2777 30.3466 6.15525H30.3538C31.6203 5.42061 33.9405 4.08892 36.8987 3.73264C37.0415 3.71125 37.1733 3.69504 37.2699 3.68263C37.5303 3.64986 37.9455 3.60123 38.4563 3.55191C39.3403 3.4674 40.6979 3.3667 42.141 3.3667C44.6536 3.3667 46.7334 3.664 48.5 4.27483L48.6145 4.31415L48.7259 4.35657C52.8575 5.91761 54.6393 7.87668 56.1096 9.74917C56.5052 10.2496 56.6818 10.4821 57.1247 10.8725L57.3547 11.0777L57.5393 11.2674L57.6824 11.3806C58.3826 11.9224 59.6849 12.9316 60.8407 14.8327L61.0432 15.1652L61.2139 15.5136C62.8946 18.9464 62.369 22.0599 62.0865 23.7334L62.0703 23.8327C61.8709 25.0495 61.5246 26.2374 61.0387 27.3701L60.998 27.4673C60.9938 27.4884 60.988 27.5191 60.9794 27.5639C60.9573 27.6791 60.9445 27.7708 60.9293 27.8874L60.9121 28.0188C60.7976 29.0449 60.572 30.0555 60.2392 31.0326C59.7387 32.5743 58.9972 34.0271 58.0428 35.3368C57.0988 36.6771 56.0403 37.7687 54.8525 38.6327C54.331 39.0135 53.905 39.5105 53.6084 40.0841C53.3118 40.6577 53.1524 41.2926 53.1431 41.9383C53.1331 42.7436 53.0541 43.5466 52.9075 44.3385C52.3598 47.2916 51.0995 49.2913 50.3152 50.5099L49.1936 52.1913C47.1852 54.9971 44.816 56.7889 41.9644 57.6618L41.8136 57.7091C41.5715 57.7853 41.3246 57.845 41.0749 57.8881L40.8938 57.9195C40.107 58.0588 39.3096 58.1282 38.5108 58.1261C38.3756 58.1261 38.2383 58.1261 38.0893 58.1226H38.0652C37.9973 58.1226 37.9221 58.1226 37.8421 58.1226C37.7862 58.1226 37.6389 58.1226 37.3726 58.1392L37.2547 58.1461L37.1395 58.1506C36.757 58.1647 36.2814 58.1813 35.8571 58.1999C35.276 58.224 34.7017 58.3365 34.1544 58.5338C32.1018 59.267 29.5899 59.6144 26.3343 59.6144Z" stroke="url(#paint5_linear_4897_715)" stroke-width="0.358326" stroke-miterlimit="10"/>
<path opacity="0.8" d="M26.3332 56.7538C24.38 56.7538 22.4341 56.623 20.7878 56.4951L20.6161 56.482L20.445 56.4578C20.0511 56.4033 19.6583 56.3606 19.2799 56.3199C17.841 56.1633 16.0502 55.9681 14.0918 55.0496L13.9004 54.9596L13.7228 54.8602C9.964 52.7525 8.5592 49.5883 7.42929 47.0457C7.29029 46.7325 7.14302 46.4093 6.99988 46.0945C6.55737 45.2111 6.25765 44.3065 6.01173 43.5321L5.9831 43.4425L5.95792 43.3545C4.85078 39.4209 5.21638 36.9241 7.35686 33.825L7.45205 33.6871L7.55587 33.555C7.74246 33.3159 7.91319 33.0928 8.07633 32.8776C8.63508 32.145 9.1721 31.44 9.97538 30.5826C10.1513 30.3942 10.2568 30.1507 10.2734 29.8938L10.3344 28.9681L10.3106 28.6649L10.3213 28.3503C10.4051 25.8122 11.6803 23.9024 12.3625 22.8767C12.4415 22.758 12.5235 22.6359 12.5722 22.558L12.6874 22.3748L12.794 22.2317C12.9212 22.0237 13.2558 21.3143 13.5089 20.6334C13.5962 20.3471 13.7652 19.8015 13.9139 19.3686C13.9577 19.2307 13.9618 19.1972 13.9977 18.901C14.1139 17.83 14.3605 16.777 14.732 15.7658L14.7599 15.6868L14.7906 15.6074C14.8965 15.337 14.9703 15.1163 15.0555 14.86C15.3249 14.0492 15.7312 12.8268 16.8142 11.4917L17.116 11.1268L17.4147 10.8564C19.7486 8.73727 22.2909 8.33615 24.0068 8.22095L24.0648 8.21578H24.1534C24.2779 8.21026 24.4018 8.2075 24.5232 8.2075C25.9887 8.2075 27.7415 8.91042 28.662 9.33534C28.8821 9.43605 29.1201 9.49262 29.3622 9.50158C29.6043 9.51021 29.8457 9.47089 30.0723 9.38604C30.6452 9.17841 31.2033 8.93284 31.7431 8.6507C32.914 7.97124 34.8567 6.84926 37.2689 6.56816C37.4021 6.54816 37.5214 6.53298 37.6201 6.52022C37.8625 6.49021 38.2454 6.44882 38.7193 6.39916C39.5419 6.32052 40.8015 6.22705 42.1325 6.22705C44.3209 6.22705 46.0954 6.47297 47.5564 6.97791L47.6323 7.00447L47.7037 7.03241C51.1545 8.33615 52.5279 9.83442 53.8489 11.5158C54.278 12.058 54.5811 12.4457 55.2113 13.0093L55.3644 13.1459L55.5072 13.289C55.6358 13.4163 55.7742 13.5332 55.9214 13.6387C56.5136 14.0971 57.5063 14.8652 58.3868 16.3149L58.5213 16.5366L58.6355 16.7691C59.9116 19.3731 59.5016 21.802 59.2563 23.253L59.2401 23.3516C59.077 24.3536 58.7914 25.3314 58.3896 26.2633V26.2706C58.2785 26.5116 58.2016 26.7669 58.1616 27.0293C58.1271 27.2125 58.1057 27.3598 58.085 27.5229L58.0678 27.6557C57.976 28.4928 57.7929 29.3174 57.5221 30.1145C57.1138 31.3869 56.5029 32.5847 55.7135 33.6622C54.5477 35.3251 53.2001 36.495 51.5767 37.2383C51.1821 37.4184 50.8451 37.7036 50.603 38.0633C50.3605 38.4227 50.2222 38.8421 50.2032 39.275C50.1957 39.4526 50.1925 39.5985 50.1977 39.6799C50.2777 40.9309 50.3684 42.3484 50.0898 43.8088C49.6428 46.2241 48.6198 47.8476 47.851 49.0396C47.851 49.0396 44.3236 53.949 41.1139 54.9289L40.7684 55.0368L40.3972 55.1017C39.7726 55.2127 39.1394 55.2676 38.5047 55.2655C38.3847 55.2655 38.2616 55.2655 38.1295 55.262H38.1177C38.0329 55.262 37.9405 55.262 37.836 55.262C37.7101 55.262 37.5049 55.262 37.1858 55.2841L37.1079 55.2893H37.031C35.8027 55.3334 34.6421 55.3752 34.3192 55.4379C34.1467 55.4648 33.9784 55.5142 33.8187 55.5852C32.0021 56.3813 29.6198 56.7538 26.3332 56.7538Z" stroke="url(#paint6_linear_4897_715)" stroke-width="0.332731" stroke-miterlimit="10"/>
<path opacity="0.8" d="M26.3344 53.8941C24.4792 53.8941 22.6018 53.7675 21.0098 53.6437L20.9246 53.6371L20.8394 53.625C20.4038 53.565 19.9906 53.5199 19.5901 53.4764C18.2353 53.3288 16.8343 53.1767 15.3074 52.4606L15.2116 52.4148L15.1229 52.3655C12.1905 50.7206 11.1013 48.2638 10.0449 45.885C9.89483 45.5477 9.73962 45.1987 9.57924 44.8517C9.22158 44.145 8.96842 43.3869 8.74112 42.6688L8.72664 42.6246L8.71388 42.5794C7.83368 39.4484 8.05752 37.8498 9.71514 35.4516L9.76308 35.3802L9.81447 35.3137C10.009 35.0657 10.1859 34.8339 10.356 34.6101C11.1527 33.5649 11.8415 32.6616 13.3849 31.2371L13.3891 31.2326C13.5025 31.1247 13.5819 30.986 13.6181 30.8336C13.6543 30.6815 13.6453 30.5218 13.5929 30.3745L13.3149 29.5812C13.259 29.3312 13.2197 29.0777 13.1976 28.8224V28.8138L13.1804 28.5993L13.1859 28.442C13.2425 26.7192 14.1489 25.361 14.748 24.4618C14.8418 24.3187 14.9311 24.1879 15.0005 24.0762L15.0577 23.9848L15.1222 23.8982C15.4406 23.4692 15.9576 22.2813 16.2294 21.5453C16.3008 21.3187 16.4839 20.7099 16.6364 20.2688C16.7447 19.9366 16.815 19.5938 16.8457 19.2458C16.9357 18.3849 17.1334 17.5382 17.4338 16.7263L17.4479 16.6862L17.4638 16.6469C17.5959 16.3072 17.689 16.0282 17.779 15.7578C18.0187 15.0376 18.2898 14.2209 19.0441 13.2903L19.1959 13.1072L19.3439 12.9737C21.0018 11.4675 22.8191 11.164 24.2208 11.0712H24.2501H24.296C24.3747 11.0712 24.4533 11.066 24.5312 11.066C25.8954 11.066 26.9439 11.6254 27.6375 11.9959L27.7992 12.0818L27.8234 12.0945C28.0138 12.1976 28.181 12.2877 28.3362 12.3642C28.7674 12.5805 29.2627 12.6312 29.7286 12.5074C30.6785 12.2518 32.1606 11.6899 33.1573 11.1419L33.178 11.1298C34.2265 10.5217 35.8058 9.60636 37.6566 9.40321C37.7731 9.38459 37.8849 9.37114 37.9901 9.35734C38.2046 9.33044 38.5619 9.28595 38.9989 9.24663C39.7601 9.17523 40.9221 9.08728 42.1403 9.08728C44.0056 9.08728 45.4739 9.28181 46.6296 9.68086L46.6676 9.69431L46.7062 9.7088C49.4748 10.7549 50.4846 11.85 51.6094 13.2848C52.0674 13.8677 52.4999 14.4181 53.3205 15.1487L53.3967 15.22L53.4684 15.2914C53.6902 15.5153 53.9292 15.7212 54.1834 15.9074C54.6756 16.2886 55.3499 16.8108 55.9559 17.8075L56.0231 17.9186L56.0804 18.0351C56.9506 19.8124 56.6609 21.5301 56.4494 22.7838L56.4329 22.8828C56.3063 23.6737 56.0794 24.4452 55.7582 25.1792C55.571 25.6017 55.4378 26.0463 55.3623 26.5023C55.3123 26.7668 55.283 26.9737 55.2585 27.1652L55.2412 27.3011C55.1726 27.9495 55.0322 28.5879 54.8229 29.2049C54.5055 30.2065 54.0258 31.1488 53.4025 31.9942C52.3513 33.5035 51.1855 34.4341 49.6369 34.9267C48.895 35.1616 48.2565 35.6451 47.8296 36.2956L47.7068 36.4846L47.5709 36.6398C47.1773 37.0875 47.2884 38.8224 47.3563 39.8581C47.4277 40.9946 47.5043 42.1697 47.2918 43.2762C46.9428 45.1676 46.1326 46.4445 45.4073 47.5671C45.4073 47.5671 42.7139 51.4528 40.2837 52.1909L40.1068 52.2468L39.9209 52.2789C39.458 52.362 38.9886 52.4027 38.5185 52.4006C38.4126 52.4006 38.304 52.4006 38.1888 52.4006C38.0867 52.4006 37.9742 52.4006 37.8497 52.4006C37.6845 52.4006 37.4206 52.4006 37.0188 52.4286H36.9802H36.9416C35.3116 52.4879 34.3283 52.5227 33.7847 52.6286C33.4188 52.6935 33.0618 52.8 32.7203 52.947C31.2648 53.5923 29.2323 53.8941 26.3344 53.8941Z" stroke="url(#paint7_linear_4897_715)" stroke-width="0.332731" stroke-miterlimit="10"/>
</g>
</g>
<defs>
<filter id="filter0_i_4897_715" x="-6.30029" y="-5.86487" width="77.5731" height="73.9856" filterUnits="userSpaceOnUse" color-interpolation-filters="sRGB">
<feFlood flood-opacity="0" result="BackgroundImageFix"/>
<feBlend mode="normal" in="SourceGraphic" in2="BackgroundImageFix" result="shape"/>
<feColorMatrix in="SourceAlpha" type="matrix" values="0 0 0 0 0 0 0 0 0 0 0 0 0 0 0 0 0 0 127 0" result="hardAlpha"/>
<feOffset dx="0.102379" dy="0.153568"/>
<feGaussianBlur stdDeviation="0.127973"/>
<feComposite in2="hardAlpha" operator="arithmetic" k2="-1" k3="1"/>
<feColorMatrix type="matrix" values="0 0 0 0 0 0 0 0 0 0 0 0 0 0 0 0 0 0 0.12 0"/>
<feBlend mode="normal" in2="shape" result="effect1_innerShadow_4897_715"/>
</filter>
<radialGradient id="paint0_radial_4897_715" cx="0" cy="0" r="1" gradientUnits="userSpaceOnUse" gradientTransform="translate(32 35.3535) rotate(90) scale(35.9512)">
<stop offset="0.166667" stop-color="#073183"/>
<stop offset="1" stop-color="#0054F9"/>
</radialGradient>
<radialGradient id="paint1_radial_4897_715" cx="0" cy="0" r="1" gradientUnits="userSpaceOnUse" gradientTransform="translate(32 35.3535) rotate(90) scale(35.9512)">
<stop offset="0.166667" stop-color="#073183"/>
<stop offset="1" stop-color="#0054F9"/>
</radialGradient>
<linearGradient id="paint2_linear_4897_715" x1="-6.0954" y1="-5.66016" x2="67.2411" y2="71.3108" gradientUnits="userSpaceOnUse">
<stop offset="0.205697" stop-color="#89D0FF"/>
<stop offset="0.398413" stop-color="#EBBF9A"/>
<stop offset="0.601546" stop-color="#EB8280"/>
<stop offset="0.841139" stop-color="#A281FF"/>
</linearGradient>
<linearGradient id="paint3_linear_4897_715" x1="-3.23945" y1="-2.36584" x2="64.3688" y2="68.8832" gradientUnits="userSpaceOnUse">
<stop offset="0.205697" stop-color="#89D0FF"/>
<stop offset="0.398413" stop-color="#EBBF9A"/>
<stop offset="0.601546" stop-color="#EB80DA"/>
<stop offset="0.841139" stop-color="#A281FF"/>
</linearGradient>
<linearGradient id="paint4_linear_4897_715" x1="-0.371751" y1="0.495262" x2="61.5069" y2="66.021" gradientUnits="userSpaceOnUse">
<stop offset="0.205697" stop-color="#89D0FF"/>
<stop offset="0.398413" stop-color="#EBBF9A"/>
<stop offset="0.601546" stop-color="#EB8280"/>
<stop offset="0.841139" stop-color="#A281FF"/>
</linearGradient>
<linearGradient id="paint5_linear_4897_715" x1="2.48927" y1="3.3667" x2="58.6257" y2="63.1514" gradientUnits="userSpaceOnUse">
<stop offset="0.205697" stop-color="#89D0FF"/>
<stop offset="0.398413" stop-color="#EBBF9A"/>
<stop offset="0.601546" stop-color="#EB80E7"/>
<stop offset="0.841139" stop-color="#A281FF"/>
</linearGradient>
<linearGradient id="paint6_linear_4897_715" x1="5.34882" y1="6.22705" x2="55.7538" y2="60.2663" gradientUnits="userSpaceOnUse">
<stop offset="0.205697" stop-color="#89D0FF"/>
<stop offset="0.398413" stop-color="#EBBF9A"/>
<stop offset="0.601546" stop-color="#EB80D3"/>
<stop offset="0.841139" stop-color="#A281FF"/>
</linearGradient>
<linearGradient id="paint7_linear_4897_715" x1="8.20686" y1="9.08728" x2="52.8755" y2="57.4028" gradientUnits="userSpaceOnUse">
<stop offset="0.205697" stop-color="#89D0FF"/>
<stop offset="0.398413" stop-color="#EBBF9A"/>
<stop offset="0.601546" stop-color="#A280EB"/>
<stop offset="0.841139" stop-color="#A281FF"/>
</linearGradient>
</defs>
</svg>
