<svg width="72" height="72" viewBox="0 0 72 72" fill="none" xmlns="http://www.w3.org/2000/svg">
<g clip-path="url(#clip0_254_7125)">
<circle cx="36" cy="36" r="36" fill="white"/>
<path d="M12.2363 24.1194V47.4765C12.2363 48.9082 13.0692 50.3399 14.267 51.0511L34.5266 62.7297C35.8367 63.4409 37.3901 63.4409 38.7002 62.7297L58.9598 51.0511C60.2699 50.3399 60.9905 48.9082 60.9905 47.4765V24.1194C60.9905 22.6876 60.1576 21.2559 58.9598 20.5447L38.6908 8.86616C37.3807 8.15497 35.8274 8.15497 34.5173 8.86616L14.2576 20.5447C12.9475 21.2559 12.2363 22.6876 12.2363 24.1194Z" fill="#213147"/>
<path d="M41.0739 40.3271L38.2104 48.197C38.0887 48.431 38.0887 48.6743 38.2104 48.9082L43.2168 62.4958L48.9344 59.155L42.019 40.3271C41.9067 39.8499 41.3078 39.8499 41.0739 40.3271Z" fill="#12AAFF"/>
<path d="M46.7881 26.9828C46.6665 26.5056 46.0769 26.5056 45.8336 26.9828L42.9701 34.8527C42.8485 35.0867 42.8485 35.33 42.9701 35.5639L51.074 57.8542L56.7916 54.5135L46.7881 26.9828Z" fill="#12AAFF"/>
<path d="M36.5463 9.69896C36.668 9.69896 36.7803 9.69896 36.9019 9.82061L58.8272 22.4536C59.0612 22.5753 59.1828 22.8092 59.1828 23.1648V48.4309C59.1828 48.6648 59.0612 49.0298 58.8272 49.1421L36.9019 61.7751C36.7803 61.8968 36.668 61.8968 36.5463 61.8968C36.4247 61.8968 36.3124 61.8968 36.1907 61.7751L14.2654 49.1421C14.0314 49.0204 13.9098 48.7865 13.9098 48.4309V23.1648C13.9098 22.9309 14.0314 22.5659 14.2654 22.4536L36.1907 9.82061C36.303 9.69896 36.4247 9.69896 36.5463 9.69896ZM36.5463 6.00262C35.7135 6.00262 34.9929 6.23657 34.2817 6.60152L12.3564 19.2346C10.9246 20.0674 10.0918 21.4991 10.0918 23.1648V48.4309C10.0918 49.9843 10.9246 51.5283 12.3564 52.3612L34.2817 64.9942C34.9929 65.3498 35.7135 65.5931 36.5463 65.5931C37.3792 65.5931 38.0997 65.3592 38.8109 64.9942L60.7362 52.3612C62.168 51.5283 63.0008 50.0966 63.0008 48.4309V23.1648C63.0008 21.6114 62.168 20.0674 60.7362 19.2346L38.9232 6.60152C38.212 6.24593 37.4914 6.00262 36.6586 6.00262H36.5463Z" fill="#9DCCED"/>
<path d="M22.127 57.8448L24.1482 52.3611L28.2002 55.7018L24.3915 59.2765L22.127 57.8448Z" fill="#213147"/>
<path d="M34.7594 21.3776H29.1541C28.7985 21.3776 28.3212 21.6115 28.1996 21.9765L16.2871 54.6258L22.0047 57.9666L35.115 22.0888C35.2367 21.7332 34.9934 21.3776 34.6378 21.3776H34.7594Z" fill="white"/>
<path d="M44.4075 21.3775H38.8022C38.4466 21.3775 37.9694 21.6114 37.8477 21.9764L24.2695 59.1549L29.9871 62.4957L44.7631 21.9764C44.8848 21.6208 44.6415 21.2652 44.2859 21.2652L44.4075 21.3775Z" fill="white"/>
</g>
<defs>
<clipPath id="clip0_254_7125">
<rect width="72" height="72" fill="white"/>
</clipPath>
</defs>
</svg>
