<svg width="32" height="32" viewBox="0 0 32 32" fill="none" xmlns="http://www.w3.org/2000/svg">
<path d="M22.25 17.7617C22.6221 17.1233 23.5464 17.1233 23.9144 17.7617L27.8691 24.5664C28.2413 25.2049 27.775 25.9998 27.0348 25.9998H19.1255C18.3853 25.9998 17.9232 25.2049 18.2912 24.5664L22.25 17.7617Z" fill="#FF394A"/>
<path d="M19.861 13.2309C20.2209 12.5966 20.2209 11.814 19.861 11.1755L16.6179 5.47884C16.2539 4.84039 15.3461 4.84039 14.9821 5.47884L4.12825 24.5624C3.76428 25.2009 4.21822 26 4.94617 26H11.4282C12.1521 26 12.8187 25.6087 13.1786 24.9744L19.8569 13.2309H19.861Z" fill="#FF394A"/>
</svg>
