<svg width="64" height="64" viewBox="0 0 64 64" fill="none" xmlns="http://www.w3.org/2000/svg">
<circle cx="32" cy="32" r="32" fill="white"/>
<path d="M42.3371 33.1019C42.9681 32.024 44.535 32.024 45.1591 33.1019L51.8639 44.5915C52.495 45.6697 51.7046 47.0118 50.4494 47.0118H37.0399C35.7847 47.0118 35.0012 45.6697 35.6253 44.5915L42.3302 33.1019H42.3371Z" fill="#FF394A"/>
<path d="M38.2872 25.4534C38.8973 24.3824 38.8973 23.0609 38.2872 21.9829L32.7889 12.3642C32.1718 11.2862 30.6325 11.2862 30.0154 12.3642L11.6134 44.5865C10.9963 45.6645 11.766 47.0138 13.0002 47.0138H23.99C25.2172 47.0138 26.3475 46.353 26.9576 45.2821L38.2803 25.4534H38.2872Z" fill="#FF394A"/>
</svg>
