<svg width="72" height="72" viewBox="0 0 72 72" fill="none" xmlns="http://www.w3.org/2000/svg">
<g clip-path="url(#clip0_254_6958)">
<circle cx="36" cy="36" r="36" fill="#FBFBFB"/>
<path d="M38.8907 32.4624L51.2115 20.4746L46.5374 15.9268L36.5536 25.6407L26.5697 15.9268L21.8957 20.4746L34.2166 32.4624C34.8619 33.0904 35.7078 33.4043 36.5536 33.4043C37.3994 33.4043 38.2452 33.0905 38.8907 32.4624ZM56.7269 45.2687L46.7431 35.5549L56.7269 25.8408L52.0528 21.2931L39.7319 33.281C38.4413 34.5369 38.4413 36.5729 39.7319 37.8287L52.0528 49.8166L56.7269 45.2687ZM36.5365 45.4856L46.5203 55.1995L51.1943 50.6518L38.8735 38.664C37.5827 37.4082 35.4901 37.4082 34.1994 38.664L21.8786 50.6518L26.5526 55.1995L36.5365 45.4856ZM33.3582 37.8454C33.978 37.2424 34.3263 36.4244 34.3263 35.5715C34.3263 34.7187 33.978 33.9008 33.3582 33.2977L21.0374 21.3098L16.3633 25.8576L26.3472 35.5714L16.3633 45.2855L21.0374 49.8333L33.3582 37.8454Z" fill="black"/>
</g>
<defs>
<clipPath id="clip0_254_6958">
<rect width="72" height="72" fill="white"/>
</clipPath>
</defs>
</svg>
