<svg width="72" height="72" viewBox="0 0 72 72" fill="none" xmlns="http://www.w3.org/2000/svg">
<g clip-path="url(#clip0_254_7249)">
<circle cx="36" cy="36" r="36" fill="#FBFBFB"/>
<path fill-rule="evenodd" clip-rule="evenodd" d="M65 36C64.9332 43.5026 62.0067 50.6927 56.8251 56.0849C51.6435 61.4771 44.6028 64.6594 37.1575 64.9742C29.7122 65.289 22.4312 62.7124 16.8188 57.7767C11.2064 52.841 7.69143 45.9232 7 38.4527H45.4118V33.5473H7C7.69143 26.0768 11.2064 19.159 16.8188 14.2233C22.4312 9.28756 29.7122 6.71095 37.1575 7.0258C44.6028 7.34064 51.6435 10.5229 56.8251 15.9151C62.0067 21.3073 64.9332 28.4974 65 36Z" fill="black"/>
</g>
<defs>
<clipPath id="clip0_254_7249">
<rect width="72" height="72" fill="white"/>
</clipPath>
</defs>
</svg>
