<svg width="72" height="72" viewBox="0 0 72 72" fill="none" xmlns="http://www.w3.org/2000/svg">
<g clip-path="url(#clip0_254_7121)">
<circle cx="36" cy="36" r="36" fill="black"/>
<path d="M41.103 51.6073V56.8678L36.4794 59.5632L31.9872 56.8678V51.6073L36.4794 54.3028L41.103 51.6073ZM16.3633 33.4132L20.8554 36.1087V45.1296L28.5907 49.7162V54.9766L16.3633 47.8251V33.4132ZM56.5954 33.4132V47.8468L44.2365 54.9984V49.7379L51.9718 45.1514V36.1304L56.5954 33.4132ZM44.2146 26.2617L48.8383 28.9571V34.2175L41.103 38.8041V47.9555L36.6108 50.6509L32.1406 47.9555V38.7823L24.1205 34.1958V28.9353L28.7441 26.2399L36.4794 30.8265L44.2146 26.2617ZM24.1205 37.9781L28.6126 40.6735V45.9339L24.1205 43.2385V37.9781ZM48.8383 37.9781V43.2385L44.3461 45.9339V40.6735L48.8383 37.9781ZM20.8554 21.6751L25.4791 24.3705L20.8554 27.0659V32.3264L16.3633 29.6309V24.3705L20.8554 21.6751ZM52.1033 21.6751L56.7269 24.3705V29.6309L52.1033 32.3264V27.0659L47.6111 24.3705L52.1033 21.6751ZM36.4794 21.6751L41.103 24.3705L36.4794 27.0659L31.9872 24.3705L36.4794 21.6751ZM36.4794 12.6541L48.8383 19.8057L44.3461 22.5011L36.6108 17.9145L28.7222 22.5011L24.23 19.8057L36.4794 12.6541Z" fill="#F3BA2F"/>
</g>
<defs>
<clipPath id="clip0_254_7121">
<rect width="72" height="72" fill="white"/>
</clipPath>
</defs>
</svg>
