<svg width="64" height="64" viewBox="0 0 64 64" fill="none" xmlns="http://www.w3.org/2000/svg">
<circle cx="32" cy="32" r="32" fill="black"/>
<path fill-rule="evenodd" clip-rule="evenodd" d="M12.6222 30.1755H19.3572C20.2425 23.986 25.5655 19.2281 31.9997 19.2281C38.434 19.2281 43.757 23.986 44.6424 30.1755H51.3774C50.4575 20.2825 42.1331 12.538 31.9997 12.538C21.8665 12.538 13.542 20.2825 12.6222 30.1755ZM51.3774 33.8246H44.6424C43.757 40.0141 38.434 44.772 31.9997 44.772C25.5655 44.772 20.2425 40.0141 19.3572 33.8246H12.6222C13.542 43.7176 21.8665 51.4621 31.9997 51.4621C42.1331 51.4621 50.4575 43.7176 51.3774 33.8246ZM23.0594 33.8246C23.9047 37.9887 27.5862 41.1229 31.9997 41.1229C36.4132 41.1229 40.0948 37.9887 40.94 33.8246H23.0594ZM40.94 30.1755C40.0948 26.0114 36.4132 22.8772 31.9997 22.8772C27.5862 22.8772 23.9047 26.0114 23.0594 30.1755H40.94ZM8.88867 32C8.88867 19.2361 19.2359 8.88892 31.9997 8.88892C44.7637 8.88892 55.1109 19.2361 55.1109 32C55.1109 44.7639 44.7637 55.1111 31.9997 55.1111C19.2359 55.1111 8.88867 44.7639 8.88867 32Z" fill="#FFFCE4"/>
</svg>
