<svg width="600" height="600" viewBox="0 0 600 600" fill="none" xmlns="http://www.w3.org/2000/svg">
<path d="M526.365 265.968L491.234 281.29C504.366 163.101 413.855 91.0747 413.855 91.0747L404.601 120.43C299.686 39.5887 181.321 103.612 177.467 112.439C177.467 112.439 353.201 104.703 394.721 237.123C417.903 311.04 381.976 367.861 347.516 390.061C265.385 442.984 205.617 402.575 195.942 393.215C176.963 375.934 165.288 351.822 163.369 325.944C161.493 235.395 257.631 217.336 257.631 217.336C230.382 207.893 200.898 207.522 173.429 216.277C145.961 225.032 121.928 242.461 104.795 266.05C24.5626 368.279 121.474 484.426 121.474 484.426L131.331 455.082C231.027 574.546 411.57 494.343 411.57 494.343L385.273 475.368C424.312 455.594 457.759 425.985 482.449 389.342C507.139 352.699 522.254 310.235 526.365 265.968V265.968Z" fill="#00E676"/>
<path d="M526.365 265.968L491.234 281.29C504.366 163.101 413.855 91.0747 413.855 91.0747L404.601 120.43C299.686 39.5887 181.321 103.612 177.467 112.439C177.467 112.439 353.201 104.703 394.721 237.123C417.903 311.04 381.976 367.861 347.516 390.061C265.385 442.984 205.617 402.575 195.942 393.215C176.963 375.934 165.288 351.822 163.369 325.944C161.493 235.395 257.631 217.336 257.631 217.336C230.382 207.893 200.898 207.522 173.429 216.277C145.961 225.032 121.928 242.461 104.795 266.05C24.5626 368.279 121.474 484.426 121.474 484.426L131.331 455.082C231.027 574.546 411.57 494.343 411.57 494.343L385.273 475.368C424.312 455.594 457.759 425.985 482.449 389.342C507.139 352.699 522.254 310.235 526.365 265.968V265.968Z" fill="url(#paint0_linear_2980_4759)" fill-opacity="0.6"/>
<g style="mix-blend-mode:soft-light" opacity="0.8">
<path d="M85.0897 298.454C90.3035 286.831 96.9264 275.92 104.804 265.979C121.936 242.39 145.97 224.961 173.438 216.206C200.907 207.451 230.391 207.822 257.64 217.265C257.64 217.265 131.34 198.476 73.2656 347.168C74.2428 330.328 78.251 313.814 85.0897 298.454Z" fill="#00E676"/>
<path d="M85.0897 298.454C90.3035 286.831 96.9264 275.92 104.804 265.979C121.936 242.39 145.97 224.961 173.438 216.206C200.907 207.451 230.391 207.822 257.64 217.265C257.64 217.265 131.34 198.476 73.2656 347.168C74.2428 330.328 78.251 313.814 85.0897 298.454Z" fill="url(#paint1_linear_2980_4759)" fill-opacity="0.6"/>
</g>
<g style="mix-blend-mode:soft-light" opacity="0.8">
<path d="M131.344 455.023C231.04 574.487 411.583 494.284 411.583 494.284C411.583 494.284 211.485 545.874 141.985 423.37L131.344 455.023Z" fill="#00E676"/>
<path d="M131.344 455.023C231.04 574.487 411.583 494.284 411.583 494.284C411.583 494.284 211.485 545.874 141.985 423.37L131.344 455.023Z" fill="url(#paint2_linear_2980_4759)" fill-opacity="0.6"/>
</g>
<g style="mix-blend-mode:soft-light" opacity="0.8">
<path d="M491.23 281.29C504.362 163.101 413.852 91.0749 413.852 91.0749C434.759 119.863 449.853 152.602 458.257 187.389C466.661 222.177 468.208 258.321 462.807 293.724L491.23 281.29Z" fill="#00E676"/>
<path d="M491.23 281.29C504.362 163.101 413.852 91.0749 413.852 91.0749C434.759 119.863 449.853 152.602 458.257 187.389C466.661 222.177 468.208 258.321 462.807 293.724L491.23 281.29Z" fill="url(#paint3_linear_2980_4759)" fill-opacity="0.6"/>
</g>
<g style="mix-blend-mode:soft-light" opacity="0.8">
<path d="M404.587 120.383C299.672 39.5415 181.307 103.565 177.453 112.392C177.453 112.392 297.171 50.5487 394.821 151.363L404.587 120.383Z" fill="#00E676"/>
<path d="M404.587 120.383C299.672 39.5415 181.307 103.565 177.453 112.392C177.453 112.392 297.171 50.5487 394.821 151.363L404.587 120.383Z" fill="url(#paint4_linear_2980_4759)" fill-opacity="0.6"/>
</g>
<g style="mix-blend-mode:soft-light" opacity="0.8">
<path d="M385.252 475.307C424.283 455.539 457.725 425.939 482.415 389.307C507.104 352.675 522.224 310.222 526.344 265.966C526.344 265.966 477.172 414.427 353.305 452.261L385.252 475.307Z" fill="#00E676"/>
<path d="M385.252 475.307C424.283 455.539 457.725 425.939 482.415 389.307C507.104 352.675 522.224 310.222 526.344 265.966C526.344 265.966 477.172 414.427 353.305 452.261L385.252 475.307Z" fill="url(#paint5_linear_2980_4759)" fill-opacity="0.6"/>
</g>
<defs>
<linearGradient id="paint0_linear_2980_4759" x1="140" y1="496.944" x2="496.7" y2="134.969" gradientUnits="userSpaceOnUse">
<stop stop-color="#1D252D"/>
<stop offset="1" stop-color="#394D60" stop-opacity="0.23"/>
</linearGradient>
<linearGradient id="paint1_linear_2980_4759" x1="100.513" y1="339.771" x2="207.388" y2="198.184" gradientUnits="userSpaceOnUse">
<stop stop-color="#1D252D"/>
<stop offset="1" stop-color="#394D60" stop-opacity="0.23"/>
</linearGradient>
<linearGradient id="paint2_linear_2980_4759" x1="172.758" y1="515.389" x2="222.067" y2="375.258" gradientUnits="userSpaceOnUse">
<stop stop-color="#1D252D"/>
<stop offset="1" stop-color="#394D60" stop-opacity="0.23"/>
</linearGradient>
<linearGradient id="paint3_linear_2980_4759" x1="425.479" y1="282.804" x2="535.063" y2="240.839" gradientUnits="userSpaceOnUse">
<stop stop-color="#1D252D"/>
<stop offset="1" stop-color="#394D60" stop-opacity="0.23"/>
</linearGradient>
<linearGradient id="paint4_linear_2980_4759" x1="211.02" y1="147.517" x2="244.437" y2="42.6131" gradientUnits="userSpaceOnUse">
<stop stop-color="#1D252D"/>
<stop offset="1" stop-color="#394D60" stop-opacity="0.23"/>
</linearGradient>
<linearGradient id="paint5_linear_2980_4759" x1="378.877" y1="464.026" x2="544.883" y2="328.686" gradientUnits="userSpaceOnUse">
<stop stop-color="#1D252D"/>
<stop offset="1" stop-color="#394D60" stop-opacity="0.23"/>
</linearGradient>
</defs>
</svg>
