<svg width="72" height="72" viewBox="0 0 72 72" fill="none" xmlns="http://www.w3.org/2000/svg">
<path d="M41.6135 65V40.751C47.4068 41.3705 51.338 44.0255 51.338 44.0255L55.0327 39.866C48.9734 35.559 39.9878 35.382 39.9878 35.382L38.5099 19.098C39.4853 18.449 40.1356 17.3575 40.1356 16.089C40.1356 14.1125 38.5099 12.49 36.5296 12.49C34.5492 12.49 32.9235 14.1125 32.9235 16.089C32.9235 17.3575 33.5738 18.4785 34.5492 19.098L33.0713 35.382C33.0713 35.382 24.0857 35.5295 18.0264 39.866L21.7211 44.0255C21.7211 44.0255 25.6523 41.3705 31.4456 40.751V65C8.80433 48.244 6.94219 23.9065 7.0013 15.8235C7.0013 14.142 8.00627 12.608 9.54327 11.9295C14.0656 9.9235 24.3813 6 36.5 6C48.6187 6 58.9344 9.9235 63.4567 11.9295C64.9937 12.608 65.9987 14.142 65.9987 15.8235C66.0578 23.9065 64.1957 48.244 41.6135 65Z" fill="#FFAF1D"/>
</svg>
