<svg width="64" height="64" viewBox="0 0 64 64" fill="none" xmlns="http://www.w3.org/2000/svg">
<circle cx="32" cy="32" r="32" fill="white"/>
<path d="M31.9958 7.11108C32.5535 7.11108 33.1857 7.18077 33.1857 7.18077C31.3149 9.42419 30.1876 12.1934 29.9596 15.1054C26.4346 15.695 23.1894 17.3926 20.6951 19.9518C18.2008 22.511 16.5874 25.7985 16.0891 29.3369C12.8679 29.6853 9.22349 31.1587 7.12748 33.2643C6.62961 18.8188 17.7021 7.11108 31.9958 7.11108ZM35.5805 50.5074C34.9212 50.6048 34.2555 50.653 33.589 50.6517C32.4387 50.638 31.2907 50.5431 30.1537 50.368C29.2654 52.5064 28.0932 54.5156 26.6687 56.3413C22.2004 55.3561 18.0902 53.1586 14.7895 49.9902C11.4888 46.8218 9.12541 42.8052 7.95891 38.3815C10.2043 35.7184 15.392 34.1753 18.6132 34.1753C25.4838 34.1753 29.1281 37.819 30.3927 43.4986C26.2555 42.3786 23.801 40.064 22.1879 36.6293C21.2452 36.2871 20.2483 36.1185 19.2455 36.1315C18.3406 36.1278 17.4411 36.2707 16.5819 36.5546C18.4041 43.4986 25.1353 48.6855 33.3351 48.6855C40.9076 48.6855 44.1288 44.8327 44.1288 44.8327V38.939C44.1288 38.939 40.4147 42.7968 35.7896 43.5683C35.2693 39.9679 33.5938 36.6337 31.0152 34.0672C28.4366 31.5007 25.0943 29.8407 21.4909 29.3369C22.6808 23.4482 27.1666 20.1529 33.2654 20.1529C39.3643 20.1529 44.2732 24.5682 44.2732 24.5682V18.7491C44.2732 18.7491 41.1167 15.8023 35.5108 15.1751C35.6502 12.5866 37.333 9.35606 39.1551 8.1614C46.7924 10.5458 54.1558 16.997 56.2568 26.39C56.2568 26.39 52.8913 29.755 46.5833 29.755C41.3955 29.755 38.1196 27.1616 36.2775 22.6069C35.3112 22.2628 34.2911 22.0942 33.2654 22.1091C32.3082 22.0986 31.3575 22.2675 30.4624 22.6069C32.4937 29.8994 38.9261 34.8025 46.0954 34.8025C53.1053 34.8025 56.8891 31.5818 56.8891 31.5818C56.8891 46.1618 45.7419 56.6101 32.4937 56.8889C34.0371 55.3955 35.227 52.1202 35.5805 50.5074Z" fill="#FF5300"/>
</svg>
