<svg width="64" height="64" viewBox="0 0 64 64" fill="none" xmlns="http://www.w3.org/2000/svg">
<circle cx="32" cy="32" r="32" fill="black"/>
<path d="M40.6014 16.2017L35.6359 24.8631C34.2248 27.3228 30.6978 27.3228 29.2866 24.8631L24.3211 16.2033L21.2655 10.6666H43.7028L40.6014 16.2017ZM23.2746 16.7372L28.2234 25.4078C29.6238 27.8737 27.8649 30.9352 25.0533 30.9414H8.88892L20.1305 11.2283L23.2746 16.7372ZM41.6159 16.7372L36.6671 25.4078C35.2652 27.8737 37.0256 30.9352 39.8371 30.9414H56L44.7615 11.2283L41.6159 16.7372ZM24.289 46.9093L29.2546 38.2495C30.6657 35.7898 34.1927 35.7898 35.6038 38.2495L40.5694 46.9093L43.625 52.4444H21.1877L24.289 46.9093ZM41.6159 46.3739L36.6671 37.7017C35.2652 35.2373 37.0256 32.1743 39.8371 32.1697H56L44.7615 51.8827L41.6159 46.3739ZM23.2746 46.3739L28.2234 37.7017C29.6238 35.2373 27.8649 32.1743 25.0533 32.1697H8.88892L20.1305 51.8827L23.2746 46.3739Z" fill="white"/>
</svg>
