<svg width="72" height="72" viewBox="0 0 72 72" fill="none" xmlns="http://www.w3.org/2000/svg">
<g clip-path="url(#clip0_254_8403)">
<circle cx="36" cy="36" r="36" fill="black"/>
<path d="M58.9309 40.0916L56.385 28.1759C56.3626 28.07 56.3306 27.9663 56.2895 27.866C55.9279 26.6267 55.444 26.3583 54.7914 25.8368C54.1877 25.3873 53.9281 25.2172 53.9281 25.2172C53.9281 25.2172 52.2766 28.9657 51.8261 29.3214C47.4093 32.8125 40.0092 38.2522 38.2003 39.2339L38.1672 39.2514C37.5725 39.608 36.8996 39.8188 36.2051 39.8668V57.8001C37.7495 57.7605 39.2581 57.3322 40.5864 56.5564C42.584 55.4654 47.8975 51.2717 54.1255 46.3012L56.5671 44.3549C58.1896 43.0698 58.9686 41.7934 58.9508 40.4471C58.9558 40.3283 58.949 40.2092 58.9309 40.0916Z" fill="#4D26BC"/>
<path d="M34.6114 39.473L20.5424 29.2097C20.425 29.1132 20.3205 29.0024 20.2314 28.8799C20.2189 28.543 20.1162 28.2156 19.9338 27.9311C19.7514 27.6466 19.4958 27.4154 19.1933 27.2612L19.2831 25.2172C19.2831 25.2172 18.9896 25.4081 18.3195 25.8095C17.4763 26.3108 16.8433 26.6775 16.4097 28.6499L16.0834 30.2642L14.0379 40.4061C14.0094 40.5489 13.9969 40.6944 14.0006 40.8399C14.0488 42.6736 15.6366 43.9581 16.0002 44.2271L32.0446 56.4564C33.244 57.347 34.7072 57.8192 36.2059 57.7995V39.9526C35.6335 39.9872 35.0676 39.817 34.6114 39.473Z" fill="#2C0E83"/>
<path d="M55.3995 25.9775C55.3716 25.9577 55.3449 25.9365 55.3192 25.9138C54.8155 25.4942 44.8698 18.7638 38.9863 14.7902C38.2077 14.2606 37.2801 13.9845 36.3341 14.0007C35.3881 14.0168 34.471 14.3244 33.7114 14.8803L32.9913 15.4162C31.7428 16.341 29.4241 18.0522 26.6284 20.0137C23.4224 22.2652 20.4729 24.2246 17.8488 25.7776C16.7341 26.4366 15.7041 28.218 18.5176 30.3904C18.8142 30.6101 33.6155 41.4284 33.6155 41.4284C35.3144 42.6605 37.3253 42.5508 39.3207 41.4107C41.2625 40.3541 48.1381 35.2822 52.4745 31.8973L53.5759 31.034C53.6784 30.9527 53.7721 30.8737 53.8612 30.7946C55.7139 29.2855 57.2678 27.2493 55.3995 25.9775Z" fill="#7547F5"/>
</g>
<defs>
<clipPath id="clip0_254_8403">
<rect width="72" height="72" fill="white"/>
</clipPath>
</defs>
</svg>
