<svg width="72" height="72" viewBox="0 0 72 72" fill="none" xmlns="http://www.w3.org/2000/svg">
<g clip-path="url(#clip0_254_6838)">
<circle cx="36" cy="36" r="36" fill="#FBFBFB"/>
<path d="M41.0261 7.22911C40.0254 7.2814 39.187 7.36975 38.0024 7.55006C37.1693 7.67627 35.7161 7.99721 34.8524 8.24603C34.7695 8.26947 34.6343 8.30734 34.5513 8.33078C32.4075 8.9366 29.7137 10.1284 27.7646 11.3329C26.9226 11.8539 25.6334 12.7501 25.0637 13.2116C24.8942 13.3505 24.6724 13.529 24.5714 13.6101C23.5852 14.4089 22.0165 15.9234 21.1997 16.87C17.3412 21.3398 15.0567 26.4839 14.3698 32.2446C14.0416 34.9943 14.1444 37.9747 14.6655 40.8073C14.8368 41.7359 15.1992 43.2288 15.3849 43.7607C15.4209 43.8635 15.5129 44.1538 15.5922 44.408C15.6698 44.6623 15.7527 44.9111 15.7761 44.9616C15.7996 45.012 15.8519 45.1545 15.8915 45.2789C15.9997 45.6107 16.4956 46.8259 16.7318 47.3344C18.167 50.4266 19.9953 53.0735 22.3609 55.4878C23.284 56.429 24.777 57.7272 25.6082 58.315C25.7236 58.3961 25.9616 58.5656 26.1401 58.6954C27.5933 59.7448 29.1818 60.6481 31.2175 61.5767C31.4338 61.6758 32.2813 62.0112 32.7627 62.1861C35.0868 63.0372 37.3298 63.5402 40.056 63.8179C40.3229 63.8449 41.0964 63.881 41.7761 63.8954L43.013 63.9243L43.0004 63.2175L42.9878 62.5089L42.1097 62.4962C41.201 62.48 40.148 62.4151 39.5494 62.3376C39.3582 62.3123 39.0355 62.2709 38.8336 62.2438C38.1953 62.1627 36.7853 61.9012 36.3399 61.784C36.239 61.757 36.0731 61.7155 35.9721 61.6921C35.2058 61.5154 33.3018 60.9186 33.0295 60.7689C32.9863 60.7437 32.9304 60.7238 32.9051 60.7238C32.8637 60.7238 31.8936 60.3181 31.3184 60.0585C30.2601 59.5843 28.8771 58.8162 27.7087 58.0553C27.3734 57.8353 26.2374 57.0186 25.9381 56.7806C22.6331 54.1463 20.1125 51.0288 18.3202 47.3614C17.6892 46.0704 16.9806 44.2403 16.6741 43.1152C16.6326 42.9638 16.5478 42.6519 16.4865 42.4229C16.3531 41.9324 16.1277 40.9317 16.0538 40.508C15.7076 38.4976 15.6139 37.4176 15.6193 35.4306C15.6211 34.5976 15.6463 33.6835 15.6788 33.3752C15.7455 32.7225 15.8645 31.7254 15.8969 31.5288C16.0863 30.429 16.1025 30.337 16.2413 29.6825C16.3026 29.3904 16.5605 28.3573 16.6055 28.2292C16.6272 28.1661 16.6903 27.9588 16.7462 27.7677C17.2799 25.9574 18.203 23.8172 19.1677 22.1602C19.3155 21.9059 19.4724 21.6355 19.5157 21.5598C19.8546 20.9611 20.8806 19.5025 21.5207 18.7055C22.3933 17.6165 24.072 15.8856 25.0114 15.103C25.2512 14.9029 25.5 14.6937 25.5649 14.6397C25.6785 14.5405 26.3222 14.0446 26.5999 13.8409C26.7802 13.7093 28.4967 12.5589 28.6788 12.4489C29.7354 11.8035 31.6556 10.8677 32.8096 10.4367C33.0007 10.3664 33.2189 10.2799 33.2946 10.2474C33.5254 10.1501 34.5693 9.81288 35.186 9.63619C36.1254 9.36933 36.5797 9.26295 37.4019 9.11691C37.6814 9.06642 37.941 9.01594 37.9789 9.00512C38.3197 8.90054 41.1216 8.61566 41.823 8.61205C42.0159 8.61205 42.0971 8.59222 42.1169 8.54354C42.1313 8.50567 42.1259 8.18834 42.1043 7.84035L42.0646 7.20387L41.8789 7.20026C41.7779 7.19666 41.3939 7.21108 41.0261 7.22911ZM41.4065 10.0473C40.6691 10.0815 39.2465 10.2059 39.0878 10.251C39.0481 10.2618 38.7885 10.3033 38.5108 10.3448C37.9338 10.4295 36.6068 10.7 36.2245 10.81C36.0857 10.8514 35.8153 10.9254 35.6259 10.974C34.9119 11.1616 33.2441 11.753 32.4399 12.1064C30.6008 12.9141 28.7743 13.9671 27.3391 15.0453C25.7254 16.2588 24.0161 17.8743 22.891 19.2519C22.2311 20.0578 20.7165 22.1836 20.7165 22.3008C20.7165 22.317 20.6768 22.3856 20.6282 22.4541C20.5795 22.5226 20.4767 22.6921 20.401 22.8309C20.3252 22.9697 20.1882 23.2168 20.0963 23.3826C19.833 23.8568 19.101 25.3696 19.101 25.4363C19.101 25.4489 19.0379 25.5932 18.9621 25.7591C18.8864 25.9268 18.8233 26.0818 18.8233 26.1071C18.8233 26.1323 18.7836 26.2405 18.7349 26.3487C18.6863 26.4569 18.5709 26.7634 18.4789 27.0284C18.3852 27.2953 18.2914 27.5657 18.2698 27.6288C18.2247 27.7568 18.1021 28.1607 18.0318 28.4132C18.0083 28.5033 17.9705 28.6385 17.9488 28.7143C17.8316 29.12 17.5756 30.1982 17.5089 30.5606C17.4674 30.7896 17.4151 31.0691 17.3917 31.1826C17.3682 31.298 17.3286 31.5577 17.2997 31.7596C17.2727 31.9634 17.2312 32.2338 17.2078 32.36C17.1843 32.4881 17.132 33.0163 17.0888 33.5374C16.9553 35.1566 17.0437 37.8503 17.2727 39.2387C17.2853 39.3144 17.3196 39.5218 17.3484 39.7003C17.6802 41.7377 18.3816 44.0907 19.1965 45.8955C19.8583 47.3578 20.5632 48.6236 21.4359 49.9109C23.2263 52.5524 25.6496 54.9721 28.2172 56.685C28.5219 56.8887 28.7815 57.0654 28.7942 57.0781C28.8068 57.0907 28.8681 57.1304 28.933 57.1664C28.9961 57.2043 29.2053 57.3305 29.4 57.4495C31.3689 58.6629 33.9112 59.7123 36.3183 60.3055C37.4668 60.5886 38.4459 60.7797 38.4946 60.731C38.5234 60.7022 38.6406 60.0531 38.6983 59.5825C38.7272 59.3535 38.7236 59.3391 38.628 59.3391C38.4044 59.3391 36.9872 59.0344 36.0641 58.7874C35.2275 58.562 33.5903 57.9724 32.6942 57.5703C31.9874 57.2548 30.5828 56.5191 30.2402 56.2865C30.1338 56.2144 30.0347 56.1549 30.0202 56.1549C29.9716 56.1549 28.5976 55.2281 28.1469 54.8928C26.5512 53.701 24.9663 52.1738 23.7619 50.6628C23.5293 50.3707 23.3075 50.0912 23.2678 50.0426C22.9036 49.59 21.6847 47.7202 21.6847 47.6138C21.6847 47.5886 21.6703 47.5688 21.6505 47.5688C21.6325 47.5688 21.5928 47.5219 21.5657 47.466C21.5369 47.4083 21.3259 46.999 21.0969 46.5537C19.6906 43.8383 18.9116 41.1878 18.5402 37.8539C18.4555 37.1039 18.4555 33.8872 18.5384 33.2147C18.6827 32.0625 18.8521 30.9789 18.9711 30.4686C19.595 27.7641 20.5254 25.3985 21.8146 23.2438C22.0417 22.8652 22.9631 21.4714 23.0821 21.3272C23.1236 21.2767 23.257 21.1018 23.3778 20.9359C23.4986 20.7718 23.6104 20.6258 23.6248 20.6132C23.6392 20.6005 23.7799 20.4292 23.9386 20.2345C25.6244 18.152 27.8187 16.2822 30.3863 14.737C30.8082 14.4846 32.2741 13.7291 32.7176 13.5398C32.806 13.5001 32.9718 13.428 33.0872 13.3775C33.5614 13.1666 34.8777 12.6833 35.4402 12.5121C36.6807 12.1352 38.1863 11.8107 39.3637 11.6646C39.58 11.6376 39.9749 11.5889 40.2417 11.5564C40.5627 11.5168 41.3416 11.4969 42.5496 11.4969C44.3689 11.4969 44.9639 11.5312 45.8889 11.6881C46.1125 11.7259 46.3072 11.7476 46.3198 11.7331C46.3415 11.7115 46.4136 11.3401 46.52 10.6928C46.547 10.5305 46.5524 10.3826 46.5326 10.3628C46.4496 10.2853 44.8359 10.1014 43.9344 10.0671C42.5478 10.0148 42.1818 10.0112 41.4065 10.0473ZM40.9557 12.9051C39.187 13.0764 38.5865 13.172 37.2415 13.4911C36.5365 13.657 35.1734 14.0609 34.8632 14.1943C34.8128 14.2159 34.6469 14.2808 34.4936 14.3367C34.3422 14.3926 34.1546 14.4648 34.0789 14.4972C34.0032 14.5315 33.8048 14.6144 33.6408 14.6829C31.3527 15.6331 28.9655 17.1856 27.0705 18.9507C25.7452 20.1876 24.2487 21.9745 23.4625 23.26C22.5556 24.7439 21.9137 25.9935 21.4792 27.1222C21.1312 28.0237 20.996 28.4078 20.8157 29.0136C19.961 31.8714 19.6725 34.8014 19.9556 37.762C20.0674 38.9412 20.3415 40.4089 20.6696 41.5917C20.6913 41.6674 20.7399 41.8441 20.7796 41.9847C20.9996 42.7709 21.4323 43.9302 21.8813 44.9381C22.296 45.8703 23.0172 47.1685 23.6374 48.1007C23.962 48.5875 24.7499 49.6765 24.8257 49.7396C24.8401 49.7523 24.8834 49.8046 24.9194 49.8587C25.2295 50.3076 26.6702 51.8168 27.4509 52.5109C29.2558 54.1138 31.4429 55.504 33.5488 56.3857C33.8662 56.5173 34.1871 56.6525 34.2628 56.685C34.7244 56.8779 35.0832 56.9915 35.1193 56.9573C35.1698 56.905 35.5917 55.6915 35.5664 55.6663C35.5574 55.6555 35.3843 55.5887 35.1824 55.5148C33.2874 54.8279 31.423 53.8055 29.6939 52.5055C27.9576 51.1983 26.1906 49.3448 24.9681 47.5471C23.9963 46.1173 23.1903 44.5378 22.5177 42.7456C22.1662 41.808 21.8001 40.4287 21.5982 39.2729C21.5693 39.1143 21.5261 38.8654 21.5008 38.7194C21.3223 37.7025 21.2394 35.8525 21.3115 34.484C21.4756 31.3503 22.195 28.653 23.5996 25.8979C24.8293 23.4908 26.3853 21.4858 28.4931 19.5908C29.8706 18.3539 31.744 17.1279 33.5614 16.2768C33.8337 16.1488 34.0681 16.0442 34.0789 16.0442C34.0897 16.0442 34.2087 15.9937 34.3422 15.9324C34.6072 15.8134 35.3392 15.5358 35.6999 15.4204C35.8243 15.3789 35.9667 15.3284 36.0172 15.3086C36.0677 15.2869 36.2029 15.2437 36.3183 15.213C36.4319 15.1806 36.5779 15.1373 36.641 15.1157C37.1423 14.9444 39.0553 14.5459 39.8252 14.4539C40.4347 14.38 41.8627 14.2899 42.3928 14.2899C43.1356 14.2899 44.5186 14.3638 45.018 14.4305C46.4028 14.6144 47.7749 14.8957 48.6187 15.1697C48.7702 15.2184 49.0208 15.2996 49.1723 15.3483C49.4968 15.4546 49.5094 15.4456 49.632 15.0598C49.6735 14.9281 49.7258 14.7785 49.7492 14.728C49.8159 14.5802 49.9349 14.1997 49.9349 14.1294C49.9349 14.0951 49.8664 14.0537 49.7835 14.0374C49.7024 14.0212 49.5924 13.9906 49.5419 13.9689C49.4391 13.9256 49.019 13.7922 48.8026 13.7345C48.3969 13.6263 47.3368 13.3667 47.0951 13.3198C46.4821 13.1972 45.2831 13.0115 44.6953 12.9502C44.1111 12.8889 41.4552 12.8564 40.9557 12.9051ZM41.8573 15.7035C39.818 15.763 37.3262 16.2714 35.4402 17.0125C35.3014 17.0666 35.1085 17.1405 35.0129 17.1765C34.2051 17.474 32.3281 18.4765 31.4158 19.0968C27.8061 21.5471 25.0637 25.1749 23.6951 29.3147C23.284 30.5552 22.9883 31.884 22.8116 33.2832C22.7143 34.0603 22.6728 36.3754 22.7449 37.1237C22.9487 39.2765 23.3832 41.1102 24.1405 43.0233C24.3046 43.4362 25.0691 45.0229 25.2746 45.3763C25.9021 46.4545 26.7856 47.704 27.5248 48.5623C28.2857 49.4458 29.5136 50.5925 30.5251 51.3678C31.1796 51.8672 32.7483 52.877 32.8709 52.877C32.9033 52.877 32.9863 52.7688 33.0548 52.6353C33.1864 52.3811 33.3595 52.0746 33.5055 51.8348C33.5723 51.7266 33.5795 51.6815 33.538 51.6401C33.5073 51.6094 33.4677 51.586 33.4496 51.586C33.3956 51.586 32.6942 51.146 32.092 50.7331C31.1219 50.0732 30.1753 49.2709 29.3243 48.3928C28.7689 47.8194 28.7148 47.7599 28.3326 47.2929C28.219 47.1523 28.1144 47.0279 28.1018 47.0152C28.0044 46.9251 27.267 45.8847 27.0055 45.47C26.5638 44.7722 26.443 44.5559 26.0553 43.7842C25.2259 42.1344 24.703 40.5351 24.3641 38.6148C23.953 36.2907 24.0521 33.5717 24.6345 31.1826C25.7092 26.7706 28.4426 22.8417 32.2055 20.2994C32.6671 19.9875 32.9538 19.8108 33.6642 19.4033C34.2484 19.0661 35.4601 18.518 36.2245 18.244C39.7802 16.9746 43.3556 16.7799 46.9635 17.6634C48.2761 17.9825 49.5797 18.4693 50.8707 19.1166C51.1953 19.2789 51.4766 19.4123 51.4964 19.4123C51.5162 19.4123 51.5757 19.324 51.6316 19.2176C51.6875 19.1094 51.7867 18.9273 51.8534 18.8137C51.9183 18.6983 52.0139 18.536 52.0607 18.4531C52.2194 18.179 52.2717 18.2277 51.3161 17.7463C50.7048 17.4398 50.1621 17.2 49.6338 17.0071C49.4319 16.9331 49.2227 16.8538 49.1723 16.8304C48.8026 16.6627 47.0104 16.1759 46.3 16.0478C46.1413 16.0208 45.8907 15.9757 45.7447 15.9505C44.7476 15.7756 43.0509 15.6674 41.8573 15.7035ZM41.4173 18.5649C41.3416 18.5739 41.0405 18.6046 40.7484 18.6316C39.6954 18.7362 38.3702 19.0157 37.31 19.36C36.7871 19.5295 35.8603 19.8829 35.5556 20.0272C33.5037 21.0098 32.2398 21.8663 30.7793 23.2673C29.3603 24.6268 28.2659 26.0998 27.3878 27.8362C26.9226 28.7557 26.8956 28.8188 26.6215 29.5455C25.8426 31.6082 25.4567 33.9071 25.5361 36.0292C25.6875 40.1745 27.1173 43.7715 29.8526 46.898C30.3177 47.4299 31.5564 48.6073 31.7422 48.6921C31.8359 48.7372 31.863 48.7263 31.9423 48.6163C31.9928 48.5478 32.1767 48.3206 32.3516 48.1115C32.5265 47.9023 32.6689 47.7076 32.6707 47.6806C32.6707 47.6535 32.5716 47.5489 32.4526 47.4516C32.0667 47.136 30.9524 46.0127 30.5666 45.5494C29.5983 44.3864 28.9006 43.2487 28.1757 41.6512C27.6763 40.5495 27.2652 38.9754 27.0308 37.277C26.9388 36.6044 26.9515 34.4552 27.0542 33.6835C27.1408 33.0218 27.2453 32.4123 27.3139 32.1527C27.3373 32.0643 27.422 31.7452 27.5014 31.4441C28.4444 27.8722 30.7829 24.6538 33.987 22.5226C35.8351 21.2929 37.9699 20.4761 40.2417 20.1317C41.1739 19.9911 41.796 19.955 42.8778 19.9803C44.2409 20.0109 44.9657 20.1047 46.2423 20.4094C46.8427 20.5555 47.7911 20.8494 48.1571 21.0044C48.2329 21.0369 48.3681 21.091 48.4564 21.1234C48.6584 21.1973 49.8322 21.7635 50.1423 21.9384C50.7499 22.2774 51.7182 22.9211 52.1166 23.2528C52.2374 23.3538 52.3564 23.4295 52.3799 23.4205C52.4574 23.3935 53.258 22.3603 53.2327 22.3188C53.184 22.2413 52.3456 21.6319 51.7344 21.2316C51.0528 20.7863 49.5852 20.02 48.9649 19.7874C48.7485 19.7062 48.5304 19.6215 48.4799 19.5962C48.3501 19.5367 47.4557 19.2428 47.133 19.1563C46.2856 18.9255 44.899 18.6803 43.9091 18.5847C43.4476 18.5415 41.7617 18.527 41.4173 18.5649ZM41.7184 21.4065C39.4466 21.5165 37.1153 22.2431 35.1175 23.4674C34.9263 23.5846 34.7605 23.6928 34.7478 23.709C34.7352 23.7252 34.6739 23.7649 34.6126 23.7973C34.4539 23.8803 33.7796 24.3978 33.3397 24.771C31.0913 26.6858 29.5262 29.2083 28.7888 32.1058C28.475 33.3373 28.356 34.4876 28.3939 35.9139C28.4372 37.5438 28.6391 38.7158 29.1259 40.1618C29.4992 41.2671 30.1465 42.5527 30.8406 43.5642C31.2752 44.1971 31.762 44.7993 31.8395 44.7993C31.8684 44.7993 32.1172 44.601 32.3949 44.3593L32.8997 43.9176L32.5391 43.4704C31.2607 41.8856 30.462 40.1294 29.995 37.8756C29.7354 36.6279 29.7372 34.4462 29.9986 33.1912C30.4115 31.2061 31.0714 29.6807 32.2055 28.0904C32.3967 27.8236 32.5734 27.5838 32.6004 27.5549C32.6257 27.5261 32.8348 27.2899 33.0638 27.0302C34.6379 25.2344 36.8863 23.8605 39.2951 23.2204C40.5591 22.8832 42.0772 22.739 43.3791 22.8291C43.7739 22.8562 44.2193 22.8994 44.3725 22.9247C44.9531 23.022 45.2073 23.0707 45.3408 23.1104C45.4183 23.132 45.622 23.1825 45.7951 23.224C46.1197 23.2979 47.0789 23.6152 47.3259 23.727C47.4017 23.7613 47.5585 23.828 47.6721 23.8731C48.3537 24.1435 49.5852 24.8774 50.3551 25.4724C50.941 25.9249 52.1004 27.0266 52.1022 27.133C52.104 27.1528 52.1311 27.1673 52.1653 27.1673C52.2483 27.1673 53.184 26.3505 53.2039 26.2603C53.2237 26.1756 52.1329 25.0829 51.5505 24.5997C51.0168 24.158 50.3983 23.7216 49.8051 23.37C49.2967 23.0671 48.3429 22.5893 48.0219 22.4757C47.9227 22.4415 47.82 22.3946 47.7911 22.3729C47.7424 22.3333 46.5686 21.9474 46.2423 21.8627C44.6682 21.4534 43.4043 21.3254 41.7184 21.4065ZM41.3254 24.2643C40.4058 24.3906 39.8343 24.515 39.0644 24.7566C38.3359 24.9856 37.4416 25.3858 36.825 25.7627C36.6861 25.8474 36.5094 25.952 36.4337 25.9935C36.2426 26.0998 35.4763 26.6714 35.1445 26.9563C34.7388 27.3043 33.9653 28.1102 33.639 28.5249C32.8817 29.4842 32.229 30.676 31.8341 31.8191C31.185 33.6925 31.0372 35.6957 31.4032 37.6881C31.6123 38.8312 32.0829 40.1114 32.6617 41.1193L32.8132 41.3843L32.9556 41.3032C33.0349 41.2599 33.1323 41.2022 33.1738 41.177C33.2153 41.1517 33.419 41.0273 33.6282 40.9029C33.8391 40.7767 34.0104 40.6595 34.0104 40.6433C34.0104 40.6252 33.9383 40.4936 33.8517 40.3494C33.7652 40.2051 33.5975 39.8643 33.4785 39.5939C32.8474 38.155 32.586 36.7757 32.6383 35.153C32.6743 34.0567 32.8294 33.2525 33.2116 32.1996C34.3025 29.1939 36.7528 26.8968 39.8018 26.0205C41.3921 25.5643 43.251 25.5193 44.8107 25.8979C46.7381 26.3667 48.525 27.4089 49.8232 28.8207C50.1856 29.2137 50.8924 30.1351 50.9519 30.2901C51.0132 30.4506 51.0691 30.4542 51.3035 30.3082C51.4261 30.2324 51.61 30.1261 51.711 30.0702C52.0067 29.9097 52.2429 29.7438 52.2429 29.6969C52.2429 29.6284 51.7073 28.8477 51.3954 28.46C50.9807 27.9444 50.2 27.16 49.6951 26.7471C48.68 25.9213 47.3386 25.1875 46.1053 24.7854C45.4075 24.5582 44.8828 24.4302 44.2337 24.3274C43.6802 24.2391 41.7978 24.1994 41.3254 24.2643ZM41.9258 27.0591C39.8757 27.2249 37.9302 28.1247 36.5076 29.5671C35.4276 30.6616 34.701 31.9363 34.3169 33.4076C33.9563 34.7887 33.9347 36.031 34.2466 37.414C34.3728 37.9729 34.5693 38.5679 34.6252 38.5679C34.71 38.5679 35.9018 38.0955 35.9018 38.0613C35.9018 38.0433 35.8603 37.908 35.8098 37.7602C35.4294 36.6531 35.3537 35.3261 35.6025 34.118C36.0857 31.7777 37.7607 29.8105 40.0091 28.9433C41.2659 28.4564 42.6506 28.341 43.9344 28.6151C44.8125 28.8008 45.4309 29.0406 46.1485 29.4679C47.4071 30.218 48.4294 31.3557 48.9938 32.6341C49.0731 32.8144 49.1705 32.9677 49.2101 32.9749C49.2498 32.9821 49.4121 32.9388 49.5725 32.8757C49.733 32.8126 49.9944 32.7134 50.1531 32.6539C50.4705 32.5349 50.4867 32.5025 50.3677 32.2158C49.6086 30.3731 48.1121 28.8098 46.2297 27.8867C44.9477 27.2592 43.3232 26.9473 41.9258 27.0591ZM41.8789 29.9205C40.4996 30.0846 39.104 30.8202 38.2764 31.8191C37.191 33.1263 36.7564 34.5309 36.9097 36.224C36.9277 36.4187 36.9566 36.5918 36.971 36.608C36.9872 36.6225 37.1225 36.6116 37.2703 36.581C37.42 36.5521 37.7157 36.4926 37.9284 36.4512L38.3179 36.3754L38.3233 35.5911C38.3287 34.9276 38.3467 34.7491 38.4351 34.4372C38.8732 32.8901 40.1263 31.72 41.695 31.39C42.0736 31.3107 42.9481 31.2998 43.2961 31.372C44.6286 31.646 45.6888 32.4286 46.3054 33.5915C46.4695 33.9016 46.7039 34.5381 46.7039 34.6752C46.7039 34.7581 46.657 34.7617 47.5026 34.603C47.7767 34.5507 48.0219 34.4949 48.049 34.4786C48.1553 34.4137 47.9714 33.7664 47.6721 33.1444C47.4594 32.7062 47.3097 32.434 47.2556 32.3835C47.2412 32.3709 47.1799 32.2879 47.1186 32.1996C46.1666 30.8094 44.3238 29.8754 42.5713 29.8971C42.2666 29.9025 41.9564 29.9115 41.8789 29.9205ZM41.9781 32.7747C40.7448 33.0326 39.8018 34.1162 39.7243 35.3603L39.7098 35.5911L40.3571 35.5929C40.7123 35.5929 41.0387 35.5767 41.0838 35.555C41.1397 35.5298 41.1649 35.4667 41.1649 35.3441C41.1649 34.9835 41.5111 34.4985 41.9222 34.2875C42.1115 34.1901 42.2233 34.1649 42.5028 34.1631C42.9048 34.1595 43.1645 34.2478 43.4566 34.4876C43.6802 34.6715 43.9344 35.1385 43.9344 35.3675V35.5226H44.6466C45.0379 35.5226 45.3678 35.5064 45.3804 35.4883C45.4147 35.4324 45.2885 34.7779 45.1983 34.5525C44.7746 33.4797 43.8244 32.7892 42.6867 32.7297C42.4451 32.717 42.1728 32.7351 41.9781 32.7747Z" fill="black"/>
</g>
<defs>
<clipPath id="clip0_254_6838">
<rect width="72" height="72" fill="white"/>
</clipPath>
</defs>
</svg>
