<svg width="64" height="64" viewBox="0 0 64 64" fill="none" xmlns="http://www.w3.org/2000/svg">
<circle cx="32" cy="32" r="32" fill="black"/>
<g clip-path="url(#clip0_4897_1933)">
<path d="M32.0001 56L11.5557 44.2222V20.6667L32.0001 8.88892L52.4446 20.6667V44.2222L32.0001 56ZM16.5104 41.3674L32.0001 50.2903L47.4898 41.3674V23.5215L32.0001 14.5986L16.5104 23.5215V41.3674Z" fill="#FF9200"/>
<path d="M31.9996 18.0404L19.4951 25.2455V39.6433L30.7609 46.1316V43.2829L21.9725 38.2221V26.6667L31.9996 20.8952L40.8872 26.0117L43.5379 24.6894L31.9996 18.0404Z" fill="#FF9200"/>
<path d="M32 46.6569L44.3373 39.5507L44.3868 25.6472L32 31.8265V46.6569Z" fill="#FF9200"/>
</g>
<defs>
<clipPath id="clip0_4897_1933">
<rect width="40.8889" height="47.1111" fill="white" transform="translate(11.5557 8.88892)"/>
</clipPath>
</defs>
</svg>
