<svg width="64" height="64" viewBox="0 0 64 64" fill="none" xmlns="http://www.w3.org/2000/svg">
<circle cx="32" cy="32" r="32" fill="#0D0C00"/>
<mask id="mask0_4930_3133" style="mask-type:alpha" maskUnits="userSpaceOnUse" x="13" y="11" width="27" height="42">
<path d="M39.2309 51.5818C39.2309 51.5818 39.0818 51.6358 38.8059 51.7118C38.2938 51.8535 37.3433 52.073 36.0948 52.1699C34.173 52.3189 28.6637 52.9046 22.5743 49.3024C16.4849 45.7003 13.8271 39.0909 13.8271 32.0032C13.8271 24.9154 15.9477 20.9797 19.7651 16.8061C22.9343 13.3401 29.302 11.6789 34.6586 11.7102C37.7382 11.7285 38.7483 12.2602 38.7483 12.2602L36.4799 12.2271C36.4799 12.2271 34.5372 12.1866 31.3398 13.7651C28.1424 15.3435 25.714 18.7838 25.714 18.7838C25.714 18.7838 22.3762 22.7655 22.21 32.0032C22.0439 41.2409 26.4426 46.8538 28.763 48.5807C31.0835 50.3075 33.323 51.3328 35.779 51.7376C38.235 52.1423 39.2314 51.5812 39.2314 51.5812L39.2309 51.5818Z" fill="black"/>
</mask>
<g mask="url(#mask0_4930_3133)">
<path d="M12.4072 10.4519H39.8186V53.746H12.4072V10.4519Z" fill="url(#paint0_linear_4930_3133)"/>
</g>
<mask id="mask1_4930_3133" style="mask-type:alpha" maskUnits="userSpaceOnUse" x="30" y="12" width="17" height="11">
<path d="M46.5109 22.2497L45.9474 14.6616C45.9474 14.6616 42.5851 12.6441 38.1306 12.2755C33.7147 11.91 30.4277 14.2698 30.4277 14.2698L46.5109 22.2497Z" fill="#2BC5F3"/>
</mask>
<g mask="url(#mask1_4930_3133)">
<path d="M28.2295 9.47156H51.3483V26.3354H28.2295V9.47156Z" fill="url(#paint1_linear_4930_3133)"/>
</g>
<mask id="mask2_4930_3133" style="mask-type:alpha" maskUnits="userSpaceOnUse" x="30" y="41" width="17" height="11">
<path d="M46.5109 41.7578L45.9474 49.3458C45.9474 49.3458 42.5851 51.3634 38.1306 51.7319C33.7147 52.0974 30.4277 49.7377 30.4277 49.7377L46.5109 41.7578Z" fill="#2BC5F3"/>
</mask>
<g mask="url(#mask2_4930_3133)">
<path d="M29.0859 39.8863H47.9735V53.6227H29.0859V39.8863Z" fill="url(#paint2_linear_4930_3133)"/>
</g>
<mask id="mask3_4930_3133" style="mask-type:alpha" maskUnits="userSpaceOnUse" x="13" y="11" width="34" height="42">
<path d="M21.8217 15.0385C26.2411 12.086 31.4464 11.3871 34.6678 11.5873C37.8829 11.7872 40.716 12.5281 42.7449 13.2186C43.7595 13.564 44.5737 13.8969 45.1345 14.1437C45.4149 14.2671 45.6321 14.3691 45.7795 14.4403C45.8531 14.4759 45.9093 14.5038 45.9472 14.5229C45.9661 14.5324 45.9805 14.5397 45.9902 14.5447C45.9951 14.5472 45.9989 14.5491 46.0013 14.5504C46.0026 14.551 46.0035 14.5516 46.0042 14.5519C46.0046 14.5521 46.0048 14.5522 46.005 14.5523L46.0053 14.5524C46.0053 14.5524 46.0039 14.5553 45.9532 14.6521L46.0053 14.5525L46.0658 14.5841L46.6504 22.4548L30.3743 14.3792L30.4834 14.1595L46.3738 22.0438L45.8313 14.7391C45.7946 14.7207 45.7415 14.6944 45.6727 14.6611C45.5278 14.5911 45.3133 14.4904 45.0357 14.3682C44.4804 14.1239 43.6729 13.7936 42.6659 13.4508C40.6512 12.7651 37.8401 12.0303 34.6525 11.8321C31.4712 11.6344 26.3226 12.3265 21.958 15.2424C17.6009 18.1532 14.013 23.2875 13.9513 32.0036C14.0135 40.7187 17.601 45.8524 21.9577 48.7631C26.3222 51.6789 31.4709 52.3712 34.6525 52.1734C37.8405 51.9752 40.6515 51.2403 42.6661 50.5546C43.6731 50.2119 44.4805 49.8816 45.0357 49.6373C45.3134 49.5151 45.5279 49.4144 45.6727 49.3444C45.7416 49.3111 45.7946 49.2848 45.8313 49.2664L46.3738 41.9788L30.4993 49.8552L30.3903 49.6355L46.6504 41.5678L46.0658 49.4214L46.0053 49.453L45.9485 49.3443L46.0053 49.453C46.0053 49.453 46.0051 49.4531 46.005 49.4532C46.0048 49.4533 46.0046 49.4534 46.0042 49.4535C46.0035 49.4539 46.0026 49.4544 46.0013 49.455C45.9989 49.4563 45.9952 49.4583 45.9903 49.4608C45.9806 49.4657 45.9662 49.4731 45.9472 49.4827C45.9093 49.5018 45.8531 49.5297 45.7795 49.5652C45.6321 49.6364 45.415 49.7384 45.1346 49.8618C44.5737 50.1086 43.7597 50.4416 42.7451 50.7869C40.7163 51.4774 37.8832 52.2183 34.6678 52.4182C31.4461 52.6185 26.2409 51.9195 21.8215 48.967C17.3946 46.0095 13.7683 40.7983 13.7061 32.0036V32.0018C13.7683 23.2072 17.3947 17.996 21.8217 15.0385Z" fill="#ED1C24"/>
</mask>
<g mask="url(#mask3_4930_3133)">
<path d="M12.7139 11.1887H47.1162V53.5629H12.7139V11.1887Z" fill="url(#paint3_linear_4930_3133)"/>
<path d="M30.1914 13.8256H48.5884V23.0241H30.1914V13.8256Z" fill="url(#paint4_linear_4930_3133)"/>
<path d="M30.1914 40.6847H48.5884V49.8832H30.1914V40.6847Z" fill="url(#paint5_linear_4930_3133)"/>
</g>
<mask id="mask4_4930_3133" style="mask-type:alpha" maskUnits="userSpaceOnUse" x="22" y="12" width="25" height="40">
<path d="M30.4902 14.0882C33.1453 12.4773 35.8654 11.9702 37.7115 12.1135C39.8164 12.277 41.8898 12.8875 43.4344 13.4553C44.2072 13.7395 44.849 14.0135 45.2978 14.2166C45.5222 14.3182 45.6986 14.402 45.8189 14.4606C45.879 14.4899 45.9252 14.5128 45.9564 14.5285C45.9721 14.5364 45.984 14.5424 45.992 14.5465C45.996 14.5485 45.9991 14.5501 46.0012 14.5511C46.0022 14.5517 46.003 14.5521 46.0035 14.5523C46.0038 14.5525 46.004 14.5526 46.0042 14.5527C46.0042 14.5527 46.0043 14.5527 46.0044 14.5528C46.0044 14.5528 46.0042 14.5534 45.9481 14.6618C45.8928 14.7688 45.8918 14.7707 45.8918 14.7707L45.8912 14.7704C45.8908 14.7702 45.8901 14.7698 45.8892 14.7694C45.8873 14.7684 45.8844 14.7669 45.8806 14.765C45.873 14.7611 45.8615 14.7553 45.8464 14.7477C45.816 14.7324 45.7707 14.71 45.7115 14.6812C45.5931 14.6235 45.4189 14.5406 45.1967 14.4401C44.7523 14.239 44.1161 13.9673 43.3498 13.6856C41.8158 13.1216 39.7661 12.5191 37.6925 12.3581C35.8726 12.2168 33.1468 12.7275 30.4932 14.3741C26.3548 16.9411 22.3845 22.2471 22.3332 32.004C22.3849 41.7722 26.3647 47.0784 30.5084 49.6422L30.6325 49.7182C33.2418 51.2957 35.9026 51.7693 37.6937 51.6485L37.7845 51.642C39.6906 51.4995 41.7001 50.9074 43.2454 50.3442C44.0294 50.0584 44.692 49.7809 45.1585 49.5748C45.3917 49.4718 45.5758 49.3867 45.7014 49.3275C45.7642 49.2978 45.8124 49.2746 45.8448 49.2589C45.861 49.2511 45.8732 49.2451 45.8814 49.241C45.8855 49.239 45.8885 49.2376 45.8905 49.2365C45.8916 49.236 45.8923 49.2357 45.8928 49.2355C45.8931 49.2353 45.8932 49.2352 45.8933 49.2351L45.8934 49.2351C45.8934 49.2351 45.8935 49.2351 45.9481 49.3448C46.0028 49.4547 46.0027 49.4547 46.0026 49.4547C46.0026 49.4547 46.0026 49.4548 46.0025 49.4548C46.0023 49.4549 46.0021 49.455 46.0018 49.4552C46.0013 49.4554 46.0004 49.4558 45.9993 49.4564C45.9971 49.4574 45.9939 49.4591 45.9897 49.4612C45.9811 49.4654 45.9685 49.4716 45.9519 49.4796C45.9187 49.4957 45.8697 49.5193 45.8061 49.5494C45.6788 49.6094 45.4928 49.6953 45.2576 49.7992C44.7872 50.007 44.1194 50.2867 43.3294 50.5747C41.751 51.1499 39.6769 51.7608 37.7103 51.8932C35.8383 52.0194 33.0705 51.5154 30.3793 49.8508C26.1562 47.2379 22.1396 41.8485 22.0879 32.004V32.0027C22.1396 22.1706 26.1463 16.7818 30.3638 14.1657L30.4902 14.0882Z" fill="#AF27FF"/>
</mask>
<g mask="url(#mask4_4930_3133)">
<path d="M21.6045 11.6796H47.2989V31.6709H21.6045V11.6796Z" fill="url(#paint6_linear_4930_3133)"/>
<path d="M21.6045 11.6796H47.2989V31.6709H21.6045V11.6796Z" fill="url(#paint7_linear_4930_3133)"/>
<path d="M21.6045 31.4862H46.5016V53.0719H21.6045V31.4862Z" fill="url(#paint8_linear_4930_3133)"/>
</g>
<defs>
<linearGradient id="paint0_linear_4930_3133" x1="24.5492" y1="10.7585" x2="26.113" y2="53.746" gradientUnits="userSpaceOnUse">
<stop stop-color="#FFEC96"/>
<stop offset="0.346154" stop-color="#F7D981"/>
<stop offset="0.730769" stop-color="#9B710B"/>
<stop offset="1" stop-color="#CC961C"/>
</linearGradient>
<linearGradient id="paint1_linear_4930_3133" x1="33.1353" y1="10.5754" x2="38.6545" y2="24.6183" gradientUnits="userSpaceOnUse">
<stop offset="0.105358" stop-color="#6D4900"/>
<stop offset="1" stop-color="#CC9014"/>
</linearGradient>
<linearGradient id="paint2_linear_4930_3133" x1="48.5867" y1="41.9713" x2="30.2511" y2="50.3112" gradientUnits="userSpaceOnUse">
<stop offset="0.0748399" stop-color="#FFCB58"/>
<stop offset="1" stop-color="#7E5D0C"/>
</linearGradient>
<linearGradient id="paint3_linear_4930_3133" x1="29.915" y1="11.1887" x2="29.915" y2="53.5629" gradientUnits="userSpaceOnUse">
<stop stop-color="#FFFACC"/>
<stop offset="0.5" stop-color="#CAAE4B"/>
<stop offset="1" stop-color="#B98A18"/>
</linearGradient>
<linearGradient id="paint4_linear_4930_3133" x1="30.1914" y1="14.2549" x2="48.2817" y2="23.0241" gradientUnits="userSpaceOnUse">
<stop stop-color="#6E5725"/>
<stop offset="1" stop-color="#D3AE44"/>
</linearGradient>
<linearGradient id="paint5_linear_4930_3133" x1="47.1779" y1="49.086" x2="30.1914" y2="49.8832" gradientUnits="userSpaceOnUse">
<stop stop-color="#FEDF9F"/>
<stop offset="0.0730059" stop-color="#FED271"/>
<stop offset="1" stop-color="#FFF7C3"/>
</linearGradient>
<linearGradient id="paint6_linear_4930_3133" x1="34.4517" y1="11.6796" x2="34.4517" y2="31.6709" gradientUnits="userSpaceOnUse">
<stop stop-color="#B7963C"/>
<stop offset="1" stop-color="#F9E4B6"/>
</linearGradient>
<linearGradient id="paint7_linear_4930_3133" x1="34.4517" y1="11.6796" x2="34.4517" y2="31.6709" gradientUnits="userSpaceOnUse">
<stop stop-color="#B7963C"/>
<stop offset="1" stop-color="#BFA244"/>
</linearGradient>
<linearGradient id="paint8_linear_4930_3133" x1="20.4394" y1="47.1849" x2="49.8745" y2="42.2791" gradientUnits="userSpaceOnUse">
<stop stop-color="#B7963C"/>
<stop offset="1" stop-color="#F9E4B6"/>
</linearGradient>
</defs>
</svg>
