<svg width="64" height="64" viewBox="0 0 64 64" fill="none" xmlns="http://www.w3.org/2000/svg">
<circle cx="32" cy="32" r="32" fill="#0D0C00"/>
<path d="M15.4238 15.9378C15.4238 14.888 15.4232 14.101 15.4742 13.4786C15.5246 12.8565 15.6258 12.4 15.8275 12.0055H15.8283C16.1829 11.3116 16.7472 10.7434 17.4447 10.3892L17.4464 10.3883C17.8375 10.1906 18.2912 10.0874 18.9169 10.0367V10.0376C19.5387 9.98676 20.3249 9.98553 21.3743 9.98553H30.633C35.3645 9.98553 39.3725 10.8081 42.6591 12.4499C45.9453 14.0499 48.4504 16.4088 50.1747 19.5255C51.8997 22.6439 52.7632 26.4829 52.7632 31.0446C52.7632 35.9802 51.8574 40.1222 50.0445 43.4725L49.8665 43.7946L49.5028 44.4222C47.6396 47.5139 45.0917 49.8482 41.8561 51.4256C38.4051 53.109 34.3338 53.9508 29.6452 53.9508H21.3743C20.3248 53.9508 19.5383 53.9514 18.916 53.9005V53.8996C18.2938 53.8492 17.8375 53.7488 17.4429 53.5472V53.5463C16.7473 53.1916 16.1811 52.6266 15.8266 51.9308V51.93C15.6277 51.5388 15.5247 51.0827 15.4742 50.4586C15.4232 49.8363 15.4238 49.0485 15.4238 48.0003V15.9378ZM17.2016 48.0003C17.2016 48.8105 17.2021 49.4073 17.2207 49.8796L17.2459 50.3137V50.3145C17.2871 50.8243 17.3594 51.0223 17.4108 51.1236L17.4846 51.2555C17.6693 51.5568 17.9345 51.8025 18.2511 51.9638H18.252C18.3273 52.0024 18.4556 52.0523 18.7311 52.0923L19.0601 52.1279L19.061 52.1288C19.5933 52.1724 20.2928 52.173 21.3743 52.173H29.6452C34.1225 52.173 37.9162 51.3692 41.0766 49.8275L41.653 49.5341C44.4925 48.0193 46.703 45.8302 48.3118 42.9317L48.3188 42.9187L48.3197 42.917C50.0607 39.8477 50.9854 35.9222 50.9855 31.0446C50.9855 26.7021 50.1635 23.1775 48.6191 20.3857C47.0767 17.5978 44.8475 15.4931 41.8813 14.0489L41.8726 14.0446L41.8648 14.0402C38.885 12.5516 35.1648 11.7633 30.633 11.7633H21.3743C20.2959 11.7633 19.5937 11.7657 19.061 11.8093H19.0601C18.5508 11.8505 18.3526 11.9225 18.2485 11.9751C17.8896 12.1578 17.5959 12.4521 17.4108 12.8145L17.4099 12.8154C17.3586 12.9161 17.2873 13.1109 17.2459 13.6227V13.6236C17.2023 14.1559 17.2016 14.8561 17.2016 15.9378V48.0003Z" fill="#FFDA00"/>
<mask id="mask0_4930_3866" style="mask-type:alpha" maskUnits="userSpaceOnUse" x="15" y="9" width="38" height="46">
<path d="M52.8122 31.0428C52.8122 36.1442 51.8443 40.4025 49.9086 43.8177C48.0136 47.2329 45.3367 49.7836 41.878 51.4699C38.4192 53.1562 34.3417 53.9998 29.6456 54.0007H21.3743C19.2734 54.0007 18.2244 54.0007 17.423 53.5916C16.7176 53.2317 16.1439 52.6581 15.784 51.9527C15.375 51.1499 15.375 50.1009 15.375 48V15.9374C15.375 13.8365 15.375 12.7875 15.784 11.9861C16.143 11.2793 16.7162 10.7061 17.4216 10.3457C18.2244 9.93808 19.2748 9.93808 21.3743 9.93808H30.6334C35.3694 9.93808 39.3852 10.7608 42.6807 12.4063C45.9753 14.0109 48.4876 16.3761 50.2174 19.5019C51.9473 22.6296 52.8122 26.4765 52.8122 31.0428Z" fill="#F9D63C"/>
</mask>
<g mask="url(#mask0_4930_3866)">
<path d="M31.1124 37.5694C36.6925 37.5694 41.2161 33.4414 41.2161 28.3492C41.2161 23.257 36.6925 19.129 31.1124 19.129C25.5323 19.129 21.0088 23.257 21.0088 28.3492C21.0088 33.4414 25.5323 37.5694 31.1124 37.5694Z" fill="#FFDA00"/>
<path d="M44.5039 46.4055C44.5039 53.6361 37.2177 57.0824 28.2312 57.0824C14.7606 57.0824 11.793 52.4021 12.2869 46.4055C12.8003 40.1961 19.2434 35.7287 28.2312 35.7287C37.219 35.7287 44.5039 39.5575 44.5039 46.4055Z" fill="#FFDA00"/>
<path d="M43.3676 31.3294C40.9982 30.2442 39.2883 27.7565 38.7304 26.6476C38.9489 32.3534 33.193 32.2129 34.5955 33.4553C35.9979 34.6977 40.6087 35.8901 44.7395 34.9162C48.8702 33.9395 46.3283 32.6873 43.3676 31.3294Z" fill="#F97429"/>
<path fill-rule="evenodd" clip-rule="evenodd" d="M29.1122 24.7235C28.9647 23.961 29.6826 23.3781 30.427 23.5993L38.0764 25.8574C38.6384 26.0243 38.9793 26.592 38.8597 27.1652L38.3616 29.5541C38.3137 29.7984 38.1823 30.0184 37.9898 30.1763C37.7974 30.3343 37.5559 30.4202 37.307 30.4195C35.6638 30.3958 32.1661 30.1704 30.8471 28.729C29.844 27.6313 29.3501 25.952 29.1122 24.7235ZM46.4423 26.6574C46.5494 26.009 45.9664 25.5262 45.3153 25.625L41.6868 26.1718C41.4175 26.2128 41.1721 26.35 40.9961 26.5579C40.8202 26.7659 40.7255 27.0306 40.7296 27.3029L40.763 29.44C40.7713 29.9422 41.1136 30.3791 41.6144 30.4264C42.541 30.5141 44.0423 30.4598 45.083 29.4525C45.9567 28.6052 46.3073 27.4949 46.4423 26.6574Z" fill="#0D0C00"/>
<path fill-rule="evenodd" clip-rule="evenodd" d="M38.2723 25.9144C39.0403 26.1871 39.5648 26.7826 40.4497 26.5489C40.945 26.4195 41.4027 26.2233 41.4027 26.2233C41.4027 26.2233 41.08 28.4438 40.9909 30.1816C40.5262 29.7308 40.8379 28.3882 40.3161 28.3506C39.4215 28.2838 38.6104 29.7322 38.0107 30.2428C38.9054 27.9638 38.5367 27.1096 38.2723 25.9144Z" fill="#7B7B7B"/>
<path fill-rule="evenodd" clip-rule="evenodd" d="M37.5534 30.5447C36.8549 31.3906 35.9812 31.8942 35.3273 32.2699C34.5426 32.7221 34.0737 32.9934 34.5955 33.4553C35.9993 34.6963 40.6101 35.8901 44.7395 34.9162C48.8716 33.9409 46.3283 32.6859 43.3676 31.3294C42.1363 30.7659 41.0845 29.8226 40.2789 28.8918L40.1426 30.7353L37.5534 30.5447Z" fill="#F97429"/>
<path opacity="0.2" d="M41.8037 32.2504C41.7021 32.4675 41.1999 32.4146 40.8353 32.2922C40.539 32.192 40.1675 31.9596 40.2705 31.6382C40.3442 31.4045 40.7964 31.2904 41.2486 31.4713C41.7007 31.6522 41.9066 32.0334 41.8051 32.2504" fill="#0D0C00"/>
</g>
</svg>
