<svg width="64" height="64" viewBox="0 0 64 64" fill="none" xmlns="http://www.w3.org/2000/svg">
<circle cx="32" cy="32" r="32" fill="white"/>
<path d="M11.11 22.2222H12.0976C12.0737 22.3457 12.0603 22.4711 12.0578 22.5969C12.0312 23.56 12.053 24.6159 12.0529 25.59L12.053 31.3064L12.0534 33.6322C12.0534 33.853 12.041 34.6388 12.0852 34.8089C12.0769 34.805 13.1585 34.7984 13.4737 34.8043C15.0307 34.8332 16.8067 34.929 17.5299 33.1871C17.5732 33.0828 17.6556 32.8941 17.6614 32.78C17.7957 32.461 17.8791 31.8066 17.8831 31.4623C17.841 29.4538 17.8991 27.3522 17.8777 25.3288C17.8638 24.8104 17.8559 24.7648 17.6858 24.2886C17.539 23.8323 17.1927 23.2309 16.81 22.9378C15.8427 22.1972 14.9171 22.3186 13.7899 22.3277C13.2386 22.3321 12.728 22.2964 12.1816 22.3584C12.1303 22.3153 12.146 22.311 12.1357 22.2222H19.0084L19.071 22.268L19.0583 22.3215L19.0381 22.3162C18.9652 22.4554 18.9521 22.4511 18.9798 22.6275L18.9793 31.9942C18.9492 32.2269 18.978 32.232 19.1305 32.4029C19.2289 33.161 19.6212 33.8499 20.2228 34.3212C21.4158 35.2449 23.268 35.0993 24.2122 33.8873C24.5372 33.4702 24.7942 32.9325 24.8448 32.4032C24.8976 32.1626 24.9902 32.0073 24.9794 31.7838C24.9669 31.6767 24.9731 31.0905 24.9766 30.9626C24.9937 30.3229 24.9784 29.9052 24.9147 29.2791C25.005 29.1272 26.0033 28.5824 26.1964 28.5241C26.6156 28.3975 27.3357 28.9613 27.7203 29.1774C27.773 29.9398 27.7493 30.6914 27.7534 31.4546C27.7629 31.943 27.7165 32.421 27.8247 32.9021C27.9049 33.2583 28.0674 33.4874 28.2503 33.7847C28.8011 34.6798 29.9323 34.9663 30.928 34.9128C31.6338 34.8748 32.4009 34.403 32.8601 33.8677C33.1996 33.4709 33.4159 32.9835 33.4824 32.4655C33.5337 32.2431 33.7395 31.3824 33.4857 31.2735C33.0103 31.2592 32.1415 31.2345 31.6861 31.2818C31.7007 31.9805 31.7311 31.9831 31.5516 32.6411C31.5049 32.705 31.4541 32.7736 31.3944 32.8253C31.1517 33.031 30.8374 33.1318 30.5205 33.1057C29.3239 33.009 29.5032 31.8104 29.5028 30.9143L29.5026 28.9507L29.5036 26.5476C29.5038 26.1161 29.488 25.5262 29.5271 25.108C29.7025 24.3968 29.8027 23.9882 30.6585 24.0322C31.7308 24.0872 31.7131 25.0663 31.6879 25.8781C32.1057 25.9132 33.0451 25.9282 33.4761 25.8963L33.5163 25.9002L33.5767 25.8547C33.6745 25.5429 33.6444 24.991 33.5127 24.709C33.4981 24.6776 33.4839 24.5609 33.4743 24.5178C33.2173 23.6044 32.8973 23.005 32.0288 22.5204C31.8562 22.4241 31.5686 22.3296 31.4285 22.2222H34.5435C34.4603 22.4703 34.5002 24.5632 34.5005 24.9423L34.5 31.5166L34.5002 33.6834C34.5002 34.0217 34.5144 34.4784 34.4964 34.8051C34.6602 34.7961 34.8288 34.8085 34.9929 34.8188C35.421 34.8459 35.8707 34.8096 36.2958 34.8362C36.2731 34.4889 36.3249 34.1943 36.3491 33.8515C36.364 33.6387 36.36 33.4031 36.3605 33.1886V30.5013C36.3572 30.1217 36.2973 29.6354 36.3448 29.2887C37.0055 29.3179 37.7668 29.2605 38.4664 29.2852C38.5142 29.7632 38.4975 30.4082 38.498 30.9018L38.4965 33.4163C38.4958 33.6259 38.4523 34.6825 38.5572 34.786C38.7468 34.8376 39.959 34.8398 40.237 34.8303L40.2698 34.8086C40.305 34.5651 40.2896 33.8632 40.2893 33.5834L40.2883 31.2603L40.2898 22.5054C40.2906 22.4473 40.2585 22.2871 40.2471 22.2222H43.6297L43.6259 22.2371C43.6039 22.3206 43.569 22.3535 43.5412 22.4273C43.3739 22.8725 43.3143 23.3172 43.2119 23.7755L42.6712 26.2475C42.6108 26.5262 42.5322 26.7839 42.4713 27.0539L41.9931 29.1981C41.6415 30.7549 41.3021 32.3209 40.9558 33.8794C40.9318 33.988 40.9386 34.2173 40.8989 34.2994C40.8575 34.3173 40.8264 34.3265 40.7948 34.3586C40.8282 34.3886 40.8428 34.3905 40.8861 34.4058L40.8921 34.4608C40.8537 34.4953 40.838 34.4978 40.7885 34.5138C40.74 34.5726 40.7523 34.6391 40.7549 34.7172L40.7941 34.7449C40.7513 34.8354 40.7407 34.8194 40.7599 34.8974C40.8256 34.9335 41.0716 34.9152 41.13 34.8985C41.1441 34.8946 41.158 34.8897 41.1714 34.884C41.0946 34.802 41.0622 34.855 40.9101 34.7672C41.3873 34.8204 42.0512 34.8255 42.53 34.8C42.5724 34.5614 43.0026 32.2523 43.0878 32.2344C43.4528 32.1576 45.1697 32.1021 45.4571 32.2105C45.5739 32.3954 45.9578 34.4472 45.9894 34.7727C46.6261 34.813 47.1493 34.8378 47.7903 34.7683C47.5663 33.4997 47.2466 32.1448 46.942 30.8899C46.8735 30.6073 46.8343 30.1425 46.7686 29.9099C46.6043 29.3296 46.4431 28.8012 46.3296 28.2006C46.3187 28.0994 46.2386 27.7267 46.2149 27.6196C46.0412 26.8432 45.8461 26.1401 45.7025 25.3526C45.6992 25.281 45.5627 24.7519 45.5352 24.6504C45.3846 24.0995 45.216 22.8244 44.9814 22.3555C44.5967 22.2852 44.0733 22.3161 43.678 22.3372L43.6527 22.3115L43.6567 22.2222H48.3531C48.2756 22.5163 48.3018 23.3619 48.3018 23.7194L48.3036 25.9399L48.3082 34.793C48.5569 34.7843 49.9192 34.8591 50.0347 34.7673L50.0403 34.7466L50.0607 34.7686L50.0964 34.7697L50.1194 34.7123L50.1793 34.7206L50.2079 34.6797C50.2503 32.3394 50.2063 29.9051 50.2068 27.5516L50.2086 24.4543C50.2089 24.1162 50.2882 22.4339 50.0683 22.3378L50.0246 22.376C49.9829 22.3298 49.9533 22.2756 49.9207 22.2222H52.8928L52.8923 22.2822C52.8193 22.3298 52.7126 22.2621 52.6358 22.2763C52.2835 22.3417 51.921 22.2973 51.5745 22.3208C51.53 22.3234 51.4863 22.3345 51.4458 22.3535C51.2446 22.4501 51.3099 23.2543 51.3106 23.4743L51.3124 25.2734V31.7795L51.3136 33.8037C51.3142 34.0572 51.3339 34.5434 51.3167 34.7714C51.943 34.8132 52.4571 34.8066 53.0824 34.7976C53.1764 34.7747 53.1494 34.7938 53.2156 34.7283C53.2447 34.6513 53.2406 34.6382 53.2247 34.5566C53.2027 33.9248 53.2262 33.1132 53.2265 32.4692L53.2315 28.1305C53.2715 28.0357 53.254 28.0369 53.3263 27.9847C53.4856 28.0512 53.5475 28.4845 53.6471 28.648C53.7239 28.8448 53.7937 29.0796 53.8702 29.2865L54.9897 32.4038C55.2432 33.1146 55.6496 34.0832 55.8233 34.7819C56.3487 34.827 56.994 34.8118 57.5273 34.8127C57.5708 34.4413 57.546 33.5833 57.5458 33.1635L57.5455 29.9825L57.546 25.0655C57.546 24.2151 57.5516 23.355 57.5382 22.5043C57.5364 22.4044 57.4882 22.3106 57.4429 22.2222H57.7776V39.5335C57.7662 39.531 57.0479 39.1613 57.0244 39.1409L57.0223 39.1032C57.1315 39.0515 57.4545 39.0372 57.5845 39.0265C57.5888 38.9152 57.5885 38.8511 57.6166 38.7411C57.5996 38.6902 57.6009 38.6587 57.5468 38.64C57.3403 38.5687 56.8267 38.6113 56.624 38.6458L56.4632 38.7796C56.3568 39.2609 56.2555 39.0621 56.5143 39.5513C56.6452 39.5947 57.058 39.6997 57.1194 39.7561C57.1548 39.8376 57.1515 39.8022 57.131 39.8895C56.9852 40.0242 56.8168 39.9368 56.6472 39.8651C56.6397 39.7984 56.6389 39.7616 56.6106 39.7003L56.5747 39.6989L56.4324 39.9918L56.4903 40.2926C56.7949 40.3636 57.0805 40.4414 57.3906 40.3437C57.5802 40.284 57.6259 40.2123 57.7776 40.0968V42.3003H6.01367V39.6776C6.63239 39.6449 7.54208 39.6722 8.18134 39.6722L12.427 39.6722L25.4421 39.6725C25.4478 39.6216 25.4517 39.5705 25.4539 39.5193C25.4608 39.3486 25.5118 38.6964 25.4033 38.5881C25.3474 38.5322 7.87388 38.5738 6.01367 38.5617V34.7927C6.20056 34.8305 7.59048 34.8063 7.89634 34.8062L9.89356 34.809C10.38 34.8114 10.9072 34.8334 11.3869 34.7776C11.4097 34.396 11.4018 33.8453 11.3925 33.4654C11.3946 33.3493 11.4234 33.1749 11.3759 33.0807C11.298 33.0159 11.2687 33.0307 11.158 33.0168C10.9054 32.9939 10.5356 33.0049 10.2752 33.005L8.71047 33.0054C8.56757 33.0052 7.85179 32.9819 7.76501 32.9977C7.81155 32.5564 7.75827 31.9116 7.76725 31.4468C7.78065 30.7532 7.75649 30.0687 7.78762 29.3718C8.72764 29.3713 9.8668 29.3793 10.7858 29.3477C10.8413 29.3456 10.8765 29.3316 10.9291 29.3156C11.0082 29.1916 10.9514 27.9071 10.9314 27.675C10.7086 27.6423 10.2921 27.6627 10.0534 27.6563C9.32641 27.637 8.50612 27.6936 7.7888 27.6405C7.75752 27.03 7.76868 26.3632 7.76757 25.7498C7.76658 25.2056 7.75337 24.5644 7.80461 24.0296C8.82222 24.0461 9.87782 23.9847 10.9006 24.0144C11.0641 24.0192 11.2406 23.9871 11.4005 23.9521C11.3814 23.4866 11.4277 23.0145 11.3786 22.5491C11.3453 22.2341 11.2297 22.3982 11.11 22.2222ZM37.3874 39.8243C38.01 39.6366 37.7585 38.9769 37.6862 38.5479C37.5259 38.5014 37.3778 38.4558 37.2085 38.465C37.1241 38.5074 36.9626 38.6058 36.907 38.682C36.7566 38.8875 36.7439 39.272 36.8599 39.496C36.9338 39.6384 37.0624 39.7448 37.2161 39.7908C37.2659 39.8053 37.3356 39.8164 37.3874 39.8243ZM54.4159 38.9974C54.447 39.4182 54.2681 39.3931 54.4662 39.7672C54.5165 39.472 54.49 39.2947 54.4159 38.9974ZM39.7924 39.8324C40.1637 39.4749 40.1321 39.1178 39.5535 39.2004C39.5209 39.2046 39.4648 39.2026 39.4507 39.2308C39.3127 39.5037 39.4365 39.8912 39.7924 39.8324ZM40.5658 39.8567L40.5807 39.847C40.6583 39.8338 40.8684 39.7741 40.9043 39.7869C40.9247 39.8411 40.9328 39.876 40.9457 39.9312C40.952 39.6305 40.9384 39.3604 40.9497 39.0351C40.9126 39.1467 40.928 39.1552 40.8191 39.2118C40.7342 39.256 40.6305 39.2389 40.5678 39.1684L40.5367 39.0584C40.5443 39.1682 40.5501 39.2868 40.562 39.3955C40.5623 39.5452 40.5597 39.7082 40.5658 39.8567ZM53.4881 39.1712C53.3728 39.1698 53.1926 39.1623 53.0827 39.1695C52.7485 39.4977 52.9679 39.8147 53.3764 39.8608C53.5803 39.6773 53.5235 39.4212 53.4881 39.1712Z" fill="black" fill-opacity="0.01"/>
<path d="M30.6831 36.0449C32.3648 35.9676 33.788 37.2746 33.8545 38.9574C33.921 40.6403 32.6057 42.0558 30.9232 42.1117C29.2558 42.1671 27.8565 40.8654 27.7905 39.1976C27.7245 37.5299 29.0166 36.1216 30.6831 36.0449Z" fill="#00EEBD"/>
<path d="M28.873 39.374C28.9234 39.0478 28.8621 38.9559 28.8872 38.6813C28.9413 38.6138 28.923 38.6339 29.0324 38.6207L29.0589 38.6309C29.8915 38.6329 30.7851 38.6127 31.6095 38.6467C31.6403 38.942 31.6426 39.1885 31.6459 39.4864C31.5706 39.5006 31.5051 39.5035 31.4558 39.5606C31.4745 39.6361 31.473 39.6161 31.5451 39.6753C31.7235 39.6584 31.9179 39.6652 32.0983 39.6675C32.0923 40.0334 32.0993 40.4 32.0895 40.7653C31.8031 40.7689 29.6765 40.8026 29.5386 40.7269C29.48 40.6577 29.4972 40.5997 29.4742 40.5233C29.4497 40.3771 29.465 40.0872 29.4718 39.9305C29.4721 39.9169 29.4729 39.8273 29.4706 39.8219C29.3676 39.5909 28.9181 39.7489 28.873 39.374Z" fill="#096ADE"/>
<path d="M28.873 39.374C28.9234 39.0478 28.8621 38.9559 28.8872 38.6813C28.9413 38.6138 28.923 38.6339 29.0324 38.6207L29.0589 38.6309C29.8915 38.6329 30.7851 38.6127 31.6095 38.6467C31.6403 38.942 31.6426 39.1885 31.6459 39.4864C31.5706 39.5006 31.5051 39.5035 31.4558 39.5606C31.4745 39.6361 31.473 39.6161 31.5451 39.6753C31.3249 39.6746 29.6447 39.6466 29.5248 39.7201C29.4994 39.7999 29.4917 39.8653 29.4718 39.9305C29.4721 39.9169 29.4729 39.8273 29.4706 39.8219C29.3676 39.5909 28.9181 39.7489 28.873 39.374Z" fill="#1219EE"/>
<path d="M28.873 39.374C28.9234 39.0478 28.8621 38.9559 28.8872 38.6813C28.9413 38.6138 28.923 38.6339 29.0324 38.6207L29.0589 38.6309C29.0608 38.9138 29.0661 39.2057 29.0582 39.4876L30.911 39.4852C31.0137 39.4848 31.5802 39.4746 31.6459 39.4864C31.5706 39.5006 31.5051 39.5035 31.4558 39.5606C31.4745 39.6361 31.473 39.6161 31.5451 39.6753C31.3249 39.6746 29.6447 39.6466 29.5248 39.7201C29.4994 39.7999 29.4917 39.8653 29.4718 39.9305C29.4721 39.9169 29.4729 39.8273 29.4706 39.8219C29.3676 39.5909 28.9181 39.7489 28.873 39.374Z" fill="#00BCC7"/>
<path d="M28.873 39.374C28.9234 39.0478 28.8621 38.9559 28.8872 38.6813C28.9413 38.6138 28.923 38.6339 29.0324 38.6207C29.0253 38.831 29.0755 39.1614 28.9843 39.3112C28.9475 39.3333 28.912 39.356 28.873 39.374Z" fill="#04DDBF"/>
<path d="M29.5019 39.8811C30.2005 39.9353 31.2394 39.8932 31.9628 39.8905C31.9446 40.162 31.9216 40.2623 32.0042 40.5268C31.527 40.5321 31.0499 40.5335 30.5726 40.5311C30.3635 40.531 29.9199 40.5239 29.7188 40.5509C29.621 40.5517 29.5921 40.552 29.4976 40.5302C29.4871 40.29 29.4903 40.1214 29.5019 39.8811Z" fill="#1219EE"/>
<path d="M31.5464 39.6752C31.7248 39.6582 31.9192 39.6651 32.0997 39.6673C32.0936 40.0332 32.1007 40.3998 32.0908 40.7652C31.8045 40.7687 29.6778 40.8024 29.5399 40.7268C29.4813 40.6575 29.4986 40.5996 29.4756 40.5231L29.4982 40.5304C29.5928 40.5521 29.6216 40.5519 29.7194 40.5511C30.1952 40.5945 30.7522 40.5396 31.2366 40.5591C31.4958 40.5695 31.8221 40.5618 32.0774 40.5388C32.0542 40.2537 32.0638 39.9816 32.0688 39.6958C31.901 39.6949 31.7107 39.6991 31.5464 39.6752Z" fill="#09A2D1"/>
<path d="M31.864 37.5159C31.929 37.5148 32.043 37.5032 32.0905 37.5362C32.096 37.6589 32.1077 38.2922 32.0854 38.3735C32.0131 38.3882 31.9997 38.3877 31.9264 38.3823L29.4859 38.3852C29.1395 38.2424 29.4237 37.7882 29.4906 37.5806L29.5231 37.5342C29.6904 37.5068 30.0696 37.5225 30.2526 37.52C30.7854 37.513 31.3317 37.5339 31.864 37.5159Z" fill="#1219EE"/>
<path d="M31.8633 37.5159C31.9282 37.5148 32.0422 37.5032 32.0897 37.5362C32.0953 37.6589 32.1069 38.2922 32.0847 38.3735C32.0124 38.3882 31.999 38.3877 31.9257 38.3823C31.9613 38.2998 31.8969 37.9222 31.9189 37.8027C31.9409 37.6847 32.0023 37.6831 32.0005 37.5781C31.9841 37.552 31.9009 37.5298 31.8633 37.5159Z" fill="#096ADE"/>
<path d="M29.4859 38.3853C29.1395 38.2425 29.4237 37.7883 29.4906 37.5807C29.4895 37.8472 29.4911 38.1193 29.4859 38.3853Z" fill="#04DDBF"/>
<path d="M37.2453 37.8341C37.4624 37.8145 37.7164 37.8834 37.9307 37.9322C38.2373 38.2665 38.4479 38.4062 38.5356 38.8828C38.6865 39.7054 38.2745 40.2531 37.4621 40.4012C37.0714 40.4359 36.8166 40.359 36.4948 40.1123C36.0169 39.7458 36.026 38.6851 36.3856 38.2441C36.6017 37.9791 36.903 37.8593 37.2453 37.8341ZM37.3876 39.824C38.0101 39.6363 37.7586 38.9766 37.6863 38.5476C37.5261 38.5011 37.3779 38.4555 37.2086 38.4647C37.1242 38.507 36.9627 38.6055 36.9071 38.6817C36.7567 38.8872 36.744 39.2717 36.8601 39.4957C36.9339 39.6381 37.0625 39.7445 37.2162 39.7905C37.266 39.805 37.3357 39.8161 37.3876 39.824Z" fill="#1219EE"/>
<path d="M49.3442 38.6196C49.7524 38.6214 50.1608 38.628 50.5695 38.6217C50.6527 38.6153 50.7217 38.7373 50.795 38.7181C51.1377 38.6281 51.3425 38.6051 51.6961 38.621C51.7714 38.7239 51.8492 38.8248 51.9296 38.9238C51.9486 39.0984 51.9791 40.236 51.9074 40.3308C51.739 40.404 51.5778 40.3611 51.3983 40.3327C51.4307 39.928 51.4577 39.6839 51.3986 39.2756L51.2055 39.0934C51.0942 39.2063 51.0675 39.2316 50.9919 39.3706C50.957 39.647 51.0611 40.1198 50.9696 40.2598C50.823 40.3738 50.5903 40.3461 50.3992 40.3461C50.4308 40.0632 50.4247 39.4785 50.3908 39.1986C50.2791 39.1619 50.1396 39.0998 50.0375 39.1482C49.9617 39.3172 49.9965 40.0338 49.9776 40.3032C49.7319 40.3997 49.5765 40.3675 49.3151 40.3619C49.325 40.0851 49.2769 38.7719 49.3442 38.6196Z" fill="#1219EE"/>
<path d="M52.3632 38.5998C52.7209 38.6209 53.0485 38.6206 53.4056 38.6112C54.2351 38.5894 54.1606 39.3134 54.1588 39.8976C54.0418 40.034 53.8578 40.1934 53.7205 40.315C53.5287 40.3408 53.4155 40.3461 53.2213 40.3483C53.1314 40.3382 53.0993 40.3298 53.0166 40.3628C52.8905 40.5106 52.9686 40.6771 52.9595 40.9233C52.8073 41.2184 52.6863 41.1622 52.3827 41.1513C52.2958 40.7422 52.3256 39.0794 52.3632 38.5998ZM53.376 39.8609C53.58 39.6774 53.5231 39.4213 53.4877 39.1713C53.3725 39.1699 53.1923 39.1624 53.0823 39.1696C52.7482 39.4978 52.9676 39.8148 53.376 39.8609Z" fill="#1219EE"/>
<path d="M38.7947 38.6059C39.2388 38.6229 39.7595 38.5928 40.1788 38.6263C40.3987 38.8483 40.4715 38.7246 40.5379 39.0585C40.5455 39.1682 40.5513 39.2868 40.5632 39.3955C40.5635 39.5452 40.5609 39.7083 40.567 39.8567C40.5511 39.9573 40.5129 40.0113 40.4543 40.088C40.1952 40.4273 39.7908 40.3581 39.4182 40.3216C39.422 40.6001 39.4228 40.8786 39.4205 41.1571C39.1642 41.1294 39.0555 41.1341 38.8035 41.1856C38.7922 40.3257 38.7891 39.4658 38.7947 38.6059ZM39.7936 39.8325C40.1649 39.475 40.1333 39.1178 39.5547 39.2004C39.5221 39.2046 39.466 39.2026 39.4519 39.2308C39.3139 39.5037 39.4377 39.8912 39.7936 39.8325Z" fill="#1219EE"/>
<path d="M46.3829 37.8556C46.5571 37.8336 47.217 37.8886 47.3199 37.9596C47.4986 38.2465 47.3682 38.6678 46.9663 38.5357C46.7413 38.4618 46.3074 38.4791 46.1181 38.6372C45.8934 38.8247 45.8792 39.358 46.0928 39.5709C46.2904 39.7739 46.435 39.7947 46.7037 39.8196C46.8177 39.7461 46.9435 39.6768 47.0757 39.645C47.2613 39.6942 47.2089 39.8302 47.3699 39.9402C47.421 39.9433 47.4013 39.9355 47.4417 39.9749C47.4142 40.0565 47.262 40.1763 47.1771 40.2806C47.0626 40.3187 46.9294 40.3645 46.8131 40.3937C46.482 40.4775 46.1309 40.4235 45.84 40.2443C45.079 39.7834 45.076 38.7306 45.6788 38.1398C45.8916 37.9313 46.1044 37.9204 46.3829 37.8556Z" fill="#1219EE"/>
<path d="M42.8509 38.6206C43.1724 38.6158 43.6843 38.6062 43.981 38.62C44.3942 38.8995 44.4119 39.3852 44.4316 39.8411C44.4367 39.9567 44.4461 40.1637 44.3788 40.2568C44.2797 40.3941 43.9221 40.3976 43.7889 40.3161C43.6848 40.1894 43.7421 39.8499 43.7439 39.6347L43.7434 39.173L43.7227 39.1689C43.5996 39.1448 43.4267 39.0902 43.3284 39.1564C43.2475 39.3385 43.2872 40.0285 43.2725 40.311C43.1082 40.3385 42.8216 40.3478 42.6475 40.3586C42.6775 39.8116 42.6333 39.1541 42.6672 38.6645C42.7187 38.616 42.7673 38.6277 42.8509 38.6206Z" fill="#1219EE"/>
<path d="M48.0377 38.6143C48.2015 38.5911 48.4787 38.61 48.6486 38.6225C48.7322 38.7017 48.7889 38.7439 48.8804 38.8112C48.9893 39.1474 49.1134 39.9511 49.031 40.2795C48.8983 40.3739 48.0127 40.345 47.8125 40.3163C47.7655 40.3095 47.7149 40.2639 47.6818 40.2286C47.634 40.0297 47.6467 39.9967 47.5195 39.8303C47.5193 39.7964 47.6527 39.5713 47.6891 39.4841C48.0695 39.1873 48.2169 39.4526 48.4107 39.3187C48.4284 39.246 48.4196 39.2325 48.3915 39.1642C48.1785 38.9263 47.9323 39.2006 47.7298 39.1455C47.4523 38.858 47.7255 38.6507 48.0377 38.6143Z" fill="#1219EE"/>
<path d="M54.4162 38.9974C54.3606 38.5494 54.6009 38.604 54.973 38.6104C54.9702 38.7248 54.7933 40.2657 55.4219 39.8139C55.5728 39.7055 55.5753 38.8911 55.5862 38.6148C55.7464 38.6149 55.9206 38.6115 56.079 38.6247C56.0528 38.9033 56.0889 40.2308 56.0252 40.3525C55.8207 40.4205 55.6413 40.3106 55.4765 40.3141C55.3913 40.3159 55.0979 40.4085 54.9778 40.4288L54.6747 40.295C54.5036 40.066 54.4933 40.0461 54.4665 39.7672C54.5168 39.4721 54.4902 39.2947 54.4162 38.9974Z" fill="#1219EE"/>
<path d="M40.951 39.0348C40.9528 38.941 41.0063 38.8609 41.0754 38.8021C41.4011 38.5252 41.9175 38.5757 42.2466 38.7784C42.8011 40.1347 41.7093 39.4588 41.4653 39.705C41.4446 39.7776 41.4429 39.787 41.4722 39.8571C41.6423 40.0086 42.0348 39.8246 42.2021 39.8874C42.2701 39.9782 42.2234 40.1953 42.2079 40.3105C41.826 40.3703 41.2621 40.4632 40.9955 40.0888C40.9535 40.0298 40.9485 40.0025 40.947 39.9309C40.9533 39.6302 40.9396 39.3601 40.951 39.0348Z" fill="#1219EE"/>
<path d="M40.9491 39.0347C40.9378 39.3601 40.9514 39.6301 40.9451 39.9308C40.9322 39.8756 40.9241 39.8407 40.9036 39.7865C40.8677 39.7738 40.6577 39.8334 40.5801 39.8466C40.5852 39.7606 40.5867 39.7295 40.6094 39.6469C40.6992 39.5937 40.9125 39.4713 40.8718 39.3585C40.7239 39.2971 40.6964 39.3224 40.5614 39.3951C40.5495 39.2864 40.5437 39.1678 40.5361 39.0581L40.5672 39.168C40.6299 39.2385 40.7335 39.2557 40.8185 39.2114C40.9274 39.1548 40.912 39.1464 40.9491 39.0347Z" fill="#1219EE" fill-opacity="0.556863"/>
<path d="M40.5628 39.3958C40.6978 39.3232 40.7253 39.2979 40.8732 39.3592C40.9139 39.472 40.7006 39.5945 40.6108 39.6477C40.5881 39.7302 40.5866 39.7613 40.5815 39.8474L40.5666 39.857C40.5605 39.7086 40.5631 39.5455 40.5628 39.3958Z" fill="#1219EE" fill-opacity="0.662745"/>
<path d="M54.4156 38.9974C54.4897 39.2947 54.5162 39.472 54.4659 39.7672C54.2678 39.3931 54.4467 39.4182 54.4156 38.9974Z" fill="#1219EE" fill-opacity="0.623529"/>
<path d="M19.2314 22.2222H19.2896L19.2919 22.3245C19.4141 22.3963 20.7122 22.1737 20.883 22.408C20.9389 23.119 20.9022 24.2678 20.9019 25.0142L20.9029 29.8338L20.9001 31.2469C20.8984 31.7884 20.8209 32.472 21.2687 32.8659C21.711 33.2548 22.4323 33.1995 22.8098 32.7596C23.1101 32.4098 23.0509 31.5732 23.0509 31.1232L23.0503 29.5101L23.0473 24.167C23.0472 23.8038 23.0199 22.5193 23.0943 22.2222H23.1123C23.1187 22.3108 23.1036 22.3065 23.1515 22.3601C23.3961 22.3197 24.5605 22.2793 24.7859 22.3312L24.8391 22.3964L24.8462 22.4422C24.813 23.7844 24.8545 25.1398 24.8386 26.4832C24.8362 26.684 24.8362 26.9115 24.8489 27.1109L24.8617 27.1657C24.9062 27.1824 24.9442 27.1959 24.9896 27.2102C25.3169 27.4394 26.024 27.8168 26.4006 27.9598C26.4229 27.9683 27.4935 27.3038 27.6191 27.2363C27.8 27.1391 27.7525 26.5063 27.7547 26.2807C27.759 25.828 27.7443 25.2966 27.7555 24.8371C27.7767 23.8657 28.3837 22.9836 29.2188 22.5171C29.3912 22.4198 29.7257 22.332 29.8347 22.2222H31.428C31.568 22.3296 31.8556 22.4241 32.0282 22.5204C32.8967 23.005 33.2167 23.6044 33.4737 24.5178C33.4654 24.7515 33.4525 25.3707 33.4798 25.5902C33.478 25.6897 33.474 25.7975 33.4755 25.8963C33.0446 25.9282 32.1051 25.9132 31.6873 25.8781C31.7126 25.0663 31.7302 24.0872 30.6579 24.0322C29.8022 23.9882 29.7019 24.3968 29.5265 25.108L29.4792 25.1033C29.415 25.4775 29.4426 26.5826 29.4427 27.0443L29.4444 30.9969C29.4442 31.4627 29.4085 31.9269 29.4075 32.3906C29.4073 32.5168 29.6318 32.8048 29.6965 32.9202C29.7875 33.0719 29.9745 33.1089 30.1412 33.1373C30.2249 33.1512 30.3088 33.1637 30.393 33.1747L30.2521 33.1814C30.641 33.2519 31.5983 33.2061 31.551 32.6411C31.7305 31.9831 31.7002 31.9805 31.6855 31.2818C32.141 31.2345 33.0097 31.2592 33.4851 31.2735C33.5028 31.3446 33.4763 32.2937 33.4818 32.4655C33.4154 32.9835 33.199 33.4709 32.8595 33.8677C32.4003 34.403 31.6332 34.8748 30.9274 34.9128C29.9318 34.9663 28.8005 34.6798 28.2497 33.7847C28.0668 33.4874 27.9043 33.2583 27.8242 32.9021C27.7159 32.421 27.7624 31.943 27.7529 31.4546C27.7487 30.6914 27.7724 29.9398 27.7198 29.1774C27.3351 28.9613 26.6151 28.3975 26.1958 28.5241C26.0027 28.5824 25.0044 29.1272 24.9141 29.2791C24.8749 29.4171 24.862 29.4699 24.8484 29.6122C24.8228 30.5358 24.8719 31.4975 24.8442 32.4032C24.7937 32.9325 24.5366 33.4702 24.2116 33.8873C23.2674 35.0993 21.4153 35.2449 20.2222 34.3212C19.6206 33.8499 19.2283 33.161 19.1299 32.4029L19.1519 26.2284L19.1494 24.1286C19.1484 23.6247 19.1018 22.6729 19.2314 22.2222Z" fill="black"/>
<path d="M12.0979 22.2222H12.136C12.1463 22.311 12.1306 22.3153 12.1819 22.3584C12.7283 22.2964 13.2389 22.3321 13.7902 22.3277C14.9174 22.3186 15.843 22.1972 16.8103 22.9378C17.193 23.2309 17.5393 23.8323 17.6861 24.2886C17.6799 24.4454 17.6868 25.1677 17.7579 25.2581C17.8547 25.2784 17.8294 25.258 17.878 25.3288C17.8994 27.3522 17.8413 29.4538 17.8834 31.4623C17.8734 31.5208 17.8531 31.684 17.7968 31.704C17.5874 31.7784 17.758 32.0301 17.7393 32.2153C17.7189 32.4174 17.6436 32.567 17.6617 32.78C17.6559 32.8941 17.5735 33.0828 17.5302 33.1871C16.807 34.929 15.0311 34.8332 13.474 34.8043C13.1588 34.7984 12.0772 34.805 12.0855 34.8089C12.0413 34.6388 12.0537 33.853 12.0537 33.6322L12.0533 31.3064L12.0532 25.59C12.0533 24.6159 12.0316 23.56 12.0581 22.5969C12.0606 22.4711 12.074 22.3457 12.0979 22.2222ZM14.0859 24.022C13.986 24.0201 13.9645 24.0049 13.8812 24.0482C13.708 24.4832 13.8596 27.3219 13.8127 27.9445C13.7706 28.5033 13.8234 29.7662 13.8127 30.3531C13.8054 30.7508 13.7776 32.8952 13.8578 33.0978C14.0692 33.1308 14.2827 33.1483 14.4966 33.1501C15.3448 33.1548 15.9532 32.8836 16.0206 31.9577C16.0758 31.1993 16.0542 30.4444 16.0537 29.6843L16.0527 25.6864C16.0443 24.1096 15.4639 24.0039 14.0859 24.022Z" fill="black"/>
<path d="M13.857 33.0981C13.7768 32.8955 13.8046 30.7511 13.8119 30.3534C13.8226 29.7665 13.7698 28.5036 13.8119 27.9449C13.8588 27.3223 13.7072 24.4836 13.8804 24.0485C13.9637 24.0052 13.9852 24.0205 14.0851 24.0223C13.913 24.0734 13.8722 24.1045 13.8943 24.3225C14.0064 24.4335 13.9823 24.6395 13.9832 24.8145L13.9831 29.5002L13.9841 31.3855C13.985 31.8963 14.0271 32.4067 13.8753 32.8947C13.8593 32.9462 13.8747 33.0342 13.857 33.0981Z" fill="black" fill-opacity="0.282353"/>
<path d="M52.8937 22.2222H52.9162C52.9531 22.3473 53.0888 22.4119 53.1277 22.51C53.2129 22.7237 53.2913 22.9597 53.3674 23.1769L54.5722 26.5479C54.6683 26.8244 55.4172 29.0679 55.4799 29.1197C55.5135 29.168 55.5661 29.3015 55.6272 29.3536C55.655 29.3772 55.6525 29.5667 55.7073 29.654L55.7354 29.633C55.8226 29.4451 55.7763 28.6242 55.7743 28.3601L55.7736 26.4872C55.7746 25.2664 55.8102 23.8621 55.7703 22.6595C55.7786 22.5279 55.8269 22.3545 55.8595 22.2222H57.4438C57.489 22.3106 57.5373 22.4044 57.539 22.5043C57.5524 23.355 57.5469 24.2151 57.5469 25.0655L57.5464 29.9825L57.5466 33.1635C57.5469 33.5833 57.5717 34.4413 57.5282 34.8127C56.9949 34.8118 56.3496 34.827 55.8241 34.7819C55.6505 34.0832 55.244 33.1146 54.9905 32.4038L53.8711 29.2865C53.7945 29.0796 53.7247 28.8448 53.6479 28.648C53.6201 28.4269 53.4118 27.8189 53.223 27.6683C53.2162 27.5837 53.2187 27.5314 53.1755 27.4592L53.1379 27.4632C53.0673 27.6437 53.0567 27.8579 53.0754 28.0499L53.0744 32.349C53.0744 33.1474 53.0598 34.0029 53.0833 34.7976C52.4579 34.8066 51.9438 34.8132 51.3175 34.7714C51.3347 34.5434 51.315 34.0572 51.3145 33.8037L51.3132 31.7795V25.2734L51.3115 23.4743C51.3107 23.2543 51.2455 22.4501 51.4467 22.3535C51.4871 22.3345 51.5308 22.3234 51.5753 22.3208C51.9219 22.2973 52.2843 22.3417 52.6366 22.2763C52.7135 22.2621 52.8201 22.3298 52.8932 22.2822L52.8937 22.2222Z" fill="black"/>
<path d="M38.4839 27.6696C38.5555 27.3124 38.5315 26.5577 38.5315 26.1594L38.5297 23.5467C38.5294 23.2743 38.5047 22.5834 38.5972 22.3634C38.7028 22.3123 38.6902 22.3779 38.7822 22.3706C39.2548 22.333 39.7308 22.3829 40.2037 22.3745C40.2472 22.3737 40.2744 22.4701 40.2896 22.5049L40.2881 31.2599L40.2891 33.5829C40.2894 33.8627 40.3048 34.5646 40.2696 34.8082C40.1703 34.7724 38.7516 34.7732 38.5517 34.7671C38.5095 34.4893 38.5292 33.6166 38.5299 33.2973L38.5317 30.9441C38.5315 30.3701 38.5444 29.809 38.493 29.2372C37.892 29.1973 36.9406 29.2298 36.3161 29.2323C36.2198 29.9333 36.2413 30.5006 36.2415 31.2046L36.2451 33.5487C36.2463 33.9164 36.267 34.4288 36.2352 34.7817C35.6675 34.7886 35.1026 34.7944 34.5359 34.7542C34.498 32.0058 34.5306 29.1882 34.5304 26.4346L34.5286 23.7826C34.5284 23.457 34.5089 22.6992 34.5473 22.4059C34.6765 22.4092 34.8445 22.3515 34.951 22.3532C35.3468 22.3597 35.7759 22.3389 36.1677 22.3645C36.22 22.4141 36.2372 22.6233 36.2385 22.6991C36.266 24.3343 36.2074 25.9792 36.2648 27.6132C36.5984 27.6661 36.9816 27.653 37.3182 27.6535C37.7067 27.6543 38.0955 27.6596 38.4839 27.6696Z" fill="black"/>
<path d="M43.63 22.2222H43.6571L43.653 22.3115L43.6783 22.3372C44.0736 22.3161 44.5971 22.2852 44.9818 22.3555C45.2163 22.8244 45.3849 24.0995 45.5355 24.6504C45.5631 24.7519 45.6996 25.281 45.7029 25.3526C45.6511 25.6167 45.6394 25.6666 45.6892 25.9293C45.7155 25.9167 45.7175 25.8918 45.7329 25.8567C45.7807 26.0201 45.8568 26.892 45.8806 26.9143L45.9432 26.7564C45.9753 27.0346 46.1111 28.0432 46.33 28.2006C46.4434 28.8012 46.6047 29.3296 46.769 29.9099C46.8347 30.1425 46.8739 30.6073 46.9424 30.8899C47.2469 32.1448 47.5667 33.4997 47.7906 34.7683C47.1496 34.8378 46.6264 34.813 45.9897 34.7727C45.9582 34.4472 45.5742 32.3954 45.4574 32.2105C45.1701 32.1021 43.4531 32.1576 43.0881 32.2344C43.003 32.2523 42.5728 34.5614 42.5303 34.8C42.0516 34.8255 41.3876 34.8204 40.9104 34.7672L40.7944 34.7449L40.7552 34.7172C40.7527 34.6391 40.7403 34.5726 40.7888 34.5138C40.8384 34.4978 40.854 34.4953 40.8925 34.4608L40.8864 34.4058C40.8432 34.3905 40.8285 34.3886 40.7952 34.3586C40.8268 34.3265 40.8578 34.3173 40.8993 34.2994C40.939 34.2173 40.9321 33.988 40.9562 33.8794C41.3024 32.3209 41.6419 30.7549 41.9935 29.1981L42.4717 27.0539C42.5326 26.7839 42.6112 26.5262 42.6716 26.2475L43.2122 23.7755C43.3146 23.3172 43.3743 22.8725 43.5416 22.4273C43.5694 22.3535 43.6043 22.3206 43.6262 22.2371L43.63 22.2222ZM43.3692 30.3722C43.6917 30.4307 43.9349 30.4286 44.2579 30.424C44.5346 30.424 44.8645 30.4316 45.1349 30.4045C45.1018 30.0952 45.0093 29.692 44.9492 29.3789L44.6029 27.5883C44.5523 27.3335 44.4075 26.1606 44.268 26.0561C44.0655 26.4901 44.0865 26.9971 43.9713 27.4304C43.7172 28.386 43.6341 29.4315 43.3692 30.3722Z" fill="black"/>
<path d="M6.01367 22.3839C6.1597 22.3822 6.22555 22.3897 6.36808 22.429C6.47153 22.4852 6.64888 22.44 6.7721 22.4371C8.08099 22.4063 9.39473 22.4235 10.704 22.4286C10.8097 22.429 11.181 22.4536 11.1881 22.5788C11.2029 22.8413 11.3737 23.8842 11.0045 23.9134C9.96772 23.9955 8.93067 23.9426 7.89289 23.9347C7.63612 23.9329 7.73818 24.4749 7.73606 24.6675C7.72789 25.3609 7.72521 26.0544 7.72804 26.7478C7.72802 27.0389 7.71524 27.3471 7.74759 27.6345C7.75821 27.7288 8.0474 27.7527 8.12461 27.7609L8.07345 27.761C8.65775 27.8105 9.27017 27.7622 9.85719 27.783C10.0176 27.8022 10.608 27.7413 10.7013 27.8832C10.8837 28.1605 10.7484 28.6614 10.7742 28.99C10.7846 29.1228 10.8557 29.2617 10.7858 29.3475C9.8668 29.3792 8.72764 29.3711 7.78762 29.3716C7.75649 30.0685 7.78065 30.753 7.76725 31.4466C7.75827 31.9114 7.81155 32.5562 7.76501 32.9975L7.80101 33.0441C8.56319 33.1232 9.22326 33.1119 9.98567 33.1044C10.2804 33.1015 10.8832 33.0803 11.1541 33.1137L11.1654 33.1376C11.1181 33.1854 11.0604 33.179 10.9919 33.1822L11.0037 33.2046C11.0688 33.2136 11.1322 33.2181 11.1917 33.2453C11.2361 33.4406 11.2415 34.4441 11.1769 34.5977C11.0989 34.6581 10.9946 34.6819 10.8962 34.685C9.33392 34.7346 7.76608 34.6662 6.20423 34.7188C6.14063 34.721 6.0818 34.7333 6.01367 34.7339V22.3839Z" fill="black"/>
<path d="M48.3544 22.2222H49.922C49.9546 22.2756 49.9842 22.3298 50.0259 22.376C50.0863 22.9754 50.0469 24.1135 50.0466 24.7638L50.0461 29.3573L50.0469 33.0157C50.0474 33.4401 50.0838 34.3736 50.0416 34.7466L50.036 34.7673C49.9205 34.8591 48.5581 34.7843 48.3094 34.793L48.3049 25.9399L48.3031 23.7194C48.3031 23.3619 48.2768 22.5163 48.3544 22.2222Z" fill="black"/>
<path d="M6.01367 38.5618C7.87388 38.5739 25.3474 38.5323 25.4033 38.5882C25.5118 38.6966 25.4608 39.3487 25.4539 39.5194C25.4517 39.5707 25.4478 39.6217 25.4421 39.6726L12.427 39.6724L8.18134 39.6723C7.54208 39.6723 6.63239 39.645 6.01367 39.6777V38.5618Z" fill="#1219EE"/>
<path d="M34.544 22.2222H36.1833C36.402 22.5724 36.3711 22.8493 36.3681 23.2501C36.3595 24.3543 36.3653 25.4588 36.3593 26.563C36.3582 26.8963 36.2961 27.2371 36.3044 27.5602C36.563 27.6159 38.2016 27.6655 38.4313 27.6095C38.519 27.4151 38.4981 26.769 38.4981 26.5233L38.4976 24.098C38.4976 23.5808 38.4576 22.6954 38.5832 22.2222H40.2476C40.259 22.2871 40.2911 22.4473 40.2903 22.5054C40.2752 22.4706 40.2479 22.3742 40.2044 22.375C39.7315 22.3833 39.2556 22.3334 38.7829 22.371C38.6909 22.3783 38.7035 22.3127 38.5979 22.3639C38.5054 22.5838 38.5302 23.2747 38.5304 23.5471L38.5322 26.1599C38.5322 26.5582 38.5562 27.3129 38.4847 27.67C38.0962 27.66 37.7074 27.6547 37.319 27.654C36.9823 27.6534 36.5991 27.6666 36.2655 27.6137C36.2081 25.9796 36.2667 24.3348 36.2392 22.6995C36.2379 22.6238 36.2207 22.4145 36.1684 22.365C35.7767 22.3393 35.3475 22.3601 34.9517 22.3536C34.8453 22.3519 34.6772 22.4097 34.548 22.4064C34.5096 22.6996 34.5291 23.4574 34.5293 23.783L34.5311 26.4351C34.5313 29.1886 34.4987 32.0063 34.5367 34.7547C35.1033 34.7948 35.6682 34.7891 36.2359 34.7822C36.2678 34.4292 36.247 33.9168 36.2458 33.5492L36.2422 31.2051C36.242 30.501 36.2205 29.9337 36.3168 29.2327C36.9413 29.2302 37.8927 29.1978 38.4938 29.2376C38.5451 29.8095 38.5322 30.3706 38.5324 30.9445L38.5307 33.2978C38.5299 33.617 38.5102 34.4897 38.5524 34.7676C38.7523 34.7737 40.171 34.7728 40.2704 34.8086L40.2375 34.8303C39.9595 34.8398 38.7473 34.8376 38.5577 34.786C38.4528 34.6825 38.4963 33.6259 38.497 33.4163L38.4986 30.9018C38.4981 30.4082 38.5147 29.7632 38.467 29.2852C37.7673 29.2605 37.0061 29.3179 36.3454 29.2887C36.2978 29.6354 36.3577 30.1217 36.361 30.5013V33.1886C36.3605 33.4031 36.3646 33.6387 36.3497 33.8515C36.3254 34.1943 36.2736 34.4889 36.2963 34.8362C35.8712 34.8096 35.4215 34.8459 34.9934 34.8188C34.8293 34.8085 34.6608 34.7961 34.497 34.8051C34.5149 34.4784 34.5008 34.0217 34.5008 33.6834L34.5005 31.5166L34.501 24.9423C34.5008 24.5632 34.4608 22.4703 34.544 22.2222Z" fill="black" fill-opacity="0.505882"/>
<path d="M50.0244 22.3758L50.0681 22.3377C50.288 22.4337 50.2087 24.1161 50.2084 24.4541L50.2066 27.5514C50.2061 29.9049 50.2501 32.3393 50.2077 34.6796L50.1791 34.7204L50.1192 34.7121L50.0962 34.7695L50.0606 34.7685L50.0401 34.7465C50.0823 34.3734 50.0459 33.4399 50.0454 33.0155L50.0446 29.3571L50.0451 24.7636C50.0454 24.1134 50.0848 22.9752 50.0244 22.3758Z" fill="black" fill-opacity="0.305882"/>
<path d="M56.6234 38.6461C56.8261 38.6115 57.3397 38.569 57.5462 38.6403C57.6003 38.659 57.599 38.6905 57.616 38.7414C57.5879 38.8514 57.5882 38.9155 57.5839 39.0268C57.454 39.0375 57.1309 39.0518 57.0217 39.1035L57.0238 39.1412C57.0473 39.1615 57.7656 39.5313 57.777 39.5338V40.0971C57.6253 40.2126 57.5796 40.2843 57.39 40.344C57.0799 40.4417 56.7943 40.3638 56.4897 40.2929L56.4318 39.992L56.5741 39.6992L56.61 39.7005C56.6383 39.7619 56.6391 39.7987 56.6467 39.8653C56.8163 39.9371 56.9846 40.0245 57.1304 39.8897C57.1509 39.8025 57.1542 39.8379 57.1188 39.7564C57.0574 39.7 56.6446 39.595 56.5137 39.5515C56.2549 39.0624 56.3562 39.2612 56.4627 38.7799L56.6234 38.6461Z" fill="#1219EE"/>
<path d="M10.6253 22.2222H11.1101C11.2298 22.3982 11.3454 22.2341 11.3786 22.5491C11.4278 23.0145 11.3815 23.4866 11.4005 23.9521C11.2406 23.9871 11.0642 24.0192 10.9007 24.0144C9.8779 23.9847 8.8223 24.0461 7.8047 24.0296C7.75345 24.5644 7.76666 25.2057 7.76765 25.7498C7.76876 26.3632 7.7576 27.03 7.78889 27.6405C8.5062 27.6936 9.32649 27.637 10.0535 27.6563C10.2922 27.6627 10.7087 27.6423 10.9315 27.675C10.9515 27.9071 11.0083 29.1916 10.9292 29.3156C10.8766 29.3316 10.8413 29.3456 10.7859 29.3477C10.8558 29.2619 10.7847 29.123 10.7743 28.9901C10.7485 28.6615 10.8838 28.1607 10.7014 27.8834C10.6081 27.7415 10.0177 27.8024 9.85727 27.7832C9.27026 27.7624 8.65783 27.8107 8.07354 27.7612L8.12469 27.7611C8.04749 27.7529 7.75829 27.7289 7.74768 27.6346C7.71532 27.3473 7.7281 27.0391 7.72812 26.748C7.7253 26.0545 7.72797 25.3611 7.73614 24.6677C7.73826 24.4751 7.6362 23.9331 7.89297 23.9349C8.93076 23.9428 9.9678 23.9957 11.0046 23.9136C11.3737 23.8844 11.203 22.8415 11.1881 22.579C11.1811 22.4538 10.8098 22.4292 10.7041 22.4288C9.39481 22.4237 8.08108 22.4065 6.77218 22.4373C6.64896 22.4402 6.47162 22.4854 6.36816 22.4292C6.83556 22.3586 7.32711 22.3795 7.80109 22.3817L9.57422 22.387C9.75622 22.3874 10.6763 22.4283 10.7355 22.2904L10.6149 22.2634L10.6253 22.2222ZM10.8755 29.0421C10.8763 28.8876 10.9131 27.9863 10.8256 27.9315C10.8107 28.0817 10.7823 28.9309 10.8412 29.0172L10.8755 29.0421Z" fill="black" fill-opacity="0.905882"/>
<path d="M10.8257 27.9314C10.9132 27.9862 10.8764 28.8875 10.8756 29.042L10.8413 29.0171C10.7825 28.9308 10.8108 28.0816 10.8257 27.9314Z" fill="black" fill-opacity="0.380392"/>
<path d="M7.76501 32.9977C7.85179 32.9819 8.56757 33.0052 8.71047 33.0054L10.2752 33.005C10.5356 33.0049 10.9054 32.9939 11.158 33.0168L11.2258 33.0885L11.2116 33.1655C11.3689 33.3828 11.2922 33.1175 11.3925 33.4654C11.4018 33.8453 11.4097 34.396 11.3869 34.7776C10.9072 34.8334 10.38 34.8114 9.89356 34.809L7.89634 34.8062C7.59048 34.8063 6.20056 34.8305 6.01367 34.7927V34.7341C6.0818 34.7335 6.14063 34.7212 6.20423 34.719C7.76608 34.6664 9.33392 34.7348 10.8962 34.6852C10.9946 34.682 11.0989 34.6583 11.1769 34.5979C11.2415 34.4443 11.2361 33.4408 11.1917 33.2455C11.1322 33.2183 11.0688 33.2138 11.0037 33.2048L10.9919 33.1824C11.0604 33.1792 11.1181 33.1856 11.1654 33.1378L11.1541 33.1139C10.8832 33.0805 10.2804 33.1017 9.98567 33.1046C9.22326 33.1121 8.5632 33.1234 7.80101 33.0443L7.76501 32.9977Z" fill="black" fill-opacity="0.92549"/>
<path d="M19.0088 22.2222H19.2324C19.1028 22.6729 19.1495 23.6247 19.1504 24.1286L19.153 26.2284L19.1309 32.4029C18.9784 32.232 18.9496 32.2269 18.9797 31.9942L19.007 31.9861L19.0324 32.0031C19.0746 31.8408 19.0605 31.3014 19.0605 31.1058L19.061 29.491L19.0616 25.7583C19.062 25.0507 19.0752 24.3036 19.0569 23.601C19.0713 23.458 19.0894 22.5516 19.0237 22.4585L18.9947 22.5009L19.0226 22.4992L18.9875 22.5293L18.9803 22.6275C18.9525 22.4511 18.9656 22.4554 19.0385 22.3162L19.0588 22.3215L19.0715 22.268L19.0088 22.2222Z" fill="black" fill-opacity="0.027451"/>
<path d="M31.5517 32.6411C31.599 33.2061 30.6416 33.2519 30.2528 33.1814L30.3936 33.1748C30.3095 33.1637 30.2256 33.1512 30.1418 33.1374C29.9751 33.1089 29.7882 33.0719 29.6971 32.9203C29.6325 32.8049 29.408 32.5168 29.4082 32.3906C29.4092 31.927 29.4449 31.4628 29.4451 30.9969L29.4434 27.0443C29.4433 26.5826 29.4157 25.4775 29.4799 25.1033L29.5272 25.1081C29.4881 25.5262 29.5039 26.1161 29.5037 26.5477L29.5027 28.9508L29.5029 30.9143C29.5033 31.8104 29.324 33.0091 30.5205 33.1058C30.8374 33.1319 31.1517 33.031 31.3945 32.8254C31.4541 32.7736 31.5049 32.7051 31.5517 32.6411Z" fill="black" fill-opacity="0.956863"/>
<path d="M6.01367 22.2222H10.6252L10.6148 22.2634L10.7354 22.2904C10.6762 22.4283 9.75614 22.3874 9.57413 22.387L7.801 22.3817C7.32702 22.3795 6.83547 22.3586 6.36808 22.4292C6.22555 22.3899 6.1597 22.3824 6.01367 22.3841V22.2222Z" fill="black" fill-opacity="0.596078"/>
<path d="M53.0749 28.0495C53.0862 27.9812 53.1072 27.8072 53.1396 27.7578C53.1722 27.8915 53.1411 28.6776 53.1565 28.9105L53.1575 32.6419C53.1578 33.2285 53.158 33.8244 53.1568 34.4118C53.1568 34.4831 53.1659 34.5054 53.2073 34.5508L53.225 34.5562C53.2409 34.6378 53.245 34.6509 53.2159 34.7279C53.1497 34.7933 53.1767 34.7743 53.0827 34.7971C53.0592 34.0025 53.0739 33.147 53.0739 32.3485L53.0749 28.0495Z" fill="black" fill-opacity="0.0313725"/>
<path d="M19.0076 31.9857C19.0182 31.9109 19.0079 31.4078 19.0075 31.3093L19.0039 29.7434L19.0044 24.1782C19.0046 23.7381 19.0017 23.2975 19.0111 22.8575C19.0122 22.8045 19.0282 22.757 19.02 22.7135L19.0173 22.7601L19.0277 22.7626C19.0461 23.0356 19.0256 23.3322 19.0574 23.6006C19.0758 24.3032 19.0626 25.0503 19.0622 25.7578L19.0615 29.4906L19.0611 31.1053C19.061 31.301 19.0752 31.8403 19.033 32.0026L19.0076 31.9857Z" fill="black" fill-opacity="0.698039"/>
<path d="M53.1696 28.2333L53.2316 28.1302L53.2265 32.469C53.2263 33.113 53.2028 33.9245 53.2247 34.5564L53.2071 34.551C53.1656 34.5057 53.1565 34.4833 53.1565 34.412C53.1578 33.8246 53.1575 33.2287 53.1573 32.6421L53.1562 28.9107C53.1762 28.721 53.1689 28.4308 53.1696 28.2333Z" fill="black" fill-opacity="0.741176"/>
<path d="M24.8398 22.3967C25.0475 22.6375 24.9828 23.7473 24.9817 24.1039L24.9769 26.4593C24.9754 26.6255 24.9358 27.0959 24.9903 27.2105C24.9449 27.1962 24.9069 27.1827 24.8624 27.166L24.8497 27.1113C24.9646 26.5426 24.9044 25.3802 24.908 24.7644C24.911 24.252 24.9619 22.8819 24.8469 22.4425L24.8398 22.3967Z" fill="black" fill-opacity="0.301961"/>
<path d="M55.4795 29.1199C55.7188 29.1274 55.7209 29.1392 55.7416 28.9212C55.7964 28.3502 55.6706 22.8 55.7699 22.6597C55.8098 23.8624 55.7742 25.2666 55.7732 26.4874L55.7739 28.3603C55.776 28.6245 55.8222 29.4453 55.735 29.6332L55.707 29.6543C55.6521 29.5669 55.6546 29.3775 55.6268 29.3538C55.5657 29.3017 55.5131 29.1683 55.4795 29.1199Z" fill="black" fill-opacity="0.137255"/>
<path d="M45.7037 25.3524C45.8473 26.1399 46.0424 26.843 46.216 27.6194C46.2398 27.7265 46.3199 28.0992 46.3308 28.2003C46.1119 28.043 45.9762 27.0344 45.9441 26.7562L45.8814 26.9141C45.8576 26.8918 45.7816 26.0199 45.7338 25.8565C45.7184 25.8916 45.7164 25.9165 45.6901 25.9291C45.6403 25.6664 45.6519 25.6165 45.7037 25.3524Z" fill="black" fill-opacity="0.941176"/>
<path d="M24.8463 22.4418C24.9613 22.8812 24.9104 24.2513 24.9074 24.7637C24.9038 25.3795 24.964 26.5419 24.8491 27.1106C24.8363 26.9111 24.8364 26.6836 24.8387 26.4828C24.8546 25.1394 24.8131 23.784 24.8463 22.4418Z" fill="black" fill-opacity="0.0196078"/>
<path d="M18.98 22.6274L18.9873 22.5292L19.0224 22.4991L18.9945 22.5007L19.0235 22.4583C19.0892 22.5514 19.071 23.4579 19.0566 23.6009C19.0248 23.3325 19.0453 23.0359 19.0269 22.763L19.0165 22.7604L19.0192 22.7138C19.0274 22.7573 19.0114 22.8048 19.0103 22.8579C19.0009 23.2978 19.0038 23.7384 19.0036 24.1785L19.0031 29.7437L19.0067 31.3096C19.0071 31.4081 19.0174 31.9112 19.0068 31.986L18.9795 31.994L18.98 22.6274Z" fill="black" fill-opacity="0.556863"/>
<path d="M24.8486 29.6126C24.8623 29.4703 24.8752 29.4175 24.9143 29.2795C24.978 29.9056 24.9934 30.3233 24.9762 30.963C24.9728 31.0909 24.9665 31.6772 24.9791 31.7842C24.9664 31.827 24.9495 31.8663 24.9328 31.9077C24.8695 31.8278 24.9139 29.9446 24.8944 29.6336L24.8486 29.6126Z" fill="black" fill-opacity="0.592157"/>
<path d="M24.8494 29.612L24.8952 29.6329C24.9147 29.9439 24.8703 31.8272 24.9336 31.907C24.9503 31.8656 24.9672 31.8264 24.9799 31.7835C24.9907 32.007 24.8981 32.1624 24.8452 32.403C24.873 31.4972 24.8239 30.5356 24.8494 29.612Z" fill="black" fill-opacity="0.25098"/>
<path d="M17.6854 24.2882C17.8555 24.7644 17.8634 24.81 17.8773 25.3284C17.8287 25.2577 17.854 25.278 17.7572 25.2577C17.686 25.1673 17.6792 24.445 17.6854 24.2882Z" fill="black" fill-opacity="0.843137"/>
<path d="M33.4865 31.2734C33.7403 31.3824 33.5345 32.2431 33.4832 32.4654C33.4776 32.2937 33.5042 31.3445 33.4865 31.2734Z" fill="black" fill-opacity="0.494118"/>
<path d="M17.663 32.7804C17.6448 32.5674 17.7202 32.4178 17.7405 32.2157C17.7592 32.0305 17.5886 31.7788 17.798 31.7044C17.8543 31.6844 17.8746 31.5212 17.8847 31.4627C17.8806 31.807 17.7972 32.4613 17.663 32.7804Z" fill="black" fill-opacity="0.92549"/>
<path d="M33.4743 24.5174C33.4839 24.5604 33.4981 24.6772 33.5127 24.7086C33.6444 24.9906 33.6745 25.5424 33.5767 25.8543L33.5163 25.8998C33.4637 25.5138 33.7347 25.5254 33.5352 24.8755C33.5458 25.0176 33.5464 25.4805 33.4804 25.5898C33.4531 25.3703 33.466 24.7511 33.4743 24.5174Z" fill="black" fill-opacity="0.258824"/>
<path d="M53.0746 28.0499C53.0558 27.8579 53.0665 27.6436 53.137 27.4632L53.1746 27.4592C53.2179 27.5314 53.2153 27.5837 53.2222 27.6683C53.2636 27.9125 53.1706 28.0101 53.1696 28.2335C53.1688 28.431 53.1762 28.7212 53.1562 28.9109C53.1408 28.678 53.1719 27.8919 53.1393 27.7582C53.1069 27.8076 53.0859 27.9816 53.0746 28.0499Z" fill="black" fill-opacity="0.341176"/>
<path d="M53.2225 27.6684C53.4113 27.819 53.6196 28.427 53.6474 28.6481C53.5478 28.4846 53.4859 28.0513 53.3266 27.9848C53.2543 28.037 53.2718 28.0358 53.2318 28.1305L53.1699 28.2336C53.1709 28.0103 53.2639 27.9127 53.2225 27.6684Z" fill="black" fill-opacity="0.564706"/>
<path d="M33.4802 25.5901C33.5462 25.4808 33.5457 25.0179 33.5351 24.8759C33.7345 25.5257 33.4635 25.5141 33.5161 25.9001L33.4759 25.8962C33.4744 25.7973 33.4784 25.6896 33.4802 25.5901Z" fill="black" fill-opacity="0.513725"/>
<path d="M40.7953 34.7448L40.9113 34.7671C41.0635 34.8548 41.0958 34.8019 41.1726 34.8839C41.1592 34.8896 41.1453 34.8944 41.1312 34.8984C41.0728 34.915 40.8269 34.9333 40.7612 34.8973C40.7419 34.8193 40.7526 34.8353 40.7953 34.7448Z" fill="black" fill-opacity="0.109804"/>
<path d="M11.1582 33.0165C11.2689 33.0303 11.2982 33.0156 11.3761 33.0803C11.4235 33.1746 11.3948 33.3489 11.3927 33.465C11.2923 33.1171 11.3691 33.3825 11.2117 33.1652L11.226 33.0882L11.1582 33.0165Z" fill="black" fill-opacity="0.780392"/>
</svg>
