<svg width="72" height="72" viewBox="0 0 72 72" fill="none" xmlns="http://www.w3.org/2000/svg">
<g clip-path="url(#clip0_254_7142)">
<circle cx="36" cy="36" r="36" fill="#2953D5"/>
<path d="M33.8639 14.1698C34.9191 13.6034 36.5453 13.6034 37.6005 14.1698L48.4256 19.9343C49.0587 20.2742 49.4187 20.7776 49.4808 21.3062H49.4932V50.3051C49.4808 50.8715 49.1208 51.4379 48.4256 51.8155L37.6005 57.58C36.5453 58.1464 34.9191 58.1464 33.8639 57.58L23.0388 51.8155C22.3436 51.4504 22.0209 50.8715 21.996 50.3051C21.996 50.2547 21.996 50.2044 21.996 50.1666V21.495C21.996 21.4699 21.996 21.4321 21.996 21.4069V21.3188C22.0457 20.7902 22.3809 20.2993 23.0264 19.9469L33.8515 14.1824L33.8639 14.1698ZM47.7925 37.4922L37.6005 42.9169C36.5453 43.4833 34.9191 43.4833 33.8639 42.9169L23.6968 37.5048V50.2547L33.8639 55.6417C34.4349 55.9563 35.0308 56.2584 35.6143 56.2962H35.726C36.3343 56.2962 36.9178 55.9815 37.5261 55.692L47.7925 50.2044V37.4922ZM20.2332 49.6884C20.2332 50.796 20.3574 51.526 20.6181 52.042C20.8291 52.4699 21.1395 52.7972 21.7229 53.1874L21.7602 53.2125C21.8843 53.3006 22.0209 53.3887 22.1947 53.4894L22.3933 53.6153L23.014 53.9929L22.1326 55.4655L21.4498 55.0501L21.3381 54.9746C21.1395 54.8488 20.9781 54.7481 20.8167 54.6348C19.1656 53.5146 18.5573 52.2937 18.5449 49.7639V49.6884H20.2457H20.2332ZM34.8819 29.7265C34.8074 29.7517 34.7329 29.7894 34.6584 29.8272L23.8333 35.5917C23.8209 35.5917 23.8085 35.6043 23.7961 35.6043H23.7837L23.7961 35.6169L23.8209 35.6295L34.646 41.394C34.7081 41.4317 34.7825 41.4569 34.8694 41.4947V29.7139L34.8819 29.7265ZM36.5826 29.7265V41.5073C36.6571 41.4821 36.7315 41.4443 36.806 41.4066L47.6311 35.642C47.6435 35.642 47.6559 35.6295 47.6684 35.6295H47.6808L47.6684 35.6169L47.6435 35.6043L36.8184 29.8398C36.7564 29.802 36.6819 29.7768 36.595 29.7391L36.5826 29.7265ZM47.7801 23.383L38.0599 28.556L47.7801 33.7289V23.383ZM23.6844 23.3956V33.7163L33.3797 28.556L23.6844 23.3956ZM36.7936 15.7053C36.235 15.4033 35.217 15.4033 34.646 15.7053L23.8209 21.4699C23.8085 21.4699 23.7961 21.4825 23.7837 21.4825H23.7712L23.7837 21.495L23.8085 21.5076L34.6336 27.2722C35.1922 27.5742 36.2102 27.5742 36.7812 27.2722L47.6063 21.5076C47.6187 21.5076 47.6311 21.495 47.6435 21.495H47.6559L47.6435 21.4825L47.6187 21.4699L36.7936 15.7053ZM49.3815 16.3347L50.0643 16.75L50.176 16.8255C50.3746 16.9514 50.536 17.0521 50.6974 17.1654C52.3485 18.2855 52.9568 19.5064 52.9692 22.0363V22.1118H51.2684C51.2684 21.0042 51.1443 20.2742 50.8836 19.7581C50.6726 19.3302 50.3622 19.003 49.7787 18.6128L49.7415 18.5876C49.6174 18.4995 49.4808 18.4114 49.307 18.3107L49.1084 18.1848L48.4877 17.8073L49.3691 16.3347H49.3815Z" fill="white"/>
</g>
<defs>
<clipPath id="clip0_254_7142">
<rect width="72" height="72" fill="white"/>
</clipPath>
</defs>
</svg>
