<svg width="72" height="72" viewBox="0 0 72 72" fill="none" xmlns="http://www.w3.org/2000/svg">
<g clip-path="url(#clip0_254_6934)">
<circle cx="36" cy="36" r="36" fill="#FBFBFB"/>
<path d="M19.6356 52.378C19.6356 52.378 24.1968 37.2823 32.4053 32.6578C32.4053 32.6578 27.0786 28.5173 27.3551 22.5098C27.3551 22.5098 32.0534 28.5183 37.8962 30.9323C43.739 33.3463 47.3965 36.7562 45.8754 40.5987C45.8754 40.5987 42.8296 37.5796 41.399 37.3466L42.2315 40.5219C42.2315 40.5219 47.6016 40.6959 48.2625 43.8502C48.2625 43.8502 49.1237 46.2944 47.445 49.5275C47.445 49.5275 45.7545 43.946 41.8328 42.9461C37.9112 41.9462 33.402 44.8958 35.6794 50.9367C35.6794 50.9367 38.6486 56.6543 40.7066 57.3815C40.7066 57.3815 49.7332 55.9553 54.3234 48.0855C54.3234 48.0855 58.1267 41.6535 56.1641 35.6654C56.1641 35.6654 55.8426 39.1272 52.4064 41.6515C52.4064 41.6515 55.5055 34.397 50.7925 28.7874C46.0795 23.1777 44.6397 21.7938 44.3619 17.5969C44.3619 17.5969 42.8947 18.0058 42.147 21.2631C41.3994 24.5205 41.179 25.6671 37.8802 24.2147C34.5815 22.7622 31.9992 16.209 35.6067 9.38153C35.6067 9.38153 21.8489 20.4027 19.2672 26.1955C16.6855 31.9883 18.762 36.7749 18.762 36.7749C18.762 36.7749 21.6157 42.1352 17.9725 42.5179C14.3293 42.9005 14.4365 35.799 14.4365 35.799C14.4365 35.799 13.648 41.9964 14.8448 45.7693C16.0415 49.5423 19.6356 52.378 19.6356 52.378Z" fill="url(#paint0_linear_254_6934)"/>
<path d="M14.4378 39.0717C14.4378 39.0717 14.3313 46.1723 17.9748 45.7906C21.6183 45.4089 18.7642 40.0477 18.7642 40.0477C18.7642 40.0477 20.93 41.7676 20.6962 44.515C20.6962 44.515 20.2375 46.1805 19.0089 46.4994L19.1365 46.0607C19.1365 46.0607 17.3382 46.7974 16.4511 46.0042C15.5641 45.2111 15.0758 43.7533 15.0758 43.7533C15.0758 43.7533 15.16 44.5869 15.2572 44.8629C15.2572 44.8629 14.6416 43.9909 14.485 42.9871L14.4378 39.0717Z" fill="#FFA91B"/>
<path d="M37.5312 28.1171C34.0605 27.3233 32.2559 24.4653 32.2559 24.4653L33.2529 24.9631C31.2884 16.5194 35.6069 12.6542 35.6069 12.6542C31.9994 19.4817 34.5801 26.0316 37.8804 27.4874C37.8804 27.4874 39.2982 28.1864 39.63 28.1765C39.9617 28.1667 38.327 28.2993 37.5312 28.1171Z" fill="#FFA91B"/>
<path d="M52.4077 44.9242C52.4077 44.9242 55.5068 37.6697 50.7938 32.0601C46.0808 26.4504 44.641 25.0665 44.3632 20.8696C44.3632 20.8696 42.8708 27.4894 48.5375 32.6367L46.7669 32.4214C46.7669 32.4214 54.0402 35.8622 52.4077 44.9242Z" fill="#FFA91B"/>
<path d="M40.707 60.6542C40.707 60.6542 49.7337 59.228 54.3239 51.3582C54.3239 51.3582 58.1272 44.9262 56.1646 38.9381C56.1646 38.9381 56.51 45.1779 53.2939 49.7781C53.2939 49.7781 52.8314 48.5672 52.8828 47.7816C52.9341 46.9959 50.3241 58.3722 40.707 60.6542Z" fill="#FFA91B"/>
</g>
<defs>
<linearGradient id="paint0_linear_254_6934" x1="35.4541" y1="32.5088" x2="35.4541" y2="57.3815" gradientUnits="userSpaceOnUse">
<stop stop-color="#ED6E22"/>
<stop offset="1" stop-color="#F33B3A"/>
</linearGradient>
<clipPath id="clip0_254_6934">
<rect width="72" height="72" fill="white"/>
</clipPath>
</defs>
</svg>
