<svg width="64" height="64" viewBox="0 0 64 64" fill="none" xmlns="http://www.w3.org/2000/svg">
<path d="M64 32C64 14.3269 49.6731 0 32 0C14.3269 0 0 14.3269 0 32C0 49.6731 14.3269 64 32 64C49.6731 64 64 49.6731 64 32Z" fill="black"/>
<path d="M25.1407 14.1932L32.1331 10.1551C32.3322 10.0402 32.5793 10.0402 32.7784 10.1551L51.2072 20.795C51.4063 20.9099 51.5289 21.1224 51.5309 21.3522L51.5557 28.6701C51.5557 28.9017 51.4331 29.1163 51.232 29.2312L44.2493 33.2633C43.8203 33.5124 43.2824 33.2021 43.2804 32.7063L43.2574 26.1389C43.2574 25.9091 43.133 25.6966 42.9339 25.5817L25.1407 15.3114C24.7099 15.0625 24.7099 14.4421 25.1407 14.1932Z" fill="white"/>
<path d="M20.6249 47.3399L13.6344 43.3038C13.4333 43.1889 13.3108 42.9763 13.3108 42.7445V21.4649C13.3108 21.2351 13.4333 21.0226 13.6325 20.9058L19.9586 17.2238C20.1596 17.107 20.4066 17.107 20.6057 17.2238L27.5886 21.2562C28.0175 21.5051 28.0194 22.1235 27.5905 22.3743L21.9154 25.6771C21.7162 25.792 21.5937 26.0046 21.5937 26.2362V46.7827C21.5937 47.2805 21.0557 47.5888 20.6249 47.3399Z" fill="white"/>
<path d="M51.5549 34.6703V42.7427C51.5549 42.9744 51.4324 43.1868 51.2313 43.3017L32.8025 53.9417C32.6034 54.0566 32.3583 54.0566 32.1592 53.9417L25.8082 50.3037C25.6071 50.1889 25.4827 49.9744 25.4827 49.7427V41.68C25.4827 41.1843 26.0188 40.8739 26.4496 41.119L32.1477 44.3835C32.3468 44.4986 32.5919 44.4965 32.791 44.3835L50.5842 34.1095C51.0149 33.8606 51.5529 34.1707 51.5529 34.6685L51.5549 34.6703Z" fill="white"/>
</svg>
