<svg width="72" height="72" viewBox="0 0 72 72" fill="none" xmlns="http://www.w3.org/2000/svg">
<g clip-path="url(#clip0_253_11925)">
<circle cx="36" cy="36" r="36" fill="#FD0024"/>
<path fill-rule="evenodd" clip-rule="evenodd" d="M36.0004 19.0078C36.6367 19.0078 37.1524 19.5236 37.1524 20.1598V33.5789L50.6673 20.0659C51.1172 19.616 51.8466 19.6161 52.2965 20.066C52.7463 20.5159 52.7463 21.2453 52.2964 21.6952L38.7819 35.2078H52.2004C52.8367 35.2078 53.3524 35.7236 53.3524 36.3598C53.3524 36.996 52.8367 37.5118 52.2004 37.5118H38.7816L48.2703 47.0005C48.7202 47.4504 48.7202 48.1798 48.2703 48.6297C47.8205 49.0796 47.091 49.0796 46.6412 48.6297L37.1524 39.141V52.5598C37.1524 53.196 36.6367 53.7118 36.0004 53.7118C35.3642 53.7118 34.8484 53.196 34.8484 52.5598V39.141L21.3354 52.6544C20.8855 53.1043 20.1561 53.1043 19.7062 52.6544C19.2563 52.2045 19.2563 51.4751 19.7062 51.0252L33.2193 37.5118L19.8004 37.5118C19.1642 37.5118 18.6484 36.996 18.6484 36.3598C18.6484 35.7236 19.1642 35.2078 19.8004 35.2078L33.2193 35.2078L23.7309 25.7195C23.281 25.2696 23.281 24.5402 23.7309 24.0903C24.1808 23.6404 24.9102 23.6404 25.3601 24.0903L34.8484 33.5786V20.1598C34.8484 19.5236 35.3642 19.0078 36.0004 19.0078Z" fill="white"/>
</g>
<defs>
<clipPath id="clip0_253_11925">
<rect width="72" height="72" fill="white"/>
</clipPath>
</defs>
</svg>
