<svg width="46" height="46" viewBox="0 0 46 46" fill="none" xmlns="http://www.w3.org/2000/svg">
<circle cx="23" cy="23" r="23" fill="black"/>
<path d="M11.9179 20.3398V20.8036H12.4158V21.2674H11.9179V21.7312H8.93066V24.9777H10.4243V24.0501H9.92642V23.5863H9.42854V23.1225H9.92642V22.6588H11.9179V23.1225H12.4158V25.9052H11.9179V26.369H11.42V26.8328H6.44131V26.369H5.94343V25.9052H5.44556V21.2674H5.94343V21.7312H6.44131V21.2674H6.93918V20.8036H6.44131V20.3398H11.9179Z" fill="black"/>
<path d="M19.3886 24.9777V25.4415H19.8865V26.369H19.3886V26.8328H13.9121V26.369H13.4142V20.8036H13.9121V21.7312H14.4099V21.2674H14.9078V20.8036H13.9121V20.3398H16.4014V20.8036H16.8993V24.9777H19.3886Z" fill="black"/>
<path d="M25.6353 22.6588V23.1225H25.1374V23.5863H24.6395V26.369H24.1417V26.8328H22.1502V26.369H21.6523V23.5863H21.1544V23.1225H20.6566V22.6588H20.1587V22.195H19.6608V20.8036H20.1587V21.7312H20.6566V21.2674H21.1544V20.8036H20.1587V20.3398H22.1502V20.8036H22.6481V21.2674H23.6438V20.8036H24.1417V20.3398H26.1332V20.8036H26.631V22.195H26.1332V22.6588H25.6353Z" fill="black"/>
<path d="M34.1019 21.2674H34.5996V24.0501H34.1019V24.5139H33.6039V24.9777H31.1146V26.369H30.6166V26.8328H28.1273V26.369H27.6295V20.8036H28.1273V21.7312H28.6252V21.2674H29.1231V20.8036H28.1273V20.3398H33.6039V20.8036H34.1019V21.2674ZM31.1146 21.7312V23.5863H32.1104V21.7312H31.1146Z" fill="black"/>
<path d="M42.0692 20.8036H42.5671V26.369H42.0692V26.8328H40.5756V26.369H40.0777V24.0501H39.0821V26.369H38.5842V26.8328H36.0948V26.369H35.5969V20.8036H36.0948V21.7312H36.5927V21.2674H37.0904V20.8036H36.0948V20.3398H38.5842V20.8036H39.0821V22.6588H40.0777V20.8036H40.5756V20.3398H42.0692V20.8036Z" fill="black"/>
<path d="M10.7898 19.6172V20.081H11.2877V20.5448H10.7898V21.0085H7.80255V24.255H9.29616V23.3274H8.79831V22.8637H8.30043V22.3999H8.79831V21.9361H10.7898V22.3999H11.2877V25.1826H10.7898V25.6464H10.2919V26.1102H5.31319V25.6464H4.81532V25.1826H4.31744V20.5448H4.81532V21.0085H5.31319V20.5448H5.81106V20.081H5.31319V19.6172H10.7898Z" fill="white"/>
<path d="M18.2594 24.255V24.7188H18.7573V25.6464H18.2594V26.1102H12.7828V25.6464H12.2849V20.081H12.7828V21.0085H13.2806V20.5448H13.7785V20.081H12.7828V19.6172H15.2721V20.081H15.77V24.255H18.2594Z" fill="white"/>
<path d="M24.5073 21.9361V22.3999H24.0094V22.8637H23.5116V25.6464H23.0137V26.1102H21.0222V25.6464H20.5243V22.8637H20.0264V22.3999H19.5286V21.9361H19.0307V21.4723H18.5328V20.081H19.0307V21.0085H19.5286V20.5448H20.0264V20.081H19.0307V19.6172H21.0222V20.081H21.5201V20.5448H22.5158V20.081H23.0137V19.6172H25.0052V20.081H25.503V21.4723H25.0052V21.9361H24.5073Z" fill="white"/>
<path d="M32.9726 20.5448H33.4703V23.3274H32.9726V23.7912H32.4747V24.255H29.9853V25.6464H29.4874V26.1102H26.9981V25.6464H26.5002V20.081H26.9981V21.0085H27.4959V20.5448H27.9938V20.081H26.9981V19.6172H32.4747V20.081H32.9726V20.5448ZM29.9853 21.0085V22.8637H30.9809V21.0085H29.9853Z" fill="white"/>
<path d="M40.9411 20.081H41.439V25.6464H40.9411V26.1102H39.4476V25.6464H38.9497V23.3274H37.9538V25.6464H37.4561V26.1102H34.9667V25.6464H34.4688V20.081H34.9667V21.0085H35.4647V20.5448H35.9623V20.081H34.9667V19.6172H37.4561V20.081H37.9538V21.9361H38.9497V20.081H39.4476V19.6172H40.9411V20.081Z" fill="white"/>
<mask id="mask0_2278_4987" style="mask-type:luminance" maskUnits="userSpaceOnUse" x="3" y="19" width="39" height="8">
<path d="M41.8373 19.168H3.83331V26.3837H41.8373V19.168Z" fill="white"/>
<path d="M10.7898 19.6172V20.081H11.2877V20.5448H10.7898V21.0085H7.80255V24.255H9.29616V23.3274H8.79831V22.8637H8.30043V22.3999H8.79831V21.9361H10.7898V22.3999H11.2877V25.1826H10.7898V25.6464H10.2919V26.1102H5.31319V25.6464H4.81532V25.1826H4.31744V20.5448H4.81532V21.0085H5.31319V20.5448H5.81106V20.081H5.31319V19.6172H10.7898Z" fill="black"/>
<path d="M18.2593 24.255V24.7188H18.7572V25.6464H18.2593V26.1102H12.7827V25.6464H12.2849V20.081H12.7827V21.0085H13.2806V20.5448H13.7785V20.081H12.7827V19.6172H15.2721V20.081H15.77V24.255H18.2593Z" fill="black"/>
<path d="M24.5073 21.9361V22.3999H24.0094V22.8637H23.5116V25.6464H23.0137V26.1102H21.0222V25.6464H20.5243V22.8637H20.0264V22.3999H19.5286V21.9361H19.0307V21.4723H18.5328V20.081H19.0307V21.0085H19.5286V20.5448H20.0264V20.081H19.0307V19.6172H21.0222V20.081H21.5201V20.5448H22.5158V20.081H23.0137V19.6172H25.0052V20.081H25.503V21.4723H25.0052V21.9361H24.5073Z" fill="black"/>
<path d="M32.9726 20.5448H33.4703V23.3274H32.9726V23.7912H32.4747V24.255H29.9853V25.6464H29.4874V26.1102H26.998V25.6464H26.5001V20.081H26.998V21.0085H27.4959V20.5448H27.9937V20.081H26.998V19.6172H32.4747V20.081H32.9726V20.5448ZM29.9853 21.0085V22.8637H30.9809V21.0085H29.9853Z" fill="black"/>
<path d="M40.9411 20.081H41.439V25.6464H40.9411V26.1102H39.4476V25.6464H38.9497V23.3274H37.9538V25.6464H37.4561V26.1102H34.9667V25.6464H34.4688V20.081H34.9667V21.0085H35.4647V20.5448H35.9623V20.081H34.9667V19.6172H37.4561V20.081H37.9538V21.9361H38.9497V20.081H39.4476V19.6172H40.9411V20.081Z" fill="black"/>
</mask>
<g mask="url(#mask0_2278_4987)">
<path d="M10.7901 19.6188H11.035V19.3906H10.7901V19.6188ZM10.7901 20.0825H10.5452V20.3107H10.7901V20.0825ZM11.288 20.0825H11.5329V19.8544H11.288V20.0825ZM11.288 20.5463V20.7745H11.5329V20.5463H11.288ZM10.7901 20.5463V20.3182H10.5452V20.5463H10.7901ZM10.7901 21.0101V21.2382H11.035V21.0101H10.7901ZM7.80289 21.0101V20.782H7.55799V21.0101H7.80289ZM7.80289 24.2566H7.55799V24.4847H7.80289V24.2566ZM9.29649 24.2566V24.4847H9.54141V24.2566H9.29649ZM9.29649 23.329H9.54141V23.1009H9.29649V23.329ZM8.79864 23.329H8.55372V23.5571H8.79864V23.329ZM8.79864 22.8652H9.04353V22.6371H8.79864V22.8652ZM8.30076 22.8652H8.05584V23.0934H8.30076V22.8652ZM8.30076 22.4015V22.1733H8.05584V22.4015H8.30076ZM8.79864 22.4015V22.6296H9.04353V22.4015H8.79864ZM8.79864 21.9377V21.7095H8.55372V21.9377H8.79864ZM10.7901 21.9377H11.035V21.7095H10.7901V21.9377ZM10.7901 22.4015H10.5452V22.6296H10.7901V22.4015ZM11.288 22.4015H11.5329V22.1733H11.288V22.4015ZM11.288 25.1842V25.4123H11.5329V25.1842H11.288ZM10.7901 25.1842V24.956H10.5452V25.1842H10.7901ZM10.7901 25.6479V25.8761H11.035V25.6479H10.7901ZM10.2922 25.6479V25.4198H10.0473V25.6479H10.2922ZM10.2922 26.1117V26.3399H10.5371V26.1117H10.2922ZM5.31352 26.1117H5.06862V26.3399H5.31352V26.1117ZM5.31352 25.6479H5.55842V25.4198H5.31352V25.6479ZM4.81565 25.6479H4.57075V25.8761H4.81565V25.6479ZM4.81565 25.1842H5.06055V24.956H4.81565V25.1842ZM4.31778 25.1842H4.07288V25.4123H4.31778V25.1842ZM4.31778 20.5463V20.3182H4.07288V20.5463H4.31778ZM4.81565 20.5463H5.06055V20.3182H4.81565V20.5463ZM4.81565 21.0101H4.57075V21.2382H4.81565V21.0101ZM5.31352 21.0101V21.2382H5.55842V21.0101H5.31352ZM5.31352 20.5463V20.3182H5.06862V20.5463H5.31352ZM5.81139 20.5463V20.7745H6.0563V20.5463H5.81139ZM5.81139 20.0825H6.0563V19.8544H5.81139V20.0825ZM5.31352 20.0825H5.06862V20.3107H5.31352V20.0825ZM5.31352 19.6188V19.3906H5.06862V19.6188H5.31352ZM18.2602 24.2566H18.505V24.0284H18.2602V24.2566ZM18.2602 24.7204H18.0153V24.9485H18.2602V24.7204ZM18.758 24.7204H19.0029V24.4922H18.758V24.7204ZM18.758 25.6479V25.8761H19.0029V25.6479H18.758ZM18.2602 25.6479V25.4198H18.0153V25.6479H18.2602ZM18.2602 26.1117V26.3399H18.505V26.1117H18.2602ZM12.7836 26.1117H12.5386V26.3399H12.7836V26.1117ZM12.7836 25.6479H13.0285V25.4198H12.7836V25.6479ZM12.2857 25.6479H12.0408V25.8761H12.2857V25.6479ZM12.2857 20.0825V19.8544H12.0408V20.0825H12.2857ZM12.7836 21.0101H12.5386V21.2382H12.7836V21.0101ZM13.2814 21.0101V21.2382H13.5263V21.0101H13.2814ZM13.2814 20.5463V20.3182H13.0365V20.5463H13.2814ZM13.7793 20.5463V20.7745H14.0242V20.5463H13.7793ZM13.7793 20.0825H14.0242V19.8544H13.7793V20.0825ZM12.7836 19.6188V19.3906H12.5386V19.6188H12.7836ZM15.2729 19.6188H15.5178V19.3906H15.2729V19.6188ZM15.2729 20.0825H15.028V20.3107H15.2729V20.0825ZM15.7708 20.0825H16.0157V19.8544H15.7708V20.0825ZM15.7708 24.2566H15.5259V24.4847H15.7708V24.2566ZM24.5076 21.9377V21.7095H24.2627V21.9377H24.5076ZM24.5076 22.4015V22.6296H24.7525V22.4015H24.5076ZM24.0097 22.4015V22.1733H23.7648V22.4015H24.0097ZM24.0097 22.8652V23.0934H24.2546V22.8652H24.0097ZM23.5119 22.8652V22.6371H23.267V22.8652H23.5119ZM23.5119 25.6479V25.8761H23.7568V25.6479H23.5119ZM23.014 25.6479V25.4198H22.7691V25.6479H23.014ZM23.014 26.1117V26.3399H23.2589V26.1117H23.014ZM21.0225 26.1117H20.7776V26.3399H21.0225V26.1117ZM21.0225 25.6479H21.2674V25.4198H21.0225V25.6479ZM20.5246 25.6479H20.2797V25.8761H20.5246V25.6479ZM20.5246 22.8652H20.7695V22.6371H20.5246V22.8652ZM20.0268 22.8652H19.7819V23.0934H20.0268V22.8652ZM20.0268 22.4015H20.2716V22.1733H20.0268V22.4015ZM19.5289 22.4015H19.284V22.6296H19.5289V22.4015ZM19.5289 21.9377H19.7738V21.7095H19.5289V21.9377ZM19.031 21.9377H18.7861V22.1658H19.031V21.9377ZM19.031 21.4739H19.2759V21.2458H19.031V21.4739ZM18.5331 21.4739H18.2882V21.702H18.5331V21.4739ZM18.5331 20.0825V19.8544H18.2882V20.0825H18.5331ZM19.031 21.0101H18.7861V21.2382H19.031V21.0101ZM19.5289 21.0101V21.2382H19.7738V21.0101H19.5289ZM19.5289 20.5463V20.3182H19.284V20.5463H19.5289ZM20.0268 20.5463V20.7745H20.2716V20.5463H20.0268ZM20.0268 20.0825H20.2716V19.8544H20.0268V20.0825ZM19.031 19.6188V19.3906H18.7861V19.6188H19.031ZM21.0225 19.6188H21.2674V19.3906H21.0225V19.6188ZM21.0225 20.0825H20.7776V20.3107H21.0225V20.0825ZM21.5204 20.0825H21.7653V19.8544H21.5204V20.0825ZM21.5204 20.5463H21.2755V20.7745H21.5204V20.5463ZM22.5161 20.5463V20.7745H22.761V20.5463H22.5161ZM22.5161 20.0825V19.8544H22.2712V20.0825H22.5161ZM23.014 20.0825V20.3107H23.2589V20.0825H23.014ZM23.014 19.6188V19.3906H22.7691V19.6188H23.014ZM25.0055 19.6188H25.2504V19.3906H25.0055V19.6188ZM25.0055 20.0825H24.7606V20.3107H25.0055V20.0825ZM25.5033 20.0825H25.7483V19.8544H25.5033V20.0825ZM25.5033 21.4739V21.702H25.7483V21.4739H25.5033ZM25.0055 21.4739V21.2458H24.7606V21.4739H25.0055ZM25.0055 21.9377V22.1658H25.2504V21.9377H25.0055ZM32.9735 20.5463H32.7285V20.7745H32.9735V20.5463ZM33.4712 20.5463H33.7161V20.3182H33.4712V20.5463ZM33.4712 23.329V23.5571H33.7161V23.329H33.4712ZM32.9735 23.329V23.1009H32.7285V23.329H32.9735ZM32.9735 23.7928V24.0209H33.2182V23.7928H32.9735ZM32.4756 23.7928V23.5647H32.2306V23.7928H32.4756ZM32.4756 24.2566V24.4847H32.7203V24.2566H32.4756ZM29.9862 24.2566V24.0284H29.7412V24.2566H29.9862ZM29.9862 25.6479V25.8761H30.2312V25.6479H29.9862ZM29.4883 25.6479V25.4198H29.2433V25.6479H29.4883ZM29.4883 26.1117V26.3399H29.7332V26.1117H29.4883ZM26.9989 26.1117H26.754V26.3399H26.9989V26.1117ZM26.9989 25.6479H27.2438V25.4198H26.9989V25.6479ZM26.501 25.6479H26.2561V25.8761H26.501V25.6479ZM26.501 20.0825V19.8544H26.2561V20.0825H26.501ZM26.9989 21.0101H26.754V21.2382H26.9989V21.0101ZM27.4968 21.0101V21.2382H27.7417V21.0101H27.4968ZM27.4968 20.5463V20.3182H27.2519V20.5463H27.4968ZM27.9947 20.5463V20.7745H28.2395V20.5463H27.9947ZM27.9947 20.0825H28.2395V19.8544H27.9947V20.0825ZM26.9989 19.6188V19.3906H26.754V19.6188H26.9989ZM32.4756 19.6188H32.7203V19.3906H32.4756V19.6188ZM32.4756 20.0825H32.2306V20.3107H32.4756V20.0825ZM32.9735 20.0825H33.2182V19.8544H32.9735V20.0825ZM29.9862 21.0101V20.782H29.7412V21.0101H29.9862ZM29.9862 22.8652H29.7412V23.0934H29.9862V22.8652ZM30.9818 22.8652V23.0934H31.2268V22.8652H30.9818ZM30.9818 21.0101H31.2268V20.782H30.9818V21.0101ZM40.9413 20.0825H40.6963V20.3107H40.9413V20.0825ZM41.4392 20.0825H41.6841V19.8544H41.4392V20.0825ZM41.4392 25.6479V25.8761H41.6841V25.6479H41.4392ZM40.9413 25.6479V25.4198H40.6963V25.6479H40.9413ZM40.9413 26.1117V26.3399H41.1862V26.1117H40.9413ZM39.4477 26.1117H39.2028V26.3399H39.4477V26.1117ZM39.4477 25.6479H39.6924V25.4198H39.4477V25.6479ZM38.9498 25.6479H38.7048V25.8761H38.9498V25.6479ZM38.9498 23.329H39.1948V23.1009H38.9498V23.329ZM37.9539 23.329V23.1009H37.7092V23.329H37.9539ZM37.9539 25.6479V25.8761H38.1989V25.6479H37.9539ZM37.4563 25.6479V25.4198H37.2113V25.6479H37.4563ZM37.4563 26.1117V26.3399H37.701V26.1117H37.4563ZM34.9669 26.1117H34.7219V26.3399H34.9669V26.1117ZM34.9669 25.6479H35.2116V25.4198H34.9669V25.6479ZM34.469 25.6479H34.224V25.8761H34.469V25.6479ZM34.469 20.0825V19.8544H34.224V20.0825H34.469ZM34.9669 21.0101H34.7219V21.2382H34.9669V21.0101ZM35.4648 21.0101V21.2382H35.7095V21.0101H35.4648ZM35.4648 20.5463V20.3182H35.2198V20.5463H35.4648ZM35.9625 20.5463V20.7745H36.2075V20.5463H35.9625ZM35.9625 20.0825H36.2075V19.8544H35.9625V20.0825ZM34.9669 19.6188V19.3906H34.7219V19.6188H34.9669ZM37.4563 19.6188H37.701V19.3906H37.4563V19.6188ZM37.4563 20.0825H37.2113V20.3107H37.4563V20.0825ZM37.9539 20.0825H38.1989V19.8544H37.9539V20.0825ZM37.9539 21.9377H37.7092V22.1658H37.9539V21.9377ZM38.9498 21.9377V22.1658H39.1948V21.9377H38.9498ZM38.9498 20.0825V19.8544H38.7048V20.0825H38.9498ZM39.4477 20.0825V20.3107H39.6924V20.0825H39.4477ZM39.4477 19.6188V19.3906H39.2028V19.6188H39.4477ZM40.9413 19.6188H41.1862V19.3906H40.9413V19.6188ZM10.5452 19.6188V20.0825H11.035V19.6188H10.5452ZM10.7901 20.3107H11.288V19.8544H10.7901V20.3107ZM11.0431 20.0825V20.5463H11.5329V20.0825H11.0431ZM11.288 20.3182H10.7901V20.7745H11.288V20.3182ZM10.5452 20.5463V21.0101H11.035V20.5463H10.5452ZM10.7901 20.782H7.80289V21.2382H10.7901V20.782ZM7.55799 21.0101V24.2566H8.04778V21.0101H7.55799ZM7.80289 24.4847H9.29649V24.0284H7.80289V24.4847ZM9.54141 24.2566V23.329H9.0516V24.2566H9.54141ZM9.29649 23.1009H8.79864V23.5571H9.29649V23.1009ZM9.04353 23.329V22.8652H8.55372V23.329H9.04353ZM8.79864 22.6371H8.30076V23.0934H8.79864V22.6371ZM8.54566 22.8652V22.4015H8.05584V22.8652H8.54566ZM8.30076 22.6296H8.79864V22.1733H8.30076V22.6296ZM9.04353 22.4015V21.9377H8.55372V22.4015H9.04353ZM8.79864 22.1658H10.7901V21.7095H8.79864V22.1658ZM10.5452 21.9377V22.4015H11.035V21.9377H10.5452ZM10.7901 22.6296H11.288V22.1733H10.7901V22.6296ZM11.0431 22.4015V25.1842H11.5329V22.4015H11.0431ZM11.288 24.956H10.7901V25.4123H11.288V24.956ZM10.5452 25.1842V25.6479H11.035V25.1842H10.5452ZM10.7901 25.4198H10.2922V25.8761H10.7901V25.4198ZM10.0473 25.6479V26.1117H10.5371V25.6479H10.0473ZM10.2922 25.8836H5.31352V26.3399H10.2922V25.8836ZM5.55842 26.1117V25.6479H5.06862V26.1117H5.55842ZM5.31352 25.4198H4.81565V25.8761H5.31352V25.4198ZM5.06055 25.6479V25.1842H4.57075V25.6479H5.06055ZM4.81565 24.956H4.31778V25.4123H4.81565V24.956ZM4.56268 25.1842V20.5463H4.07288V25.1842H4.56268ZM4.31778 20.7745H4.81565V20.3182H4.31778V20.7745ZM4.57075 20.5463V21.0101H5.06055V20.5463H4.57075ZM4.81565 21.2382H5.31352V20.782H4.81565V21.2382ZM5.55842 21.0101V20.5463H5.06862V21.0101H5.55842ZM5.31352 20.7745H5.81139V20.3182H5.31352V20.7745ZM6.0563 20.5463V20.0825H5.56649V20.5463H6.0563ZM5.81139 19.8544H5.31352V20.3107H5.81139V19.8544ZM5.55842 20.0825V19.6188H5.06862V20.0825H5.55842ZM5.31352 19.8469H10.7901V19.3906H5.31352V19.8469ZM18.0153 24.2566V24.7204H18.505V24.2566H18.0153ZM18.2602 24.9485H18.758V24.4922H18.2602V24.9485ZM18.5131 24.7204V25.6479H19.0029V24.7204H18.5131ZM18.758 25.4198H18.2602V25.8761H18.758V25.4198ZM18.0153 25.6479V26.1117H18.505V25.6479H18.0153ZM18.2602 25.8836H12.7836V26.3399H18.2602V25.8836ZM13.0285 26.1117V25.6479H12.5386V26.1117H13.0285ZM12.7836 25.4198H12.2857V25.8761H12.7836V25.4198ZM12.5306 25.6479V20.0825H12.0408V25.6479H12.5306ZM12.2857 20.3107H12.7836V19.8544H12.2857V20.3107ZM12.5386 20.0825V21.0101H13.0285V20.0825H12.5386ZM12.7836 21.2382H13.2814V20.782H12.7836V21.2382ZM13.5263 21.0101V20.5463H13.0365V21.0101H13.5263ZM13.2814 20.7745H13.7793V20.3182H13.2814V20.7745ZM14.0242 20.5463V20.0825H13.5344V20.5463H14.0242ZM13.7793 19.8544H12.7836V20.3107H13.7793V19.8544ZM13.0285 20.0825V19.6188H12.5386V20.0825H13.0285ZM12.7836 19.8469H15.2729V19.3906H12.7836V19.8469ZM15.028 19.6188V20.0825H15.5178V19.6188H15.028ZM15.2729 20.3107H15.7708V19.8544H15.2729V20.3107ZM15.5259 20.0825V24.2566H16.0157V20.0825H15.5259ZM15.7708 24.4847H18.2602V24.0284H15.7708V24.4847ZM24.2627 21.9377V22.4015H24.7525V21.9377H24.2627ZM24.5076 22.1733H24.0097V22.6296H24.5076V22.1733ZM23.7648 22.4015V22.8652H24.2546V22.4015H23.7648ZM24.0097 22.6371H23.5119V23.0934H24.0097V22.6371ZM23.267 22.8652V25.6479H23.7568V22.8652H23.267ZM23.5119 25.4198H23.014V25.8761H23.5119V25.4198ZM22.7691 25.6479V26.1117H23.2589V25.6479H22.7691ZM23.014 25.8836H21.0225V26.3399H23.014V25.8836ZM21.2674 26.1117V25.6479H20.7776V26.1117H21.2674ZM21.0225 25.4198H20.5246V25.8761H21.0225V25.4198ZM20.7695 25.6479V22.8652H20.2797V25.6479H20.7695ZM20.5246 22.6371H20.0268V23.0934H20.5246V22.6371ZM20.2716 22.8652V22.4015H19.7819V22.8652H20.2716ZM20.0268 22.1733H19.5289V22.6296H20.0268V22.1733ZM19.7738 22.4015V21.9377H19.284V22.4015H19.7738ZM19.5289 21.7095H19.031V22.1658H19.5289V21.7095ZM19.2759 21.9377V21.4739H18.7861V21.9377H19.2759ZM19.031 21.2458H18.5331V21.702H19.031V21.2458ZM18.778 21.4739V20.0825H18.2882V21.4739H18.778ZM18.5331 20.3107H19.031V19.8544H18.5331V20.3107ZM18.7861 20.0825V21.0101H19.2759V20.0825H18.7861ZM19.031 21.2382H19.5289V20.782H19.031V21.2382ZM19.7738 21.0101V20.5463H19.284V21.0101H19.7738ZM19.5289 20.7745H20.0268V20.3182H19.5289V20.7745ZM20.2716 20.5463V20.0825H19.7819V20.5463H20.2716ZM20.0268 19.8544H19.031V20.3107H20.0268V19.8544ZM19.2759 20.0825V19.6188H18.7861V20.0825H19.2759ZM19.031 19.8469H21.0225V19.3906H19.031V19.8469ZM20.7776 19.6188V20.0825H21.2674V19.6188H20.7776ZM21.0225 20.3107H21.5204V19.8544H21.0225V20.3107ZM21.2755 20.0825V20.5463H21.7653V20.0825H21.2755ZM21.5204 20.7745H22.5161V20.3182H21.5204V20.7745ZM22.761 20.5463V20.0825H22.2712V20.5463H22.761ZM22.5161 20.3107H23.014V19.8544H22.5161V20.3107ZM23.2589 20.0825V19.6188H22.7691V20.0825H23.2589ZM23.014 19.8469H25.0055V19.3906H23.014V19.8469ZM24.7606 19.6188V20.0825H25.2504V19.6188H24.7606ZM25.0055 20.3107H25.5033V19.8544H25.0055V20.3107ZM25.2584 20.0825V21.4739H25.7483V20.0825H25.2584ZM25.5033 21.2458H25.0055V21.702H25.5033V21.2458ZM24.7606 21.4739V21.9377H25.2504V21.4739H24.7606ZM25.0055 21.7095H24.5076V22.1658H25.0055V21.7095ZM32.9735 20.7745H33.4712V20.3182H32.9735V20.7745ZM33.2265 20.5463V23.329H33.7161V20.5463H33.2265ZM33.4712 23.1009H32.9735V23.5571H33.4712V23.1009ZM32.7285 23.329V23.7928H33.2182V23.329H32.7285ZM32.9735 23.5647H32.4756V24.0209H32.9735V23.5647ZM32.2306 23.7928V24.2566H32.7203V23.7928H32.2306ZM32.4756 24.0284H29.9862V24.4847H32.4756V24.0284ZM29.7412 24.2566V25.6479H30.2312V24.2566H29.7412ZM29.9862 25.4198H29.4883V25.8761H29.9862V25.4198ZM29.2433 25.6479V26.1117H29.7332V25.6479H29.2433ZM29.4883 25.8836H26.9989V26.3399H29.4883V25.8836ZM27.2438 26.1117V25.6479H26.754V26.1117H27.2438ZM26.9989 25.4198H26.501V25.8761H26.9989V25.4198ZM26.746 25.6479V20.0825H26.2561V25.6479H26.746ZM26.501 20.3107H26.9989V19.8544H26.501V20.3107ZM26.754 20.0825V21.0101H27.2438V20.0825H26.754ZM26.9989 21.2382H27.4968V20.782H26.9989V21.2382ZM27.7417 21.0101V20.5463H27.2519V21.0101H27.7417ZM27.4968 20.7745H27.9947V20.3182H27.4968V20.7745ZM28.2395 20.5463V20.0825H27.7498V20.5463H28.2395ZM27.9947 19.8544H26.9989V20.3107H27.9947V19.8544ZM27.2438 20.0825V19.6188H26.754V20.0825H27.2438ZM26.9989 19.8469H32.4756V19.3906H26.9989V19.8469ZM32.2306 19.6188V20.0825H32.7203V19.6188H32.2306ZM32.4756 20.3107H32.9735V19.8544H32.4756V20.3107ZM32.7285 20.0825V20.5463H33.2182V20.0825H32.7285ZM29.7412 21.0101V22.8652H30.2312V21.0101H29.7412ZM29.9862 23.0934H30.9818V22.6371H29.9862V23.0934ZM31.2268 22.8652V21.0101H30.7371V22.8652H31.2268ZM30.9818 20.782H29.9862V21.2382H30.9818V20.782ZM40.9413 20.3107H41.4392V19.8544H40.9413V20.3107ZM41.1942 20.0825V25.6479H41.6841V20.0825H41.1942ZM41.4392 25.4198H40.9413V25.8761H41.4392V25.4198ZM40.6963 25.6479V26.1117H41.1862V25.6479H40.6963ZM40.9413 25.8836H39.4477V26.3399H40.9413V25.8836ZM39.6924 26.1117V25.6479H39.2028V26.1117H39.6924ZM39.4477 25.4198H38.9498V25.8761H39.4477V25.4198ZM39.1948 25.6479V23.329H38.7048V25.6479H39.1948ZM38.9498 23.1009H37.9539V23.5571H38.9498V23.1009ZM37.7092 23.329V25.6479H38.1989V23.329H37.7092ZM37.9539 25.4198H37.4563V25.8761H37.9539V25.4198ZM37.2113 25.6479V26.1117H37.701V25.6479H37.2113ZM37.4563 25.8836H34.9669V26.3399H37.4563V25.8836ZM35.2116 26.1117V25.6479H34.7219V26.1117H35.2116ZM34.9669 25.4198H34.469V25.8761H34.9669V25.4198ZM34.7139 25.6479V20.0825H34.224V25.6479H34.7139ZM34.469 20.3107H34.9669V19.8544H34.469V20.3107ZM34.7219 20.0825V21.0101H35.2116V20.0825H34.7219ZM34.9669 21.2382H35.4648V20.782H34.9669V21.2382ZM35.7095 21.0101V20.5463H35.2198V21.0101H35.7095ZM35.4648 20.7745H35.9625V20.3182H35.4648V20.7745ZM36.2075 20.5463V20.0825H35.7178V20.5463H36.2075ZM35.9625 19.8544H34.9669V20.3107H35.9625V19.8544ZM35.2116 20.0825V19.6188H34.7219V20.0825H35.2116ZM34.9669 19.8469H37.4563V19.3906H34.9669V19.8469ZM37.2113 19.6188V20.0825H37.701V19.6188H37.2113ZM37.4563 20.3107H37.9539V19.8544H37.4563V20.3107ZM37.7092 20.0825V21.9377H38.1989V20.0825H37.7092ZM37.9539 22.1658H38.9498V21.7095H37.9539V22.1658ZM39.1948 21.9377V20.0825H38.7048V21.9377H39.1948ZM38.9498 20.3107H39.4477V19.8544H38.9498V20.3107ZM39.6924 20.0825V19.6188H39.2028V20.0825H39.6924ZM39.4477 19.8469H40.9413V19.3906H39.4477V19.8469ZM40.6963 19.6188V20.0825H41.1862V19.6188H40.6963Z" fill="black"/>
</g>
</svg>
