<svg width="64" height="64" viewBox="0 0 64 64" fill="none" xmlns="http://www.w3.org/2000/svg">
<ellipse cx="32" cy="31.9957" rx="32" ry="31.9957" fill="black"/>
<path d="M55.8351 18.7674C55.4904 18.173 54.7221 17.9772 54.134 18.3341L22.5444 37.4813C21.7393 35.9804 21.2831 34.2654 21.2831 32.4444C21.2831 26.5317 26.0917 21.7385 32.0235 21.7385C34.5704 21.7385 36.9087 22.6246 38.7499 24.101L32.0295 28.6995L49.4942 18.6481C49.8707 18.4319 49.9995 17.9517 49.7817 17.5775C49.5526 17.1819 49.0339 17.0647 48.6555 17.3236L44.3788 20.2499C41.2274 17.0769 36.8566 15.1111 32.0235 15.1111C22.4196 15.1111 14.6344 22.8713 14.6344 32.4444C14.6344 35.5267 15.4425 38.4203 16.8571 40.9286L8 46.2968L17.0934 41.3343C20.1303 46.3916 25.6796 49.7778 32.0235 49.7778C41.6272 49.7778 49.4125 42.0175 49.4125 32.4444C49.4125 31.904 49.4125 31.9961 49.4125 30.3745C49.4125 28.753 50.0726 26.6784 52.4115 25.4295C52.6119 25.3225 52.6846 25.0716 52.5711 24.8748C52.4595 24.6832 52.2141 24.6169 52.0219 24.728L31.2849 36.6625C33.5997 35.6816 35.3692 35.0852 37.7148 34.6155C42.6009 33.6371 42.7253 35.959 40.8382 38.5781C39.5748 40.3318 36.7206 43.1483 32.0255 43.1483C28.1968 43.1483 24.8377 41.1519 22.9351 38.146L55.3614 20.4528C55.9661 20.1235 56.1798 19.3618 55.8351 18.7674Z" fill="white"/>
</svg>
