<svg width="72" height="72" viewBox="0 0 72 72" fill="none" xmlns="http://www.w3.org/2000/svg">
<g clip-path="url(#clip0_254_8394)">
<circle cx="36" cy="36" r="36" fill="black"/>
<path d="M54.2016 21V29.1801H51.4033V21H48.6049V29.1801H45.8066V21H43.0082V29.1801H29.0016V21H26.2033V29.1801V31.9052H54.2016V34.6303H51.4033H48.6049H23.4V21H20.6016V34.6351H17.7984V21H15V34.6351V37.3602V50.9952H17.7984V42.8151H20.5967V50.9952H23.3951V42.8151H26.1934V50.9952H28.9918V42.8151H42.9934V50.9952H45.7918V42.8151V40.09H23.4H20.6016H17.7984V37.3649H20.5967H23.3951H48.5951V51H51.3934V37.3602H54.1918V50.9952H57V37.3602V34.6351V31.91V29.1849V21H54.2016Z" fill="#3EF2D0"/>
</g>
<defs>
<clipPath id="clip0_254_8394">
<rect width="72" height="72" fill="white"/>
</clipPath>
</defs>
</svg>
