<svg width="64" height="64" viewBox="0 0 64 64" fill="none" xmlns="http://www.w3.org/2000/svg">
<circle cx="32" cy="32" r="32" fill="white"/>
<path d="M40.9331 22.0444C38.5164 19.4257 36.6725 16.3191 35.0107 11.224C34.505 9.67582 33.2949 8.85938 31.9837 8.85938C30.6724 8.85938 29.4623 9.67582 28.9568 11.224C28.1343 13.7445 27.2679 15.7737 26.3108 17.5015L34.9669 32.0957L40.9298 22.0444H40.9331Z" fill="#30EFA6"/>
<path d="M26.3134 17.5C25.2583 19.4073 24.092 20.9453 22.7471 22.3546C20.0437 25.1902 16.6022 27.3041 11.2157 29.0521C9.67521 29.5535 8.86285 30.7765 8.86285 32.0943C8.86285 33.4122 9.67521 34.635 11.2157 35.1364C16.6022 36.8879 20.0437 38.9985 22.7471 41.834C24.0887 43.24 25.255 44.7813 26.3101 46.6851L34.9662 32.0943L26.3101 17.5H26.3134Z" fill="#669DFF"/>
<path d="M52.7581 29.0605C47.3717 27.309 43.93 25.1984 41.2266 22.3629C41.1289 22.2613 41.0312 22.1529 40.9368 22.0513L34.974 32.1026L40.9368 42.1573C41.0345 42.0523 41.1289 41.9473 41.2266 41.8458C43.93 39.0102 47.3717 36.8962 52.7581 35.1482C54.2986 34.6467 55.111 33.4239 55.111 32.1061C55.111 30.7882 54.2986 29.5652 52.7581 29.0638V29.0605Z" fill="#FF76FF"/>
<path d="M26.3142 46.6812C27.2716 48.4123 28.1413 50.4416 28.9637 52.962C29.4694 54.5103 30.6795 55.3267 31.9908 55.3267C33.3019 55.3267 34.512 54.5103 35.0177 52.962C36.6794 47.867 38.5233 44.7604 40.9402 42.1416L34.9772 32.0869L26.321 46.6779L26.3142 46.6812Z" fill="#C24DFF"/>
</svg>
