<svg width="72" height="72" viewBox="0 0 72 72" fill="none" xmlns="http://www.w3.org/2000/svg">
<g clip-path="url(#clip0_254_6238)">
<circle cx="36" cy="36" r="36" fill="#FBFBFB"/>
<path fill-rule="evenodd" clip-rule="evenodd" d="M27.5184 33.55V25.7571C30.0283 26.2109 32.8399 26.4895 36.0003 26.4895C39.1607 26.4895 41.9713 26.2109 44.4822 25.7571V33.55H27.5184ZM36.0003 44.6364C32.8399 44.6364 30.0283 44.915 27.5184 45.3697V37.5759H44.4822V45.3697C41.9713 44.915 39.1607 44.6364 36.0003 44.6364ZM50.2212 24.2564C50.256 24.2438 50.2899 24.2303 50.3247 24.2178C52.857 23.3209 54.9279 22.2561 56.576 21.2029C57.3585 20.7032 57.818 19.8235 57.818 18.8907C57.818 17.381 56.1468 16.4994 54.9083 17.3495C53.0328 18.6373 50.3827 20.0158 46.7923 20.9971C46.6834 21.0267 46.5799 21.0591 46.4701 21.0878C45.9731 21.2181 45.4547 21.3386 44.9221 21.4518C44.7606 21.4868 44.5946 21.5183 44.4304 21.5506C43.9887 21.6396 43.5346 21.7205 43.0688 21.796C42.9269 21.8184 42.7886 21.8436 42.6441 21.8652C42.0382 21.955 41.4137 22.035 40.7668 22.1015C40.6552 22.1123 40.5392 22.1204 40.4259 22.1311C39.8665 22.1842 39.2901 22.2264 38.6994 22.2597C38.5325 22.2686 38.3657 22.2785 38.1961 22.2857C37.4841 22.3172 36.7569 22.3387 36.0003 22.3387C35.2454 22.3387 34.5209 22.3172 33.8115 22.2857C33.634 22.2785 33.4609 22.2686 33.2878 22.2588C32.7194 22.2264 32.1653 22.186 31.6264 22.1347C31.4881 22.1222 31.3471 22.1123 31.2115 22.0988C30.586 22.0341 29.9837 21.9568 29.3966 21.8696C29.203 21.8409 29.0174 21.8085 28.8273 21.7771C28.4338 21.7124 28.0493 21.6432 27.6736 21.5695C27.4479 21.5255 27.2212 21.4814 27.0017 21.4338C26.6207 21.3511 26.2513 21.2631 25.8891 21.1723C25.5536 21.0878 25.2288 20.9998 24.9085 20.909C21.4768 19.9358 18.9249 18.6013 17.1011 17.3531C15.8582 16.5012 14.1816 17.3783 14.1816 18.8925C14.1816 19.8244 14.6403 20.7023 15.421 21.202C17.0672 22.2534 19.1337 23.3164 21.6606 24.2124C21.7026 24.2276 21.7427 24.2438 21.7864 24.2591C22.2924 24.4361 22.8215 24.6033 23.3622 24.7668V33.55H21.5259C20.7086 33.55 20.0456 34.2177 20.0456 35.0408C20.0456 36.4409 21.1735 37.5759 22.5627 37.5759H23.3622V46.3591C22.8215 46.5226 22.2924 46.6907 21.7864 46.8668C21.7427 46.8821 21.7026 46.8983 21.6606 46.9144C19.1337 47.8104 17.0672 48.8725 15.421 49.9248C14.6403 50.4236 14.1816 51.3015 14.1816 52.2343C14.1816 53.7476 15.8582 54.6247 17.1011 53.7737C18.9249 52.5246 21.4768 51.191 24.9085 50.2169C25.2288 50.1261 25.5536 50.0381 25.8891 49.9536C26.2513 49.8628 26.6207 49.7748 27.0017 49.6921C27.2212 49.6445 27.4479 49.6004 27.6736 49.5564C28.0493 49.4827 28.4338 49.4135 28.8273 49.3497C29.0174 49.3183 29.203 49.285 29.3966 49.2563C29.9837 49.1691 30.586 49.0918 31.2115 49.028C31.3471 49.0136 31.4881 49.0037 31.6264 48.9912C32.1653 48.9408 32.7194 48.8995 33.2878 48.8671C33.4609 48.8582 33.634 48.8483 33.8115 48.8402C34.5209 48.8087 35.2454 48.7872 36.0003 48.7872C36.7569 48.7872 37.4841 48.8087 38.1961 48.8402C38.3657 48.8474 38.5325 48.8573 38.6994 48.8662C39.2901 48.8995 39.8665 48.9417 40.4259 48.9948C40.5392 49.0055 40.6552 49.0136 40.7668 49.0244C41.4137 49.0909 42.0382 49.1709 42.6441 49.2616C42.7886 49.2832 42.9269 49.3075 43.0688 49.3308C43.5346 49.4054 43.9887 49.4872 44.4304 49.5753C44.5946 49.6076 44.7606 49.64 44.9221 49.6741C45.4547 49.7873 45.9731 49.9078 46.4701 50.0381C46.5799 50.0668 46.6834 50.1001 46.7923 50.1288C50.3827 51.111 53.0328 52.4895 54.9083 53.7773C56.1468 54.6274 57.818 53.7458 57.818 52.2361C57.818 51.3024 57.3585 50.4227 56.576 49.923C54.9279 48.8698 52.857 47.805 50.3247 46.9081C50.2899 46.8956 50.256 46.8821 50.2212 46.8704C49.7135 46.6925 49.1817 46.5235 48.6375 46.3591V37.5759H50.4737C51.2911 37.5759 51.954 36.9082 51.954 36.0851C51.954 34.685 50.8271 33.55 49.436 33.55H48.6375V24.7668C49.1817 24.6033 49.7135 24.4343 50.2212 24.2564Z" fill="url(#paint0_linear_254_6238)"/>
</g>
<defs>
<linearGradient id="paint0_linear_254_6238" x1="2196" y1="17.0179" x2="2196" y2="3726.11" gradientUnits="userSpaceOnUse">
<stop stop-color="#006EF5"/>
<stop offset="1" stop-color="#0062DB"/>
</linearGradient>
<clipPath id="clip0_254_6238">
<rect width="72" height="72" fill="white"/>
</clipPath>
</defs>
</svg>
