<svg width="64" height="64" viewBox="0 0 64 64" fill="none" xmlns="http://www.w3.org/2000/svg">
<circle cx="32" cy="32" r="32" fill="white"/>
<path d="M45.1892 51.4478C46.4735 50.1076 47.3125 48.2889 47.5521 46.326C47.5965 45.9613 47.72 44.9578 47.8937 43.5521C50.5892 21.6885 50.5892 21.4444 50.5892 21.107C50.5892 21.0239 50.5878 20.9379 50.5848 20.8519C50.5153 18.6935 49.5232 16.6453 47.8634 15.2308C46.1777 13.7943 43.9479 13.1239 41.7448 13.3907L16.6232 16.4409C13.4582 16.8254 10.807 19.1199 10.0255 22.1509C9.86138 22.7868 9.77783 23.4441 9.77783 24.1043C9.77783 24.1881 9.77931 24.274 9.78227 24.363C9.87468 27.1706 11.5278 29.7061 14.0962 30.9801C16.9885 32.3351 22.8195 33.901 26.284 37.346C29.7484 40.7909 31.3143 46.5818 32.6769 49.457L32.6865 49.4754C33.973 52.0535 36.5384 53.715 39.3833 53.8107C39.4736 53.8135 39.5637 53.8151 39.6532 53.8151C41.7595 53.8151 43.7254 52.974 45.1885 51.4463L45.1892 51.4478Z" fill="url(#paint0_linear_4897_2816)"/>
<path opacity="0.4" d="M34.625 45.9934C34.625 48.7539 36.8845 50.9947 39.651 50.9947C42.4175 50.9947 44.685 48.7459 44.685 45.9934C44.685 43.241 42.4257 40.9922 39.651 40.9922C36.8771 40.9922 34.625 43.241 34.625 45.9934Z" fill="white"/>
<path opacity="0.4" d="M37.6426 21.1558C37.6426 23.9164 39.9019 26.1572 42.6685 26.1572C45.435 26.1572 47.7025 23.9083 47.7025 21.1558C47.7025 18.4034 45.4431 16.1545 42.6685 16.1545C39.8945 16.1545 37.6426 18.4034 37.6426 21.1558Z" fill="white"/>
<path opacity="0.4" d="M12.6665 24.1524C12.6665 26.9129 14.9259 29.1537 17.7006 29.1537C20.4752 29.1537 22.7265 26.9049 22.7265 24.1524C22.7265 21.4 20.4671 19.1511 17.7006 19.1511C14.934 19.1511 12.6665 21.4 12.6665 24.1524Z" fill="white"/>
<defs>
<linearGradient id="paint0_linear_4897_2816" x1="18.4049" y1="40.4873" x2="44.4274" y2="9.93901" gradientUnits="userSpaceOnUse">
<stop stop-color="#9B8564"/>
<stop offset="1" stop-color="#DBD5C7"/>
</linearGradient>
</defs>
</svg>
