<svg width="72" height="72" viewBox="0 0 72 72" fill="none" xmlns="http://www.w3.org/2000/svg">
<g clip-path="url(#clip0_254_8470)">
<circle cx="36" cy="36" r="36" fill="white"/>
<path d="M32.66 42.2467C32.596 42.2467 32.4682 42.3123 32.4682 42.378C32.3828 42.493 32.3278 42.6286 32.3083 42.7718C32.0753 43.8014 31.7097 44.7946 31.2212 45.7252C30.8077 46.5832 30.2805 47.3784 29.6545 48.088C28.8907 48.9528 27.9042 49.5785 26.8089 49.8929C26.2 50.1 25.5639 50.2107 24.9225 50.221C22.4606 50.2538 19.9667 50.221 17.5048 50.221C17.4089 50.221 17.313 50.1882 17.1851 50.1882V23.7056C17.1814 23.6788 17.1837 23.6516 17.1921 23.6259C17.2004 23.6003 17.2144 23.577 17.233 23.5579C17.2516 23.5388 17.2743 23.5244 17.2993 23.5159C17.3243 23.5073 17.3509 23.5049 17.3769 23.5087H21.5014V22.9508H9V23.5087H13.2844V50.2538H9.03197V50.7789H32.8518V42.4764C32.8543 42.4483 32.8512 42.42 32.8429 42.3932C32.8345 42.3663 32.821 42.3414 32.8031 42.32C32.7852 42.2986 32.7634 42.2811 32.7388 42.2685C32.7142 42.2559 32.6874 42.2485 32.66 42.2467Z" fill="black"/>
<path d="M39.4794 15H38.1543V57.4047H39.4794V15Z" fill="black"/>
<path d="M51.4246 37.6805C51.1153 37.6805 50.8186 37.5532 50.5999 37.3267C50.3811 37.1001 50.2583 36.7929 50.2583 36.4725C50.2583 36.1521 50.3811 35.8449 50.5999 35.6183C50.8186 35.3918 51.1153 35.2645 51.4246 35.2645C51.7299 35.2636 52.0231 35.3879 52.2402 35.6103L52.4176 35.4221C52.2176 35.219 51.964 35.0818 51.6888 35.0277C51.4136 34.9735 51.1291 35.0049 50.8711 35.1178C50.6131 35.2308 50.3931 35.4202 50.2388 35.6624C50.0845 35.9045 50.0027 36.1885 50.0039 36.4786C50.0051 36.7687 50.0891 37.052 50.2453 37.2928C50.4016 37.5336 50.6231 37.7211 50.882 37.8318C51.141 37.9425 51.4257 37.9714 51.7005 37.9149C51.9752 37.8584 52.2277 37.7189 52.4261 37.5142L52.2486 37.3303C52.0288 37.5542 51.7329 37.6799 51.4246 37.6805Z" fill="black"/>
<path d="M59.3468 35.0019H59.1738V37.9431H59.3468V35.0019Z" fill="black"/>
<path d="M60.0391 35.2726H61.0349V37.9431H61.2924V35.2726H62.2882V35.0019H60.0391V35.2726Z" fill="black"/>
<path d="M66.1867 37.6716V35.0019H65.9199V37.9431H67.8231V37.6716H66.1867Z" fill="black"/>
<path d="M57.3729 35.0019H56.2324V37.9431H56.4831V37.0229H57.3729C57.621 37.0229 57.859 36.9164 58.0345 36.7269C58.21 36.5374 58.3086 36.2804 58.3086 36.0124C58.3086 35.7444 58.21 35.4874 58.0345 35.2979C57.859 35.1084 57.621 35.0019 57.3729 35.0019ZM57.3729 36.7522H56.4831V35.2726H57.3729C57.5545 35.2726 57.7288 35.3505 57.8573 35.4892C57.9858 35.628 58.0579 35.8162 58.0579 36.0124C58.0579 36.2086 57.9858 36.3968 57.8573 36.5355C57.7288 36.6743 57.5545 36.7522 57.3729 36.7522Z" fill="black"/>
<path d="M54.0027 35.0019L52.7715 37.9431H53.0517L53.3829 37.1513H54.9198L55.2595 37.9431H55.5397L54.2787 35.0019H54.0027ZM53.4975 36.8798L54.1386 35.3367L54.8009 36.8798H53.4975Z" fill="black"/>
<path d="M63.6922 35.0019L62.4609 37.9431H62.7412L63.0723 37.1513H64.6093L64.9489 37.9431H65.2292L63.9682 35.0019H63.6922ZM63.187 36.8843L63.8323 35.3413L64.4946 36.8843H63.187Z" fill="black"/>
<path d="M61.3341 31.8445C61.4016 32.1851 61.4691 32.5257 61.5703 32.8663C61.5789 32.9208 61.5983 32.973 61.6273 33.0199C61.6562 33.0667 61.6943 33.1071 61.7391 33.1388C61.8114 33.5915 61.8689 34.0461 61.9116 34.5018H57.1427C57.1195 34.0357 57.0876 33.5699 57.047 33.1047C57.047 33.1047 57.0133 32.73 57.0133 32.5938C56.86 31.1804 56.5194 29.7942 56.0006 28.4723C55.5176 27.267 54.8067 26.1679 53.9078 25.2365C53.2837 24.6209 52.5796 24.0938 51.8149 23.6696C51.1561 23.3221 50.4668 23.037 49.7558 22.8181C49.4115 22.7159 49.0672 22.6505 48.7228 22.5851C48.4933 22.5415 48.2638 22.4979 48.0342 22.4434C46.7928 22.2735 45.5397 22.2052 44.2873 22.239C44.0173 22.239 43.7472 22.2561 43.4772 22.2731C43.2071 22.2901 42.9371 22.3072 42.667 22.3072C42.1989 22.3072 42.1945 22.2737 42.1288 21.7765C42.1282 21.7718 42.1276 21.767 42.127 21.7622C42.3295 21.7451 42.5236 21.7366 42.7177 21.7281C42.9118 21.7196 43.1059 21.7111 43.3084 21.694C43.7135 21.66 44.1861 21.6259 44.6249 21.6259C45.3338 21.6259 46.0764 21.66 46.7853 21.694C47.2241 21.694 47.6629 21.7281 48.1017 21.7622C48.7093 21.7962 49.3845 21.8984 50.0258 22.0006C50.8549 22.1362 51.6689 22.3529 52.4562 22.6478C53.3825 22.954 54.2759 23.3534 55.123 23.8399C55.8841 24.2764 56.6069 24.7778 57.2833 25.3386C58.0126 25.9661 58.6693 26.6745 59.2412 27.4505C60.1853 28.782 60.8935 30.2688 61.3341 31.8445Z" fill="black"/>
<path d="M57.1389 38.3355C57.1316 38.4767 57.1235 38.6178 57.1146 38.759C57.1146 38.759 57.0808 38.9633 57.0808 39.0315C56.9795 39.7808 56.8783 40.5302 56.7432 41.2795C56.5531 42.2183 56.2587 43.1323 55.8656 44.0045C55.5955 44.5835 55.2917 45.1626 54.9879 45.7416C54.4515 46.7437 53.711 47.6199 52.815 48.3126C51.9191 49.0054 50.888 49.4989 49.7895 49.7609C48.8352 49.9804 47.864 50.1172 46.8865 50.1696C46.1777 50.2207 45.4688 50.2144 44.7599 50.208C44.5236 50.2058 44.2873 50.2037 44.051 50.2037H42.4308C42.262 50.5784 42.2957 50.6465 42.7008 50.6806C42.9692 50.7202 43.2398 50.7429 43.5109 50.7487C45.2662 50.7828 47.0216 50.8168 48.7769 50.6806C49.6053 50.6083 50.4283 50.4831 51.241 50.3059C52.3002 50.0577 53.3218 49.6682 54.2791 49.1478C55.0594 48.7274 55.8146 48.2611 56.5407 47.7513C57.5992 46.995 58.5333 46.0754 59.3087 45.0263C59.9562 44.1326 60.5104 43.1738 60.9627 42.1651C61.3524 41.1859 61.6464 40.1706 61.8404 39.1336C61.8591 39.0324 61.8703 38.93 61.8741 38.8271C61.8923 38.6634 61.9086 38.4995 61.923 38.3355H57.1389Z" fill="black"/>
</g>
<defs>
<clipPath id="clip0_254_8470">
<rect width="72" height="72" fill="white"/>
</clipPath>
</defs>
</svg>
