<svg width="72" height="72" viewBox="0 0 72 72" fill="none" xmlns="http://www.w3.org/2000/svg">
<circle cx="36.5" cy="36" r="35" fill="url(#paint0_linear_118_2052)"/>
<path d="M63.2307 23.864C62.4339 22.1343 61.4648 20.4817 60.3317 18.9268C59.4313 17.6888 58.4272 16.5136 57.3242 15.4107C51.7927 9.87923 44.4397 6.83325 36.6167 6.83325C28.7937 6.83325 21.442 9.87923 15.9104 15.4107C15.4764 15.8446 15.0582 16.2882 14.6556 16.7438C13.5864 17.9528 12.6269 19.2365 11.7819 20.5817C8.89618 25.1754 7.34604 30.4947 7.33398 36.0503V36.1166C7.33398 37.2087 7.39305 38.2899 7.51118 39.3602C7.97887 43.6369 9.37111 47.7087 11.589 51.3404L11.8434 51.7491C12.9945 53.5656 14.353 55.2651 15.9104 56.8225C21.442 62.3539 28.7949 65.3999 36.6167 65.3999C44.4385 65.3999 51.7927 62.3539 57.3242 56.8225C58.2982 55.8485 59.195 54.818 60.0123 53.7379C60.3004 53.357 60.5788 52.9701 60.8476 52.5772C61.2948 51.9214 61.7131 51.25 62.1036 50.5642C64.0082 47.2169 65.228 43.5224 65.6897 39.6544C65.8187 38.5852 65.8886 37.5016 65.8982 36.4095C65.9007 36.3119 65.9007 36.2142 65.9007 36.1166C65.9007 31.8158 64.9797 27.6561 63.2307 23.864ZM36.6167 10.0878C43.1235 10.0878 49.2674 12.4587 54.0588 16.7945C52.8534 16.5124 51.6926 16.34 50.656 16.34C47.722 16.34 45.1811 17.2995 42.7245 18.2276C40.5957 19.0316 38.5851 19.791 36.5721 19.791C34.7568 19.791 33.7105 19.3812 32.1266 18.7592C30.0413 17.9408 27.446 16.9222 22.1266 16.4389C21.3311 16.3665 20.5162 16.3352 19.6917 16.34C24.4036 12.2936 30.3414 10.0878 36.6167 10.0878ZM56.7963 52.5615C56.2418 53.2389 55.6499 53.8934 55.0231 54.5214C50.1063 59.4369 43.5695 62.1454 36.6167 62.1454C29.664 62.1454 23.1283 59.4369 18.2115 54.5214C17.0688 53.3775 16.0442 52.1468 15.1462 50.8426C15.9682 48.5681 18.0198 44.5229 22.2194 44.5229C24.7062 44.5229 25.8863 46.1875 27.6052 48.9032C29.3831 51.7093 31.5938 55.2013 36.5721 55.2013C41.5504 55.2013 43.4356 51.9817 45.1039 49.395C46.7734 46.8058 48.0921 44.7603 51.6131 44.7603C54.2842 44.7603 56.5902 47.429 58.3476 50.4581C57.8679 51.1813 57.3508 51.8829 56.7963 52.5615ZM60.1666 47.2374C57.5918 43.4296 54.7266 41.5058 51.6131 41.5058C46.3178 41.5058 44.1288 44.9025 42.3689 47.6315C40.5921 50.387 39.4458 51.9468 36.5721 51.9468C33.5393 51.9468 32.2339 50.1278 30.3559 47.1614C28.6056 44.3987 26.624 41.2683 22.2194 41.2683C18.6756 41.2683 15.6838 43.1162 13.5683 46.6118C13.414 46.8673 13.2694 47.1228 13.1356 47.376C11.806 44.6096 10.9767 41.6143 10.6958 38.5056C13.9589 37.51 14.8545 36.7699 15.2161 36.471C16.0418 35.7887 16.6915 35.0836 17.3195 34.4013C18.8371 32.7548 19.9328 31.5651 22.8197 31.5651C24.3711 31.5651 25.5656 32.5631 27.3834 34.1928C29.5386 36.1226 32.2194 38.5237 36.5721 38.5237C40.5391 38.5237 42.4822 36.5433 44.1963 34.7967C45.8983 33.0622 47.3677 31.5651 51.0152 31.5651C54.1432 31.5651 55.2413 32.8753 56.7601 34.6894C58.0571 36.2395 59.5735 38.0512 62.487 39.0215C62.1699 41.8939 61.384 44.6627 60.1666 47.2374ZM59.2553 32.6005C57.5714 30.59 55.6632 28.3106 51.0152 28.3106C46.0019 28.3106 43.7129 30.643 41.8735 32.5173C40.3052 34.1145 39.1722 35.2692 36.5721 35.2692C33.4634 35.2692 31.5649 33.5684 29.5555 31.7688C27.657 30.068 25.6946 28.3106 22.8197 28.3106C18.5056 28.3106 16.6035 30.3754 14.9256 32.1967C14.3458 32.8271 13.7985 33.4214 13.144 33.9626C12.6944 34.3326 11.7903 34.728 10.6078 35.1222C10.8176 29.487 12.8125 24.1653 16.3238 19.8127C18.3586 19.5789 20.21 19.5319 21.8313 19.6801C26.6891 20.1213 29.0444 21.0458 30.9369 21.7883C32.5847 22.4356 34.142 23.0455 36.5721 23.0455C39.1794 23.0455 41.5661 22.1439 43.8756 21.2724C46.1586 20.4094 48.3163 19.5945 50.656 19.5945C52.6786 19.5945 55.5704 20.513 58.2162 21.5774C61.0007 25.6949 62.54 30.5212 62.6401 35.5862C61.1514 34.8666 60.2413 33.7794 59.2553 32.6005Z" fill="#350000"/>
<defs>
<linearGradient id="paint0_linear_118_2052" x1="5.875" y1="12.1364" x2="58.7727" y2="71" gradientUnits="userSpaceOnUse">
<stop stop-color="#FF1F00"/>
<stop offset="0.57568" stop-color="#FF7C34"/>
<stop offset="1" stop-color="#D10DC7"/>
</linearGradient>
</defs>
</svg>
