<svg width="72" height="72" viewBox="0 0 72 72" fill="none" xmlns="http://www.w3.org/2000/svg">
<g clip-path="url(#clip0_254_7270)">
<circle cx="36" cy="36" r="36" fill="black"/>
<path d="M21.417 28.8212L13.6711 24.8774C13.0653 26.0678 12.5493 27.3159 12.1387 28.5871L20.4095 31.2614C20.6798 30.4254 21.018 29.6042 21.417 28.8212Z" fill="white"/>
<path d="M27.9985 21.8705L32.2888 29.2626C32.9153 28.8993 33.586 28.6198 34.2836 28.4323L32.0632 20.1783C32.6282 20.0263 33.2025 19.9009 33.7799 19.8097L32.4155 11.2246C31.0958 11.4341 29.7845 11.7503 28.5171 12.1635L31.1702 20.2947C30.3263 20.5701 29.5045 20.9122 28.713 21.317L24.8132 13.705C23.6274 14.3128 22.4803 15.0189 21.4023 15.8059L26.5267 22.8269C26.9987 22.4828 27.4927 22.1647 27.9985 21.8705Z" fill="white"/>
<path d="M51.0224 27.9953L43.6328 32.2895C43.9969 32.9154 44.2762 33.5866 44.4644 34.2831L52.7178 32.0586C52.8698 32.6238 52.9952 33.1974 53.087 33.7742L61.6708 32.4072C61.4607 31.0882 61.1438 29.7761 60.7294 28.5082L52.5994 31.1663C52.3234 30.3226 51.9813 29.5013 51.5758 28.7099L59.1852 24.805C58.5774 23.6204 57.87 22.4733 57.0832 21.396L50.0641 26.5237C50.4087 26.9958 50.7283 27.489 51.0224 27.9953Z" fill="white"/>
<path d="M48.0143 13.6704C46.8225 13.0652 45.5746 12.5498 44.3047 12.1399L41.6348 20.4121C42.4701 20.6817 43.2914 21.0205 44.0757 21.4188L48.0143 13.6704Z" fill="white"/>
<path d="M44.9195 21.7191L40.5801 29.2503C41.2086 29.6124 41.7879 30.056 42.3033 30.5693L54.4739 18.3573C53.5299 17.4165 52.5043 16.5429 51.4257 15.7605L46.406 22.6832C45.9276 22.3366 45.4315 22.0146 44.9195 21.7191Z" fill="white"/>
<path d="M21.7242 27.9679L29.2534 32.3119C29.6155 31.6841 30.0604 31.1041 30.5745 30.588L18.3676 18.4129C17.4262 19.357 16.5519 20.3819 15.7695 21.4598L22.6896 26.4828C22.343 26.9605 22.0197 27.4559 21.7242 27.9679Z" fill="white"/>
<path d="M39.0846 19.6637L40.3979 11.213C39.1001 11.0113 37.7721 10.9091 36.4497 10.9091H36.4297V28.1505H36.4497C37.1765 28.1505 37.8955 28.2437 38.5874 28.4273L40.8169 20.0258C40.2466 19.8745 39.6685 19.7548 39.0846 19.6637Z" fill="white"/>
<path d="M28.429 34.3079L20.0287 32.0725C19.8768 32.6429 19.7565 33.2209 19.6654 33.8048L11.216 32.4876C11.013 33.79 10.9102 35.1232 10.9102 36.4495H28.1515C28.1515 35.7214 28.2448 35.0005 28.429 34.3079Z" fill="white"/>
<path d="M51.4812 44.0802L59.227 48.0239C59.8328 46.8335 60.3488 45.5855 60.7594 44.3143L52.4886 41.6398C52.2182 42.4759 51.8802 43.2971 51.4812 44.0802Z" fill="white"/>
<path d="M44.8984 51.0288L40.6081 43.6367C39.9815 44.0001 39.311 44.2794 38.6133 44.4669L40.8338 52.721C40.2679 52.873 39.6944 52.9984 39.1171 53.0896L40.4807 61.674C41.8005 61.4645 43.1118 61.1483 44.3792 60.7351L41.7261 52.6039C42.5706 52.3285 43.3918 51.9864 44.1833 51.5817L48.083 59.1936C49.2688 58.5858 50.416 57.8797 51.4939 57.0928L46.3694 50.0718C45.8974 50.4158 45.4041 50.7345 44.8984 51.0288Z" fill="white"/>
<path d="M21.8711 44.9064L29.2614 40.6123C28.8973 39.9863 28.6179 39.3151 28.4298 38.6187L20.1764 40.8431C20.0244 40.2779 19.899 39.7043 19.8071 39.1276L11.2227 40.4945C11.4328 41.8137 11.7496 43.1257 12.1641 44.3937L20.2941 41.7354C20.5701 42.5793 20.9122 43.4005 21.3177 44.192L13.7083 48.0968C14.3161 49.2814 15.0235 50.4286 15.8104 51.5057L22.8294 46.3781C22.4848 45.9061 22.1653 45.4127 21.8711 44.9064Z" fill="white"/>
<path d="M24.8887 59.2306C26.0803 59.8359 27.3283 60.3511 28.5984 60.7612L31.2683 52.489C30.4327 52.2193 29.6116 51.8804 28.8272 51.4821L24.8887 59.2306Z" fill="white"/>
<path d="M27.9723 51.1828L32.3119 43.6517C31.6833 43.2896 31.1039 42.846 30.5885 42.3327L18.418 54.5446C19.362 55.4854 20.3876 56.359 21.4661 57.1415L26.4858 50.2187C26.9644 50.5653 27.4602 50.8873 27.9723 51.1828Z" fill="white"/>
<path d="M51.1745 44.9337L43.6452 40.5898C43.2831 41.2177 42.8382 41.7977 42.3242 42.3136L54.5304 54.4894C55.4719 53.5454 56.346 52.5205 57.1285 51.4426L50.2083 46.4197C50.555 45.9418 50.879 45.4459 51.1745 44.9337Z" fill="white"/>
<path d="M34.3096 44.4724L32.0801 52.874C32.6504 53.0252 33.2285 53.1449 33.8124 53.2361L32.4998 61.6866C33.7975 61.8885 35.1256 61.9906 36.448 61.9906H36.468V44.7492H36.448C35.7212 44.7492 35.0014 44.656 34.3096 44.4724Z" fill="white"/>
<path d="M44.7468 36.4517C44.7468 37.1798 44.6531 37.9 44.4688 38.5932L52.8689 40.8285C53.021 40.2582 53.1412 39.6802 53.2323 39.0962L61.6824 40.4141C61.8854 39.1118 61.9882 37.7785 61.9882 36.4522L44.7468 36.4517Z" fill="white"/>
</g>
<defs>
<clipPath id="clip0_254_7270">
<rect width="72" height="72" fill="white"/>
</clipPath>
</defs>
</svg>
