<svg width="72" height="72" viewBox="0 0 72 72" fill="none" xmlns="http://www.w3.org/2000/svg">
<g clip-path="url(#clip0_254_8413)">
<circle cx="36" cy="36" r="36" fill="#1D1E22"/>
<path d="M29 12.0029C26.5607 16.1941 24.746 20.2561 23.5651 24.189C22.3821 28.117 21.7854 32.0461 21.7854 35.976C21.7854 39.8689 22.38 43.7988 23.5651 47.7494C24.746 51.7058 26.5556 55.7922 29 60H22.6773C19.7374 55.9458 17.5583 51.9513 16.1327 48.0066C14.7092 44.0766 14 40.0576 14 35.9731C14 31.9042 14.7154 27.8921 16.1472 23.9357C17.5841 19.9813 19.758 15.9985 22.6773 12H29V12.0029Z" fill="#29C278"/>
<path d="M44 12H50.3206C53.242 16.0006 55.418 19.9816 56.8488 23.9362C58.2826 27.8927 59 31.9041 59 35.9741C59 40.0588 58.2888 44.0779 56.8653 48.0081C55.4418 51.9509 53.2616 55.9476 50.3206 60H44C46.4372 55.7911 48.254 51.7064 49.437 47.7508C50.62 43.8001 51.2146 39.868 51.2146 35.977C51.2146 32.0469 50.622 28.1177 49.437 24.1895C48.254 20.2535 46.4403 16.1913 44 12Z" fill="#29C278"/>
</g>
<defs>
<clipPath id="clip0_254_8413">
<rect width="72" height="72" fill="white"/>
</clipPath>
</defs>
</svg>
