<svg width="64" height="65" viewBox="0 0 64 65" fill="none" xmlns="http://www.w3.org/2000/svg">
<path d="M32.0254 64.133C49.6844 64.147 63.9887 49.8072 63.9747 32.1045C63.9606 14.4017 49.6337 0.039304 31.9746 0.0253201C14.3156 0.0113363 0.0113511 14.3511 0.0253533 32.0538C0.0393554 49.7566 14.3663 64.119 32.0254 64.133Z" fill="#836EF9"/>
<path d="M32.2696 8.88892C25.5177 8.88892 8.88867 25.5176 8.88867 32.2698C8.88867 39.0221 25.5177 55.6511 32.2696 55.6511C39.0214 55.6511 55.6508 39.0219 55.6508 32.2698C55.6508 25.5179 39.0218 8.88892 32.2696 8.88892ZM28.626 45.6399C25.7789 44.864 18.1239 31.4735 18.8999 28.6263C19.6759 25.7789 33.0661 18.1241 35.9133 18.9001C38.7605 19.676 46.4155 33.0663 45.6396 35.9135C44.8636 38.761 31.4732 46.4159 28.626 45.6399Z" fill="white"/>
</svg>
