<svg width="72" height="72" viewBox="0 0 72 72" fill="none" xmlns="http://www.w3.org/2000/svg">
<g clip-path="url(#clip0_254_7164)">
<circle cx="36" cy="36" r="36" fill="#0E1126"/>
<g clip-path="url(#clip1_254_7164)">
<path d="M46.9143 14.5254C53.0419 17.1949 57.2547 23.678 56.8717 30.161C45.7653 30.161 34.659 30.161 23.9355 30.161C23.9355 25.9661 25.4675 21.3898 28.5313 18.339C32.7441 13 40.7866 11.4746 46.9143 14.5254Z" fill="#5FC0C1"/>
<path d="M46.1488 56.0932C46.9147 56.0932 47.2977 56.4746 47.2977 56.8559C47.2977 57.2373 46.9147 57.6187 46.1488 57.6187H28.5317C27.7658 57.6187 27.3828 57.2373 27.3828 56.8559C27.3828 56.4746 27.7658 56.0932 28.5317 56.0932H46.1488Z" fill="#E1177C"/>
<path d="M24.7017 58C25.4676 58 25.8506 57.6186 25.8506 56.8559C25.8506 56.0932 25.4676 55.7119 24.7017 55.7119C23.9357 55.7119 23.5527 56.0932 23.5527 56.8559C23.5527 57.6186 23.9357 58 24.7017 58Z" fill="#E1177C"/>
<path d="M35.4263 53.4237C36.1922 53.4237 36.5752 53.0424 36.5752 52.2797C36.5752 51.5169 36.1922 51.1356 35.4263 51.1356C34.6603 51.1356 34.2773 51.5169 34.2773 52.2797C34.2773 53.0424 34.6603 53.4237 35.4263 53.4237Z" fill="#E1177C"/>
<path d="M56.1056 51.1356C56.8716 51.1356 57.2546 51.5169 57.2546 52.2797C57.2546 53.0424 56.8716 53.4237 56.1056 53.4237H38.8716C38.1056 53.4237 37.7227 53.0424 37.7227 52.2797C37.7227 51.5169 38.1056 51.1356 38.8716 51.1356H56.1056Z" fill="#E1177C"/>
<path d="M12.4478 48.8475C13.2137 48.8475 13.5967 48.4661 13.5967 47.7034C13.5967 46.9407 13.2137 46.5593 12.4478 46.5593C11.6818 46.5593 11.2988 46.9407 11.2988 47.7034C11.2988 48.4661 12.0648 48.8475 12.4478 48.8475Z" fill="#E1177C"/>
<path d="M29.6805 46.5593C30.4464 46.5593 30.8294 46.9407 30.8294 47.7034C30.8294 48.4661 30.4464 48.8475 29.6805 48.8475H15.5103C14.7443 48.8475 14.3613 48.4661 14.3613 47.7034C14.3613 46.9407 14.7443 46.5593 15.5103 46.5593H29.6805Z" fill="#E1177C"/>
<path d="M61.8507 46.5593C62.6166 46.5593 62.9996 46.9407 62.9996 47.7034C62.9996 48.4661 62.6166 48.8475 61.8507 48.8475H33.5103C32.7443 48.8475 32.3613 48.4661 32.3613 47.7034C32.3613 46.9407 32.7443 46.5593 33.5103 46.5593H61.8507Z" fill="#E1177C"/>
<path d="M56.4902 41.9831C57.2562 41.9831 57.6392 42.3644 57.6392 43.1271C57.6392 43.8898 57.2562 44.2712 56.4902 44.2712H21.6392C21.2562 44.6526 20.4902 43.8898 20.4902 43.1271C20.4902 42.3644 20.8732 41.9831 21.6392 41.9831H56.4902Z" fill="#E1177C"/>
<path d="M17.8091 44.6526C18.575 44.6526 18.958 44.2712 18.958 43.5085C18.958 42.7458 18.575 41.9831 17.8091 41.9831C17.0431 41.9831 16.6602 42.7458 16.6602 43.1271C16.6602 43.5085 17.0431 44.6526 17.8091 44.6526Z" fill="#E1177C"/>
<path d="M49.2129 37.7881C49.9788 37.7881 50.3618 38.1695 50.3618 38.9322C50.3618 39.6949 49.9788 40.0763 49.2129 40.0763H14.3618C13.9788 40.0763 13.2129 39.6949 13.2129 38.9322C13.2129 38.1695 13.5959 37.7881 14.3618 37.7881H49.2129Z" fill="#E1177C"/>
<path d="M10.1489 40.0763C10.9149 40.0763 11.2979 39.6949 11.2979 38.9322C11.2979 38.1695 10.9149 37.7881 10.1489 37.7881C9.38298 37.7881 9 38.1695 9 38.9322C9 39.6949 9.38298 40.0763 10.1489 40.0763Z" fill="#E1177C"/>
<path d="M17.8091 35.5C18.575 35.5 18.958 35.1186 18.958 34.3559C18.958 33.5932 18.575 33.2119 17.8091 33.2119C17.0431 33.2119 16.6602 33.9746 16.6602 34.3559C16.6602 35.1186 17.0431 35.5 17.8091 35.5Z" fill="#E1177C"/>
<path d="M59.9369 33.2119C60.7028 33.2119 61.0858 33.5932 61.0858 34.3559C61.0858 35.1186 60.7028 35.5 59.9369 35.5H22.022C21.256 35.5 20.873 35.1186 20.873 34.3559C20.873 33.5932 21.256 33.2119 22.022 33.2119H59.9369Z" fill="#E1177C"/>
</g>
</g>
<defs>
<clipPath id="clip0_254_7164">
<rect width="72" height="72" fill="white"/>
</clipPath>
<clipPath id="clip1_254_7164">
<rect width="54" height="45" fill="white" transform="translate(9 13)"/>
</clipPath>
</defs>
</svg>
