<svg width="65" height="65" viewBox="0 0 65 65" fill="none" xmlns="http://www.w3.org/2000/svg">
<path d="M32.0754 64.0251C49.7484 64.0251 64.0527 49.6981 64.0248 32.0251C63.9968 14.3521 49.6471 0.0251465 31.9741 0.0251465C14.3011 0.0251465 -0.00320157 14.3521 0.024772 32.0251C0.0527455 49.6981 14.4024 64.0251 32.0754 64.0251Z" fill="black"/>
<path d="M38.5505 16.1264C40.6065 12.5657 45.1597 11.3453 48.7204 13.4008C52.2814 15.4567 53.5018 20.0107 51.446 23.5717L37.8425 47.1342C35.7866 50.6949 31.2326 51.9147 27.6716 49.8588C24.1111 47.8029 22.8906 43.2497 24.946 39.6889L38.5505 16.1264Z" fill="#BABAF8"/>
<path d="M26.0594 15.6243C28.3916 11.5847 33.5573 10.1998 37.597 12.532C37.8839 12.6976 38.1563 12.8794 38.416 13.0722C37.8054 13.6659 37.2636 14.3508 36.8166 15.1247L23.213 38.687C21.0035 42.5139 21.7768 47.2437 24.8104 50.1868C22.1883 52.1345 18.5558 52.4603 15.547 50.7232C11.5076 48.3909 10.1234 43.2252 12.4557 39.1856L26.0594 15.6243Z" fill="#F7F360"/>
</svg>
