<svg width="64" height="64" viewBox="0 0 64 64" fill="none" xmlns="http://www.w3.org/2000/svg">
<path d="M32.0019 64C49.6751 64 64.002 49.6731 64.002 32C64.002 14.3269 49.6751 0 32.0019 0C14.3288 0 0.00195312 14.3269 0.00195312 32C0.00195312 49.6731 14.3288 64 32.0019 64Z" fill="url(#paint0_linear_4897_341)"/>
<path d="M32.2755 5.33447C17.4133 5.33447 5.33325 17.4945 5.33325 32.4367C5.33325 47.3789 17.4221 59.5389 32.2755 59.5389C47.1288 59.5389 59.2266 47.3789 59.2266 32.4367C59.2266 17.4945 47.1377 5.33447 32.2755 5.33447ZM32.2755 10.5967C40.6488 10.5967 47.9288 15.3878 51.5466 22.3834C51.1644 22.2234 50.7733 22.0723 50.3644 21.93C47.911 21.0411 45.0666 20.3567 41.9821 19.8945C40.9421 18.4545 39.751 17.1745 38.4444 16.1789C36.6133 14.7834 34.5333 13.93 32.3021 13.93C30.071 13.93 27.9999 14.7745 26.1599 16.17C24.8533 17.1656 23.6621 18.4367 22.6221 19.8856C19.5199 20.3478 16.6577 21.0323 14.1955 21.9211C13.7866 22.0723 13.3866 22.2234 13.0133 22.3745C16.631 15.3789 23.911 10.5878 32.2844 10.5878L32.2755 10.5967ZM41.4755 33.7967C41.4755 34.6056 41.3866 35.3878 41.2177 36.1345C38.4355 36.5523 35.4044 36.7745 32.2755 36.7745C29.1466 36.7745 26.151 36.5611 23.3777 36.1434C23.2088 35.3878 23.111 34.6056 23.111 33.7967C23.111 31.0945 24.1066 27.6634 25.6977 24.8011C25.8488 24.5256 26.0088 24.25 26.1777 23.9834C28.0621 20.9523 30.2844 19.21 32.2755 19.1923H32.3021C34.3021 19.1923 36.5333 20.9434 38.4177 23.9834C38.5866 24.25 38.7466 24.5256 38.8977 24.8011C40.4799 27.6545 41.4755 31.0945 41.4755 33.7878V33.7967ZM10.6221 30.8723C10.6399 30.6678 10.6577 30.4545 10.6755 30.25C11.0221 29.5389 12.3288 28.1967 15.9644 26.89C17.0488 26.4989 18.2221 26.1523 19.4666 25.85C18.4444 28.5611 17.8844 31.3611 17.8844 33.7967C17.8844 34.1967 17.9021 34.5967 17.9288 34.9878C17.2444 34.7923 16.5866 34.5789 15.9644 34.3567C12.1244 32.97 10.8888 31.5478 10.631 30.8723H10.6221ZM32.2755 54.2767C26.8444 54.2767 21.8755 52.2589 18.0621 48.9256C22.471 50.0634 27.2977 50.6678 32.2755 50.6678C37.2533 50.6678 42.0888 50.0723 46.4977 48.9256C42.6844 52.2589 37.7155 54.2767 32.2755 54.2767ZM11.2977 38.0811C12.1688 38.5256 13.1377 38.9345 14.1866 39.3167C15.8044 39.9034 17.591 40.4011 19.511 40.8011C21.8399 41.29 24.3555 41.6456 26.9777 41.8411C28.7021 41.9745 30.471 42.0456 32.2666 42.0456C34.0621 42.0456 35.8666 41.9745 37.5999 41.8411C40.231 41.6367 42.7466 41.2811 45.0666 40.7923C46.9688 40.3923 48.7466 39.8945 50.3466 39.3167C51.431 38.9256 52.391 38.5167 53.2355 38.09C52.9333 39.2189 52.551 40.3034 52.0799 41.3522C49.2533 42.7122 46.0177 43.7522 42.5244 44.4367C39.2799 45.0767 35.8221 45.4056 32.2577 45.4056C28.6933 45.4056 25.271 45.0767 22.0444 44.4456C18.5333 43.7611 15.2888 42.73 12.4533 41.3611C12.4533 41.3611 11.591 39.21 11.2888 38.0811H11.2977ZM48.5866 34.3567C47.9733 34.5789 47.3333 34.7834 46.6666 34.9789C46.6933 34.5878 46.711 34.1967 46.711 33.8056C46.711 31.37 46.151 28.5789 45.1288 25.8678C46.3644 26.1611 47.5199 26.5078 48.5866 26.89C52.2221 28.2056 53.5199 29.5478 53.8755 30.2589C53.8932 30.4634 53.911 30.6678 53.9288 30.8811C53.671 31.5567 52.4355 32.9789 48.5866 34.3656V34.3567Z" fill="#377C5C"/>
<defs>
<linearGradient id="paint0_linear_4897_341" x1="32.002" y1="0" x2="32.002" y2="64" gradientUnits="userSpaceOnUse">
<stop stop-color="#EAF5EC"/>
<stop offset="1" stop-color="#BDC3BD"/>
</linearGradient>
</defs>
</svg>
