<svg width="72" height="72" viewBox="0 0 72 72" fill="none" xmlns="http://www.w3.org/2000/svg">
<g clip-path="url(#clip0_254_6948)">
<circle cx="36" cy="36" r="36" fill="#FBFBFB"/>
<path fill-rule="evenodd" clip-rule="evenodd" d="M51.3425 36.8913C51.3434 36.8673 51.3441 36.8433 51.3453 36.8195C51.3486 36.7554 51.3522 36.6915 51.3558 36.6275C51.3677 36.4194 51.3796 36.2112 51.3796 36C51.3796 35.898 51.3765 35.7966 51.3735 35.6952C51.3723 35.6582 51.3712 35.6213 51.3702 35.5842C51.3699 35.5718 51.3696 35.5593 51.3693 35.5468C51.3687 35.5221 51.3681 35.4972 51.3671 35.4723C51.3453 35.3396 51.2642 35.2272 51.1458 35.1747C51.1378 35.1712 51.1293 35.1698 51.1208 35.1681C51.1148 35.167 51.1089 35.1659 51.1031 35.1642C50.6473 35.0565 50.1878 34.9311 49.7249 34.7762L49.5253 34.7079C45.195 33.1913 41.0461 33.8927 39.1274 34.3793C39.0146 34.4072 38.9097 34.4349 38.8129 34.4618C38.8077 34.462 38.8028 34.4628 38.7977 34.4636C38.7918 34.4645 38.7858 34.4654 38.7797 34.4654C38.4028 34.4654 38.088 34.1945 38.0162 33.8349V33.5203V30.2481V29.9336C38.063 29.6968 38.2173 29.5021 38.4243 29.3939C38.4752 29.3729 38.5276 29.3524 38.5894 29.3293C39.8763 28.8547 43.3651 27.9948 49.2466 29.5084C49.2577 29.5136 49.2695 29.5158 49.2812 29.5179C49.2882 29.5193 49.2954 29.5206 49.3023 29.5225C49.3092 29.5244 49.3161 29.5264 49.323 29.5284C49.349 29.536 49.3752 29.5435 49.4037 29.5435C49.6193 29.5435 49.7934 29.3671 49.7934 29.1498C49.7934 29.1231 49.7868 29.0992 49.7803 29.0752C49.7782 29.0676 49.7761 29.0599 49.7741 29.0521C49.7612 29.0017 49.7398 28.9571 49.7103 28.9167C47.1424 23.7775 41.8756 20.25 35.7882 20.25C27.1776 20.25 20.1969 27.3013 20.1969 36C20.1969 44.6987 27.1776 51.75 35.7882 51.75C42.0039 51.75 47.3611 48.0713 49.8651 42.7557L49.8785 42.7278C49.9057 42.6711 49.9328 42.6146 49.9592 42.5573C49.9607 42.5489 49.9629 42.5406 49.965 42.5324C49.9689 42.5178 49.9727 42.5031 49.9727 42.4869C49.9727 42.3305 49.8807 42.1975 49.7497 42.1341C49.7443 42.1323 49.7386 42.1307 49.7331 42.1289L49.7249 42.1262L49.6952 42.1163L49.5253 42.0579C45.0651 40.4955 40.7952 41.2868 38.9589 41.7723C38.9522 41.7738 38.9462 41.7755 38.9398 41.7773L38.9309 41.7797C38.8826 41.7897 38.8317 41.7954 38.7797 41.7954C38.4028 41.7954 38.088 41.5245 38.0162 41.165V40.8504V37.6048V37.2899C38.0667 37.0368 38.2381 36.8289 38.4668 36.7271C38.4722 36.7243 38.4781 36.7224 38.4841 36.7203C38.4885 36.7188 38.4928 36.7173 38.497 36.7155C39.7167 36.2436 43.3127 35.2697 49.5253 36.9276C49.9649 37.0452 50.3863 37.145 50.8 37.2369C50.8608 37.2506 50.9218 37.2642 50.982 37.2768C51.1556 37.271 51.2943 37.1502 51.3385 36.987C51.3403 36.9555 51.3414 36.9234 51.3425 36.8913ZM60.066 29.9504C60.116 29.9404 60.1674 29.9352 60.2193 29.9352C60.6456 29.9352 60.9906 30.279 61 30.7064V30.7437V34.0701V34.2123C60.9745 34.4943 60.8051 34.7326 60.564 34.8507C60.4912 34.8727 60.4111 34.8965 60.3213 34.9221C59.6353 35.1174 58.4653 35.3941 56.9998 35.5369L56.8548 35.5496C56.7015 35.5937 56.5892 35.7253 56.5757 35.8902C56.5757 35.9016 56.5757 35.9125 56.5759 35.9237C56.576 35.9346 56.5762 35.9457 56.5762 35.957C56.5762 35.9643 56.5763 35.9716 56.5765 35.9788C56.5766 35.9859 56.5766 35.993 56.5766 36C56.5766 36.4782 56.556 36.9507 56.5253 37.4207L56.5245 37.4334C56.5241 37.4408 56.5235 37.448 56.5232 37.4553C56.5295 37.6563 56.6832 37.8148 56.8797 37.8312L56.8851 37.8309C56.9093 37.83 56.9345 37.829 56.9587 37.8274C58.2783 37.7535 59.2657 37.5419 59.9335 37.3413C59.9808 37.3272 60.0307 37.3125 60.0744 37.2989C60.1232 37.2899 60.1731 37.2836 60.225 37.2836C60.6143 37.2836 60.9355 37.5692 61 37.9436V38.218V41.4395V41.5356C60.9823 41.8353 60.8009 42.0894 60.5436 42.207L60.5213 42.2138C60.4661 42.2301 60.4081 42.2474 60.3436 42.2658C59.471 42.5157 57.7861 42.9053 55.6922 42.9672C55.6829 42.9675 55.6738 42.968 55.6646 42.9684C55.656 42.9687 55.6473 42.9692 55.6386 42.9693C55.5019 42.9809 55.3881 43.0613 55.3279 43.1772C55.3168 43.199 55.3096 43.2216 55.3023 43.2451L55.3013 43.2482C52.3791 51.2738 44.7475 57 35.7883 57C23.8037 57 14.1875 46.7551 15.0544 34.4618C15.7845 24.1035 24.0953 15.745 34.3523 15.0488C44.4627 14.3626 53.1539 20.986 55.7707 30.203C55.7763 30.2307 55.7816 30.258 55.7936 30.2832C55.8523 30.4061 55.9707 30.4901 56.1126 30.5022C56.1339 30.5016 56.1547 30.5016 56.1755 30.5012C57.876 30.4827 59.1181 30.2339 59.9133 29.9982C59.9673 29.9819 60.0168 29.9662 60.066 29.9504Z" fill="black"/>
</g>
<defs>
<clipPath id="clip0_254_6948">
<rect width="72" height="72" fill="white"/>
</clipPath>
</defs>
</svg>
