<svg width="72" height="72" viewBox="0 0 72 72" fill="none" xmlns="http://www.w3.org/2000/svg">
<g clip-path="url(#clip0_254_6180)">
<circle cx="36" cy="36" r="36" fill="#FE621F"/>
<path d="M43.0695 36.348H36C36.007 31.415 38.0109 26.6862 41.5726 23.1981C45.134 19.71 49.9624 17.7474 54.9993 17.7405V24.6642C51.8353 24.6642 48.8009 25.8952 46.5637 28.0863C44.3263 30.2775 43.0695 33.2493 43.0695 36.348Z" fill="white"/>
<path d="M35.5676 54.9554C30.5286 54.9554 25.6962 52.9951 22.1331 49.5054C18.5701 46.0159 16.5684 41.283 16.5684 36.348C16.5684 31.4129 18.5701 26.6801 22.1331 23.1905C25.6962 19.7009 30.5286 17.7405 35.5676 17.7405V24.6642C33.2082 24.6642 30.9016 25.3494 28.9398 26.6333C26.978 27.9171 25.4489 29.7419 24.546 31.8768C23.643 34.0117 23.4068 36.3609 23.8671 38.6273C24.3274 40.8939 25.4636 42.9757 27.132 44.6097C28.8004 46.2436 30.9262 47.3565 33.2402 47.8073C35.5545 48.2581 37.953 48.0267 40.133 47.1424C42.3128 46.2581 44.1759 44.7606 45.4869 42.8391C46.7978 40.9177 47.4973 38.6589 47.4973 36.348H54.5669C54.561 41.2812 52.5574 46.0108 48.9957 49.4992C45.4339 52.9874 40.6047 54.9497 35.5676 54.9554Z" fill="white"/>
</g>
<defs>
<clipPath id="clip0_254_6180">
<rect width="72" height="72" fill="white"/>
</clipPath>
</defs>
</svg>
