<svg width="72" height="72" viewBox="0 0 72 72" fill="none" xmlns="http://www.w3.org/2000/svg">
<g clip-path="url(#clip0_254_6894)">
<circle cx="36" cy="36" r="36" fill="#FBFBFB"/>
<path fill-rule="evenodd" clip-rule="evenodd" d="M25.9667 42.7171C23.6954 46.6736 21.4608 50.6667 19.1895 54.6231H59.9996C57.2154 49.7508 54.4679 44.9151 51.7204 40.1161L51.6837 40.0795C47.654 33.0091 43.6243 25.9388 39.5579 18.7952C35.0153 26.8546 30.4727 34.8042 25.9667 42.7171ZM45.5659 39.3834C47.5441 42.8636 49.559 46.3439 51.5372 49.8607H27.6152C31.6083 42.8636 35.5648 35.9765 39.5945 28.8695C41.5728 32.423 43.5876 35.9032 45.5659 39.3834Z" fill="black"/>
<path d="M34.5782 18.943H16.0781C17.6167 21.6905 19.1554 24.3648 20.694 27.0757C22.2326 29.7866 23.7712 32.4609 25.3099 35.2084C27.5812 31.252 29.7792 27.3688 31.9772 23.4856C32.8565 21.947 33.7357 20.445 34.5782 18.943Z" fill="black"/>
</g>
<defs>
<clipPath id="clip0_254_6894">
<rect width="72" height="72" fill="white"/>
</clipPath>
</defs>
</svg>
