<svg width="72" height="72" viewBox="0 0 72 72" fill="none" xmlns="http://www.w3.org/2000/svg">
<g clip-path="url(#clip0_254_7117)">
<circle cx="36" cy="36" r="36" fill="url(#paint0_linear_254_7117)"/>
<path d="M47.11 44.3529L57.9778 38.1114C58.5539 37.7799 58.91 37.165 58.91 36.5051V24.0221C58.91 23.3622 58.5539 22.7474 57.9778 22.4158L47.11 16.1743C46.5338 15.8427 45.8186 15.8459 45.2457 16.1743L34.3777 22.4158C33.8018 22.7474 33.4457 23.3622 33.4457 24.0221V46.3294L25.8239 50.7039L18.2021 46.3294V37.5772L25.8239 33.2026L30.8502 36.0898V30.2185L26.7559 27.8655C26.4744 27.7046 26.1509 27.6176 25.8239 27.6176C25.497 27.6176 25.1735 27.7046 24.8919 27.8655L14.0239 34.107C13.4478 34.4386 13.0918 35.0535 13.0918 35.7133V48.1965C13.0918 48.8563 13.4478 49.471 14.0239 49.8026L24.8919 56.0442C25.4679 56.3725 26.18 56.3725 26.7559 56.0442L37.6239 49.8026C38.2001 49.471 38.556 48.8563 38.556 48.1965V25.8859L38.6919 25.8086L46.1746 21.5113L53.7965 25.8859V34.6382L46.1746 39.0128L41.1548 36.1317V42.0032L45.2424 44.3498C45.8186 44.6781 46.5338 44.6781 47.1067 44.3498L47.11 44.3529Z" fill="white"/>
</g>
<defs>
<linearGradient id="paint0_linear_254_7117" x1="-0.233953" y1="59.7437" x2="72.8777" y2="22.1563" gradientUnits="userSpaceOnUse">
<stop stop-color="#A726C1"/>
<stop offset="0.88" stop-color="#803BDF"/>
<stop offset="1" stop-color="#7B3FE4"/>
</linearGradient>
<clipPath id="clip0_254_7117">
<rect width="72" height="72" fill="white"/>
</clipPath>
</defs>
</svg>
