<svg width="72" height="72" viewBox="0 0 72 72" fill="none" xmlns="http://www.w3.org/2000/svg">
<g clip-path="url(#clip0_118_2051)">
<path d="M33.9269 0.0607166C51.6576 -0.964181 67.4821 11.0886 71.2024 28.4504C72.2171 33.2162 72.2581 38.1459 71.3254 42.9322C68.9989 54.739 60.9432 64.5985 49.8436 69.2413C42.2798 72.4185 33.6297 72.8592 25.7687 70.5224C14.997 67.3145 6.32641 59.2691 2.3293 48.7639C-0.54041 41.2309 -0.765887 32.7345 1.69387 25.058C6.22392 10.8529 19.0454 0.911382 33.9269 0.0607166Z" fill="white"/>
<path d="M13.8478 33.3906C13.9912 34.0465 14.0732 34.7127 14.2167 35.3789C14.309 35.7786 14.4319 35.6864 14.6369 35.5121C15.0366 35.1842 15.4158 34.8255 15.8566 34.559C15.9795 34.5795 16.0513 34.682 16.1128 34.7742C17.2812 36.3013 18.8288 37.234 20.6633 37.7362C21.5037 37.9719 22.3749 38.1256 23.2461 38.2179C22.9693 37.9104 22.7439 37.5722 22.5696 37.193C22.2724 36.537 22.3749 35.9528 22.8771 35.4301C23.4818 34.7947 24.271 34.5282 25.0806 34.3232C26.7717 33.8825 28.4935 33.8415 30.2256 33.9645C31.6195 34.0568 32.9928 34.2925 34.3457 34.6717C35.4731 34.9894 36.5697 35.3584 37.5639 35.9938C37.7074 36.1066 37.7996 36.2603 37.9329 36.373C39.214 37.7464 39.9622 39.3657 40.0134 41.2413C40.0441 42.5327 39.6854 43.7728 39.0397 44.9104C37.8714 46.9602 36.1598 48.4566 34.1202 49.5942C32.0499 50.7524 29.7644 51.4698 27.3969 51.7158C23.1743 52.177 19.249 51.2546 15.6516 49.01C12.6589 47.1447 10.3529 44.5927 8.47729 41.641C7.60613 40.2369 6.83745 38.7713 6.17127 37.2545C6.08928 37.07 6.06878 36.865 5.98679 36.7113C6.03803 36.8957 6.14052 37.0905 5.94579 37.2852C5.8843 36.5165 5.95604 35.7581 5.99704 34.9997C6.09953 32.8986 6.42749 30.8181 6.97069 28.7991C9.44069 19.6672 16.0615 12.2367 24.8552 8.73155C27.4994 7.67591 30.2769 7.01997 33.1056 6.76375C37.5741 6.35379 41.8992 6.93798 46.1218 8.43433C45.4761 9.65396 41.8172 12.9131 38.968 14.8092C38.886 13.9893 38.7015 13.1796 38.4146 12.4007C38.4043 12.1957 38.5888 12.1342 38.7015 12.0317C39.296 11.5193 39.8904 11.0171 40.4849 10.5149C40.5463 10.4636 40.6078 10.4124 40.6591 10.3611C40.7308 10.2894 40.8436 10.2279 40.8128 10.1152C40.7923 10.0024 40.6591 10.0024 40.5566 9.98193C40.2799 9.92044 40.0031 9.88969 39.7162 9.87944C39.3267 9.83844 38.9373 9.7462 38.5478 9.73595C38.2403 9.71546 37.9431 9.64371 37.6459 9.66421C37.4921 9.66421 37.3384 9.65396 37.1847 9.63346C36.9285 9.55147 36.662 9.59247 36.4058 9.59247C36.252 9.59247 36.0983 9.58222 35.9343 9.59247C35.4833 9.61297 35.0426 9.54122 34.5917 9.62321C34.4789 9.64371 34.3765 9.65396 34.2637 9.65396C34.1305 9.65396 34.0075 9.66421 33.8743 9.65396C33.7103 9.63346 33.536 9.65396 33.3721 9.70521C32.9006 9.7462 32.4292 9.7872 31.9679 9.86919C31.4043 9.99218 30.8303 10.0127 30.2769 10.1562C29.7644 10.2894 29.2417 10.3611 28.7395 10.5354C28.0733 10.7199 27.4072 10.9248 26.7512 11.1503C25.7981 11.5295 24.8244 11.878 23.9123 12.3699C21.8522 13.3743 19.9254 14.6452 18.2036 16.1518C16.6047 17.5354 15.1699 19.0933 13.9297 20.8048C13.3148 21.6658 12.7409 22.5574 12.2387 23.4901C11.9107 24.0948 11.6032 24.7097 11.3163 25.3349C11.1113 25.8166 10.8653 26.2881 10.7013 26.7903C10.4963 27.2925 10.3324 27.8049 10.1684 28.3276C9.97364 28.8503 9.8609 29.3935 9.71742 29.9162C9.65592 30.1212 9.61493 30.3364 9.56368 30.5516C9.50219 30.8079 9.46119 31.0641 9.40995 31.3203C9.32796 31.7508 9.25621 32.1915 9.19472 32.6322C9.11273 33.0831 9.06148 33.5341 9.03074 33.9953C8.95899 34.2925 9.01024 34.6102 8.95899 34.9177C8.877 35.2969 8.92825 35.6864 8.90775 36.0656C8.8975 36.332 8.88725 36.5985 8.8975 36.865C8.8975 36.9777 8.84625 37.1315 8.95899 37.1827C9.09223 37.2442 9.18447 37.1007 9.28696 37.029C9.61493 36.7625 9.93265 36.4858 10.2504 36.2091C11.3265 35.2867 12.4129 34.3745 13.489 33.4521C13.5813 33.3906 13.6838 33.1856 13.8478 33.3906Z" fill="#4189C9"/>
<path d="M37.554 36.0758C36.2832 35.3174 34.8995 34.8869 33.4749 34.5487C31.6096 34.108 29.6828 33.9235 27.7663 34.026C26.4134 34.0978 25.0708 34.2823 23.8204 34.8767C23.6667 34.9484 23.5232 35.0304 23.3899 35.1227C22.3753 35.7991 22.2216 36.701 22.9595 37.6747C23.1132 37.8796 23.2772 38.0641 23.4822 38.3101C22.8262 38.3101 22.2421 38.1871 21.6681 38.0744C20.1205 37.7669 18.6652 37.234 17.4148 36.2296C16.8101 35.7479 16.2669 35.2149 15.8672 34.5385C16.0312 34.272 16.3079 34.149 16.5641 33.9953C17.0561 33.7903 17.507 33.4931 17.999 33.2676C20.182 32.2632 22.5188 31.6483 24.9068 31.4228C25.8599 31.3305 26.8131 31.2383 27.7765 31.2793C30.6052 31.392 33.4134 31.884 36.1089 32.7347C36.8059 32.9499 37.4925 33.1959 38.2202 33.4316C38.2202 33.2266 38.1075 33.1036 38.0255 32.9704C37.7385 32.4784 37.4003 32.007 37.0313 31.5663C36.8981 31.4023 36.7034 31.2691 36.7136 31.0231C37.0928 31.1153 37.4823 31.1973 37.8615 31.2896C37.964 31.31 38.087 31.3715 38.1485 31.2896C38.2407 31.1768 38.1075 31.0846 38.046 31.0026C37.4823 30.1622 36.7854 29.4447 36.0269 28.7786C36.4266 28.5428 36.8366 28.7376 37.2261 28.7888C41.2129 29.3013 44.8411 30.7156 48.008 33.1959C52.1998 36.4858 54.9056 40.7289 56.0534 45.9558C56.4224 47.6982 56.5351 49.4917 56.4019 51.2648C56.1764 54.3498 55.2028 57.199 53.3784 59.7305C53.2555 59.8945 53.0915 60.0277 53.0095 60.2224C52.5995 60.8374 51.9846 61.2576 51.4311 61.7085C48.4077 64.1683 44.8718 65.4494 41.0694 66.0438C38.1075 66.5153 35.0943 66.5665 32.1221 66.1976C27.4383 65.6236 22.9595 63.9325 19.0649 61.2678C18.1117 60.6221 17.1791 59.9559 16.3489 59.1565C16.3181 59.136 16.3181 59.095 16.3386 59.0643L16.3489 59.054C16.5231 58.9823 16.6359 59.1155 16.7588 59.1975C18.7472 60.6939 21.0122 61.7905 23.4207 62.4362C24.2304 62.6412 25.04 62.8052 25.8702 62.9282C26.0547 62.9999 26.2597 62.9589 26.4441 62.9999C26.4851 62.9999 26.5261 63.0101 26.5569 63.0204C28.4222 63.2459 30.2875 63.1126 32.1323 62.7847C36.1807 62.0672 39.7883 60.3762 42.863 57.6397C44.964 55.7846 46.6244 53.5913 47.5058 50.8856C48.3872 48.1799 48.2642 45.5459 47.0241 42.9426C46.7679 44.111 46.1632 45.0744 45.3945 45.9558C44.6258 46.8168 43.7239 47.5547 42.7195 48.1286C42.6068 48.2004 42.4735 48.3234 42.3403 48.2209C42.2276 48.1286 42.2891 47.9749 42.3301 47.8622C42.576 47.0525 42.74 46.2223 42.8323 45.3819C43.191 41.846 41.8278 39.089 39.0094 37.0085C38.5379 36.66 38.0562 36.3525 37.554 36.0758Z" fill="#262F71"/>
<path d="M25.8693 62.9998C24.8342 62.8973 23.8093 62.682 22.8049 62.3746C20.9191 61.8006 19.1357 60.9705 17.4857 59.8841C17.0962 59.6278 16.758 59.2794 16.3378 59.0744C16.0918 59.0437 15.9893 58.7977 15.7946 58.6952C11.654 55.0158 8.82528 50.496 7.20594 45.2178C6.41677 42.6555 5.98631 39.9908 5.94531 37.3056C5.95556 37.1006 5.96581 36.9059 5.98631 36.5881C6.19129 37.0391 6.34502 37.3876 6.50901 37.7463C7.99511 41.0157 9.90142 43.9879 12.5252 46.4682C15.3129 49.1021 18.5618 50.865 22.3847 51.4799C26.8635 52.2076 31.0553 51.4287 34.9089 49.0099C36.8357 47.8005 38.4038 46.2529 39.316 44.1314C40.4126 41.5589 40.0027 39.1709 38.3218 36.9674C38.1784 36.7726 38.0144 36.5881 37.8709 36.4037C38.0656 36.2294 38.1783 36.4344 38.2911 36.5266C39.2852 37.3568 40.0744 38.4022 40.6074 39.5911C41.1198 40.7287 41.3965 41.9484 41.4068 43.1987C41.4273 44.4696 41.1403 45.7302 40.5869 46.8781C40.7099 46.8781 40.8226 46.8371 40.9148 46.7551C41.4478 46.4477 41.95 46.0889 42.4214 45.6892C42.5649 45.5662 42.6982 45.3715 42.9339 45.4023C42.8109 46.3657 42.5957 47.3188 42.3087 48.2515C42.9236 47.903 43.5181 47.5135 44.0818 47.0728C44.5225 46.7244 44.8812 46.2939 45.3219 45.9352C45.5064 46.0172 45.5064 46.2017 45.5474 46.3554C46.2546 48.9177 45.7421 51.3057 44.4815 53.5604C42.9441 56.2969 40.6894 58.3365 38.0656 59.9866C35.9441 61.3189 33.6176 62.2721 31.1681 62.805C29.6307 63.1535 28.0524 63.2457 26.4843 63.0817C26.2793 62.969 26.0641 63.092 25.8693 62.9998Z" fill="#161F42"/>
<path d="M64.6114 43.9981C64.4782 41.0669 63.7505 38.1972 62.4796 35.553C61.6495 33.8311 60.6041 32.2221 59.364 30.7667C58.2468 29.4446 56.9657 28.3172 55.6128 27.2411C55.7358 27.1181 55.8998 27.1386 56.0433 27.1591C57.9291 27.3743 59.7739 27.815 61.5572 28.4709C61.9979 28.6349 62.4284 28.8296 62.8384 29.0654C62.9818 29.1371 63.1253 29.2191 63.2688 29.3113C63.2996 29.3318 63.3201 29.3831 63.3713 29.3728C63.3406 29.3318 63.3303 29.2806 63.3508 29.2294C62.1414 27.651 60.6656 26.3289 59.1282 25.0785C57.2937 23.5924 55.2951 22.3215 53.1633 21.2966C50.2116 19.8413 47.0447 18.8881 43.7753 18.4884C43.4883 18.4474 43.1808 18.4884 42.9041 18.3859C42.8836 18.1912 43.0476 18.1297 43.1603 18.0375C45.0769 16.4386 46.6142 14.5528 47.7006 12.3083C48.0286 11.6319 48.3053 10.9247 48.5308 10.2073C48.5923 10.0023 48.6333 9.7768 48.8383 9.65381C52.2717 11.3039 55.3464 13.5997 57.9086 16.4181C64.7139 23.8999 67.2762 34.3026 64.7344 44.0904C64.6627 44.1211 64.6524 44.0494 64.6114 43.9981Z" fill="#4189C9"/>
<path d="M52.9982 60.2224C52.9982 59.9251 53.234 59.7509 53.3877 59.5357C54.7918 57.5371 55.6425 55.3234 56.0832 52.9251C56.3599 51.439 56.3804 49.9426 56.2882 48.4565C56.1344 46.171 55.5502 43.9675 54.6278 41.8562C53.9514 40.3086 53.1007 38.843 52.0963 37.4901C51.0202 36.0655 49.7698 34.7639 48.3862 33.6365C46.2544 31.8737 43.7947 30.5516 41.1504 29.7316C39.7463 29.2807 38.2909 28.9835 36.8253 28.84C36.5589 28.8195 36.3026 28.7477 36.0259 28.7682C35.0933 28.0816 34.1401 27.4154 33.0742 26.9337L33.0845 26.8312C33.4637 26.8312 33.8531 26.8414 34.2324 26.8312C39.6028 26.7389 44.5633 28.0508 48.8884 31.3202C53.3672 34.7127 56.1754 39.1915 57.2208 44.7259C58.1125 49.4404 57.4258 53.8987 54.8021 57.9881C54.2896 58.8183 53.7259 59.5869 52.9982 60.2224Z" fill="#161F42"/>
<path d="M48.8587 9.65388C48.3257 11.304 47.6493 12.8823 46.6757 14.3274C45.702 15.7828 44.5131 17.0844 43.15 18.1913C43.068 18.2528 42.9963 18.3245 42.9245 18.3963C42.4531 18.632 42.0636 19.0009 41.6332 19.2879C40.0446 20.3333 38.3432 21.2147 36.5702 21.9014C36.5292 21.9117 36.4779 21.9219 36.4369 21.9322C36.3549 21.8194 36.4472 21.7784 36.4984 21.7272C37.5028 20.7638 38.128 19.5851 38.5482 18.2733C38.5892 18.099 38.7122 17.9556 38.8762 17.9043C42.0021 16.6642 44.5029 14.6144 46.5424 11.9701C46.7269 11.7344 46.9114 11.4884 47.1369 11.181C46.5014 11.1707 46.0197 11.4884 45.4868 11.5704C45.3843 11.5807 45.251 11.6627 45.2305 11.4679C47.1676 9.20292 48.6332 6.55869 49.5146 3.71972C49.5659 3.53524 49.5146 3.28926 49.7708 3.19702C49.7913 3.20727 49.8016 3.22777 49.7913 3.24827C49.7913 3.26876 49.7811 3.27901 49.7811 3.27901C49.7504 5.30831 49.4634 7.32736 48.9304 9.28491C48.8997 9.39765 48.8792 9.52064 48.8587 9.65388Z" fill="#161F42"/>
<path d="M36.7027 31.0332C37.3381 31.7301 37.8916 32.509 38.3528 33.3392C38.3938 33.4212 38.5065 33.5134 38.404 33.6057C38.3221 33.6774 38.2401 33.5852 38.1581 33.5544C36.0775 32.7755 33.9355 32.1913 31.7422 31.8121C30.6353 31.6174 29.5182 31.5354 28.401 31.4534C27.3966 31.3919 26.382 31.4021 25.3776 31.4944C23.0818 31.6789 20.8475 32.1708 18.7158 33.0932C18.0598 33.3802 17.3936 33.6364 16.7787 34.0156C16.707 34.0566 16.625 34.1284 16.543 34.0259C18.3878 32.7243 20.4376 31.7404 22.6104 31.1152C25.6031 30.2235 28.647 30.0083 31.7525 30.244C33.3308 30.367 34.8989 30.613 36.4362 30.9614C36.5387 30.9717 36.6207 31.0024 36.7027 31.0332Z" fill="#161F42"/>
<path d="M35.9338 9.48999H36.395C36.641 9.59248 36.9177 9.45924 37.1637 9.56173H37.6249C37.6659 9.78721 37.4814 9.87945 37.3584 9.98194C35.2266 11.7858 33.1153 13.5998 30.9836 15.3934C30.2764 15.9878 29.5794 16.5823 28.8825 17.1767C28.7698 17.2485 28.6878 17.351 28.6365 17.4637C27.7141 17.8122 26.8532 18.2426 26.1768 18.9908C25.8591 19.3495 25.6438 19.7595 25.4184 20.1694C24.7829 20.5794 24.25 21.1226 23.676 21.6043C22.1592 22.8752 20.6628 24.1768 19.146 25.4374C19.023 25.5399 18.9308 25.6936 18.7873 25.7756C18.5311 25.3862 18.5823 24.9557 18.6438 24.5355C18.8385 24.2178 19.1357 24.023 19.4022 23.7873C20.8781 22.5369 22.3437 21.2866 23.8093 20.0362C25.2441 18.8166 26.6687 17.5969 28.1036 16.3876C29.7537 14.9937 31.3935 13.5896 33.0436 12.1855C33.9558 11.4065 34.8679 10.6174 35.8006 9.85895C35.9441 9.76671 36.0363 9.67447 35.9338 9.48999Z" fill="#5C94CE"/>
<path d="M62.9089 29.1783C61.105 28.3071 59.1885 27.7639 57.2207 27.4462C56.6877 27.3642 56.165 27.2515 55.6321 27.2515C54.9454 26.821 54.269 26.3598 53.5618 25.9498C51.2763 24.6277 48.7755 23.7258 46.162 23.3056C46.1005 23.2851 46.0493 23.2646 45.998 23.2441C46.777 23.1006 49.452 23.5003 51.2968 24.0128C53.0186 24.4842 54.6789 25.1299 56.2675 25.9601C56.1035 25.4579 55.7961 25.1299 55.6116 24.7302C55.5911 24.6277 55.4476 24.5355 55.5399 24.4227C55.6321 24.31 55.7551 24.433 55.8473 24.474C56.1138 24.597 56.37 24.7405 56.6365 24.8634C58.8708 26.0216 60.9821 27.4154 62.9294 29.0143C63.0319 29.1475 63.0319 29.1475 62.9089 29.1783Z" fill="#161F42"/>
<path d="M35.9346 9.48986C35.9858 9.6026 36.1293 9.52061 36.201 9.6436C35.7706 10.0126 35.3401 10.3918 34.9097 10.7607C34.1205 11.4269 33.3313 12.0931 32.5421 12.7593C31.425 13.7022 30.3079 14.6553 29.1805 15.5983C28.4016 16.2542 27.6431 16.9306 26.8642 17.5968C25.9213 18.3962 24.9682 19.1854 24.0355 19.9848C23.2873 20.6203 22.5494 21.2659 21.8012 21.9014C21.012 22.5676 20.2229 23.2337 19.4337 23.8999L18.6445 24.5661L18.87 23.5617C18.747 23.2337 19.0135 23.0903 19.1877 22.9365C19.9052 22.3421 20.6123 21.7271 21.3195 21.1225C22.9798 19.7183 24.6299 18.304 26.2903 16.8999C27.7149 15.6905 29.1395 14.4811 30.5641 13.2717C31.8862 12.1443 33.2186 11.0272 34.5304 9.87932C34.6329 9.78708 34.8277 9.68459 34.5407 9.57186C35.0019 9.40787 35.4734 9.53086 35.9346 9.48986Z" fill="#6497D0"/>
<path d="M34.5517 9.57197C34.6541 9.59246 34.7771 9.53097 34.8899 9.62321C34.6234 10.0229 34.2237 10.2791 33.865 10.5866C32.8606 11.468 31.8357 12.3289 30.821 13.1899C29.8884 13.979 28.9455 14.7579 28.0128 15.5471C27.0802 16.3363 26.1475 17.1562 25.2046 17.9556C24.2617 18.755 23.329 19.5237 22.3964 20.3129C21.4637 21.1021 20.5311 21.9117 19.5882 22.7214C19.3114 22.9674 18.9322 23.1314 18.8605 23.5516C18.3685 23.6131 18.102 24.023 17.7433 24.2895C17.1694 24.6995 16.7287 25.2632 16.206 25.7244C15.673 26.1036 15.2016 26.5545 14.7096 26.9747C13.2338 28.2251 11.7682 29.4857 10.2923 30.7259C10.0873 30.9001 9.90286 31.1051 9.67739 31.2486C9.5749 31.31 9.48266 31.433 9.33917 31.3305C9.32892 31.0641 9.38017 30.7976 9.49291 30.5619C10.2308 30.0904 10.8458 29.4652 11.512 28.9118C13.3465 27.3744 15.1606 25.8166 16.9849 24.269C18.8092 22.7214 20.6028 21.1841 22.4169 19.6467C24.1899 18.1401 25.963 16.6335 27.7361 15.1269C29.5502 13.5896 31.3642 12.0522 33.168 10.5046C33.5268 10.1972 33.906 9.91018 34.2442 9.58221L34.5517 9.57197Z" fill="#689AD1"/>
<path d="M38.5471 9.64372C38.9673 9.63347 39.367 9.74621 39.777 9.79746C39.8897 10.0434 39.6745 10.1357 39.5515 10.2484C39.0391 10.6994 38.5061 11.1196 38.0039 11.5808C37.9527 11.509 37.8912 11.4373 37.8399 11.3655C37.7272 11.2016 37.6452 11.2426 37.5734 11.3963C36.9688 12.6979 35.9336 13.5998 34.796 14.3992C33.5251 15.2909 32.1517 16.0391 30.7066 16.6335C30.6246 16.49 30.6246 16.4798 30.7579 16.3466C31.0346 16.0596 31.3523 15.8239 31.6495 15.5676C33.8326 13.7126 36.0156 11.8677 38.1884 9.99219C38.3114 9.8897 38.4241 9.76671 38.5471 9.64372Z" fill="#4E8FCC"/>
<path d="M38.5472 9.64377C38.537 9.76676 38.4652 9.88975 38.3627 9.96149C36.9586 11.1504 35.5545 12.3495 34.1504 13.5384C33.0743 14.4505 32.0084 15.373 30.9322 16.2954C30.84 16.3774 30.6555 16.4388 30.7068 16.6336C30.0303 16.9513 29.3334 17.2383 28.6262 17.474C28.3905 17.4125 28.5852 17.3203 28.6262 17.2793C29.0464 16.9103 29.4666 16.5413 29.8971 16.1826C30.676 15.5164 31.4652 14.8503 32.2543 14.1841C33.0333 13.5281 33.8122 12.8722 34.5809 12.2163C35.3495 11.5603 36.1285 10.8941 36.8971 10.228C37.1431 10.0127 37.4506 9.84875 37.6146 9.55153C37.9323 9.53103 38.2397 9.63352 38.5472 9.64377Z" fill="#5591CD"/>
<path d="M33.0954 18.8883C33.9051 18.4886 34.7558 18.1504 35.4629 17.5662C35.6064 17.556 35.5962 17.6482 35.5552 17.7404C34.8992 20.4462 32.8495 22.2295 30.072 22.4857C29.539 22.537 29.0061 22.5985 28.4629 22.5472C28.5346 22.3525 28.7191 22.3627 28.8728 22.3217C29.4775 22.1578 30.072 21.9835 30.6357 21.6966C31.6811 21.1534 32.4497 20.3539 32.8904 19.2573C32.9212 19.1138 32.9929 18.9806 33.0954 18.8883Z" fill="#161F42"/>
<path d="M33.095 18.8882C32.7568 20.1796 31.9369 21.0712 30.7992 21.7169C30.0716 22.1269 29.2619 22.3216 28.4625 22.5471C28.2677 21.9731 28.483 21.4914 28.8212 21.0507C29.2209 20.5383 29.7743 20.2206 30.3585 19.9541C31.2502 19.5441 32.1623 19.1957 33.095 18.8882Z" fill="#418AC9"/>
<path d="M9.33876 31.3203C9.78972 31.1563 10.0869 30.7669 10.4456 30.4696C11.6038 29.5165 12.7414 28.5428 13.8791 27.5794C14.4837 27.067 15.0679 26.5545 15.6624 26.0318C15.8264 25.8883 15.9698 25.7346 16.2056 25.7141C15.5906 26.4828 15.0064 27.272 14.5657 28.1636C13.3871 29.1578 12.2085 30.1622 11.0401 31.1666C10.4969 31.6278 9.94345 32.0787 9.4105 32.5604C9.32851 32.6322 9.23627 32.7244 9.11328 32.6219C9.13378 32.1915 9.20552 31.7508 9.33876 31.3203Z" fill="#6497D0"/>
<path d="M13.848 33.3906C13.4892 33.4214 13.3253 33.7391 13.0793 33.9338C12.0646 34.7537 11.091 35.5941 10.1071 36.4448C9.77911 36.7318 9.46139 37.0188 9.11292 37.2852C8.88744 37.4595 8.7952 37.3877 8.80545 37.1212C8.80545 36.8035 8.80545 36.4858 8.80545 36.1578C9.16417 35.7684 9.58437 35.4712 9.98408 35.1329C11.132 34.1593 12.2594 33.1754 13.4277 32.2222C13.5302 32.1402 13.6122 31.9865 13.7865 32.089L13.848 33.3906Z" fill="#468CCA"/>
<path d="M18.7891 25.7962C18.7993 25.6629 18.8711 25.5502 18.9838 25.4785C19.9062 24.6995 20.8286 23.9206 21.751 23.1417C22.5094 22.5063 23.2576 21.8503 24.016 21.2046C24.4158 20.8664 24.8052 20.5179 25.1947 20.1797C25.2664 20.1182 25.3382 20.067 25.4099 20.1797C25.3279 20.5282 25.2254 20.8767 25.2357 21.2456C24.8257 21.6966 24.3235 22.0553 23.8623 22.455C22.4274 23.6849 20.9926 24.9045 19.5577 26.1241C19.4962 26.1754 19.4552 26.2369 19.404 26.2984C19.1273 26.2471 18.8916 26.0626 18.7891 25.7962Z" fill="#5591CD"/>
<path d="M9.10299 32.6321C9.43095 32.5296 9.62568 32.2427 9.88191 32.0377C11.2348 30.9206 12.5569 29.7829 13.8995 28.6453C14.1147 28.471 14.2582 28.2046 14.5759 28.1738C14.33 28.7785 14.125 29.3935 13.961 30.0186C13.7253 29.9981 13.6023 30.1826 13.4486 30.3159C12.0547 31.515 10.6506 32.6936 9.25672 33.8825C9.17473 33.9543 9.09274 34.0567 8.9595 34.0157C8.939 33.5443 8.99025 33.0831 9.10299 32.6321Z" fill="#5C94CE"/>
<path d="M19.4034 26.2984C19.3112 26.1241 19.4649 26.0729 19.5572 26.0011C20.7358 24.9967 21.9144 23.9923 23.0931 22.9982C23.7593 22.4345 24.4254 21.8708 25.1019 21.3071C25.1429 21.2866 25.1941 21.2661 25.2454 21.2559C25.2454 21.5736 25.2966 21.881 25.3888 22.1783C24.9891 22.6497 24.4767 22.9982 24.0155 23.3979C22.9803 24.2896 21.9452 25.171 20.8895 26.0524C20.8178 26.1036 20.7563 26.1754 20.7358 26.2574C20.2951 26.4213 19.8544 26.4828 19.4034 26.2984Z" fill="#4E8FCC"/>
<path d="M13.766 32.0992C13.3356 32.3452 12.9871 32.7039 12.6079 33.0216C11.6035 33.8416 10.6196 34.682 9.64596 35.5326C9.37948 35.7684 9.13351 36.0246 8.79529 36.1783C8.83629 35.7684 8.7133 35.3482 8.86703 34.9485C10.3839 33.6571 11.9007 32.3657 13.4278 31.0743C13.5303 30.9821 13.6431 30.8796 13.7968 30.9514L13.766 32.0992Z" fill="#4E8FCC"/>
<path d="M13.8066 30.9411C13.3146 31.1973 12.9457 31.6073 12.5255 31.9557C11.5313 32.7756 10.5679 33.6161 9.58401 34.436C9.36878 34.6205 9.21505 34.9074 8.88708 34.9382C8.92808 34.6307 8.80509 34.313 8.96907 34.0158C9.92223 33.1959 10.8856 32.3759 11.849 31.5663C12.4947 31.0128 13.1507 30.4696 13.8066 29.9162C14.0116 29.7419 13.9603 29.9367 13.9706 30.0289C13.8988 30.3261 13.8578 30.6336 13.8066 30.9411Z" fill="#5591CD"/>
<path d="M20.7363 26.2676C20.5928 26.1651 20.6953 26.0933 20.7671 26.0216C21.669 25.2632 22.5811 24.5047 23.4831 23.7463C24.0467 23.2749 24.6002 22.7932 25.1639 22.3115C25.2254 22.2397 25.2971 22.1987 25.3894 22.1782L25.6148 22.6394C25.4406 22.9161 25.1536 23.0801 24.9487 23.3364C23.8418 24.5662 22.5914 25.6014 21.0233 26.1958C20.9311 26.2266 20.8388 26.2471 20.7363 26.2676Z" fill="#488DCA"/>
<path d="M38.0039 11.5909C38.1474 11.1605 38.5983 11.0272 38.8648 10.7198C39.1518 10.3918 39.613 10.2483 39.7872 9.79736C40.1254 9.79736 40.4432 9.8896 40.7609 9.94085C41.0376 9.99209 41.0581 10.1151 40.8634 10.2893C40.4432 10.6583 40.023 11.0375 39.6028 11.3962C39.203 11.7344 38.8033 12.0726 38.4036 12.4109C38.2601 12.1341 38.1269 11.8574 38.0039 11.5909Z" fill="#468CCA"/>
<path d="M19.0244 29.1167C19.0962 29.291 18.8912 29.3729 18.9117 29.5267C18.8092 29.0552 18.553 28.881 18.0815 28.9732C17.5793 29.086 17.1283 29.3422 16.7901 29.7317C16.6979 29.8342 16.5852 29.9264 16.4827 30.0186C16.4007 29.9161 16.4827 29.8239 16.5134 29.7317C16.7184 29.0655 17.1693 28.594 17.733 28.2148C17.856 28.1226 17.9995 28.0611 18.1532 28.0201C18.8092 27.8663 19.1679 28.1841 19.0757 28.8503C19.0859 28.9425 19.0654 29.0347 19.0244 29.1167Z" fill="#428AC9"/>
<path d="M19.0226 29.1167C19.0226 29.0143 19.0328 28.9118 19.0328 28.8093C19.0431 28.1431 18.6639 27.8869 18.0387 28.1738C17.3213 28.5018 16.8703 29.086 16.5526 29.7932C16.4809 29.8034 16.4399 29.7829 16.4604 29.7009C16.6858 28.8605 17.1265 28.1738 17.8542 27.6819C18.0387 27.5589 18.2437 27.4872 18.4487 27.4462C18.7869 27.3744 19.1251 27.5794 19.2071 27.9176C19.3198 28.3173 19.2583 28.758 19.0226 29.1167Z" fill="#182144"/>
<path d="M24.9483 23.3363C24.8151 23.2338 24.938 23.1929 24.9995 23.1416C25.2148 22.9879 25.3378 22.7214 25.6042 22.6394C25.9527 23.1928 26.5061 23.4388 27.0903 23.6438C27.2031 23.6848 27.3261 23.7155 27.5208 23.7668C26.6291 24.0025 25.8605 23.9103 25.1533 23.4286C25.102 23.3671 25.0303 23.3363 24.9483 23.3363Z" fill="#458CCA"/>
<path d="M56.6268 24.8532C56.3398 24.8225 56.1349 24.6277 55.8786 24.5355C55.7761 24.4945 55.6839 24.3715 55.5814 24.4535C55.4994 24.5252 55.6327 24.6277 55.6019 24.7302C55.4482 24.597 55.3867 24.392 55.3047 24.1973C55.7659 24.3817 56.2168 24.5662 56.6268 24.8532Z" fill="#63657D"/>
<path d="M62.9102 29.1781C62.9921 29.1269 62.9102 29.0654 62.9204 29.0039L63.3611 29.2499L63.5968 29.5574C63.3099 29.4754 63.1151 29.3114 62.9102 29.1781Z" fill="#263154"/>
<path d="M45.25 23.1109C45.455 23.0801 45.6702 23.1006 45.8649 23.1519C45.619 23.2954 45.455 23.2749 45.25 23.1109Z" fill="#A09AA9"/>
<path d="M15.7949 58.6851C16.0306 58.7261 16.1434 58.9618 16.3381 59.0643L16.3279 59.1565C16.1126 59.054 15.9282 58.89 15.7949 58.6851Z" fill="#424A7F"/>
<path d="M64.6113 43.9983L64.7446 44.0803C64.7651 44.234 64.6933 44.3673 64.6113 44.5517V43.9983Z" fill="#8CB7DE"/>
<path d="M45.2296 11.4885C45.2809 11.6013 45.4039 11.5603 45.4859 11.591L45.0759 11.755C45.0452 11.5808 45.1476 11.5398 45.2296 11.4885Z" fill="#5A5D76"/>
<path d="M16.4716 29.7009L16.5639 29.7932C16.5434 29.8649 16.5126 29.9469 16.4921 30.0186L16.3281 30.2339C16.3691 29.9777 16.3794 29.8239 16.4716 29.7009Z" fill="#4F668A"/>
<path d="M35.5551 17.7302C35.5346 17.6687 35.5449 17.5867 35.4629 17.5559C35.4834 17.4944 35.5551 17.4125 35.5859 17.4432C35.6781 17.5354 35.6371 17.6379 35.5551 17.7302Z" fill="#555A73"/>
<path d="M9.64648 29.9366C9.74897 29.3831 9.86171 28.8297 10.1077 28.3172C11.0096 27.6818 11.809 26.9234 12.6494 26.2162C14.1048 24.9863 15.5601 23.7564 17.0052 22.5163C18.3274 21.3889 19.6495 20.2615 20.9819 19.1341C22.4167 17.9145 23.8516 16.6949 25.2864 15.4753C26.588 14.3684 27.8999 13.2615 29.2015 12.1443C30.1137 11.3654 31.0464 10.5967 31.938 9.79732C32.4197 9.68458 32.9014 9.62308 33.3934 9.64358C33.4344 9.60259 33.4959 9.60259 33.5471 9.62308C33.6598 9.80757 33.5164 9.91005 33.4036 10.0125C32.1635 11.0579 30.9336 12.1136 29.6935 13.1692C28.3714 14.2864 27.0595 15.4035 25.7374 16.5309C24.5178 17.566 23.3084 18.6012 22.0887 19.6363C20.6129 20.897 19.1268 22.1473 17.6407 23.408C15.7959 24.9658 13.9613 26.5441 12.1165 28.102C11.3991 28.7067 10.7021 29.3216 9.97445 29.9058C9.91296 29.9776 9.78997 30.2133 9.64648 29.9366Z" fill="#6D9CD2"/>
<path d="M31.9363 9.79736C31.803 10.2278 31.3931 10.3918 31.0959 10.6583C30.1222 11.5192 29.1178 12.3494 28.1339 13.1898C27.027 14.1224 25.9099 15.0551 24.803 15.998C23.8396 16.8179 22.8967 17.6481 21.9333 18.468C21.0006 19.2572 20.0577 20.0361 19.1251 20.8355C18.1924 21.6349 17.27 22.4344 16.3373 23.2235C15.4047 24.0127 14.472 24.8019 13.5291 25.591C12.7604 26.247 12.002 26.9029 11.2333 27.5588C10.9259 27.8253 10.6082 28.0815 10.2904 28.3378C10.2187 28.389 10.1572 28.4198 10.0957 28.3378C10.2084 27.8048 10.3827 27.2821 10.6286 26.8004C11.3358 26.3495 11.9303 25.7653 12.5657 25.2323C14.0211 24.0024 15.4764 22.7726 16.9215 21.5324C18.4179 20.2513 19.9245 18.9702 21.4208 17.6993C22.661 16.6437 23.9011 15.5983 25.131 14.5426C26.74 13.1795 28.3389 11.7959 29.9582 10.443C30.0812 10.3611 30.1735 10.2483 30.2247 10.1253C30.7884 9.89985 31.3726 9.9101 31.9363 9.79736Z" fill="#729FD4"/>
<path d="M30.2469 10.1047C30.4826 10.1662 30.2879 10.2585 30.2469 10.2995C29.8165 10.6889 29.3758 11.0784 28.9248 11.4576C28.1459 12.1135 27.367 12.7695 26.588 13.4254C25.4504 14.3786 24.3128 15.342 23.1751 16.3054C22.2425 17.0945 21.3201 17.9042 20.3874 18.6934C19.424 19.5133 18.4606 20.323 17.4972 21.1326C16.5645 21.9218 15.6421 22.7212 14.7095 23.5206C13.7768 24.3098 12.8442 25.099 11.9115 25.8882C11.5733 26.1751 11.2351 26.4621 10.8866 26.7491C10.8149 26.8003 10.7431 26.9336 10.6406 26.7901C10.7431 26.2674 11.0198 25.8062 11.2556 25.3347C12.5162 24.2586 13.7871 23.1824 15.0579 22.096C16.3596 20.9789 17.6714 19.872 18.973 18.7651C20.2234 17.6992 21.4635 16.6436 22.7139 15.5879C24.0258 14.4708 25.3479 13.3434 26.6598 12.2263C27.3362 11.6523 28.0024 11.0476 28.7096 10.4839C29.1913 10.2585 29.7242 10.197 30.2469 10.1047Z" fill="#78A2D5"/>
<path d="M28.7079 10.4841C28.216 11.1196 27.56 11.5603 26.9656 12.083C26.1867 12.7594 25.3975 13.4256 24.6083 14.0918C23.8397 14.7375 23.071 15.3831 22.3023 16.0391C21.5336 16.695 20.7752 17.3509 20.0065 17.9966C19.2379 18.6526 18.4487 19.3085 17.6698 19.9644C16.9113 20.6101 16.1632 21.2558 15.4047 21.9015C14.4413 22.7214 13.4779 23.5311 12.5145 24.3407C12.1763 24.6277 11.8278 24.9147 11.4896 25.2017C11.4281 25.2632 11.3461 25.3042 11.2539 25.3144C11.4999 24.6687 11.8073 24.0538 12.1763 23.4696C13.9289 22.045 15.6405 20.5589 17.3623 19.0933C19.3608 17.3919 21.3594 15.7111 23.3477 13.9995C24.4648 13.0361 25.6332 12.1137 26.7196 11.0991C27.3551 10.8428 28.0212 10.6379 28.7079 10.4841Z" fill="#7DA5D6"/>
<path d="M26.7088 11.1094C26.7908 11.2426 26.6473 11.2836 26.5858 11.3451C25.7352 12.0933 24.8743 12.8312 24.0134 13.5691C23.2549 14.2148 22.4965 14.8503 21.7381 15.4959C20.7952 16.2954 19.8523 17.0948 18.9094 17.8839C18.1407 18.5399 17.3823 19.1958 16.6136 19.8415C15.6502 20.6614 14.6868 21.4711 13.7336 22.2808C13.3339 22.619 12.9342 22.9674 12.5447 23.3057C12.4423 23.4081 12.309 23.4696 12.1758 23.4901C12.6472 22.537 13.2212 21.6351 13.8669 20.8049C14.4613 20.3642 15.0045 19.862 15.5682 19.3905C17.0338 18.1504 18.4892 16.9103 19.9445 15.6702C21.0719 14.7068 22.1993 13.7434 23.3267 12.7902C23.5009 12.6467 23.7161 12.5442 23.8494 12.3495C24.7513 11.7858 25.7352 11.4578 26.7088 11.1094Z" fill="#81A7D8"/>
<path d="M42.9237 45.392C42.155 46.0274 41.3863 46.6731 40.3614 47.1138C40.6587 46.5194 40.8841 45.8942 41.0379 45.2485C41.6426 42.5838 41.0789 40.1548 39.5108 37.9512C39.1213 37.408 38.5986 36.9878 38.1374 36.5061C38.0657 36.4241 37.9837 36.3319 37.8504 36.3934C37.707 36.3216 37.6455 36.1884 37.543 36.0859C37.6045 36.0039 37.6762 36.0449 37.7479 36.0859C39.603 37.1416 41.1506 38.5047 42.1038 40.4622C42.565 41.4256 42.8519 42.471 42.9442 43.5369C43.0057 44.1519 42.9954 44.777 42.9237 45.392Z" fill="#0E1F66"/>
<path d="M9.64592 29.9367C9.95339 30.0495 10.0559 29.742 10.2096 29.619C11.7675 28.3277 13.3048 27.0158 14.8422 25.6937C16.2975 24.4535 17.7324 23.2032 19.1877 21.963C20.8071 20.5897 22.4366 19.2266 24.0662 17.8532C25.5216 16.6131 26.9667 15.3627 28.422 14.1226C29.9901 12.7902 31.5582 11.4476 33.1366 10.105C33.3006 9.97173 33.526 9.89999 33.5568 9.64376C33.649 9.56177 33.772 9.65401 33.8643 9.57202H34.2537C34.141 9.98198 33.7413 10.1255 33.4645 10.3714C32.6651 11.0889 31.835 11.7653 31.0253 12.452C30.0926 13.2412 29.1497 14.0303 28.2171 14.8195C27.4586 15.4652 26.7105 16.1109 25.952 16.7566C24.8349 17.6995 23.7075 18.6424 22.6006 19.5955C21.8422 20.2412 21.094 20.8869 20.3356 21.5326C19.3722 22.3525 18.4088 23.1622 17.4454 23.9718C16.687 24.6175 15.9388 25.2632 15.1804 25.9089C14.4014 26.5648 13.6225 27.2208 12.8436 27.8767C12.0647 28.5326 11.296 29.2091 10.5171 29.865C10.2506 30.0905 9.96364 30.316 9.68692 30.5414C9.62542 30.5927 9.56393 30.6337 9.49219 30.5414C9.49219 30.3467 9.54343 30.1315 9.64592 29.9367Z" fill="#699AD1"/>
<path d="M23.8619 12.3289C23.8004 12.6978 23.4417 12.7901 23.2162 12.995C22.427 13.7022 21.6174 14.3684 20.8077 15.0551C19.8648 15.8545 18.9219 16.6437 17.979 17.4431C17.2206 18.0888 16.4724 18.7345 15.714 19.3802C15.1605 19.8516 14.6173 20.3231 14.0639 20.7945C14.0024 20.8458 13.9409 20.8868 13.8691 20.7945C14.2689 20.1796 14.7198 19.5954 15.2118 19.0419C17.0156 16.9409 19.0756 15.1166 21.4329 13.651C22.2221 13.1693 23.001 12.6671 23.8619 12.3289Z" fill="#88ABD9"/>
<path d="M37.1652 9.57187C36.9089 9.54112 36.6425 9.65386 36.3965 9.50013C36.6527 9.53087 36.9192 9.41814 37.1652 9.57187Z" fill="#5591CD"/>
<path d="M33.8538 9.57192C33.7718 9.68466 33.6488 9.63341 33.5463 9.64366H33.3926C33.5361 9.51043 33.7 9.59242 33.8538 9.57192Z" fill="#689AD1"/>
<path d="M26.4746 63.0717C28.9856 63.1844 31.4864 62.7847 33.8334 61.9136C36.1189 61.0834 38.2507 59.8843 40.1467 58.3572C42.0018 56.8506 43.6007 55.1287 44.6665 52.9662C45.2405 51.8081 45.5992 50.5577 45.7119 49.2766C45.8144 48.1184 45.6197 47.0218 45.302 45.9354C45.3327 45.6689 45.5787 45.5459 45.7222 45.3615C46.2756 44.6338 46.6753 43.8549 46.8496 42.953C46.8803 42.83 46.9213 42.7172 46.9726 42.6045C47.321 43.3014 47.5978 44.0291 47.7925 44.7773C48.059 45.8329 48.2127 46.9091 48.1307 47.9955C47.9872 49.8813 47.4235 51.7158 46.4806 53.3557C45.5377 55.016 44.3283 56.4304 42.9345 57.7012C41.7046 58.7979 40.3517 59.751 38.8964 60.5197C37.1438 61.4729 35.2785 62.18 33.3312 62.6412C32.1218 62.9282 30.8817 63.1024 29.6415 63.1742C29.0369 63.2049 28.4424 63.2562 27.848 63.2254C27.4073 63.1844 26.9358 63.2152 26.4746 63.0717Z" fill="#0E1F66"/>
</g>
<defs>
<clipPath id="clip0_118_2051">
<rect width="72" height="72" fill="white"/>
</clipPath>
</defs>
</svg>
