<svg width="64" height="64" viewBox="0 0 64 64" fill="none" xmlns="http://www.w3.org/2000/svg">
<circle cx="32" cy="32" r="32" fill="black"/>
<path d="M12 24.5884V19.0483C12 17.3647 13.6635 16 15.7142 16H22.4665C24.5193 16 26.1827 17.3647 26.1827 19.0483V23.5222C26.1827 24.294 26.5556 25.0332 27.2194 25.5795C28.6042 26.7147 30.8496 26.7147 32.2344 25.5795L42.8218 16.8936C43.5184 16.3209 44.4628 16 45.4482 16H47.2858C49.3386 16 51 17.3647 51 19.0483V20.5552C51 21.3635 50.6087 22.1392 49.9122 22.7099L39.3248 31.3979C37.942 32.5331 37.942 34.3771 39.3248 35.5123C39.9906 36.0586 40.892 36.3653 41.8323 36.3653H47.2858C49.3386 36.3653 51 37.73 51 39.4116V44.9537C51 46.6353 49.3386 48 47.2858 48H40.5335C38.4807 48 36.8193 46.6353 36.8193 44.9537V40.4778C36.8193 39.7081 36.4444 38.9668 35.7806 38.4225C34.3958 37.2853 32.1504 37.2853 30.7656 38.4225L20.1802 47.1064C19.4837 47.6791 18.5372 48 17.5539 48H15.7142C13.6635 48 12 46.6353 12 44.9517V43.4448C12 42.6365 12.3913 41.8608 13.0878 41.2881L23.6752 32.6021C25.058 31.4669 25.058 29.6249 23.6752 28.4877C23.0094 27.9434 22.108 27.6367 21.1677 27.6367H15.7142C13.6635 27.6367 12 26.272 12 24.5884Z" fill="#7711D1"/>
</svg>
