<svg width="65" height="65" viewBox="0 0 65 65" fill="none" xmlns="http://www.w3.org/2000/svg">
<path d="M32.1013 64.0251C49.7743 64.0251 64.0786 49.6981 64.0507 32.0251C64.0227 14.3521 49.673 0.0251465 32 0.0251465C14.327 0.0251465 0.0226773 14.3521 0.0506509 32.0251C0.0786244 49.6981 14.4283 64.0251 32.1013 64.0251Z" fill="#0088CC"/>
<path d="M42.5116 52.5346C41.3838 52.5346 40.7792 50.8646 40.2941 49.5221C40.0943 48.9691 39.9054 48.4473 39.7111 48.128L39.7071 48.1226L39.7043 48.1158C39.1173 46.6184 38.4597 45.1223 37.8251 43.6752C37.4474 42.8151 37.0574 41.9264 36.6851 41.0473C36.5723 40.7783 36.4636 40.5024 36.3535 40.2239C35.7095 38.5892 35.0423 36.8975 33.4566 36.0347C32.9593 35.695 32.3695 35.5754 31.7988 35.4586C31.1684 35.3295 30.5175 35.1963 29.9808 34.7792C28.9902 34.1174 28.7891 33.2097 28.5771 32.2491C28.4847 31.8333 28.3896 31.4025 28.2238 30.9908C27.5838 29.3141 25.9574 28.5952 24.3852 27.8995C24.2113 27.8221 24.0387 27.746 23.8689 27.6685C22.3905 27.0883 20.9081 26.4402 19.4732 25.8124C19.1606 25.6765 18.8495 25.5393 18.5369 25.4034C18.291 25.3002 18.0328 25.1982 17.7828 25.1018C16.6401 24.6547 15.4579 24.1941 14.6684 23.1831C13.8165 22.1763 13.4129 20.865 13.5379 19.4926C13.6697 18.0387 14.3845 16.684 15.4973 15.7763C16.8493 14.4053 18.4119 13.1973 20.2708 12.0858C20.6961 11.7651 21.0956 11.5994 21.4529 11.5994C22.4381 11.5994 22.9327 12.7829 23.3566 13.9949C24.1597 15.7668 24.9315 17.5958 25.6774 19.3636C26.3378 20.9289 27.0213 22.5472 27.7252 24.1248C28.9005 27.7623 30.4862 28.1727 32.0203 28.5694C33.2147 28.8779 34.3412 29.17 35.1768 30.9106L35.1823 30.9229V30.9365C35.5899 34.4068 37.5357 35.4368 40.4571 36.6122C42.3282 37.3364 44.3297 38.1843 46.5744 39.2034C48.9184 39.8747 50.4633 41.9047 50.4973 44.3709C50.1032 47.8073 47.0351 49.8265 44.3283 51.6079C43.9832 51.8348 43.6449 52.0577 43.3174 52.2805C43.0348 52.4504 42.7657 52.5346 42.513 52.5346H42.5116Z" fill="#FFB037"/>
<path d="M31.3189 55.238C31.1382 55.238 30.9575 55.238 30.7768 55.2353L28.6231 54.9989C28.3377 54.9459 28.0551 54.8834 27.782 54.8236C27.358 54.7312 26.9205 54.6347 26.487 54.5736C25.6079 54.4404 25.0576 54.1523 24.8035 53.6944C24.3918 52.9498 24.8565 51.8845 25.3062 50.8545C25.4068 50.6222 25.5114 50.383 25.6038 50.152C26.0019 49.1085 26.4354 48.0595 26.8553 47.0445C27.3689 45.8011 27.9002 44.5157 28.3703 43.2317C28.5483 42.8566 28.7032 42.449 28.8663 42.0169C29.4424 40.4923 30.096 38.7639 31.9018 38.7639C32.0771 38.7639 32.2646 38.7802 32.4562 38.8128C34.0229 39.052 34.5094 40.4298 34.9809 41.7601C35.129 42.1786 35.269 42.574 35.4415 42.9327C36.39 45.1639 37.2501 47.3801 37.8942 49.0623C38.1238 49.6153 38.3534 50.186 38.5749 50.7377C38.7869 51.2635 38.9975 51.7907 39.2136 52.3098C39.435 52.6835 39.45 53.1251 39.2502 53.5463C39.041 53.9852 38.6333 54.3113 38.2094 54.3752C36.2432 54.9635 34.0488 55.2394 31.3176 55.2394L31.3189 55.238Z" fill="#FFB037"/>
<path d="M31.8515 25.3807C30.153 25.3807 29.4613 23.6088 28.8512 22.0448C28.7086 21.6779 28.5741 21.3328 28.4273 21.0081C28.0713 20.0664 27.68 19.1248 27.3036 18.213C26.8171 17.0404 26.3144 15.827 25.8823 14.6081C25.8306 14.4872 25.7763 14.3622 25.7219 14.2372C25.4325 13.57 25.1349 12.8811 24.9162 12.1704C24.4134 11.2777 24.5085 10.4624 25.1743 9.98819L25.1811 9.98411L25.1879 9.98139C26.8715 9.2259 28.8472 9.06828 30.5919 8.92968L30.6734 8.92289V8.94734C31.1952 8.9093 31.7238 8.88892 32.2483 8.88892C34.3979 8.88892 36.4904 9.20552 38.4675 9.82785C38.8778 10.0181 39.1414 10.2817 39.2624 10.6146C39.5206 11.3239 39.1034 12.2139 38.7352 13.0006C38.6265 13.2344 38.5232 13.4545 38.4444 13.6556L38.0096 14.763C37.0815 17.1287 36.1222 19.5745 35.1126 21.9538C35.0216 22.178 34.9414 22.4103 34.8558 22.6576C34.5052 23.67 34.1424 24.7176 33.0649 25.132C32.6287 25.2992 32.2211 25.3834 31.8528 25.3834L31.8515 25.3807Z" fill="#FFB037"/>
<path d="M21.4885 52.4721C20.4517 52.4721 19.1541 51.4299 18.207 50.669C17.889 50.4135 17.6132 50.192 17.389 50.0412L17.3835 50.0371L17.3781 50.0317C17.0615 49.7205 16.7136 49.4148 16.378 49.1199C15.257 48.1348 14.098 47.1157 13.7012 45.6074C13.1264 43.7554 13.8126 41.5514 15.3712 40.2524C16.4106 39.5105 17.6227 39.0363 18.794 38.5784C19.3144 38.3745 19.8525 38.1639 20.3634 37.9343C20.7384 37.7726 21.1175 37.6014 21.4844 37.437C22.6625 36.907 23.8813 36.3581 25.1504 36.0197L25.1586 36.017H25.1668C25.2143 36.0143 25.2605 36.0129 25.3081 36.0129C26.7932 36.0129 27.9903 37.1937 28.0325 38.6993C28.0691 39.2007 27.8708 39.6246 27.6792 40.035C27.6194 40.1627 27.5582 40.2945 27.5066 40.4236C27.0269 41.6261 26.4848 42.8246 25.9589 43.9837C25.7959 44.3791 25.6355 44.7731 25.4738 45.1672C24.5784 47.3548 23.653 49.6159 22.653 51.7927C22.3622 52.2479 21.9709 52.4735 21.4858 52.4735L21.4885 52.4721Z" fill="#FFB037"/>
<path d="M38.5209 28.0557C37.4692 28.0557 36.692 27.5393 36.143 26.4754C35.624 25.2796 36.2925 23.8991 36.8809 22.6802C37.1336 22.1571 37.3728 21.6625 37.5182 21.2019C38.1649 19.6039 38.8579 18.0019 39.5278 16.4515C40.0768 15.1824 40.6434 13.8698 41.1815 12.5708C41.4926 11.9607 41.9288 11.6536 42.4778 11.6536C43.3651 11.6536 44.3828 12.4294 45.2823 13.1143C45.6669 13.4064 46.0297 13.6836 46.3259 13.8507L46.3341 13.8548L46.3408 13.8616C46.5963 14.0953 46.864 14.329 47.148 14.575C48.7541 15.9705 50.5722 17.5494 50.3806 19.8145H50.3833L50.3887 19.8879C50.651 23.2822 47.485 24.5989 44.9413 25.656C44.7578 25.7321 44.5771 25.8082 44.3991 25.8829C43.7578 26.0691 43.0403 26.4197 42.2807 26.792C41.0116 27.4129 39.699 28.0557 38.5209 28.0557Z" fill="#FFB037"/>
<path d="M50.3166 20.5105C50.3261 20.3134 50.3234 20.1069 50.3071 19.8936C50.3234 20.1069 50.3261 20.3121 50.3166 20.5105Z" fill="#FF870E"/>
<path d="M13.6401 43.4995C13.583 43.8718 13.5667 44.2496 13.5966 44.6232C13.5667 44.2482 13.5817 43.8705 13.6401 43.4995Z" fill="#FF870E"/>
<path d="M24.6838 10.9998C24.6688 11.2158 24.7055 11.4414 24.7789 11.6642C24.7055 11.4414 24.6702 11.2172 24.6838 10.9998Z" fill="#FF870E"/>
<path d="M30.5977 9.01074C28.7946 9.15342 26.88 9.31104 25.2209 10.0557C25.2087 10.0638 25.1978 10.0733 25.1856 10.0828C25.1978 10.0733 25.2087 10.0652 25.2209 10.0557C26.88 9.31104 28.7959 9.15478 30.5977 9.01074Z" fill="#FF870E"/>
<path d="M41.4442 12.2953C41.3966 12.3619 41.3504 12.4339 41.3056 12.5127C41.3504 12.4325 41.3966 12.3605 41.4442 12.2939V12.2953Z" fill="#FF870E"/>
<path d="M39.1847 11.6403C39.3505 10.9758 39.2784 10.3549 38.5556 9.96216C39.2784 10.3549 39.3505 10.9758 39.1847 11.6389V11.6403Z" fill="#FF870E"/>
<path d="M35.0677 9.15918C35.8803 9.26788 36.686 9.4255 37.4769 9.62932C36.6874 9.42415 35.8816 9.26788 35.0677 9.15918Z" fill="#FF870E"/>
<path d="M43.8524 12.2083C44.7411 12.7314 45.6338 13.5467 46.2697 13.9122C45.6352 13.5453 44.7411 12.73 43.8524 12.2083Z" fill="#FF870E"/>
<path d="M19.6781 51.6747C18.8289 51.1163 18.0122 50.3744 17.4755 50.0034C18.0122 50.3771 18.8289 51.1176 19.6781 51.6747Z" fill="#FF870E"/>
<path d="M22.6508 12.552C22.1643 11.7285 21.4673 11.2842 20.3109 12.1552C18.5744 13.1933 16.9696 14.3972 15.547 15.8389C14.1134 17.0088 13.4123 18.8745 13.6392 20.6328C15.8065 17.1556 18.9345 14.3388 22.6508 12.552Z" fill="#FF870E"/>
<path d="M41.3085 51.6159C41.784 52.3456 42.3982 52.7355 43.2706 52.2124C46.158 50.2544 49.9763 48.1931 50.4151 44.3708C50.4111 44.099 50.388 43.8327 50.3472 43.5718C48.1663 47.0381 45.0302 49.8426 41.3071 51.6159H41.3085Z" fill="#FF870E"/>
<path d="M30.7778 55.1527C33.2834 55.1826 35.785 55.0155 38.1996 54.2926C38.9048 54.1853 39.5611 53.2912 39.2119 52.4813C36.9604 53.2749 34.539 53.7056 32.017 53.7056C29.4951 53.7056 27.052 53.2708 24.7936 52.4705C24.5722 53.4447 24.829 54.2383 26.4989 54.4924C27.215 54.5943 27.9216 54.7845 28.6323 54.9177L30.7778 55.1527Z" fill="#FF870E"/>
<path d="M24.7784 11.6646C27.0422 10.8615 29.4785 10.424 32.0168 10.424C34.555 10.424 36.9424 10.852 39.1858 11.6401C39.3516 10.9757 39.2796 10.3547 38.5567 9.96335C38.52 9.94297 38.4819 9.92394 38.4425 9.90492C38.1232 9.80437 37.8012 9.71197 37.4764 9.62772C36.687 9.42255 35.8812 9.26628 35.0673 9.15758C33.5835 8.95919 32.0766 8.91843 30.5995 9.03393C30.5995 9.02578 30.5995 9.01762 30.5982 9.00947C28.7951 9.1535 26.8805 9.30976 25.2214 10.0544C25.2092 10.0625 25.1983 10.0721 25.1861 10.0816C24.8559 10.3316 24.7051 10.655 24.6833 11.0015C24.6697 11.2175 24.7051 11.4431 24.7784 11.6659V11.6646Z" fill="#FF870E"/>
<path d="M13.6398 43.5009C13.5827 43.8732 13.5664 44.2509 13.5963 44.6246C13.6221 44.9494 13.6819 45.2714 13.7797 45.5853C13.8096 45.6994 13.845 45.8108 13.883 45.9195C14.1371 46.637 14.5692 47.2389 15.0788 47.7865C15.8044 48.5665 16.6862 49.2364 17.4349 49.9728C17.4485 49.9824 17.4621 49.9919 17.4757 50.0014C18.0124 50.3737 18.829 51.1142 19.6783 51.6727C20.7667 52.3901 21.9094 52.8059 22.5821 51.7569C22.6079 51.6999 22.6337 51.6414 22.6595 51.5844C18.9391 49.7976 15.8084 46.9794 13.6384 43.4995L13.6398 43.5009Z" fill="#FF870E"/>
<path d="M50.3171 20.5105C50.3266 20.3134 50.3239 20.1083 50.3076 19.8936C50.3022 19.8936 50.2967 19.8936 50.2913 19.8936C50.3049 19.7686 50.3117 19.6463 50.3131 19.5253C50.3131 19.5172 50.3131 19.5077 50.3131 19.4995C50.3131 19.4683 50.3131 19.437 50.3131 19.4058C50.2981 18.7169 50.0916 18.0932 49.7668 17.5184C48.9665 16.1039 47.446 14.9856 46.2869 13.9216C46.2815 13.9189 46.2761 13.9149 46.2706 13.9121C45.6347 13.5466 44.742 12.7313 43.8533 12.2082C42.9538 11.6783 42.0597 11.45 41.4442 12.2965C41.3966 12.3631 41.3504 12.4351 41.3056 12.5153C45.0124 14.279 48.1376 17.0659 50.3171 20.5118V20.5105Z" fill="#FF870E"/>
</svg>
