<svg width="72" height="72" viewBox="0 0 72 72" fill="none" xmlns="http://www.w3.org/2000/svg">
<circle cx="36" cy="36" r="36" fill="white"/>
<path fill-rule="evenodd" clip-rule="evenodd" d="M35.9051 72C46.4771 72 55.9877 67.4669 62.589 60.2433L60.8326 58.3098C58.6587 55.9172 54.953 55.7127 52.5265 57.8516L48.7795 61.1545C43.682 65.648 35.9341 65.3645 31.1819 60.5109L28.839 58.118C26.5892 55.8201 22.9026 55.7402 20.554 57.9382L13.6817 64.3695C19.8084 69.1504 27.5231 72 35.9051 72ZM65.9105 53.7461L66.7635 54.6852C70.0862 49.2381 72 42.8421 72 36C72 27.7036 69.1862 20.0626 64.4583 13.9747C63.5795 14.1994 62.7395 14.6294 62.0141 15.2688L58.2673 18.5717C53.1699 23.0651 45.4219 22.7819 40.6697 17.9283L38.3269 15.5354C36.0768 13.2375 32.3904 13.1574 30.0418 15.3554L20.4013 24.3775L15.7112 19.4203L25.3517 10.3981C30.4198 5.65506 38.3752 5.82792 43.23 10.7865L45.5728 13.1795C47.7753 15.4287 51.3656 15.56 53.728 13.4776L57.4747 10.1748C58.1037 9.62046 58.7722 9.13912 59.4703 8.73009C53.1468 3.28973 44.9111 0 35.9051 0C17.7977 0 2.80455 13.2984 0.208039 30.6371C5.14909 27.8003 11.5647 28.5419 15.7149 32.7807L18.4244 35.548C20.5305 37.6992 23.9278 37.926 26.3042 36.0743L34.3363 29.8158C39.1572 26.0593 45.9822 26.241 50.5941 30.2486L61.531 39.7524L57.0283 44.8783L46.0911 35.3747C43.9539 33.5173 40.7911 33.4332 38.5571 35.1742L30.5249 41.4328C25.397 45.4284 18.0659 44.9387 13.5212 40.297L10.8117 37.5297C8.56182 35.2318 4.87527 35.1516 2.52665 37.3496L0 39.7141C0.781393 47.318 3.93563 54.2208 8.71204 59.674L15.864 52.9807C20.9321 48.2378 28.8873 48.4105 33.7421 53.3693L36.0852 55.7622C38.2874 58.0113 41.878 58.1428 44.2401 56.0605L47.9871 52.7576C53.2231 48.1419 61.2199 48.5831 65.9105 53.7461Z" fill="url(#paint0_linear_455_23305)"/>
<defs>
<linearGradient id="paint0_linear_455_23305" x1="36" y1="5.36225e-07" x2="50.1538" y2="72.0002" gradientUnits="userSpaceOnUse">
<stop stop-color="#780000"/>
<stop offset="1" stop-color="#C1121F"/>
</linearGradient>
</defs>
</svg>
