<svg width="64" height="64" viewBox="0 0 64 64" fill="none" xmlns="http://www.w3.org/2000/svg">
<g clip-path="url(#clip0_4930_964)">
<path d="M32 64C49.6731 64 64 49.6731 64 32C64 14.3269 49.6731 0 32 0C14.3269 0 0 14.3269 0 32C0 49.6731 14.3269 64 32 64Z" fill="white"/>
<path d="M41.2433 45.5665C41.9014 44.889 42.4121 44.3515 42.9364 43.8258C45.6286 41.1248 45.6271 37.5572 42.9229 34.8725C40.0986 32.0687 37.2712 29.2694 34.4454 26.4686C32.3076 24.3497 30.1563 22.2458 28.0395 20.1076C26.3479 18.3997 26.4035 15.8416 28.1222 14.2022C29.7672 12.6328 32.3301 12.746 34.0969 14.4926C38.9253 19.2663 43.7447 24.049 48.5686 28.8257C48.8856 29.1398 49.2086 29.454 49.5556 29.7354C51.7745 31.5297 55.1307 31.4791 57.261 29.5746C58.3547 28.5978 59.3642 27.5287 60.4293 26.5192C60.6983 26.2646 60.6697 26.1276 60.4173 25.8804C58.3246 23.8226 56.2409 21.7559 54.1722 19.6743C53.8943 19.3943 53.7561 19.445 53.5488 19.713C52.6354 20.8863 52.3544 22.1847 52.7015 23.6261C52.7751 23.9298 52.9989 24.2113 52.8742 24.5627C52.6173 24.4912 52.4926 24.2619 52.3229 24.0936C47.7123 19.5239 43.1047 14.9527 38.5016 10.3755C35.9988 7.88736 33.0062 6.68722 29.4742 7.24858C25.442 7.89033 22.6072 10.1432 21.3287 14.0146C20.0788 17.7937 20.7954 21.2898 23.6318 24.1636C28.2604 28.854 32.9506 33.4847 37.6678 38.0887C39.744 40.1153 41.0586 42.4455 41.2403 45.568L41.2433 45.5665ZM18.8184 17.6135C17.8013 18.6171 16.7992 19.4494 16.0872 20.5245C15.3751 21.5996 15.0295 22.8205 15.1482 24.1174C15.3029 25.8089 16.0766 27.1729 17.3085 28.3775C22.0934 33.0529 26.8287 37.779 31.5775 42.4917C32.9296 43.8333 33.6762 45.3223 32.9836 47.2967C32.3932 48.9793 30.3636 50.2539 28.4647 49.9024C27.4807 49.7208 26.7145 49.2756 26.0189 48.5936C20.8825 43.5682 15.9084 38.3821 10.6398 33.4892C8.62818 31.6205 5.20141 31.6086 3.05612 33.3165C2.47021 33.7825 2.61293 33.988 3.04259 34.4124C9.2907 40.5798 15.5043 46.7815 21.7689 52.9326C24.3033 55.4207 27.3965 56.4749 30.9405 55.8004C34.869 55.0529 37.5792 52.7524 38.7931 48.9793C40.013 45.1868 39.1822 41.6876 36.3879 38.8392C31.6871 34.0461 26.8888 29.3468 22.0859 24.6535C20.1269 22.7386 19.0557 20.4709 18.8169 17.615L18.8184 17.6135Z" fill="#F5F5F5"/>
<path d="M41.2438 45.5666C41.0621 42.4457 39.7475 40.1139 37.6713 38.0874C32.9541 33.4834 28.2639 28.8526 23.6353 24.1623C20.7989 21.2885 20.0823 17.7923 21.3322 14.0132C22.6122 10.1418 25.447 7.8875 29.4777 7.24723C33.0112 6.68588 36.0038 7.88601 38.5051 10.3741C43.1082 14.9513 47.7158 19.5225 52.3264 24.0923C52.4946 24.259 52.6208 24.4884 52.8777 24.5613C53.0024 24.2099 52.7771 23.9285 52.705 23.6247C52.3594 22.1834 52.6389 20.8835 53.5523 19.7116C53.7596 19.4451 53.8978 19.393 54.1757 19.6729C56.2444 21.7546 58.3281 23.8213 60.4208 25.8791C60.6717 26.1263 60.7003 26.2632 60.4328 26.5179C59.3677 27.5259 58.3582 28.595 57.2645 29.5733C55.1342 31.4777 51.7765 31.5283 49.5591 29.7341C49.2121 29.4527 48.8891 29.14 48.5721 28.8243C43.7467 24.0476 38.9288 19.2649 34.1004 14.4912C32.3336 12.7446 29.7707 12.6315 28.1257 14.2009C26.407 15.8417 26.3499 18.3998 28.043 20.1062C30.1613 22.2429 32.3126 24.3484 34.4489 26.4672C37.2747 29.268 40.1036 32.0674 42.9264 34.8711C45.6306 37.5558 45.6336 41.1235 42.9399 43.8245C42.4156 44.3501 41.9049 44.8876 41.2468 45.5651L41.2438 45.5666Z" fill="#1B203B"/>
<path d="M18.8188 17.6136C19.0562 20.4709 20.1273 22.7372 22.0878 24.652C26.8907 29.3454 31.6891 34.0447 36.3898 38.8377C39.1841 41.6877 40.0149 45.1853 38.795 48.9778C37.5812 52.7509 34.871 55.0514 30.9425 55.7989C27.3985 56.4734 24.3052 55.4207 21.7708 52.9311C15.5062 46.7801 9.29115 40.5799 3.04455 34.4109C2.61489 33.9866 2.47217 33.7811 3.05807 33.315C5.20337 31.6072 8.63014 31.6191 10.6417 33.4878C15.9088 38.3806 20.8845 43.5668 26.0209 48.5922C26.7165 49.2726 27.4826 49.7179 28.4666 49.901C30.3656 50.2524 32.3967 48.9778 32.9856 47.2953C33.6782 45.3208 32.9315 43.8318 31.5794 42.4903C26.8306 37.7776 22.0953 33.053 17.3105 28.376C16.0771 27.1714 15.3034 25.8075 15.1502 24.116C15.0315 22.8191 15.377 21.5981 16.0891 20.5231C16.8012 19.448 17.8017 18.6156 18.8203 17.6121L18.8188 17.6136Z" fill="#C0C0C0"/>
</g>
<defs>
<clipPath id="clip0_4930_964">
<rect width="64" height="64" fill="white"/>
</clipPath>
</defs>
</svg>
