<svg width="64" height="64" viewBox="0 0 64 64" fill="none" xmlns="http://www.w3.org/2000/svg">
<circle cx="32" cy="32" r="32" fill="black"/>
<path d="M15.1113 15.1111V49.7778H41.778V45.8932H18.965V18.9957H41.778V15.1111H15.1113Z" fill="white"/>
<path d="M45.4556 28.2959C45.4556 27.4418 45.1305 26.6998 44.4831 26.0671C43.833 25.4372 42.9199 25.1209 41.7411 25.1209C40.7432 25.1209 39.9545 25.3308 39.375 25.7478C38.7955 26.1649 38.5072 26.7314 38.5072 27.4418C38.5072 27.8099 38.5778 28.1406 38.7163 28.434C38.8549 28.7302 39.1008 28.9948 39.4513 29.2277C39.799 29.4607 40.2598 29.6706 40.8308 29.8547C41.399 30.0387 42.1227 30.2113 43.0047 30.3723C45.2012 30.7807 46.8803 31.4594 48.0393 32.4171C49.1983 33.3719 49.7778 34.7869 49.7778 36.6591V37.0272C49.7778 38.0251 49.6026 38.9253 49.252 39.7277C48.9015 40.5301 48.3983 41.2174 47.7397 41.7868C47.081 42.3563 46.281 42.7934 45.3425 43.0983C44.404 43.4031 43.3439 43.5555 42.1679 43.5555C40.7884 43.5555 39.5757 43.3571 38.5269 42.9602C37.4782 42.5633 36.6047 42.014 35.9065 41.3123C35.2082 40.6106 34.6768 39.7852 34.3178 38.839C33.9587 37.8928 33.7778 36.8604 33.7778 35.7417V35.5576H37.7326C37.7326 36.8403 38.0973 37.8612 38.8266 38.6262C39.5559 39.3883 40.6895 39.7708 42.2273 39.7708C43.4259 39.7708 44.3135 39.5062 44.893 38.9771C45.4725 38.4479 45.7609 37.8181 45.7609 37.0847C45.7609 36.7396 45.7015 36.4089 45.58 36.0925C45.4612 35.7762 45.2492 35.4915 44.9496 35.2384C44.6499 34.9824 44.24 34.7552 43.7199 34.551C43.1997 34.3497 42.5411 34.1743 41.7411 34.0334C40.681 33.8493 39.7142 33.6106 38.8351 33.3173C37.9559 33.021 37.1927 32.6299 36.5425 32.141C35.8923 31.6521 35.3891 31.0424 35.0301 30.3091C34.6711 29.5757 34.4902 28.6813 34.4902 27.6229V27.4389C34.4902 26.5646 34.6655 25.7565 35.0132 25.0116C35.3609 24.2696 35.8527 23.6225 36.4803 23.0732C37.1107 22.5239 37.8683 22.0954 38.7587 21.7906C39.6464 21.4857 40.6414 21.3333 41.7411 21.3333C42.9792 21.3333 44.0789 21.5116 45.0372 21.8682C45.9955 22.2248 46.7983 22.708 47.4485 23.3177C48.0959 23.9274 48.5368 24.655 48.9156 25.4229C49.3849 26.369 49.4103 28.293 49.4103 28.293H45.4556V28.2959Z" fill="white"/>
</svg>
