<svg width="72" height="72" viewBox="0 0 72 72" fill="none" xmlns="http://www.w3.org/2000/svg">
<path d="M52.0319 58.862C52.0319 58.9057 52.0319 58.9494 52.0247 58.9785V58.9931C52.0101 59.0586 51.9955 59.1678 51.9736 59.2916C51.9226 59.5537 51.8497 59.9178 51.7404 60.3182C51.4999 61.2138 51.1937 61.8691 50.9605 62.1312C50.5961 62.5317 50.064 62.8593 49.408 63.1069C48.7593 63.3471 48.1106 63.4563 47.666 63.5C47.5421 63.5073 47.3745 63.5146 47.1777 63.5219C46.1937 63.551 44.3643 63.602 42.717 64.4466C41.9882 64.8179 41.2885 65.2402 40.6543 65.8154C40.0056 66.4052 39.5027 67.0823 39.0654 67.8686C38.6281 68.6623 38.424 69.4195 38.3147 69.8272C38.3001 69.8928 38.2782 69.951 38.2709 70.002C38.1981 70.2641 38.1689 70.2786 38.147 70.3005C38.147 70.3005 38.1398 70.3078 38.1325 70.3078C37.9575 70.468 37.9065 70.5116 37.8774 70.5262C37.8774 70.5262 37.8482 70.548 37.7535 70.5844C37.7024 70.6063 37.6514 70.6208 37.5931 70.6281C37.5275 70.6354 37.4328 70.6427 37.2724 70.65C26.6091 70.9267 18.5114 67.3444 13.0813 61.8691C7.62212 56.3792 4.72852 48.8434 4.72852 41.0017V26.4397C4.72123 12.5258 16.1936 1.72803 30.0712 1.72803C43.9488 1.72803 55.6471 12.999 55.6471 26.4397V26.4543V26.4689V26.4834V26.498V26.5126V32.9053C55.6471 34.8056 56.4197 37.2375 57.9285 39.3781C59.481 41.5769 61.9008 43.6083 65.3119 44.5185C66.0772 44.7223 66.325 45.0281 66.3906 45.1374C66.4489 45.232 66.5218 45.4286 66.3979 45.7999C66.1355 46.6227 64.9329 48.1007 62.0174 48.8871C61.8279 48.938 61.5364 48.9817 60.9824 49.0764C60.4795 49.1565 59.8381 49.2584 59.1603 49.4186C57.8191 49.7389 56.1209 50.3287 54.7142 51.6757C53.2783 53.0518 52.6661 55.1196 52.3818 56.4375C52.2215 57.1583 52.134 57.8136 52.083 58.2868C52.0538 58.5271 52.0392 58.7237 52.0319 58.862Z" fill="#FAFAF7"/>
<path d="M36.1211 71.4C26.5438 71.4 18.417 68.2983 12.5569 62.3934C7.03937 56.8234 4 49.2294 4 41.0018V26.4398C4 19.552 6.72596 13.1301 11.6895 8.33925C16.5948 3.6066 23.1255 1 30.0715 1C44.3282 1 56.3763 12.6496 56.3763 26.4398V32.9053C56.3763 34.7838 57.1781 37.0482 58.5265 38.9631C59.7145 40.6451 61.8866 42.8585 65.5017 43.8196C66.5003 44.089 66.8866 44.5331 67.0251 44.7734C67.2291 45.1156 67.2583 45.5379 67.098 46.0257C66.7408 47.1543 65.2466 48.7706 62.2146 49.5934C61.9886 49.6589 61.6752 49.7026 61.0994 49.7973C60.5746 49.8774 59.9696 49.9793 59.3355 50.1322C57.5935 50.5472 56.2524 51.2243 55.2174 52.2073C54.2335 53.1465 53.5192 54.6246 53.0891 56.5977C52.9361 57.3185 52.8486 57.9593 52.8049 58.3743C52.783 58.5927 52.7684 58.7675 52.7539 58.8985L52.681 59.43C52.63 59.7067 52.5498 60.0926 52.4405 60.5076C52.3165 60.9663 51.974 62.0949 51.5002 62.6191C51.0629 63.0997 50.4434 63.5001 49.6635 63.7841C48.8544 64.0826 48.1037 64.1845 47.732 64.2137C47.6081 64.2209 47.4623 64.2282 47.2801 64.2355H47.2072C46.2742 64.2646 44.5541 64.3156 43.0527 65.0874C42.4987 65.3713 41.7771 65.7718 41.143 66.347C40.5891 66.8421 40.1372 67.4391 39.6999 68.2182C39.3063 68.9317 39.1168 69.6307 39.0147 70.0093L38.9856 70.1258C38.8908 70.468 38.8179 70.6719 38.6139 70.8466L38.5483 70.9049C38.4098 71.0359 38.3296 71.0942 38.2567 71.1379C38.2567 71.1379 38.1911 71.1816 38.0381 71.2471C37.9142 71.2981 37.8048 71.3272 37.6809 71.3418C37.608 71.349 37.4987 71.3636 37.2873 71.3709C36.8937 71.3782 36.5074 71.3854 36.1138 71.3854L36.1211 71.4ZM30.0715 2.4562C23.5045 2.4562 17.3383 4.91718 12.7027 9.38771C8.02334 13.9019 5.45044 19.9524 5.45773 26.4398V41.0018C5.45773 48.8435 8.35133 56.0735 13.5992 61.3595C19.4082 67.2134 27.5861 70.1695 37.2582 69.922C37.3821 69.922 37.4477 69.9147 37.4987 69.9074C37.4987 69.9074 37.5206 69.8856 37.5643 69.8491C37.5643 69.8346 37.5716 69.8127 37.5789 69.7982L37.6153 69.6526C37.7392 69.1939 37.9579 68.3857 38.4389 67.5192C38.9491 66.5945 39.5031 65.881 40.1736 65.2767C40.9389 64.585 41.7626 64.1263 42.3967 63.7986C44.1824 62.8812 46.1212 62.823 47.1635 62.7939H47.2363C47.3894 62.7866 47.5206 62.7793 47.6154 62.772C47.8559 62.7502 48.49 62.6774 49.1606 62.4225C49.7145 62.2187 50.1518 61.9493 50.4215 61.6435C50.5381 61.5197 50.8005 60.9954 51.0337 60.129C51.1358 59.7577 51.2014 59.4082 51.2524 59.1606L51.3034 58.8184C51.3107 58.6728 51.3326 58.4617 51.3544 58.2141C51.4055 57.77 51.4929 57.071 51.6679 56.2919C52.1635 54.0275 53.0163 52.3019 54.2116 51.1588C55.4361 49.9939 56.9959 49.1929 58.993 48.7197C59.6781 48.5522 60.3195 48.4503 60.8734 48.3629C61.3545 48.2828 61.6752 48.2319 61.8282 48.1954C64.4667 47.4819 65.5163 46.1786 65.7058 45.5889C65.7204 45.5452 65.7277 45.516 65.735 45.4942C65.6694 45.4432 65.4944 45.3267 65.1227 45.2321C61.0848 44.1545 58.6577 41.6862 57.3311 39.8077C55.8224 37.6598 54.9186 35.0824 54.9186 32.9126V26.4617C54.9186 13.4432 43.541 2.46348 30.0715 2.46348V2.4562Z" fill="#28404E"/>
<path d="M19.7076 27.896C23.7893 27.896 27.0911 24.5831 27.0911 20.4912C27.0911 16.3993 23.782 13.0864 19.7076 13.0864C15.6333 13.0864 12.3242 16.3993 12.3242 20.4912C12.3242 24.5831 15.6333 27.896 19.7076 27.896Z" fill="#28404E"/>
<path d="M19.8237 20.4912V23.8988C17.8849 23.8988 16.3105 22.3697 16.3105 20.4912C16.3105 18.6128 17.8849 17.0837 19.8237 17.0837V20.4912Z" fill="#10B68B"/>
<path d="M41.1061 27.896C45.1877 27.896 48.4895 24.5831 48.4895 20.4912C48.4895 16.3993 45.1804 13.0864 41.1061 13.0864C37.0317 13.0864 33.7227 16.3993 33.7227 20.4912C33.7227 24.5831 37.0317 27.896 41.1061 27.896Z" fill="#28404E"/>
<path d="M41.2241 20.4912V23.8988C39.2853 23.8988 37.7109 22.3697 37.7109 20.4912C37.7109 18.6128 39.2853 17.0837 41.2241 17.0837V20.4912Z" fill="#10B68B"/>
</svg>
