<svg width="72" height="72" viewBox="0 0 72 72" fill="none" xmlns="http://www.w3.org/2000/svg">
<g clip-path="url(#clip0_254_6962)">
<circle cx="36" cy="36" r="36" fill="#FFC804"/>
<path d="M62.9688 31.4885L62.9634 31.4536L62.8126 31.459C62.8126 31.459 62.8094 31.5047 62.8085 31.5091L62.7583 31.5113C62.6926 32.3578 62.5542 33.162 62.3468 33.9005C61.8385 35.7191 60.9867 37.5561 59.9491 39.0734C58.8014 40.7533 57.4651 41.9982 56.084 42.6735C55.2223 43.0957 54.3679 43.4053 53.5456 43.5942C52.9074 43.738 52.2778 43.8101 51.6768 43.8101C49.5931 43.8101 47.684 42.9332 46.1547 41.2749C43.7906 38.7102 42.4216 34.3018 42.7476 30.3036C42.861 28.905 43.0848 27.6036 43.3007 26.3457C43.7601 23.6753 44.156 21.369 43.4153 18.9579C43.0181 17.6664 42.1793 16.665 41.0513 16.1367C40.2832 15.7767 39.4816 15.5944 38.6666 15.5944C36.0472 15.5944 33.8861 17.4391 32.8323 19.0189C31.2232 21.4309 30.4212 24.4681 30.6343 27.3503C30.8327 30.048 31.7677 31.8263 33.1707 34.2338C33.8743 35.4403 34.6074 36.5062 35.2554 37.4475C36.3508 39.0404 37.2966 40.4161 37.7633 41.9248C38.4103 44.0162 37.9608 45.022 37.7369 45.3579C37.461 45.7725 37.0181 46.0113 36.419 46.0681C36.3425 46.0757 36.2673 46.0789 36.1942 46.0789C34.3658 46.0789 34.3309 43.5828 34.3102 42.0906V42.0569C34.3093 41.9585 34.307 41.8648 34.3058 41.7753C34.2435 38.8528 33.1209 37.1062 31.6985 34.8939C30.806 33.5062 29.7948 31.9342 28.9068 29.7927C27.4863 26.3717 27.1298 23.0717 27.8476 19.9854C27.8727 19.8752 27.9 19.765 27.9283 19.6536C28.7998 16.2183 30.9543 11.8188 36.265 10.3688C37.2709 10.0938 38.304 9.95413 39.3349 9.95413C42.4571 9.95413 45.1768 11.2393 46.7957 13.479C48.106 15.2909 48.7813 17.3451 48.8619 19.7583C48.8816 20.3321 48.8664 20.9334 48.8172 21.5452C48.7025 22.9254 48.4101 24.4382 47.9247 26.1695C46.943 29.6692 46.7052 32.6343 47.2189 34.9809C47.6129 36.7808 48.4736 38.1524 49.5798 38.7423C50.4764 39.2201 51.432 39.4623 52.4194 39.4623C54.9416 39.4623 57.239 37.8533 58.3975 36.2595C60.2193 33.7525 61.1794 29.3321 61.0223 26.6737C60.9645 25.6983 60.8816 24.8725 60.767 24.1417L60.7638 24.1309L60.7616 24.1255C58.6058 19.464 55.187 15.5128 50.8745 12.6992C46.4512 9.81666 41.3065 8.29047 35.9993 8.29047C28.7141 8.29047 21.8654 11.127 16.7141 16.278C11.564 21.4293 8.72656 28.278 8.72656 35.5632C8.72656 37.6806 8.97103 39.7925 9.45426 41.8426L9.46283 41.8785L9.61459 41.8566C9.61459 41.8566 9.61237 41.8118 9.61142 41.8086L9.66158 41.801C9.56792 40.1777 9.71492 38.6146 10.088 37.2802C10.5963 35.4629 11.4484 33.6246 12.4857 32.1073C13.6334 30.4284 14.9698 29.1825 16.3509 28.5072C17.2062 28.0881 18.0558 27.7795 18.8753 27.5897C19.5188 27.4436 20.1538 27.3703 20.7602 27.3703C22.8439 27.3703 24.754 28.2462 26.2824 29.9045C28.6465 32.4683 30.0155 36.8776 29.6894 40.8768C29.5761 42.2763 29.3522 43.5767 29.1351 44.8347C28.6757 47.5051 28.2797 49.8114 29.0205 52.2221C29.4164 53.5137 30.2565 54.5154 31.3845 55.0434C32.1525 55.4034 32.9542 55.5853 33.7692 55.5853C36.3885 55.5853 38.5497 53.7407 39.6035 52.1599C41.2125 49.7479 42.0142 46.7107 41.8015 43.8288C41.6031 41.132 40.668 39.3528 39.265 36.9449C38.5637 35.7416 37.8293 34.6736 37.1813 33.7313C36.086 32.1384 35.1402 30.763 34.6734 29.253C34.0264 27.1617 34.476 26.1559 34.6985 25.8209C34.9744 25.4062 35.4173 25.1675 36.0164 25.1107C36.093 25.103 36.1692 25.0999 36.2412 25.0999C38.0697 25.0999 38.1046 27.5938 38.1252 29.0828L38.1262 29.1254C38.1271 29.2225 38.1294 29.314 38.1306 29.4025C38.1929 32.3251 39.3155 34.0716 40.7379 36.2839C41.6304 37.6717 42.6416 39.2445 43.5296 41.3851C44.9053 44.6972 45.2825 47.8988 44.6532 50.901C44.6358 50.9839 44.617 51.0667 44.5986 51.1499C43.7652 54.7344 41.6259 59.3206 36.1704 60.8109C35.1646 61.0859 34.1315 61.2243 33.1006 61.2253C29.9783 61.2253 27.2587 59.9404 25.6398 57.7008C24.3295 55.8888 23.6545 53.8347 23.5735 51.4214C23.5615 51.0712 23.5627 50.7089 23.5758 50.347C23.6389 48.776 23.9456 47.0304 24.5117 45.0102C25.4934 41.5105 25.7315 38.5454 25.2175 36.1988C24.8238 34.3977 23.9631 33.0274 22.8569 32.4375C21.9603 31.9596 21.0056 31.7174 20.0173 31.7174C17.4961 31.7174 15.1977 33.3265 14.0392 34.9203C12.2174 37.4272 11.2573 41.8477 11.4145 44.5061C11.5116 46.1577 11.6796 47.3721 11.9609 48.4487L11.964 48.4576L11.9663 48.4617C16.7312 57.3265 25.942 62.8356 35.999 62.8356C43.2842 62.8356 50.1329 59.9991 55.2842 54.8481C60.4352 49.6968 63.2717 42.8481 63.2717 35.5629C63.2717 34.2015 63.1701 32.8302 62.9685 31.4882L62.9688 31.4885Z" fill="white"/>
</g>
<defs>
<clipPath id="clip0_254_6962">
<rect width="72" height="72" fill="white"/>
</clipPath>
</defs>
</svg>
