<svg width="72" height="72" viewBox="0 0 72 72" fill="none" xmlns="http://www.w3.org/2000/svg">
<g clip-path="url(#clip0_254_6862)">
<circle cx="36" cy="36" r="36" fill="#4B53D9"/>
<path d="M29.8672 19.2096L52.7643 11.5634C53.0137 12.7546 53.5622 15.8103 53.7617 18.5031C53.9611 21.1959 52.3765 22.4509 51.5592 22.7418C44.938 25.0274 31.4463 29.6733 30.449 29.9725C29.4516 30.2717 29.0361 29.7093 28.953 29.3907C28.7868 28.615 28.3629 26.3904 27.9972 23.6976C27.6315 21.0048 29.0915 19.5836 29.8672 19.2096Z" fill="white"/>
<path d="M19.8282 50.3762L42.7253 42.73C42.9746 43.9212 43.5231 46.977 43.7226 49.6698C43.9221 52.3626 42.3374 53.6175 41.5202 53.9084C34.899 56.194 21.4073 60.8399 20.4099 61.1391C19.4126 61.4383 18.997 60.8759 18.9139 60.5573C18.7477 59.7816 18.3238 57.557 17.9582 54.8642C17.5925 52.1714 19.0524 50.7502 19.8282 50.3762Z" fill="white"/>
<path d="M32.7777 31.9256L42.3354 28.9336V37.3278C42.3354 40.028 41.4073 40.112 40.5901 40.4029C33.9689 42.6885 31.8796 43.3035 30.8823 43.6027C29.8849 43.9019 29.8688 43.9213 29.7857 43.6027C29.6195 42.827 29.9103 38.2005 29.9103 35.3332C29.9103 32.6156 32.002 32.2996 32.7777 31.9256Z" fill="white"/>
</g>
<defs>
<clipPath id="clip0_254_6862">
<rect width="72" height="72" fill="white"/>
</clipPath>
</defs>
</svg>
