<svg width="72" height="72" viewBox="0 0 72 72" fill="none" xmlns="http://www.w3.org/2000/svg">
<path d="M36.2 71.4C55.6404 71.4 71.4 55.6404 71.4 36.2C71.4 16.7596 55.6404 1 36.2 1C16.7596 1 1 16.7596 1 36.2C1 55.6404 16.7596 71.4 36.2 71.4Z" fill="#301748"/>
<path d="M37.5375 59.6432C36.347 58.546 35.2335 57.3682 34.2049 56.118C31.7498 52.9594 26.2806 47.405 24.9216 46.0201C23.3553 44.4242 21.7742 42.8319 20.2226 41.2063C19.9967 40.973 19.6302 40.7027 19.8523 40.3102C20.0745 39.9177 20.5041 39.9769 20.8817 39.9992C21.0507 40.0101 21.2169 40.0476 21.3742 40.1102C22.4851 40.5497 23.596 40.9952 24.7069 41.447C26.9286 42.3431 29.1022 43.2725 31.3277 44.1131C32.6682 44.6204 33.2347 44.1131 32.9829 42.7097C32.7718 41.5359 32.4756 40.3843 32.1609 39.229C32.0889 38.975 32.0728 38.7084 32.1138 38.4476C32.1548 38.1869 32.2518 37.9381 32.3982 37.7184C32.5447 37.4988 32.737 37.3135 32.962 37.1754C33.1869 37.0372 33.4391 36.9495 33.7013 36.9183C34.1604 36.8517 34.6233 36.8406 35.0825 36.8035C35.5416 36.7665 36.0119 36.6554 36.1933 36.1222C36.2809 35.887 36.2908 35.6298 36.2215 35.3886C36.1521 35.1473 36.0073 34.9346 35.8082 34.7817C34.2974 33.3265 32.8052 31.8564 31.3092 30.3827C27.5618 26.6797 23.8169 22.9768 20.0745 19.2739C17.8528 17.0892 15.6409 14.9057 13.4389 12.7234C13.2204 12.5086 12.9908 12.3198 13.1649 11.9828C13.3389 11.6459 13.6314 11.6866 13.9314 11.7458C14.8497 11.931 15.5125 12.5901 16.2383 13.0863C18.1749 14.4194 20.2004 15.6117 22.163 16.8744C23.533 17.7446 24.9253 18.5814 26.2917 19.4664C27.6581 20.3514 28.9541 21.2253 30.2983 22.0807C32.2312 23.3064 34.1827 24.4987 36.1119 25.7281C38.1929 27.0537 40.2592 28.4016 42.3254 29.7495C42.6957 29.9939 43.0401 30.1198 43.4363 29.7717C43.8325 29.4236 43.7732 29.0755 43.5955 28.6053C43.1808 27.4944 42.4068 26.5983 42.1143 25.4615C42.0106 25.0912 41.9292 24.7209 42.2995 24.4321C42.4479 24.3124 42.6306 24.2432 42.8211 24.2346C43.0116 24.2259 43.1998 24.2782 43.3585 24.3839C44.7622 25.0487 46.1282 25.7904 47.4502 26.6057C49.0609 27.6159 50.7385 28.5153 52.4714 29.2977C55.2893 30.6382 57.9813 32.2082 60.6475 33.8005C62.1181 34.7363 63.3861 35.9577 64.3763 37.3923C65.1523 38.4566 65.7998 39.6088 66.3055 40.8249C67.0255 42.5876 67.5026 44.44 67.7237 46.3312C68.1607 49.7082 66.9276 54.0481 65.3539 56.3735C64.0089 58.4871 62.2598 60.3143 60.2068 61.7501C58.8224 62.6927 57.3307 63.4671 55.7633 64.0571C54.1229 64.7014 52.4307 64.7976 50.6125 64.8643C50.4646 64.8735 50.3162 64.8735 50.1682 64.8643C46.4208 64.6384 42.7327 64.1052 37.5375 59.6432ZM61.7954 48.3641C61.8257 46.8914 61.5599 45.4276 61.0139 44.0595C60.4679 42.6914 59.6527 41.447 58.6166 40.3999C57.5806 39.3528 56.3448 38.5244 54.9826 37.9639C53.6204 37.4034 52.1595 37.1221 50.6866 37.1368C44.7397 37.1701 39.8444 42.0247 39.8259 48.4455C39.8259 53.6963 44.9397 59.5543 50.7495 59.184C56.752 59.4284 61.7583 54.0073 61.7954 48.3641Z" fill="url(#paint0_linear_118_2055)"/>
<path d="M24.3288 34.0672C24.3247 34.5173 24.4966 34.9512 24.8079 35.2764C25.1192 35.6015 25.5453 35.7921 25.9951 35.8076C26.2213 35.8056 26.4446 35.7574 26.6514 35.6657C26.8582 35.5741 27.044 35.4411 27.1973 35.2749C27.3507 35.1087 27.4684 34.9128 27.5431 34.6994C27.6178 34.4859 27.648 34.2594 27.6318 34.0339C27.6131 33.5827 27.423 33.1558 27.1003 32.8399C26.7776 32.5241 26.3466 32.3433 25.8952 32.3342C25.4611 32.3655 25.0558 32.5633 24.764 32.8862C24.4721 33.209 24.3162 33.6321 24.3288 34.0672Z" fill="url(#paint1_linear_118_2055)"/>
<path d="M31.3305 12.8903C32.334 12.8903 32.9301 12.246 32.9264 11.2203C32.9002 10.7983 32.7182 10.4011 32.4159 10.1055C32.1135 9.81001 31.7122 9.63721 31.2897 9.62061C30.5491 9.62061 29.5308 10.5611 29.5234 11.2684C29.5493 11.7226 29.7538 12.1482 30.0924 12.4521C30.431 12.756 30.8761 12.9135 31.3305 12.8903Z" fill="url(#paint2_linear_118_2055)"/>
<path d="M13.2203 27.7278C13.2304 27.5244 13.1978 27.3212 13.1245 27.1313C13.0511 26.9414 12.9388 26.769 12.7946 26.6252C12.6505 26.4814 12.4778 26.3695 12.2877 26.2966C12.0976 26.2237 11.8943 26.1916 11.691 26.2022C11.2858 26.239 10.9074 26.4206 10.6252 26.7137C10.3429 27.0068 10.1758 27.3918 10.1543 27.7981C10.1832 28.1909 10.356 28.5592 10.6395 28.8325C10.9231 29.1058 11.2975 29.2649 11.691 29.2793C11.8956 29.2862 12.0994 29.2506 12.2895 29.1748C12.4797 29.0989 12.652 28.9845 12.7957 28.8387C12.9394 28.693 13.0514 28.519 13.1244 28.3277C13.1975 28.1365 13.2302 27.9322 13.2203 27.7278Z" fill="url(#paint3_linear_118_2055)"/>
<path d="M50.7479 59.1655C56.7503 59.4284 61.7567 54.0073 61.7937 48.364C61.824 46.8913 61.5583 45.4276 61.0123 44.0595C60.4662 42.6914 59.651 41.4469 58.615 40.3998C57.5789 39.3528 56.3432 38.5244 54.981 37.9639C53.6188 37.4033 52.1579 37.1221 50.6849 37.1368C44.738 37.1701 39.8428 42.0246 39.8243 48.4455C39.8058 53.6963 44.938 59.5358 50.7479 59.1655Z" fill="url(#paint4_linear_118_2055)"/>
<defs>
<linearGradient id="paint0_linear_118_2055" x1="67.8126" y1="38.2958" x2="13.0982" y2="38.2958" gradientUnits="userSpaceOnUse">
<stop stop-color="#E2107B"/>
<stop offset="1" stop-color="#301748"/>
</linearGradient>
<linearGradient id="paint1_linear_118_2055" x1="27.6318" y1="34.0672" x2="24.314" y2="34.0672" gradientUnits="userSpaceOnUse">
<stop stop-color="#E2107B"/>
<stop offset="1" stop-color="#0D1126"/>
</linearGradient>
<linearGradient id="paint2_linear_118_2055" x1="32.9264" y1="11.2573" x2="29.5271" y2="11.2573" gradientUnits="userSpaceOnUse">
<stop stop-color="#E2107B"/>
<stop offset="1" stop-color="#0D1126"/>
</linearGradient>
<linearGradient id="paint3_linear_118_2055" x1="13.2277" y1="27.7352" x2="10.1617" y2="27.7352" gradientUnits="userSpaceOnUse">
<stop stop-color="#E2107B"/>
<stop offset="1" stop-color="#0D1126"/>
</linearGradient>
<linearGradient id="paint4_linear_118_2055" x1="67.711" y1="54.7035" x2="40.3834" y2="44.1686" gradientUnits="userSpaceOnUse">
<stop stop-color="#301748"/>
<stop offset="1" stop-color="#E2107B"/>
</linearGradient>
</defs>
</svg>
