<svg width="64" height="64" viewBox="0 0 64 64" fill="none" xmlns="http://www.w3.org/2000/svg">
<circle cx="32" cy="32" r="32" fill="black"/>
<path fill-rule="evenodd" clip-rule="evenodd" d="M19.7368 12.4443C22.958 16.1479 26.9609 16.86 30.2648 15.8748C39.579 13.0972 48.7122 15.2407 52.5043 21.7798C57.2276 29.9245 51.8765 41.8037 40.5523 48.3127C29.2281 54.8219 16.2189 53.4958 11.4956 45.3512C7.70474 38.8144 10.4035 29.872 17.4712 23.231C19.2395 21.5696 21.3038 17.111 19.7368 12.4443ZM51.4027 22.4323C48.7164 17.8001 41.7566 16.514 32.7661 20.1878C28.6063 21.8877 28.8715 26.4403 30.4771 30.8047C27.5075 27.2233 23.3078 24.9418 19.9713 27.542C12.4157 33.4304 9.88552 40.1745 12.5479 44.7655C15.7415 50.2724 27.0285 49.7374 37.7579 43.5701C48.4873 37.403 54.5963 27.9392 51.4027 22.4323Z" fill="#9232FF"/>
</svg>
