<svg width="72" height="72" viewBox="0 0 72 72" fill="none" xmlns="http://www.w3.org/2000/svg">
<path d="M38.2807 2.59521H21.595C12.4849 2.59521 5.09961 9.98047 5.09961 19.0907V42.4961C5.09961 51.6062 12.4849 58.9915 21.595 58.9915H38.2807C47.3909 58.9915 54.7761 51.6062 54.7761 42.4961V19.0907C54.7761 9.98047 47.3909 2.59521 38.2807 2.59521Z" fill="#0265FF"/>
<path d="M43.8219 25.2605H27.7648C15.2472 25.2605 5.09961 35.4081 5.09961 47.9257C5.09961 60.4433 15.2472 70.5909 27.7648 70.5909H43.8219C56.3396 70.5909 66.4871 60.4433 66.4871 47.9257C66.4871 35.4081 56.3396 25.2605 43.8219 25.2605Z" fill="#3DD2E6"/>
<path d="M38.2807 2.59521H21.595C12.4849 2.59521 5.09961 9.98047 5.09961 19.0907V42.4961C5.09961 51.6062 12.4849 58.9915 21.595 58.9915H38.2807C47.3909 58.9915 54.7761 51.6062 54.7761 42.4961V19.0907C54.7761 9.98047 47.3909 2.59521 38.2807 2.59521Z" fill="url(#paint0_linear_118_2061)"/>
<defs>
<linearGradient id="paint0_linear_118_2061" x1="29.911" y1="9.83187" x2="9.02808" y2="29.4742" gradientUnits="userSpaceOnUse">
<stop stop-color="#0265FF"/>
<stop offset="1" stop-color="#0265FF" stop-opacity="0"/>
</linearGradient>
</defs>
</svg>
