<svg width="64" height="64" viewBox="0 0 64 64" fill="none" xmlns="http://www.w3.org/2000/svg">
<circle cx="32" cy="32" r="32" fill="#111214"/>
<path d="M49.1719 36.989C47.2679 34.4036 45.2824 31.7904 43.3785 29.205C44.8472 27.259 46.2616 25.3964 47.7031 23.4504C49.0087 21.6712 50.3686 19.9198 51.7286 18.1406L53.3333 16L50.7222 16.0556H45.7992C44.6296 16.0556 43.6776 16.0556 42.7801 16H42.5353C40.9849 16 39.8698 16.6394 38.9722 17.9738C38.0202 19.3638 37.0683 20.6982 35.9531 22.116C35.4907 22.6998 35.0555 23.2836 34.5932 23.8952L33.9948 24.7014L34.5932 25.5076C35.7899 27.1756 37.0139 28.788 38.2106 30.4004L40.4138 33.4028C39.5706 34.5426 38.6458 35.7102 37.7483 36.9056L37.1499 37.7118L37.7483 38.518C37.9386 38.796 38.1562 39.0462 38.3466 39.3242C38.8906 40.0748 39.4618 40.8255 39.9514 41.5205C40.4682 42.2155 41.1209 42.6047 41.9097 42.6047H50.6678L53.1429 42.5491L51.5926 40.464L49.1719 37.0168V36.989ZM25.2095 17.0842C24.6655 16.3336 24.0127 16 23.1423 16H11.5555L13.1603 18.1406C15.1186 20.726 17.0498 23.2836 18.9537 25.8134C20.8032 28.2876 22.68 30.7618 24.5567 33.236C20.776 38.3234 16.9954 43.3831 13.1875 48.5261L11.6371 50.6667H23.0608C24.1215 50.6667 24.7199 50.0829 25.0735 49.5825L25.1823 49.4713C28.8542 44.5785 32.6348 39.5466 36.3611 34.5982C36.8779 33.9588 37.2043 32.9302 36.3611 31.7626C32.2812 26.5084 28.6638 21.6712 25.2367 17.0564L25.2095 17.0842Z" fill="url(#paint0_linear_4897_1642)"/>
<defs>
<linearGradient id="paint0_linear_4897_1642" x1="11.5555" y1="33.3194" x2="53.3333" y2="33.3194" gradientUnits="userSpaceOnUse">
<stop stop-color="#E1FF66"/>
<stop offset="1" stop-color="#27FF93"/>
</linearGradient>
</defs>
</svg>
