<svg width="64" height="64" viewBox="0 0 64 64" fill="none" xmlns="http://www.w3.org/2000/svg">
<path d="M64 32C64 14.3269 49.6731 0 32 0C14.3269 0 0 14.3269 0 32C0 49.6731 14.3269 64 32 64C49.6731 64 64 49.6731 64 32Z" fill="white"/>
<path d="M52.3864 44.0384L45.0751 33.8652C44.2809 32.7596 43.1047 32.0974 41.8523 31.9513C41.5672 31.9176 41.3126 31.7481 41.17 31.4926C41.0249 31.2371 41.0096 30.9268 41.1242 30.6556C41.6257 29.472 41.6563 28.0979 41.1165 26.8413L36.1703 15.2706C35.4371 13.5525 33.7799 12.4445 31.9496 12.4445C30.1192 12.4445 28.462 13.5551 27.7288 15.2706L22.7825 26.8413C22.2454 28.0979 22.2734 29.472 22.7749 30.6556C22.8894 30.9268 22.8716 31.2371 22.729 31.4926C22.5839 31.7481 22.3319 31.9176 22.0468 31.9513C20.7943 32.0974 19.6182 32.7596 18.824 33.8652L11.5127 44.0384C10.4283 45.5479 10.3188 47.5711 11.2327 49.1953C12.1492 50.817 13.9159 51.7322 15.7335 51.5262L27.991 50.1288C29.3224 49.9776 30.4706 49.2657 31.2189 48.2282C31.3895 47.9909 31.6619 47.8501 31.9496 47.8501C32.2373 47.8501 32.5071 47.9909 32.6802 48.2282C33.4286 49.2657 34.5768 49.9776 35.9081 50.1288L48.1656 51.5262C49.9832 51.7348 51.7499 50.8196 52.6665 49.1953C53.5803 47.5711 53.4708 45.5479 52.3864 44.0384ZM25.9799 28.2935L30.9337 16.7098C31.112 16.2953 31.5117 16.0267 31.9521 16.0267C32.3926 16.0267 32.7921 16.2953 32.9703 16.7098L37.9243 28.2935C38.0796 28.6585 38.0465 29.0809 37.8326 29.4147C37.6188 29.7484 37.2573 29.949 36.8652 29.949H27.0363C26.6469 29.949 26.2829 29.7484 26.069 29.4147C25.8552 29.0809 25.8221 28.6585 25.9774 28.2935H25.9799ZM28.5231 45.9286C28.3474 46.2858 28.0063 46.5255 27.6193 46.5699L15.3491 47.9674C14.9112 48.017 14.4835 47.7979 14.2621 47.4068C14.0406 47.0157 14.0686 46.5281 14.3308 46.1633L21.6497 35.9796C21.8813 35.6589 22.253 35.4764 22.6425 35.4998C23.032 35.5207 23.3833 35.7423 23.5793 36.0889L23.5869 36.102L28.4875 44.7944L28.4951 44.8074C28.6911 45.1542 28.7013 45.5766 28.5257 45.9312L28.5231 45.9286ZM32.9576 41.997C32.749 42.3645 32.3671 42.5939 31.9496 42.5939C31.5346 42.5939 31.1501 42.3671 30.9414 41.9996L27.1763 35.3225C26.9676 34.9549 26.9676 34.4986 27.1763 34.131C27.3851 33.7635 27.767 33.534 28.1845 33.534H35.7121C36.1271 33.534 36.5115 33.7583 36.7203 34.1284C36.9289 34.4986 36.9289 34.9523 36.7203 35.3199L32.9576 41.997ZM49.6396 47.4068C49.4181 47.7979 48.9929 48.0196 48.5526 47.97L36.2824 46.5725C35.8954 46.5281 35.5542 46.2884 35.3786 45.9312C35.2029 45.574 35.2131 45.1516 35.4091 44.8074L35.4167 44.7944L40.3173 36.102L40.3249 36.0889C40.521 35.7423 40.8721 35.5207 41.2616 35.4998C41.6512 35.479 42.0229 35.6589 42.2545 35.9796L49.5734 46.1633C49.8356 46.5281 49.861 47.0157 49.6421 47.4068H49.6396Z" fill="#E81899"/>
</svg>
