<svg width="72" height="72" viewBox="0 0 72 72" fill="none" xmlns="http://www.w3.org/2000/svg">
<path d="M61.2 5.59961H10.8C8.14903 5.59961 6 7.74864 6 10.3996V60.7996C6 63.4506 8.14903 65.5996 10.8 65.5996H61.2C63.851 65.5996 66 63.4506 66 60.7996V10.3996C66 7.74864 63.851 5.59961 61.2 5.59961Z" fill="#E82EE0"/>
<path d="M56.7589 18.375H15.2422V23.55H20.5422C22.4672 23.55 24.0339 25.1083 24.0339 27.0417V51.125H29.2089V23.55H33.3339V55.6H38.5089V23.55H42.6339V51.125H47.8088V27.0417C47.8088 25.1167 49.3672 23.55 51.3005 23.55H56.7755V18.375H56.7589Z" fill="#FEFEFC"/>
</svg>
