<svg width="32" height="33" viewBox="0 0 32 33" fill="none" xmlns="http://www.w3.org/2000/svg">
<path d="M16.0127 32.0665C24.8422 32.0735 31.9943 24.9036 31.9873 16.0522C31.9803 7.20087 24.8168 0.019652 15.9873 0.0126601C7.15782 0.00566815 0.00567556 7.17555 0.0126766 16.0269C0.0196777 24.8783 7.18317 32.0595 16.0127 32.0665Z" fill="#0088CC"/>
<path d="M21.4522 8.96238L10.5342 8.95374C8.52673 8.95215 7.25601 11.122 8.26753 12.8777L15.0148 24.591C15.4551 25.3558 16.5569 25.3567 16.9963 24.5926L23.7267 12.89C24.7338 11.1388 23.4597 8.96397 21.4538 8.96239L21.4526 8.96238L21.4522 8.96238ZM15.0066 21.0799L13.5369 18.2318L9.99101 11.8806C9.75724 11.4741 10.0451 10.9535 10.5345 10.9539L14.9973 10.9575L15.0053 21.0815L15.0066 21.0802L15.0066 21.0799ZM21.9971 11.8885L18.4629 18.237L16.9977 21.0815L16.9897 10.9574L21.4525 10.961C21.9416 10.9614 22.2306 11.4824 21.9975 11.8885L21.9971 11.8885Z" fill="white"/>
</svg>
