<svg width="64" height="64" viewBox="0 0 64 64" fill="none" xmlns="http://www.w3.org/2000/svg">
<path d="M63.0034 32.0004C63.0034 14.8777 49.1227 0.996948 31.9999 0.996948C14.8772 0.996948 0.996521 14.8777 0.996521 32.0004C0.996521 49.1231 14.8772 63.0038 31.9999 63.0038C49.1227 63.0038 63.0034 49.1231 63.0034 32.0004Z" fill="white"/>
<circle cx="32" cy="32" r="32" fill="#10B68B"/>
<g clip-path="url(#clip0_4897_878)">
<path d="M54.6535 39.2855C54.637 39.2625 54.6205 39.2427 54.6041 39.2196C54.2448 38.7384 52.5607 36.6852 49.9208 36.6852C49.7395 36.6852 49.5549 36.6951 49.3737 36.7148C47.9894 36.8664 47.0106 37.5388 46.4734 37.9903C45.6396 37.3839 44.3344 36.7016 42.6503 36.7016H42.5448C42.1988 36.7082 41.8593 36.7478 41.5264 36.8071C41.6715 36.4611 41.767 36.0886 41.8033 35.6964C41.9879 33.6827 41.7242 31.8668 41.0123 30.298C40.1422 28.3864 38.8371 27.2725 37.789 26.3727C36.8629 25.5817 36.4839 25.2192 36.4707 24.8072C36.4477 24.2272 36.942 23.601 37.1167 23.4263C37.2848 23.2681 37.41 23.1923 37.8352 23.1923C38.2109 23.1923 38.702 23.2582 39.2721 23.334C40.1225 23.4494 41.1804 23.5911 42.4394 23.5911C43.2831 23.5911 44.1037 23.5285 44.9475 23.4032C46.0746 23.2351 48.4245 22.8825 50.9062 21.261C52.5574 20.18 53.9877 18.7331 55.161 16.9567C55.4675 16.492 55.5631 15.9218 55.428 15.3813C55.2896 14.8408 54.9336 14.386 54.4426 14.1224C54.2811 14.0367 50.4085 11.9966 45.6692 11.9966C43.9126 11.9966 42.2416 12.2767 40.7025 12.8304C40.6728 12.8403 40.6465 12.8469 40.6168 12.8601C38.1516 13.7433 36.24 15.2001 34.5526 16.4887C34.1736 16.7787 33.8012 17.0754 33.432 17.3819C33.0201 16.8447 32.5686 16.3437 32.0841 15.879C30.1594 14.0465 28.205 13.2984 27.2129 13.015C26.2671 12.748 25.2882 12.6096 24.3061 12.6096C23.3239 12.6096 22.3385 12.7447 21.3794 13.0117C20.8587 13.1567 20.4204 13.5093 20.1633 13.9872C19.9062 14.4651 19.8601 15.0254 20.0315 15.5395C20.8389 17.9784 22.0715 19.7252 23.6996 20.737C25.7529 22.0091 27.7007 22.6913 27.7831 22.7177C27.7831 22.7177 28.0698 22.8166 28.1357 22.8397C28.1226 22.8693 28.1127 22.8957 28.0995 22.9188C27.9874 23.1165 27.6315 23.1495 27.5425 23.156C27.3382 23.1429 27.1272 23.133 26.9064 23.133C25.5024 23.133 21.9298 23.4691 19.0955 26.5968C16.4753 29.4905 16.0732 33.0071 16.0238 34.3814C16.0238 34.4045 16.0238 34.4309 16.0238 34.4539V35.3405C16.0238 35.9469 16.1688 36.5171 16.4193 37.0213L8.88847 37.3641C7.83053 37.4135 7 38.2836 7 39.3383V42.7362C7 43.8271 7.88656 44.7137 8.97746 44.7137H9.23783V48.6554C9.23783 49.2486 9.50478 49.8122 9.96619 50.1879C10.3221 50.478 10.7638 50.6329 11.2153 50.6329C11.3471 50.6329 11.4822 50.6197 11.6141 50.5933L14.4418 50.01C15.3251 49.8287 15.9744 49.0707 16.0172 48.1676L16.1919 44.5126H16.3336C16.3567 44.9575 16.4094 45.4222 16.5149 45.9001C16.6994 46.7406 17.2564 49.2981 19.6327 50.6625C20.4896 51.1569 21.4684 51.4172 22.4637 51.4172C23.7227 51.4172 24.9685 50.9921 25.9671 50.2242C26.2143 50.033 26.4351 49.832 26.6362 49.6211C26.9262 49.7793 27.2525 49.8649 27.5887 49.8649H30.1857C30.9503 49.8649 31.6161 49.4299 31.9457 48.7905L32.44 49.5518C32.8091 50.1187 33.4353 50.4516 34.0978 50.4516C34.1868 50.4516 34.2758 50.445 34.3647 50.4351L37.3243 50.033C37.9275 49.9506 38.4317 49.6013 38.7349 49.1135C38.8305 49.1893 38.9261 49.2618 39.025 49.331C39.5852 49.7166 40.7454 50.3659 42.2317 50.3659C42.736 50.3659 43.237 50.2901 43.7181 50.1418C44.374 49.9407 44.9903 49.6079 45.5374 49.1596C46.0878 49.8386 46.8129 50.4351 47.7785 50.7943C48.3355 51.002 48.9189 51.1074 49.5154 51.1074C50.9622 51.1074 52.1256 50.4911 52.6859 50.1253C54.7589 48.7773 55.3489 46.5626 55.5433 45.8309C56.2025 43.3426 55.8861 41.0158 54.6502 39.2822L54.6535 39.2855Z" fill="white"/>
<path d="M8.97765 39.3385V42.7364H11.2155V48.6556L14.0432 48.0723L14.3069 42.5552L17.8597 42.5189V38.9364L8.98094 39.3385H8.97765Z" fill="#112731"/>
<path d="M27.9476 39.2296C27.9476 39.3746 27.5851 47.8909 27.5851 47.8909H30.1821L30.4128 42.8121L34.0975 48.4742L37.0571 48.0721L36.7605 38.6067L34.4567 38.3859L34.292 42.7692L30.6732 38.5671L27.9443 39.223L27.9476 39.2296Z" fill="#112731"/>
<path d="M53.0423 40.4359C52.95 40.3041 51.5922 38.4617 49.5883 38.6825C48.504 38.8012 47.7823 39.4603 47.4823 39.7405C46.1443 40.9962 45.5774 43.089 45.8707 44.9643C45.9267 45.3301 46.3684 48.1645 48.4678 48.9456C49.8915 49.4762 51.2 48.7379 51.6086 48.471C53.0456 47.5383 53.4707 45.9365 53.6322 45.3301C53.7773 44.783 54.4166 42.3672 53.039 40.4326L53.0423 40.4359ZM51.3647 45.5147C50.9429 46.1178 50.2112 46.4671 49.5224 46.3188C48.4216 46.0782 47.7328 44.6314 48.0097 43.4317C48.2272 42.5023 49.0445 41.6355 49.9509 41.7146C50.7946 41.7871 51.2692 42.6375 51.3647 42.8121C51.7372 43.4746 51.9811 44.6281 51.3647 45.518V45.5147Z" fill="#112731"/>
<path d="M43.9985 42.0775L45.8738 40.0605C45.5937 39.7836 44.3907 38.6499 42.5846 38.6795C42.1694 38.6861 40.6632 38.7389 39.4602 40.0605C37.9376 41.738 38.2045 44.0253 38.2441 44.3054C38.3166 44.836 38.6363 46.6619 40.1523 47.7033C40.5445 47.9769 41.731 48.6855 43.1449 48.2504C43.9853 47.9934 44.5324 47.4463 44.7895 47.1529L43.6063 44.7404C42.8812 45.4326 41.8167 45.4326 41.1411 44.7767C40.5412 44.1999 40.3501 43.2178 40.6797 42.3642C41.0125 41.5567 41.731 41.0525 42.489 41.0854C43.4349 41.1283 43.9524 41.9885 44.0018 42.0709L43.9985 42.0775Z" fill="#112731"/>
<path d="M25.3185 40.324C25.0054 39.9483 23.8189 38.5212 22.0293 38.6794C20.4935 38.8146 19.5608 40.0241 19.3663 40.2878C19.0994 40.7327 17.8766 42.8683 18.4435 45.4753C18.5918 46.1542 19.0005 48.0196 20.6154 48.9457C21.9139 49.6939 23.5552 49.5818 24.7582 48.6524C26.1721 47.5648 26.4028 45.8049 26.5016 45.0732C26.5972 44.3547 26.7785 42.0774 25.3185 40.324ZM23.1466 45.6236C22.5171 45.8444 21.792 45.6236 21.3372 45.0403C20.889 44.4668 20.7868 43.6494 21.0735 42.9573C21.4558 41.9752 22.3688 41.4742 23.1466 41.7148C23.8848 41.9422 24.2671 42.7728 24.3297 43.4319C24.4121 44.2888 24.0035 45.3237 23.1466 45.6236Z" fill="#112731"/>
<path d="M41.2828 14.7222C39.1043 15.5033 37.4136 16.7953 35.7525 18.0608C34.5726 18.9639 33.6432 19.7977 33.0104 20.4008C32.5984 19.6 31.8833 18.4234 30.7166 17.3127C28.9039 15.5824 27.0714 15.0353 26.6694 14.92C24.5601 14.3234 22.7902 14.6728 21.9037 14.92C22.7144 17.372 23.8251 18.4893 24.738 19.0562C26.6265 20.2262 28.4227 20.8491 28.4227 20.8491C29.0983 21.0831 29.7509 21.2577 30.0409 21.8971C30.4364 22.7606 29.863 23.812 29.8168 23.8911C29.095 25.1731 27.5592 25.1402 27.457 25.1336C26.9198 25.0874 23.334 24.86 20.5557 27.9251C18.2124 30.5155 18.0213 33.7091 17.9949 34.4573V35.3438C17.9949 36.2601 18.6639 36.9983 19.4879 36.9983H38.3496C39.1142 36.9983 39.7568 36.3589 39.8359 35.5152C40.0238 33.4916 39.6514 32.0876 39.213 31.1187C37.7629 27.9251 34.5924 27.3879 34.4935 24.8897C34.4309 23.2912 35.6701 22.0751 35.7525 21.9993C37.641 20.2031 39.8392 22.1773 44.6544 21.4522C45.8211 21.2775 47.7491 20.9644 49.8221 19.6099C51.6447 18.4168 52.8213 16.9139 53.5068 15.8725C53.5068 15.8725 47.2547 12.5338 41.2795 14.7288L41.2828 14.7222Z" fill="#10B68B"/>
<path d="M27.9722 35.0245C27.7547 35.3211 27.201 36.0726 26.3474 36.1286C25.0818 36.2143 24.2414 34.7015 24.1194 34.4741C23.5394 33.3799 23.5295 31.9595 24.1194 30.8356C24.6138 29.8996 25.7508 28.7494 26.8582 29.0559C27.7283 29.2965 28.1337 30.3149 28.3446 30.8356C28.8357 32.0649 28.8818 33.7919 27.9722 35.0245Z" fill="white"/>
<path d="M34.7397 31.03C35.3066 33.3007 33.5467 35.0014 33.4709 35.0739C33.2204 35.3046 32.113 36.3427 31.1078 35.9472C29.6741 35.3837 29.74 32.4307 29.7499 31.9791C29.7664 31.2541 29.8158 29.1052 31.0649 28.4922C31.6351 28.2121 32.2382 28.3604 32.5975 28.4922C32.7787 28.5713 34.2948 29.2535 34.743 31.0333L34.7397 31.03Z" fill="white"/>
<path d="M28.0696 30.5882C27.8257 30.2092 27.3873 29.9719 26.9325 29.9653C26.3393 29.9587 25.7625 30.3542 25.5285 30.9277C25.2912 31.511 25.4363 32.246 25.8713 32.6678C26.158 32.948 26.5568 33.0765 26.9358 33.0402C27.1435 33.0205 27.3478 32.9513 27.5225 32.8326C27.8949 32.5755 28.1948 32.1174 28.2805 31.6659C28.353 31.2836 28.2805 30.9112 28.0729 30.5915L28.0696 30.5882Z" fill="#112731"/>
<path d="M34.3281 30.3969C34.0843 30.0179 33.6459 29.7806 33.1911 29.774C32.5979 29.7674 32.0211 30.1629 31.7871 30.7364C31.5498 31.3197 31.6948 32.0547 32.1299 32.4765C32.4166 32.7567 32.8154 32.8852 33.1944 32.849C33.402 32.8292 33.6064 32.76 33.7811 32.6413C34.1535 32.3843 34.4534 31.9261 34.5391 31.4746C34.6116 31.0923 34.5391 30.7199 34.3314 30.4002L34.3281 30.3969Z" fill="#112731"/>
<path d="M33.2636 32.2787C33.6623 32.2787 33.9853 31.9558 33.9853 31.557C33.9853 31.1582 33.6623 30.8352 33.2636 30.8352C32.8648 30.8352 32.5418 31.1582 32.5418 31.557C32.5418 31.9558 32.8648 32.2787 33.2636 32.2787Z" fill="white"/>
<path d="M27.3424 32.2787C27.7148 32.2787 28.018 31.9558 28.018 31.557C28.018 31.1582 27.7148 30.8352 27.3424 30.8352C26.97 30.8352 26.6668 31.1582 26.6668 31.557C26.6668 31.9558 26.97 32.2787 27.3424 32.2787Z" fill="white"/>
</g>
<defs>
<clipPath id="clip0_4897_878">
<rect width="48.8828" height="39.4174" fill="white" transform="translate(7 12)"/>
</clipPath>
</defs>
</svg>
