<svg width="64" height="64" viewBox="0 0 64 64" fill="none" xmlns="http://www.w3.org/2000/svg">
<path d="M64 32C64 14.3269 49.6731 0 32 0C14.3269 0 0 14.3269 0 32C0 49.6731 14.3269 64 32 64C49.6731 64 64 49.6731 64 32Z" fill="#071927"/>
<path d="M22.2222 34.2252L34.7405 16.8889V29.642H41.7778L29.3949 47.1111V34.2252H22.2222Z" fill="#64C400"/>
<path fill-rule="evenodd" clip-rule="evenodd" d="M32 52.1636C43.1361 52.1636 52.1636 43.1361 52.1636 32C52.1636 20.864 43.1361 11.8364 32 11.8364C20.864 11.8364 11.8364 20.864 11.8364 32C11.8364 43.1361 20.864 52.1636 32 52.1636ZM32 55.1111C44.7639 55.1111 55.1111 44.7639 55.1111 32C55.1111 19.2361 44.7639 8.88892 32 8.88892C19.2361 8.88892 8.88892 19.2361 8.88892 32C8.88892 44.7639 19.2361 55.1111 32 55.1111Z" fill="#68D000"/>
</svg>
