<svg width="54" height="54" viewBox="0 0 54 54" fill="none" xmlns="http://www.w3.org/2000/svg">
<g clip-path="url(#clip0_879_2157)">
<path d="M54 0H0V54H54V0Z" fill="#C7F121"/>
<g clip-path="url(#clip1_879_2157)">
<path d="M42.0172 18.8184H39.3047V21.0825H42.0172V18.8184Z" fill="#F7E9BF"/>
<path d="M47.0092 25.1777L48.003 27.7408L47.0092 27.7557V29.2801H44.5283V25.1777H47.0092Z" fill="#F7E9BF"/>
<path d="M40.6344 20.6338V22.5243H40.0515L38.0938 23.2716V20.6338H40.6344Z" fill="#F7E9BF"/>
<path d="M43.9227 27.3223H41.8828H39.8428V29.4818H41.8828L45.2752 31.0734V29.4818H45.9627V27.3223H43.9227Z" fill="#F7E9BF"/>
<path d="M40.0517 31.6191V32.9567H41.7928L40.0517 35.6991H37.3467V31.6191H40.0517Z" fill="#232326"/>
<path d="M34.8354 17.3086H32.2051V19.9389H34.8354V17.3086Z" fill="#232326"/>
<path d="M12.2313 22.5234H10.4902V26.0056H12.2313V22.5234Z" fill="#16171C"/>
<path d="M43.5331 24.2646H41.792V26.0057H43.5331V24.2646Z" fill="#16171C"/>
<path d="M43.5329 20.783V15.5673H41.7918V13.8262H36.576V15.5673H34.835V17.3083H36.576V15.5673H41.7918V20.783H40.0507V22.5241H41.7918H43.5329H45.274V20.783H43.5329Z" fill="#16171C"/>
<path d="M47.0155 22.5234H45.2744V24.2645H47.0155V22.5234Z" fill="#16171C"/>
<path d="M48.7489 24.2646H47.0078V27.7468H48.7489V24.2646Z" fill="#16171C"/>
<path d="M45.2741 27.7392V29.4803H40.0509V27.7392H41.7919V25.9981H40.0509H38.3173V24.2645H40.0509V22.5234H36.5762V25.9981H38.3173V27.7392V29.4803V31.2139V32.955H40.0509V31.2139L45.2741 31.2214V29.4803H47.0077V27.7392H45.2741Z" fill="#16171C"/>
<path d="M15.7059 17.3008V19.0419H13.9648V20.7829H15.7059V19.0419H19.1881V17.3008H15.7059Z" fill="#16171C"/>
<path d="M36.576 19.0419V20.7829H34.8349V19.0419H33.1013V17.3008H29.6191V19.0419H33.0938V20.7829H33.1013H34.8349V22.524H36.576V20.7829H38.3171V19.0419H36.576Z" fill="#16171C"/>
<path d="M26.1376 31.2139V32.9549H17.4397V31.2139H15.7061V38.1707H27.8787V31.2139H26.1376ZM19.1882 36.4371L17.4471 36.4296V34.6886H19.1882V36.4371ZM20.9218 36.4371V34.696H22.6629V36.4371H20.9218ZM26.1376 36.4371H24.3965V34.696H26.1376V36.4371Z" fill="#16171C"/>
<path d="M15.7059 27.7393H17.447V25.9983H15.7059V24.2646H13.9648V25.9983H15.7059V27.7393H13.9648V29.4804H15.7059V27.7393Z" fill="#16171C"/>
<path d="M29.6192 25.9983V24.2646H27.8781V25.9983H26.1445V27.7393H27.8781V29.4804H29.6192V27.7393H27.8781V25.9983H29.6192Z" fill="#16171C"/>
<path d="M27.8785 15.5671V6.86914H24.4038V10.3513H26.1449V15.5671H20.9217V12.0849H19.1881V10.3513H17.447V8.61022H13.9648V12.0849H17.447V13.826H19.1881V17.3007H29.6196V15.5671H27.8785Z" fill="#16171C"/>
<path d="M13.9647 20.7832H12.2236V22.5243H13.9647V20.7832Z" fill="#16171C"/>
<path d="M41.7922 34.6962V32.9551H40.0511V34.6962H38.31V38.1708H36.5689V39.9119H34.8279V41.653H33.0868V43.3941H31.3457V45.1352H34.8204V43.3941H38.2951V41.653H41.7772V39.9119H43.5183V34.6962H41.7922Z" fill="#16171C"/>
<path d="M12.2312 39.9127V38.1716H12.2237V36.438H10.4901V25.999H8.74902V36.438H10.4901V38.1716V39.9127H12.2237V41.6538H13.9648V39.9127H12.2312Z" fill="#16171C"/>
<path d="M15.7059 41.6533H13.9648V43.3944H15.7059V41.6533Z" fill="#16171C"/>
<path d="M19.1807 43.3945H15.7061V45.1356H19.1807V43.3945Z" fill="#16171C"/>
<path d="M31.3611 45.1357H19.1885V46.8768H31.3611V45.1357Z" fill="#16171C"/>
<path d="M38.3182 20.7832H36.5771V22.5243H38.3182V20.7832Z" fill="white"/>
<path d="M45.2752 24.2655V22.5244H43.5341H41.793H40.0594V24.2655H40.052H38.3184V25.9991H40.052H41.793V24.2655H43.5341V25.9991H41.793V27.7402H43.5341H45.2752V25.9991H47.0088V24.2655H45.2752Z" fill="white"/>
<path d="M36.577 15.5674V17.301V17.3085V17.301H34.8359V20.7831H36.577V19.0421H38.3181V20.7831H40.0592V19.0421H41.7928V17.3085V15.5674H36.577Z" fill="white"/>
<path d="M19.1883 34.6973H17.4473V36.4383H19.1883V34.6973Z" fill="white"/>
<path d="M26.1454 34.6973H24.4043V36.4383H26.1454V34.6973Z" fill="white"/>
<path d="M22.663 34.6973H20.9219V36.4383H22.663V34.6973Z" fill="white"/>
<path d="M36.5765 22.524H34.8355V20.7829H33.0944V19.0419H29.6197V17.3008H19.1882V19.0419H17.4471H15.706V20.7829H13.9649V22.524H12.2313V24.2651V25.9987H10.4902V36.4302H12.2313V38.1713H13.9724V39.9124H17.4471V41.6535H31.3608V39.9124H33.1019V38.1713V36.4302H34.8429V34.6892H36.584L36.5765 22.524ZM26.145 25.9987H27.8786V27.7398H26.1375V25.9987H26.145ZM13.9649 24.2651H15.706V25.9987H17.4471V27.7398H15.706V25.9987H13.9649V24.2651ZM13.9649 29.4809V27.7398H15.706V29.4809H13.9649ZM27.8786 32.9556V34.6966V36.4377V38.1788H26.1375H24.3965H22.6554H20.9143H19.1732H17.4321H15.706V36.4377V34.6966V32.9556V31.2145H17.4471V32.9556H19.1882H20.9292H22.6703H24.4114H26.1525V31.2145H27.8786V32.9556ZM29.6197 27.7398V29.4809H27.8786V27.7398H29.6197ZM29.6197 25.9987H27.8786V24.2576H29.6197V25.9987Z" fill="#FFD745"/>
<path d="M13.9647 38.1719H12.2236V39.913H13.9647V38.1719Z" fill="#ED8F3A"/>
<path d="M36.5765 25.999V34.6969H34.8354V36.438H33.0943V38.1791V39.9202H31.3532V41.6613H17.447V39.9202H13.9648V41.6613H15.7059V43.4023H19.1806V45.1434H31.3532V43.4023H33.0943V41.6613H34.8354V39.9202H36.5765V38.1791H38.3175V25.999H36.5765Z" fill="#ED8F3A"/>
</g>
</g>
<defs>
<clipPath id="clip0_879_2157">
<rect width="54" height="54" rx="12" fill="white"/>
</clipPath>
<clipPath id="clip1_879_2157">
<rect width="40" height="40" fill="white" transform="translate(8.75 6.87012)"/>
</clipPath>
</defs>
</svg>