<svg width="64" height="64" viewBox="0 0 64 64" fill="none" xmlns="http://www.w3.org/2000/svg">
<circle cx="32" cy="32" r="32" fill="black"/>
<path d="M21.8832 17.3698H13.3632C12.8557 17.3698 12.4443 17.78 12.4443 18.2859V26.781C12.4443 27.2869 12.8557 27.6971 13.3632 27.6971H21.8832C22.3906 27.6971 22.802 27.2869 22.802 26.781V18.2859C22.802 17.78 22.3906 17.3698 21.8832 17.3698Z" fill="white"/>
<path d="M32.0726 27.197H23.5526C23.0452 27.197 22.6338 27.6072 22.6338 28.1132V36.6082C22.6338 37.1142 23.0452 37.5243 23.5526 37.5243H32.0726C32.5801 37.5243 32.9915 37.1142 32.9915 36.6082V28.1132C32.9915 27.6072 32.5801 27.197 32.0726 27.197Z" fill="white"/>
<path d="M21.8832 37.1918H13.3632C12.8557 37.1918 12.4443 37.602 12.4443 38.108V46.603C12.4443 47.109 12.8557 47.5191 13.3632 47.5191H21.8832C22.3906 47.5191 22.802 47.109 22.802 46.603V38.108C22.802 37.602 22.3906 37.1918 21.8832 37.1918Z" fill="white"/>
<path d="M42.4305 17.3699H33.9105C33.4031 17.3699 32.9917 17.7801 32.9917 18.2861V26.7811C32.9917 27.2871 33.4031 27.6972 33.9105 27.6972H42.4305C42.938 27.6972 43.3494 27.2871 43.3494 26.7811V18.2861C43.3494 17.7801 42.938 17.3699 42.4305 17.3699Z" fill="white"/>
<path d="M42.4305 37.1918H33.9105C33.4031 37.1918 32.9917 37.602 32.9917 38.108V46.603C32.9917 47.109 33.4031 47.5191 33.9105 47.5191H42.4305C42.938 47.5191 43.3494 47.109 43.3494 46.603V38.108C43.3494 37.602 42.938 37.1918 42.4305 37.1918Z" fill="white"/>
<path d="M47.1283 17.3698H44.8525V27.6971H47.1283C47.6362 27.6971 48.0471 27.2874 48.0471 26.781V18.2859C48.0471 17.7796 47.6362 17.3698 47.1283 17.3698Z" fill="white"/>
<path d="M50.6362 17.3698H49.5503V27.6971H50.6362C51.144 27.6971 51.555 27.2874 51.555 26.781V18.2859C51.555 17.7796 51.144 17.3698 50.6362 17.3698Z" fill="white"/>
<path d="M47.1283 37.1918H44.8525V47.5191H47.1283C47.6362 47.5191 48.0471 47.1093 48.0471 46.603V38.1063C48.0471 37.5999 47.6362 37.1901 47.1283 37.1901V37.1918Z" fill="white"/>
<path d="M50.6362 37.1918H49.5503V47.5191H50.6362C51.144 47.5191 51.555 47.1093 51.555 46.603V38.1063C51.555 37.5999 51.144 37.1901 50.6362 37.1901V37.1918Z" fill="white"/>
</svg>
