<svg width="64" height="64" viewBox="0 0 64 64" fill="none" xmlns="http://www.w3.org/2000/svg">
<path d="M64 31.9957C64 48.0715 52.1533 61.3741 36.7188 63.6534C35.4535 63.844 34.1709 63.9567 32.8623 63.9913H32.4983C32.3337 64 32.169 64 32.0043 64C30.8691 64 29.7425 63.9393 28.6332 63.8267C12.54 62.1454 0 48.5395 0 31.9957C0 14.3253 14.3253 0 32.0043 0C49.6834 0 64 14.3253 64 31.9957Z" fill="black"/>
<path fill-rule="evenodd" clip-rule="evenodd" d="M48.6526 46.6803C48.4056 46.8209 48.1519 46.9495 47.8925 47.0656C47.6244 47.1916 47.3498 47.3029 47.0697 47.399L47.043 47.4083C46.1007 47.7588 45.1051 47.9446 44.0998 47.9577C43.2605 47.9659 42.4289 47.7969 41.6594 47.4616C39.8644 46.6616 38.6949 45.0256 38.1762 42.5949C37.5681 39.7242 38.6376 35.4961 41.0446 31.1573L37.1227 32.272C37.1227 32.272 38.3215 28.2386 42.2835 25.4959C45.9415 22.9651 48.2445 22.7585 50.1809 22.5865L50.3809 22.5678C51.602 22.4657 52.8293 22.4631 54.0508 22.5598C52.1997 18.2398 49.1225 14.5572 45.2 11.9676C41.2802 9.38061 36.6871 8.0012 31.9904 8.00049C27.2937 7.99978 22.7001 9.37779 18.7796 11.9636C14.8589 14.5503 11.7784 18.2304 9.92473 22.5505C11.1169 22.4625 12.3131 22.4678 13.504 22.5678L13.7067 22.5865C15.6404 22.7598 17.9447 22.9651 21.6014 25.4959C25.5647 28.2386 26.7649 32.272 26.7649 32.272L22.8402 31.1573C25.2486 35.4961 26.3182 39.7242 25.7101 42.5949C25.1926 45.0256 24.0164 46.6616 22.2268 47.4616C21.4574 47.797 20.6257 47.9661 19.7864 47.9577C18.7811 47.9446 17.7855 47.7588 16.8432 47.4083L16.8166 47.399C16.536 47.3029 16.2609 47.1917 15.9924 47.0656C15.7336 46.9487 15.4804 46.8197 15.2336 46.679C14.5935 46.331 12.6412 45.1496 11.389 44.3856C13.352 47.6713 16.072 50.4403 19.3223 52.4618C22.5702 54.4815 26.2542 55.6948 30.0668 56.0005V23.7412L26.9063 24.6478L32.0098 10.1822L37.1133 24.6492L33.9528 23.7412V55.9952C37.7743 55.6811 41.4648 54.4553 44.7146 52.4204C47.9658 50.384 50.682 47.5988 52.6359 44.2976C51.3997 45.0549 49.318 46.3176 48.6526 46.6803ZM55.9965 32.04C56.0008 28.801 55.3489 25.5947 54.0802 22.6145L51.7425 24.1772C47.3977 28.0866 45.0213 31.96 43.7958 34.52C41.6567 38.9868 41.9995 41.3362 42.0902 41.7602C42.3249 42.8642 42.7249 43.5509 43.2824 43.8002C43.5357 43.9016 43.8078 43.9509 44.0825 43.9416C44.5383 43.9313 44.9902 43.8549 45.4241 43.7149H45.4281C45.5227 43.6776 45.9121 43.5269 46.7163 43.1722C49.0513 42.1455 53.2934 39.2121 53.6774 38.9455L53.7041 38.9268L55.2484 37.8468L54.911 39.1975C55.6311 36.8801 55.9978 34.4667 55.9965 32.0387V32.04ZM10.1954 38.9348L10.1874 38.9281L8.71652 37.8988C7.44964 32.8293 7.86305 27.4826 9.89006 22.6665L12.1478 24.1798C16.4925 28.0906 18.8676 31.964 20.0931 34.524C22.2321 38.9895 21.8894 41.3415 21.8001 41.7642C21.5667 42.8682 21.164 43.5549 20.6065 43.8042C20.3532 43.9056 20.0811 43.9536 19.8091 43.9456C19.3524 43.9356 18.8996 43.8592 18.4648 43.7189C18.3715 43.6816 17.9821 43.5309 17.1766 43.1762C14.7909 42.1255 10.4168 39.0881 10.1968 38.9361L10.1954 38.9348Z" fill="#9AFF25"/>
</svg>
