<svg width="70" height="70" viewBox="0 0 70 70" fill="none" xmlns="http://www.w3.org/2000/svg">
<path d="M35 1.5C53.5013 1.5 68.5 16.4967 68.5 34.9961C68.4998 53.4953 53.5012 68.4912 35 68.4912C16.4988 68.4912 1.50021 53.4953 1.5 34.9961C1.5 16.4967 16.4987 1.5 35 1.5Z" fill="white" stroke="#FBFBFB" stroke-width="3"/>
<path fill-rule="evenodd" clip-rule="evenodd" d="M3 35.0016C3 17.3272 17.3275 3 34.9993 3C52.674 3 67.0016 17.3272 67 35C67 41.26 65.2019 47.0994 62.0955 52.0306C61.239 53.3892 60.2849 54.6788 59.2394 55.891L35.0416 31.6938L14.2337 52.4998L10.7983 55.9352C9.74967 54.726 8.79242 53.438 7.93591 52.081C4.80905 47.1404 3 41.282 3 35.0016ZM58.427 47.471L58.7199 46.8854L58.7215 46.887C60.5573 43.2248 61.5272 39.114 61.5272 35.0016C61.5272 20.3753 49.6274 8.47584 35.0007 8.47584C20.3741 8.47584 8.47595 20.3753 8.47595 35.0016C8.47595 39.136 9.45526 43.2642 11.3084 46.9404L11.6028 47.523L35.0416 24.0846L58.427 47.471ZM35.0005 67C42.9673 67 50.2555 64.089 55.8572 59.2712L35.043 38.4558L14.1894 59.3074C19.7834 64.1046 27.0337 67 35.0005 67Z" fill="url(#paint0_linear_4897_3438)"/>
<defs>
<linearGradient id="paint0_linear_4897_3438" x1="34.9999" y1="3" x2="35.0944" y2="67" gradientUnits="userSpaceOnUse">
<stop stop-color="#169E00"/>
<stop offset="0.49" stop-color="#00C537"/>
<stop offset="1" stop-color="#00B1C9"/>
</linearGradient>
</defs>
</svg>
