<svg width="72" height="72" viewBox="0 0 72 72" fill="none" xmlns="http://www.w3.org/2000/svg">
<g clip-path="url(#clip0_254_7242)">
<circle cx="36" cy="36" r="36" fill="url(#paint0_linear_254_7242)"/>
<path d="M47.11 44.7897L57.9778 38.5483C58.5539 38.2167 58.91 37.6018 58.91 36.9419V24.4589C58.91 23.799 58.5539 23.1842 57.9778 22.8526L47.11 16.6111C46.5338 16.2795 45.8186 16.2828 45.2457 16.6111L34.3777 22.8526C33.8018 23.1842 33.4457 23.799 33.4457 24.4589V46.7662L25.8239 51.1407L18.2021 46.7662V38.014L25.8239 33.6394L30.8502 36.5267V30.6553L26.7559 28.3023C26.4744 28.1414 26.1509 28.0545 25.8239 28.0545C25.497 28.0545 25.1735 28.1414 24.8919 28.3023L14.0239 34.5438C13.4478 34.8754 13.0918 35.4903 13.0918 36.1502V48.6333C13.0918 49.2931 13.4478 49.9078 14.0239 50.2394L24.8919 56.4811C25.4679 56.8093 26.18 56.8093 26.7559 56.4811L37.6239 50.2394C38.2001 49.9078 38.556 49.2931 38.556 48.6333V26.3227L38.6919 26.2454L46.1746 21.9481L53.7965 26.3227V35.075L46.1746 39.4496L41.1548 36.5685V42.44L45.2424 44.7866C45.8186 45.1149 46.5338 45.1149 47.1067 44.7866L47.11 44.7897Z" fill="white"/>
</g>
<defs>
<linearGradient id="paint0_linear_254_7242" x1="-0.233953" y1="59.7437" x2="72.8777" y2="22.1563" gradientUnits="userSpaceOnUse">
<stop stop-color="#A726C1"/>
<stop offset="0.88" stop-color="#803BDF"/>
<stop offset="1" stop-color="#7B3FE4"/>
</linearGradient>
<clipPath id="clip0_254_7242">
<rect width="72" height="72" fill="white"/>
</clipPath>
</defs>
</svg>
