<svg width="14" height="14" viewBox="0 0 14 14" fill="none" xmlns="http://www.w3.org/2000/svg">
<path d="M6.00582 11.2109C4.8718 11.2109 3.94922 10.3157 3.94922 9.21533" stroke="black" stroke-linecap="round" stroke-linejoin="round"/>
<path d="M12.2904 5.1739C12.2904 6.65232 11.0746 7.85083 9.57488 7.85083C8.07513 7.85083 6.85938 6.65232 6.85938 5.1739C6.85938 3.23113 9.57488 0.546875 9.57488 0.546875C9.57488 0.546875 12.2904 3.23116 12.2904 5.1739Z" stroke="black" stroke-linecap="round" stroke-linejoin="round"/>
<path d="M7.37782 3.41135C6.61666 2.49421 6.00582 1.89038 6.00582 1.89038C6.00582 1.89038 1.70703 6.13976 1.70703 9.21528C1.70703 11.5557 3.63168 13.453 6.00582 13.453C6.70424 13.453 7.36374 13.2888 7.94679 12.9975" stroke="black" stroke-linecap="round" stroke-linejoin="round"/>
<path d="M9.87891 11.0606C10.153 10.5028 10.3067 9.87679 10.3067 9.2154C10.3067 8.77227 10.2175 8.30477 10.0647 7.8291" stroke="black" stroke-linecap="round" stroke-linejoin="round"/>
</svg>
