<svg width="14" height="14" viewBox="0 0 14 14" fill="none" xmlns="http://www.w3.org/2000/svg">
<path d="M1.75 5.25008C1.75 5.09537 1.81146 4.947 1.92085 4.8376C2.03025 4.72821 2.17862 4.66675 2.33333 4.66675H11.6667C11.8214 4.66675 11.9697 4.72821 12.0791 4.8376C12.1885 4.947 12.25 5.09537 12.25 5.25008V6.41675C12.25 6.57146 12.1885 6.71983 12.0791 6.82923C11.9697 6.93862 11.8214 7.00008 11.6667 7.00008H2.33333C2.17862 7.00008 2.03025 6.93862 1.92085 6.82923C1.81146 6.71983 1.75 6.57146 1.75 6.41675V5.25008Z" stroke="black" stroke-linecap="round" stroke-linejoin="round"/>
<path d="M7 4.66675V12.2501" stroke="black" stroke-linecap="round" stroke-linejoin="round"/>
<path d="M11.0846 7V11.0833C11.0846 11.3928 10.9617 11.6895 10.7429 11.9083C10.5241 12.1271 10.2274 12.25 9.91797 12.25H4.08464C3.77522 12.25 3.47847 12.1271 3.25968 11.9083C3.04089 11.6895 2.91797 11.3928 2.91797 11.0833V7" stroke="black" stroke-linecap="round" stroke-linejoin="round"/>
<path d="M4.3763 4.66668C3.98953 4.66668 3.6186 4.51303 3.3451 4.23954C3.07161 3.96605 2.91797 3.59512 2.91797 3.20834C2.91797 2.82157 3.07161 2.45064 3.3451 2.17715C3.6186 1.90366 3.98953 1.75001 4.3763 1.75001C4.93904 1.74021 5.49048 2.01325 5.95873 2.53352C6.42698 3.0538 6.7903 3.79716 7.0013 4.66668C7.21231 3.79716 7.57562 3.0538 8.04387 2.53352C8.51212 2.01325 9.06357 1.74021 9.6263 1.75001C10.0131 1.75001 10.384 1.90366 10.6575 2.17715C10.931 2.45064 11.0846 2.82157 11.0846 3.20834C11.0846 3.59512 10.931 3.96605 10.6575 4.23954C10.384 4.51303 10.0131 4.66668 9.6263 4.66668" stroke="black" stroke-linecap="round" stroke-linejoin="round"/>
</svg>
