<svg width="14" height="14" viewBox="0 0 14 14" fill="none" xmlns="http://www.w3.org/2000/svg">
<path d="M2.33203 8.5201L4.66536 6.18677" stroke="black" stroke-linecap="round" stroke-linejoin="round"/>
<path d="M5.53906 11.7284L7.87473 9.39502" stroke="black" stroke-linecap="round" stroke-linejoin="round"/>
<path d="M2.67578 11.3867L4.95895 9.10352" stroke="black" stroke-linecap="round" stroke-linejoin="round"/>
<path d="M4.66797 3.56169C4.66797 3.25227 4.79089 2.95552 5.00968 2.73673C5.22847 2.51794 5.52522 2.39502 5.83464 2.39502H10.5013C10.8107 2.39502 11.1075 2.51794 11.3263 2.73673C11.5451 2.95552 11.668 3.25227 11.668 3.56169V8.22835C11.668 8.53777 11.5451 8.83452 11.3263 9.05331C11.1075 9.2721 10.8107 9.39502 10.5013 9.39502H5.83464C5.52522 9.39502 5.22847 9.2721 5.00968 9.05331C4.79089 8.83452 4.66797 8.53777 4.66797 8.22835V3.56169Z" stroke="black" stroke-linecap="round" stroke-linejoin="round"/>
<path d="M9.33203 9.39518V10.5618C9.33203 10.8713 9.20911 11.168 8.99032 11.3868C8.77153 11.6056 8.47478 11.7285 8.16536 11.7285H3.4987C3.18928 11.7285 2.89253 11.6056 2.67374 11.3868C2.45495 11.168 2.33203 10.8713 2.33203 10.5618V5.89518C2.33203 5.58576 2.45495 5.28902 2.67374 5.07022C2.89253 4.85143 3.18928 4.72852 3.4987 4.72852H4.66536" stroke="black" stroke-linecap="round" stroke-linejoin="round"/>
</svg>
