<svg width="24" height="24" viewBox="0 0 24 24" fill="none" xmlns="http://www.w3.org/2000/svg">
<path d="M14.3433 15.5156C14.3433 18.7517 11.7199 21.4141 8.48389 21.4141C5.24783 21.4141 2.58545 18.7517 2.58545 15.5156C2.58545 12.2796 5.24783 9.65625 8.48389 9.65625C11.7199 9.65625 14.3433 12.2796 14.3433 15.5156Z" stroke="#07A0B8" stroke-linecap="round" stroke-linejoin="round"/>
<path d="M5.99805 15.5156L8.48398 13.0297L10.9699 15.5156L8.48398 18.0016L5.99805 15.5156Z" stroke="#07A0B8" stroke-linecap="round" stroke-linejoin="round"/>
<path d="M9.80541 9.8059C9.70748 9.38117 9.65576 8.93883 9.65576 8.48438C9.65576 5.24836 12.2791 2.58594 15.5151 2.58594C18.7512 2.58594 21.4136 5.24836 21.4136 8.48438C21.4136 11.7204 18.7512 14.3438 15.5151 14.3438C15.0607 14.3438 14.6183 14.292 14.1936 14.1941" stroke="#07A0B8" stroke-linecap="round" stroke-linejoin="round"/>
<path d="M13.0288 8.4844L15.5147 5.99846L18.0006 8.4844L15.5147 10.9703L13.0288 8.4844Z" stroke="#07A0B8" stroke-linecap="round" stroke-linejoin="round"/>
</svg>
