<svg width="24" height="24" viewBox="0 0 24 24" fill="none" xmlns="http://www.w3.org/2000/svg">
<path d="M17.5116 16.5087H6.48844C4.33316 16.5087 2.58594 14.7614 2.58594 12.6062C2.58594 10.4509 4.33316 8.70367 6.48844 8.70367H17.5116C19.6669 8.70367 21.4141 10.4509 21.4141 12.6062C21.4141 14.7614 19.6669 16.5087 17.5116 16.5087Z" stroke="#07A0B8" stroke-linecap="round" stroke-linejoin="round"/>
<path d="M19.2652 12.606H8.82812" stroke="#07A0B8" stroke-linecap="round" stroke-linejoin="round"/>
<path d="M5.71094 12.606H4.73438" stroke="#07A0B8" stroke-linecap="round" stroke-linejoin="round"/>
<path d="M8.8284 12.6062C8.8284 13.4671 8.13055 14.1649 7.26969 14.1649C6.40883 14.1649 5.71094 13.4671 5.71094 12.6062C5.71094 11.7453 6.40883 11.0475 7.26969 11.0475C8.13055 11.0475 8.8284 11.7453 8.8284 12.6062Z" stroke="#07A0B8" stroke-linecap="round" stroke-linejoin="round"/>
<path d="M6.62061 20.0242V18.9423" stroke="#07A0B8" stroke-linecap="round" stroke-linejoin="round"/>
<path d="M3.93066 20.0243V18.9424" stroke="#07A0B8" stroke-linecap="round" stroke-linejoin="round"/>
<path d="M9.31006 20.0243V18.9424" stroke="#07A0B8" stroke-linecap="round" stroke-linejoin="round"/>
<path d="M12 20.0243V18.9424" stroke="#07A0B8" stroke-linecap="round" stroke-linejoin="round"/>
<path d="M14.6895 20.0243V18.9424" stroke="#07A0B8" stroke-linecap="round" stroke-linejoin="round"/>
<path d="M17.3794 20.0243V18.9424" stroke="#07A0B8" stroke-linecap="round" stroke-linejoin="round"/>
<path d="M20.0693 20.0243V18.9424" stroke="#07A0B8" stroke-linecap="round" stroke-linejoin="round"/>
<path d="M21.4137 5.46178L20.1396 6.73584" stroke="#07A0B8" stroke-linecap="round" stroke-linejoin="round"/>
<path d="M21.4137 5.46179L20.1396 4.18769" stroke="#07A0B8" stroke-linecap="round" stroke-linejoin="round"/>
<path d="M21.4141 5.46179H2.58594" stroke="#07A0B8" stroke-linecap="round" stroke-linejoin="round"/>
<path d="M2.58594 5.46178L3.86004 6.73584" stroke="#07A0B8" stroke-linecap="round" stroke-linejoin="round"/>
<path d="M2.58594 5.46179L3.86004 4.18769" stroke="#07A0B8" stroke-linecap="round" stroke-linejoin="round"/>
</svg>
