<svg width="24" height="24" viewBox="0 0 24 24" fill="none" xmlns="http://www.w3.org/2000/svg">
<path d="M8 16.9974H5.5C4.11929 16.9974 3 15.8781 3 14.4974V6.00085" stroke="#07A0B8" stroke-linecap="round" stroke-linejoin="round"/>
<path d="M15 9V4C15 3.44772 14.5523 3 14 3H6.0008C5.20494 3 4.44167 3.31616 3.87891 3.87892C3.31615 4.44169 3 5.20496 3 6.00082V6.00082C3 7.65812 4.3435 9.00162 6.0008 9.00162H18.5008C19.1636 9.00161 19.7993 9.26491 20.268 9.7336C20.7367 10.2023 21 10.838 21 11.5008V11.5008C21.0012 12.1631 20.7391 12.7986 20.2713 13.2674C19.8035 13.7363 19.1685 13.9998 18.5062 14H8.99562C8.73085 14.0002 8.47704 14.1057 8.29023 14.2933C8.10341 14.481 7.99896 14.7352 7.99994 15L8 20C8 20.5523 8.44772 21 9 21H18.5C19.8807 21 21 19.8807 21 18.5V11.5008" stroke="#07A0B8" stroke-linecap="round" stroke-linejoin="round"/>
</svg>
