<svg width="24" height="24" viewBox="0 0 24 24" fill="none" xmlns="http://www.w3.org/2000/svg">
<path d="M15.7578 9.96462C15.5371 9.37676 14.9753 8.98742 14.3472 8.98742H9.6567C9.029 8.98742 8.46716 9.37676 8.24651 9.96462C7.60672 11.6708 6.35352 15.0125 6.35352 15.0125H17.6504C17.6504 15.0125 16.3975 11.6708 15.7578 9.96462Z" stroke="#07A0B8" stroke-linecap="round" stroke-linejoin="round"/>
<path d="M6.35283 6.72791L5.22314 5.59822" stroke="#07A0B8" stroke-linecap="round" stroke-linejoin="round"/>
<path d="M17.6504 6.72791L18.7801 5.59822" stroke="#07A0B8" stroke-linecap="round" stroke-linejoin="round"/>
<path d="M12.002 4.46863V2.96239" stroke="#07A0B8" stroke-linecap="round" stroke-linejoin="round"/>
<path d="M10.1093 15.9895C9.88869 15.4017 9.32689 15.0123 8.69876 15.0123H4.00826C3.38056 15.0123 2.81872 15.4017 2.59808 15.9895C1.95828 17.6957 0.705078 21.0374 0.705078 21.0374H12.002C12.002 21.0374 10.7491 17.6957 10.1093 15.9895Z" stroke="#07A0B8" stroke-linecap="round" stroke-linejoin="round"/>
<path d="M13.895 15.9895C14.1156 15.4017 14.6774 15.0123 15.3051 15.0123H19.9956C20.6238 15.0123 21.1856 15.4017 21.4062 15.9895C22.046 17.6957 23.2988 21.0374 23.2988 21.0374H12.002C12.002 21.0374 13.2552 17.6957 13.895 15.9895Z" stroke="#07A0B8" stroke-linecap="round" stroke-linejoin="round"/>
</svg>
