<svg width="24" height="24" viewBox="0 0 24 24" fill="none" xmlns="http://www.w3.org/2000/svg">
<g clip-path="url(#clip0_6204_7002)">
<path d="M10.2981 19.2188C8.35402 19.2188 6.77246 17.6841 6.77246 15.7979" stroke="#07A0B8" stroke-linecap="round" stroke-linejoin="round"/>
<path d="M21.0701 8.86955C21.0701 11.404 18.9859 13.4586 16.4149 13.4586C13.8439 13.4586 11.7598 11.404 11.7598 8.86955C11.7598 5.53908 16.4149 0.9375 16.4149 0.9375C16.4149 0.9375 21.0701 5.53912 21.0701 8.86955Z" stroke="#07A0B8" stroke-linecap="round" stroke-linejoin="round"/>
<path d="M12.6506 5.84822C11.3457 4.27599 10.2986 3.24084 10.2986 3.24084C10.2986 3.24084 2.9292 10.5255 2.9292 15.7978C2.9292 19.81 6.22859 23.0625 10.2986 23.0625C11.4958 23.0625 12.6264 22.7811 13.6259 22.2816" stroke="#07A0B8" stroke-linecap="round" stroke-linejoin="round"/>
<path d="M16.9346 18.961C17.4045 18.0047 17.668 16.9316 17.668 15.7978C17.668 15.0381 17.515 14.2367 17.2531 13.4213" stroke="#07A0B8" stroke-linecap="round" stroke-linejoin="round"/>
</g>
<defs>
<clipPath id="clip0_6204_7002">
<rect width="24" height="24" fill="white"/>
</clipPath>
</defs>
</svg>
